<svg width="1065" height="1065" viewBox="0 0 1065 1065" fill="none" xmlns="http://www.w3.org/2000/svg">
<path d="M415.066 427.342H560.385V727.837H673V772H391V727.837H503.615V471.505H415.066V427.342ZM503.615 293H560.385V364.649H503.615V293Z" fill="white"/>
<path d="M865.586 532.5C865.586 348.541 716.459 199.414 532.5 199.414C348.541 199.414 199.414 348.541 199.414 532.5C199.414 716.459 348.541 865.586 532.5 865.586C716.459 865.586 865.586 716.459 865.586 532.5ZM930 532.5C930 752.033 752.033 930 532.5 930C312.967 930 135 752.033 135 532.5C135 312.967 312.967 135 532.5 135C752.033 135 930 312.967 930 532.5Z" fill="white"/>
<path d="M1000.66 532.5C1000.66 273.942 791.058 64.3402 532.5 64.3402C273.942 64.3402 64.3402 273.942 64.3402 532.5C64.3402 791.058 273.942 1000.66 532.5 1000.66C791.058 1000.66 1000.66 791.058 1000.66 532.5ZM1065 532.5C1065 826.592 826.592 1065 532.5 1065C238.408 1065 0 826.592 0 532.5C0 238.408 238.408 0 532.5 0C826.592 0 1065 238.408 1065 532.5Z" fill="white"/>
</svg>
