<svg width="1009" height="223" viewBox="0 0 1009 223" fill="none" xmlns="http://www.w3.org/2000/svg">
<path d="M946.491 80.7642L937.786 132.997H904.415L919.891 40.1388H951.57L948.668 57.7915H949.635C952.577 51.867 956.869 47.2523 962.512 43.9474C968.195 40.6023 974.462 38.9297 981.313 38.9297C987.883 38.9297 993.344 40.4209 997.696 43.4033C1002.05 46.3858 1005.13 50.4966 1006.95 55.736C1008.76 60.9754 1009.08 66.9806 1007.91 73.7515L997.999 132.997H964.628L973.333 80.7642C974.099 76.1697 973.535 72.5626 971.641 69.9429C969.787 67.3232 966.724 66.0133 962.451 66.0133C959.751 66.0133 957.273 66.6179 955.016 67.827C952.799 68.9958 950.945 70.6885 949.454 72.9052C948.003 75.0815 947.015 77.7012 946.491 80.7642Z" fill="#FFF2AA"/>
<path d="M829.228 134.448C823.343 134.448 818.285 133.481 814.054 131.546C809.862 129.571 806.799 126.589 804.865 122.599C802.97 118.569 802.547 113.49 803.595 107.364C804.441 102.286 806.033 97.9535 808.371 94.3665C810.708 90.7796 813.61 87.8374 817.076 85.5402C820.542 83.2429 824.432 81.4897 828.744 80.2806C833.097 79.0312 837.691 78.2251 842.528 77.8624C847.767 77.4594 852.019 76.9556 855.284 76.3511C858.548 75.7465 860.986 74.9203 862.599 73.8724C864.211 72.8245 865.178 71.4139 865.5 69.6406V69.3988C865.863 66.9806 865.218 65.1267 863.566 63.837C861.954 62.5473 859.697 61.9024 856.795 61.9024C853.651 61.9024 850.931 62.5876 848.634 63.9579C846.377 65.3282 844.825 67.4642 843.979 70.366H813.268C814.557 64.7236 817.197 59.5245 821.187 54.7688C825.218 49.9727 830.558 46.1439 837.208 43.2824C843.898 40.3806 851.878 38.9297 861.148 38.9297C867.757 38.9297 873.561 39.7156 878.559 41.2874C883.556 42.8189 887.687 44.9751 890.952 47.756C894.257 50.4966 896.574 53.7209 897.904 57.4288C899.274 61.0964 899.597 65.0864 898.871 69.3988L888.231 132.997H857.037L859.213 119.939H858.488C856.07 123.405 853.349 126.206 850.326 128.342C847.344 130.478 844.079 132.03 840.533 132.997C837.026 133.964 833.258 134.448 829.228 134.448ZM843.737 113.41C846.236 113.41 848.694 112.886 851.112 111.838C853.53 110.79 855.606 109.279 857.339 107.304C859.072 105.329 860.18 102.931 860.664 100.11L861.873 92.3715C860.987 92.7343 859.999 93.0768 858.911 93.3992C857.863 93.6814 856.755 93.9635 855.586 94.2456C854.457 94.5277 853.248 94.7897 851.959 95.0315C850.709 95.2733 849.42 95.5152 848.09 95.757C845.43 96.16 843.193 96.825 841.379 97.752C839.565 98.6386 838.155 99.747 837.147 101.077C836.14 102.367 835.515 103.818 835.273 105.43C834.91 107.969 835.495 109.944 837.026 111.354C838.598 112.725 840.835 113.41 843.737 113.41Z" fill="#FFF2AA"/>
<path d="M643.734 132.997L659.211 40.1388H690.889L687.987 57.7915H688.954C691.816 51.9879 695.866 47.3933 701.106 44.0079C706.345 40.6224 712.209 38.9297 718.698 38.9297C725.187 38.9297 730.507 40.6627 734.658 44.1288C738.809 47.5545 740.905 52.1088 740.945 57.7915H741.913C744.411 52.1088 748.502 47.5545 754.185 44.1288C759.868 40.6627 766.175 38.9297 773.107 38.9297C781.934 38.9297 788.644 41.7912 793.239 47.5142C797.873 53.2373 799.385 60.8545 797.773 70.366L787.374 132.997H754.004L763.193 78.8297C763.757 74.7591 763.193 71.5751 761.5 69.2779C759.807 66.9403 757.228 65.7715 753.762 65.7715C750.336 65.7715 747.434 66.9403 745.056 69.2779C742.719 71.5751 741.268 74.7591 740.704 78.8297L731.514 132.997H699.594L708.783 78.8297C709.348 74.7591 708.784 71.5751 707.091 69.2779C705.398 66.9403 702.819 65.7715 699.353 65.7715C697.096 65.7715 695.04 66.2955 693.186 67.3433C691.373 68.3912 689.861 69.9026 688.652 71.8774C687.483 73.812 686.697 76.1294 686.294 78.8297L677.105 132.997H643.734Z" fill="#FFF2AA"/>
<path d="M571.871 169.753C562.52 169.753 554.742 168.423 548.535 165.763C542.369 163.144 537.815 159.516 534.873 154.882C531.971 150.287 530.762 145.007 531.245 139.042H563.407C563.488 141.058 564.072 142.67 565.16 143.879C566.248 145.088 567.76 145.954 569.694 146.478C571.629 147.002 573.886 147.264 576.465 147.264C580.818 147.264 584.586 146.196 587.77 144.06C590.954 141.964 592.909 138.196 593.634 132.755L596.294 117.037H595.327C593.634 120.181 591.357 122.861 588.496 125.077C585.634 127.254 582.35 128.926 578.642 130.095C574.934 131.224 570.984 131.788 566.793 131.788C560.183 131.788 554.359 130.256 549.321 127.193C544.324 124.13 540.696 119.274 538.439 112.624C536.223 105.974 536.001 97.2885 537.774 86.5679C539.628 75.3636 542.893 66.2551 547.568 59.2424C552.243 52.2297 557.624 47.0911 563.709 43.8265C569.795 40.562 575.901 38.9297 582.027 38.9297C586.622 38.9297 590.511 39.7357 593.695 41.3479C596.879 42.9197 599.418 45.0356 601.312 47.6956C603.206 50.3153 604.516 53.197 605.242 56.3406H605.967L608.627 40.1388H641.998L626.522 132.755C625.313 140.655 622.229 147.345 617.272 152.826C612.355 158.348 605.987 162.539 598.168 165.401C590.39 168.302 581.624 169.753 571.871 169.753ZM582.994 108.09C586.057 108.09 588.838 107.243 591.337 105.551C593.836 103.818 595.952 101.359 597.685 98.1752C599.418 94.9509 600.647 91.0818 601.373 86.5679C602.098 81.9733 602.138 78.0438 601.493 74.7792C600.849 71.4744 599.579 68.9554 597.685 67.2224C595.791 65.4491 593.312 64.5624 590.249 64.5624C587.186 64.5624 584.425 65.4491 581.967 67.2224C579.508 68.9554 577.433 71.4744 575.74 74.7792C574.047 78.0438 572.838 81.9733 572.113 86.5679C571.387 91.1624 571.327 95.0718 571.931 98.2961C572.536 101.48 573.765 103.918 575.619 105.611C577.473 107.263 579.931 108.09 582.994 108.09Z" fill="#FFF2AA"/>
<path d="M465.197 80.7642L456.492 132.997H423.121L438.597 40.1388H470.276L467.374 57.7915H468.341C471.283 51.867 475.576 47.2523 481.218 43.9474C486.901 40.6023 493.168 38.9297 500.019 38.9297C506.589 38.9297 512.05 40.4209 516.403 43.4033C520.755 46.3858 523.838 50.4966 525.652 55.736C527.466 60.9754 527.788 66.9806 526.619 73.7515L516.705 132.997H483.334L492.039 80.7642C492.805 76.1697 492.241 72.5626 490.347 69.9429C488.493 67.3232 485.43 66.0133 481.157 66.0133C478.457 66.0133 475.979 66.6179 473.722 67.827C471.505 68.9958 469.651 70.6885 468.16 72.9052C466.709 75.0815 465.721 77.7012 465.197 80.7642Z" fill="#FFF2AA"/>
<path d="M372.507 133L387.983 40.1418H421.354L405.878 133H372.507ZM406.12 30.4691C401.606 30.4691 397.958 28.9779 395.177 25.9955C392.396 22.9727 391.369 19.3858 392.094 15.2345C392.82 11.0027 395.036 7.41576 398.744 4.47363C402.452 1.49121 406.563 0 411.077 0C415.631 0 419.258 1.49121 421.959 4.47363C424.659 7.41576 425.667 11.0027 424.981 15.2345C424.337 19.3858 422.16 22.9727 418.452 25.9955C414.785 28.9779 410.674 30.4691 406.12 30.4691Z" fill="#FFF2AA"/>
<path d="M239.99 132.999L232.252 40.1406H265.623L266.832 96.7261H267.557L288.837 40.1406H321.241L324.143 96.2425H324.868L344.456 40.1406H377.827L339.136 132.999H303.105L298.268 83.1843H297.301L276.021 132.999H239.99Z" fill="#FFF2AA"/>
<path d="M193.773 9.18945L173.218 133H139.605L160.16 9.18945H193.773Z" fill="#FFF2AA"/>
<path d="M36.2727 133H0L61.4218 9.18945H107.367L127.68 133H91.4073L79.3164 43.2858H78.3491L36.2727 133ZM37.7237 84.1531H105.916L101.564 109.302H33.3709L37.7237 84.1531Z" fill="#FFF2AA"/>
<path d="M946.491 106.764L937.786 158.997H904.415L919.891 66.1388H951.57L948.668 83.7915H949.635C952.577 77.867 956.869 73.2523 962.512 69.9474C968.195 66.6023 974.462 64.9297 981.313 64.9297C987.883 64.9297 993.344 66.4209 997.696 69.4033C1002.05 72.3858 1005.13 76.4966 1006.95 81.736C1008.76 86.9754 1009.08 92.9806 1007.91 99.7515L997.999 158.997H964.628L973.333 106.764C974.099 102.17 973.535 98.5626 971.641 95.9429C969.787 93.3232 966.724 92.0133 962.451 92.0133C959.751 92.0133 957.273 92.6179 955.016 93.827C952.799 94.9958 950.945 96.6885 949.454 98.9052C948.003 101.082 947.015 103.701 946.491 106.764Z" fill="#FFE763"/>
<path d="M829.228 160.448C823.343 160.448 818.285 159.481 814.054 157.546C809.862 155.571 806.799 152.589 804.865 148.599C802.97 144.569 802.547 139.49 803.595 133.364C804.441 128.286 806.033 123.954 808.371 120.367C810.708 116.78 813.61 113.837 817.076 111.54C820.542 109.243 824.432 107.49 828.744 106.281C833.097 105.031 837.691 104.225 842.528 103.862C847.767 103.459 852.019 102.956 855.284 102.351C858.548 101.747 860.986 100.92 862.599 99.8724C864.211 98.8245 865.178 97.4139 865.5 95.6406V95.3988C865.863 92.9806 865.218 91.1267 863.566 89.837C861.954 88.5473 859.697 87.9024 856.795 87.9024C853.651 87.9024 850.931 88.5876 848.634 89.9579C846.377 91.3282 844.825 93.4642 843.979 96.366H813.268C814.557 90.7236 817.197 85.5245 821.187 80.7688C825.218 75.9727 830.558 72.1439 837.208 69.2824C843.898 66.3806 851.878 64.9297 861.148 64.9297C867.757 64.9297 873.561 65.7156 878.559 67.2874C883.556 68.8189 887.687 70.9751 890.952 73.756C894.257 76.4966 896.574 79.7209 897.904 83.4288C899.274 87.0964 899.597 91.0864 898.871 95.3988L888.231 158.997H857.037L859.213 145.939H858.488C856.07 149.405 853.349 152.206 850.326 154.342C847.344 156.478 844.079 158.03 840.533 158.997C837.026 159.964 833.258 160.448 829.228 160.448ZM843.737 139.41C846.236 139.41 848.694 138.886 851.112 137.838C853.53 136.79 855.606 135.279 857.339 133.304C859.072 131.329 860.18 128.931 860.664 126.11L861.873 118.372C860.987 118.734 859.999 119.077 858.911 119.399C857.863 119.681 856.755 119.963 855.586 120.246C854.457 120.528 853.248 120.79 851.959 121.032C850.709 121.273 849.42 121.515 848.09 121.757C845.43 122.16 843.193 122.825 841.379 123.752C839.565 124.639 838.155 125.747 837.147 127.077C836.14 128.367 835.515 129.818 835.273 131.43C834.91 133.969 835.495 135.944 837.026 137.354C838.598 138.725 840.835 139.41 843.737 139.41Z" fill="#FFE763"/>
<path d="M643.734 158.997L659.211 66.1388H690.889L687.987 83.7915H688.954C691.816 77.9879 695.866 73.3933 701.106 70.0079C706.345 66.6224 712.209 64.9297 718.698 64.9297C725.187 64.9297 730.507 66.6627 734.658 70.1288C738.809 73.5545 740.905 78.1088 740.945 83.7915H741.913C744.411 78.1088 748.502 73.5545 754.185 70.1288C759.868 66.6627 766.175 64.9297 773.107 64.9297C781.934 64.9297 788.644 67.7912 793.239 73.5142C797.873 79.2373 799.385 86.8545 797.773 96.366L787.374 158.997H754.004L763.193 104.83C763.757 100.759 763.193 97.5751 761.5 95.2779C759.807 92.9403 757.228 91.7715 753.762 91.7715C750.336 91.7715 747.434 92.9403 745.056 95.2779C742.719 97.5751 741.268 100.759 740.704 104.83L731.514 158.997H699.594L708.783 104.83C709.348 100.759 708.784 97.5751 707.091 95.2779C705.398 92.9403 702.819 91.7715 699.353 91.7715C697.096 91.7715 695.04 92.2955 693.186 93.3433C691.373 94.3912 689.861 95.9026 688.652 97.8774C687.483 99.812 686.697 102.129 686.294 104.83L677.105 158.997H643.734Z" fill="#FFE763"/>
<path d="M571.871 195.753C562.52 195.753 554.742 194.423 548.535 191.763C542.369 189.144 537.815 185.516 534.873 180.882C531.971 176.287 530.762 171.007 531.245 165.042H563.407C563.488 167.058 564.072 168.67 565.16 169.879C566.248 171.088 567.76 171.954 569.694 172.478C571.629 173.002 573.886 173.264 576.465 173.264C580.818 173.264 584.586 172.196 587.77 170.06C590.954 167.964 592.909 164.196 593.634 158.755L596.294 143.037H595.327C593.634 146.181 591.357 148.861 588.496 151.077C585.634 153.254 582.35 154.926 578.642 156.095C574.934 157.224 570.984 157.788 566.793 157.788C560.183 157.788 554.359 156.256 549.321 153.193C544.324 150.13 540.696 145.274 538.439 138.624C536.223 131.974 536.001 123.288 537.774 112.568C539.628 101.364 542.893 92.2551 547.568 85.2424C552.243 78.2297 557.624 73.0911 563.709 69.8265C569.795 66.562 575.901 64.9297 582.027 64.9297C586.622 64.9297 590.511 65.7357 593.695 67.3479C596.879 68.9197 599.418 71.0356 601.312 73.6956C603.206 76.3153 604.516 79.197 605.242 82.3406H605.967L608.627 66.1388H641.998L626.522 158.755C625.313 166.655 622.229 173.345 617.272 178.826C612.355 184.348 605.987 188.539 598.168 191.401C590.39 194.302 581.624 195.753 571.871 195.753ZM582.994 134.09C586.057 134.09 588.838 133.243 591.337 131.551C593.836 129.818 595.952 127.359 597.685 124.175C599.418 120.951 600.647 117.082 601.373 112.568C602.098 107.973 602.138 104.044 601.493 100.779C600.849 97.4744 599.579 94.9554 597.685 93.2224C595.791 91.4491 593.312 90.5624 590.249 90.5624C587.186 90.5624 584.425 91.4491 581.967 93.2224C579.508 94.9554 577.433 97.4744 575.74 100.779C574.047 104.044 572.838 107.973 572.113 112.568C571.387 117.162 571.327 121.072 571.931 124.296C572.536 127.48 573.765 129.918 575.619 131.611C577.473 133.263 579.931 134.09 582.994 134.09Z" fill="#FFE763"/>
<path d="M465.197 106.764L456.492 158.997H423.121L438.597 66.1388H470.276L467.374 83.7915H468.341C471.283 77.867 475.576 73.2523 481.218 69.9474C486.901 66.6023 493.168 64.9297 500.019 64.9297C506.589 64.9297 512.05 66.4209 516.403 69.4033C520.755 72.3858 523.838 76.4966 525.652 81.736C527.466 86.9754 527.788 92.9806 526.619 99.7515L516.705 158.997H483.334L492.039 106.764C492.805 102.17 492.241 98.5626 490.347 95.9429C488.493 93.3232 485.43 92.0133 481.157 92.0133C478.457 92.0133 475.979 92.6179 473.722 93.827C471.505 94.9958 469.651 96.6885 468.16 98.9052C466.709 101.082 465.721 103.701 465.197 106.764Z" fill="#FFE763"/>
<path d="M372.507 159L387.983 66.1418H421.354L405.878 159H372.507ZM406.12 56.4691C401.606 56.4691 397.958 54.9779 395.177 51.9955C392.396 48.9727 391.369 45.3858 392.094 41.2345C392.82 37.0027 395.036 33.4158 398.744 30.4736C402.452 27.4912 406.563 26 411.077 26C415.631 26 419.258 27.4912 421.959 30.4736C424.659 33.4158 425.667 37.0027 424.981 41.2345C424.337 45.3858 422.16 48.9727 418.452 51.9955C414.785 54.9779 410.674 56.4691 406.12 56.4691Z" fill="#FFE763"/>
<path d="M239.99 158.999L232.252 66.1406H265.623L266.832 122.726H267.557L288.837 66.1406H321.241L324.143 122.242H324.868L344.456 66.1406H377.827L339.136 158.999H303.105L298.268 109.184H297.301L276.021 158.999H239.99Z" fill="#FFE763"/>
<path d="M193.773 35.1895L173.218 159H139.605L160.16 35.1895H193.773Z" fill="#FFE763"/>
<path d="M36.2727 159H0L61.4218 35.1895H107.367L127.68 159H91.4073L79.3164 69.2858H78.3491L36.2727 159ZM37.7237 110.153H105.916L101.564 135.302H33.3709L37.7237 110.153Z" fill="#FFE763"/>
<path d="M946.491 133.102L937.786 185.335H904.415L919.891 92.4767H951.57L948.668 110.129H949.635C952.577 104.205 956.869 99.5901 962.512 96.2853C968.195 92.9401 974.462 91.2676 981.313 91.2676C987.883 91.2676 993.344 92.7588 997.696 95.7412C1002.05 98.7236 1005.13 102.835 1006.95 108.074C1008.76 113.313 1009.08 119.318 1007.91 126.089L997.999 185.335H964.628L973.333 133.102C974.099 128.508 973.535 124.9 971.641 122.281C969.787 119.661 966.724 118.351 962.451 118.351C959.751 118.351 957.273 118.956 955.016 120.165C952.799 121.334 950.945 123.026 949.454 125.243C948.003 127.419 947.015 130.039 946.491 133.102Z" fill="#FFD700"/>
<path d="M829.228 186.786C823.343 186.786 818.285 185.819 814.054 183.884C809.862 181.909 806.799 178.927 804.865 174.937C802.97 170.906 802.547 165.828 803.595 159.702C804.441 154.624 806.033 150.291 808.371 146.704C810.708 143.117 813.61 140.175 817.076 137.878C820.542 135.581 824.432 133.828 828.744 132.618C833.097 131.369 837.691 130.563 842.528 130.2C847.767 129.797 852.019 129.293 855.284 128.689C858.548 128.084 860.986 127.258 862.599 126.21C864.211 125.162 865.178 123.752 865.5 121.978V121.737C865.863 119.318 865.218 117.465 863.566 116.175C861.954 114.885 859.697 114.24 856.795 114.24C853.651 114.24 850.931 114.925 848.634 116.296C846.377 117.666 844.825 119.802 843.979 122.704H813.268C814.557 117.062 817.197 111.862 821.187 107.107C825.218 102.311 830.558 98.4818 837.208 95.6203C843.898 92.7185 851.878 91.2676 861.148 91.2676C867.757 91.2676 873.561 92.0535 878.559 93.6253C883.556 95.1568 887.687 97.313 890.952 100.094C894.257 102.835 896.574 106.059 897.904 109.767C899.274 113.434 899.597 117.424 898.871 121.737L888.231 185.335H857.037L859.213 172.277H858.488C856.07 175.743 853.349 178.544 850.326 180.68C847.344 182.816 844.079 184.368 840.533 185.335C837.026 186.302 833.258 186.786 829.228 186.786ZM843.737 165.748C846.236 165.748 848.694 165.224 851.112 164.176C853.53 163.128 855.606 161.617 857.339 159.642C859.072 157.667 860.18 155.269 860.664 152.448L861.873 144.709C860.987 145.072 859.999 145.415 858.911 145.737C857.863 146.019 856.755 146.301 855.586 146.584C854.457 146.866 853.248 147.128 851.959 147.369C850.709 147.611 849.42 147.853 848.09 148.095C845.43 148.498 843.193 149.163 841.379 150.09C839.565 150.977 838.155 152.085 837.147 153.415C836.14 154.705 835.515 156.155 835.273 157.768C834.91 160.307 835.495 162.282 837.026 163.692C838.598 165.062 840.835 165.748 843.737 165.748Z" fill="#FFD700"/>
<path d="M643.734 185.335L659.211 92.4767H690.889L687.987 110.129H688.954C691.816 104.326 695.866 99.7312 701.106 96.3457C706.345 92.9603 712.209 91.2676 718.698 91.2676C725.187 91.2676 730.507 93.0006 734.658 96.4667C738.809 99.8924 740.905 104.447 740.945 110.129H741.913C744.411 104.447 748.502 99.8924 754.185 96.4667C759.868 93.0006 766.175 91.2676 773.107 91.2676C781.934 91.2676 788.644 94.1291 793.239 99.8521C797.873 105.575 799.385 113.192 797.773 122.704L787.374 185.335H754.004L763.193 131.168C763.757 127.097 763.193 123.913 761.5 121.616C759.807 119.278 757.228 118.109 753.762 118.109C750.336 118.109 747.434 119.278 745.056 121.616C742.719 123.913 741.268 127.097 740.704 131.168L731.514 185.335H699.594L708.783 131.168C709.348 127.097 708.784 123.913 707.091 121.616C705.398 119.278 702.819 118.109 699.353 118.109C697.096 118.109 695.04 118.633 693.186 119.681C691.373 120.729 689.861 122.24 688.652 124.215C687.483 126.15 686.697 128.467 686.294 131.168L677.105 185.335H643.734Z" fill="#FFD700"/>
<path d="M571.871 222.091C562.52 222.091 554.742 220.761 548.535 218.101C542.369 215.482 537.815 211.854 534.873 207.219C531.971 202.625 530.762 197.345 531.245 191.38H563.407C563.488 193.395 564.072 195.008 565.16 196.217C566.248 197.426 567.76 198.292 569.694 198.816C571.629 199.34 573.886 199.602 576.465 199.602C580.818 199.602 584.586 198.534 587.77 196.398C590.954 194.302 592.909 190.534 593.634 185.093L596.294 169.375H595.327C593.634 172.519 591.357 175.199 588.496 177.415C585.634 179.592 582.35 181.264 578.642 182.433C574.934 183.562 570.984 184.126 566.793 184.126C560.183 184.126 554.359 182.594 549.321 179.531C544.324 176.468 540.696 171.612 538.439 164.962C536.223 158.312 536.001 149.626 537.774 138.906C539.628 127.702 542.893 118.593 547.568 111.58C552.243 104.568 557.624 99.4289 563.709 96.1644C569.795 92.8999 575.901 91.2676 582.027 91.2676C586.622 91.2676 590.511 92.0736 593.695 93.6857C596.879 95.2576 599.418 97.3735 601.312 100.033C603.206 102.653 604.516 105.535 605.242 108.678H605.967L608.627 92.4767H641.998L626.522 185.093C625.313 192.992 622.229 199.683 617.272 205.164C612.355 210.685 605.987 214.877 598.168 217.739C590.39 220.64 581.624 222.091 571.871 222.091ZM582.994 160.428C586.057 160.428 588.838 159.581 591.337 157.889C593.836 156.155 595.952 153.697 597.685 150.513C599.418 147.289 600.647 143.42 601.373 138.906C602.098 134.311 602.138 130.382 601.493 127.117C600.849 123.812 599.579 121.293 597.685 119.56C595.791 117.787 593.312 116.9 590.249 116.9C587.186 116.9 584.425 117.787 581.967 119.56C579.508 121.293 577.433 123.812 575.74 127.117C574.047 130.382 572.838 134.311 572.113 138.906C571.387 143.5 571.327 147.41 571.931 150.634C572.536 153.818 573.765 156.256 575.619 157.949C577.473 159.601 579.931 160.428 582.994 160.428Z" fill="#FFD700"/>
<path d="M465.197 133.102L456.492 185.335H423.121L438.597 92.4767H470.276L467.374 110.129H468.341C471.283 104.205 475.576 99.5901 481.218 96.2853C486.901 92.9401 493.168 91.2676 500.019 91.2676C506.589 91.2676 512.05 92.7588 516.403 95.7412C520.755 98.7236 523.838 102.835 525.652 108.074C527.466 113.313 527.788 119.318 526.619 126.089L516.705 185.335H483.334L492.039 133.102C492.805 128.508 492.241 124.9 490.347 122.281C488.493 119.661 485.43 118.351 481.157 118.351C478.457 118.351 475.979 118.956 473.722 120.165C471.505 121.334 469.651 123.026 468.16 125.243C466.709 127.419 465.721 130.039 465.197 133.102Z" fill="#FFD700"/>
<path d="M372.507 185.338L387.983 92.4797H421.354L405.878 185.338H372.507ZM406.12 82.807C401.606 82.807 397.958 81.3158 395.177 78.3334C392.396 75.3106 391.369 71.7237 392.094 67.5724C392.82 63.3406 395.036 59.7536 398.744 56.8115C402.452 53.8291 406.563 52.3379 411.077 52.3379C415.631 52.3379 419.258 53.8291 421.959 56.8115C424.659 59.7536 425.667 63.3406 424.981 67.5724C424.337 71.7237 422.16 75.3106 418.452 78.3334C414.785 81.3158 410.674 82.807 406.12 82.807Z" fill="#FFD700"/>
<path d="M239.99 185.337L232.252 92.4785H265.623L266.832 149.064H267.557L288.837 92.4785H321.241L324.143 148.58H324.868L344.456 92.4785H377.827L339.136 185.337H303.105L298.268 135.522H297.301L276.021 185.337H239.99Z" fill="#FFD700"/>
<path d="M193.773 61.5273L173.218 185.338H139.605L160.16 61.5273H193.773Z" fill="#FFD700"/>
<path d="M36.2727 185.338H0L61.4218 61.5273H107.367L127.68 185.338H91.4073L79.3164 95.6237H78.3491L36.2727 185.338ZM37.7237 136.491H105.916L101.564 161.64H33.3709L37.7237 136.491Z" fill="#FFD700"/>
</svg>
