<svg width="1363" height="1455" viewBox="0 0 1363 1455" fill="none" xmlns="http://www.w3.org/2000/svg">
<path d="M788.288 447.761C790.353 451.8 790.397 456.461 788.621 460.439L788.438 460.835L788.286 461.139C786.705 464.232 784.466 465.917 783.572 466.541C781.636 467.893 779.813 468.457 779.416 468.584C778.711 468.808 778.107 468.948 777.734 469.027H777.733C777.446 469.088 777.169 469.141 776.912 469.185L776.206 469.294L776.146 469.302L775.866 469.339L775.806 469.347L775.508 469.383L775.198 469.421L774.888 469.434L774.593 469.445L772.497 469.534C750.576 470.505 720.499 473.189 691.217 480.125C660.599 487.378 632.909 498.814 615.659 515.93C597.575 533.874 585.826 563.16 578.607 595.099C571.488 626.596 569.247 658.475 568.628 679.48V679.488C568.62 679.738 568.606 680.095 568.58 680.471C568.567 680.656 568.545 680.951 568.506 681.294V681.293C568.508 681.271 568.495 681.397 568.478 681.534C568.459 681.676 568.434 681.855 568.4 682.062C568.351 682.364 568.278 682.751 568.173 683.188L568.057 683.642L567.962 683.97C567.85 684.344 567.682 684.848 567.441 685.422C567.188 686.028 566.48 687.646 565.024 689.339H565.023C563.704 690.874 559.67 694.808 553.036 694.46C546.762 694.131 543.258 690.182 542.239 688.9C541.189 687.579 540.537 686.275 540.145 685.326C539.944 684.841 539.797 684.415 539.693 684.079C539.641 683.911 539.6 683.762 539.566 683.637C539.55 683.574 539.534 683.517 539.521 683.466C539.515 683.44 539.509 683.416 539.504 683.394C539.501 683.382 539.499 683.372 539.496 683.361V683.358C539.349 682.779 539.265 682.316 539.228 682.088C539.077 681.181 539.022 680.318 539.001 679.996L539 679.986L538.992 679.86L538.984 679.731L538.98 679.604L538.978 679.479L538.977 679.48C538.357 658.475 536.117 626.596 528.998 595.099C521.779 563.16 510.03 533.874 491.945 515.93C474.012 498.135 444.829 486.509 412.92 479.324C381.448 472.237 349.5 469.935 328.127 469.271H328.115L328.071 469.269L328.039 469.268L328.006 469.267L327.963 469.265L327.95 469.264C327.633 469.25 326.485 469.208 325.241 468.978C324.919 468.918 324.283 468.79 323.496 468.546L323.15 468.435C323.109 468.421 322.798 468.319 322.445 468.18C322.04 468.02 321.535 467.799 320.97 467.5C319.853 466.91 318.418 465.97 317.061 464.52H317.06C315.43 462.778 313.274 459.571 313.104 455.038C312.935 450.52 314.833 447.182 316.293 445.349C317.515 443.814 318.851 442.773 319.902 442.1C320.435 441.759 320.914 441.499 321.3 441.308C321.493 441.212 321.674 441.129 321.8 441.072L321.976 440.996C322.752 440.659 323.453 440.435 323.974 440.29C324.24 440.216 324.471 440.16 324.656 440.117C324.839 440.076 324.995 440.044 324.982 440.047C325.437 439.953 325.821 439.893 326.05 439.86C326.525 439.792 326.955 439.747 327.249 439.721H327.25L327.457 439.702L327.682 439.682L327.907 439.674L328.124 439.667H328.127C349.5 439.002 381.448 436.7 412.92 429.613C444.829 422.428 474.012 410.803 491.945 393.009C509.586 375.504 521.217 347.185 528.485 316.07C535.657 285.366 538.116 254.028 538.878 232.507V232.497C538.889 232.202 538.925 230.336 539.538 228.277C539.728 227.64 540.126 226.448 540.906 225.092C541.59 223.903 543.353 221.201 546.879 219.359C551.18 217.113 555.868 217.289 559.565 218.868C562.598 220.163 564.384 222.118 565.104 222.979C566.569 224.726 567.268 226.408 567.436 226.804C567.714 227.464 567.897 228.026 568.001 228.364L568.144 228.857C568.274 229.332 568.367 229.744 568.429 230.041V230.042L568.553 230.638L568.683 231.263L568.705 231.9L568.727 232.507L568.804 234.553C569.648 255.986 572.171 286.326 579.119 316.07C586.387 347.185 598.018 375.504 615.659 393.009C632.909 410.125 660.599 421.56 691.217 428.812C721.444 435.973 752.517 438.602 774.593 439.492L774.598 439.493L774.817 439.502L775.04 439.511L775.262 439.533L775.479 439.556L776.101 439.623C776.927 439.724 778.312 439.941 779.752 440.43C780.335 440.627 781.413 441.028 782.639 441.755C783.649 442.354 786.24 444.025 788.075 447.359L788.288 447.761Z" fill="#FFD700" stroke="black" stroke-width="15"/>
<path d="M1017.47 622.591C1019.35 626.274 1019.33 630.545 1017.6 634.13C1016.38 636.668 1014.63 638.183 1013.67 638.901L1013.31 639.161L1013 639.376C1011.84 640.134 1010.76 640.574 1010.14 640.795L1009.67 640.954L1009.23 641.086C1008.81 641.205 1008.46 641.285 1008.22 641.336C1007.73 641.44 1007.28 641.512 1006.93 641.561L1006.9 641.564L1006.87 641.569L1006.66 641.597L1006.63 641.601L1006.6 641.604L1006.37 641.633L1006.06 641.671L1005.75 641.683L1005.52 641.692V641.691C988.798 642.366 965.301 644.359 942.477 649.766C919.304 655.255 898.642 663.853 885.88 676.516C872.498 689.794 863.661 711.65 858.195 735.83C852.818 759.622 851.12 783.733 850.651 799.646V799.652C850.645 799.856 850.633 800.152 850.611 800.468C850.601 800.624 850.582 800.876 850.548 801.173L850.522 801.381C850.506 801.506 850.485 801.664 850.455 801.845C850.412 802.109 850.349 802.448 850.256 802.833L850.152 803.232L850.069 803.522C850.003 803.742 849.916 804.013 849.802 804.319L849.61 804.803L849.363 805.359C849.033 806.057 848.44 807.139 847.478 808.259V808.26C846.318 809.608 842.76 813.084 836.905 812.776C831.37 812.486 828.279 809.001 827.383 807.873C826.454 806.703 825.88 805.554 825.536 804.724C825.36 804.297 825.231 803.92 825.138 803.619C825.091 803.468 825.052 803.332 825.021 803.216C825.006 803.158 824.992 803.105 824.979 803.057C824.973 803.032 824.968 803.009 824.963 802.987C824.96 802.976 824.958 802.965 824.955 802.955C824.955 802.954 824.955 802.952 824.955 802.951C824.831 802.457 824.759 802.064 824.727 801.869C824.596 801.081 824.55 800.345 824.534 800.1L824.533 800.091L824.527 799.995L824.52 799.866L824.516 799.737L824.514 799.645C824.045 783.732 822.346 759.621 816.969 735.83C811.504 711.65 802.666 689.794 789.284 676.516C776.013 663.347 754.23 654.601 730.07 649.16C706.296 643.807 682.131 642.063 665.938 641.56H665.927L665.894 641.559L665.86 641.557L665.828 641.556L665.795 641.555L665.782 641.554C665.54 641.543 664.554 641.508 663.472 641.307C663.23 641.262 662.785 641.174 662.228 641.015L661.636 640.83C661.696 640.85 661.376 640.747 661.016 640.605C660.655 640.464 660.209 640.269 659.712 640.006C658.731 639.487 657.466 638.66 656.268 637.379H656.267C654.831 635.844 652.926 633.014 652.776 629.009C652.627 625.017 654.304 622.07 655.59 620.455C656.669 619.099 657.847 618.181 658.771 617.59C659.239 617.29 659.662 617.061 660.006 616.891C660.35 616.72 660.655 616.593 660.601 616.616C661.285 616.319 661.9 616.122 662.354 615.996C662.587 615.931 662.791 615.881 662.955 615.844C663.116 615.807 663.257 615.779 663.238 615.783C663.633 615.701 663.965 615.65 664.158 615.622C664.561 615.564 664.922 615.527 665.164 615.505H665.165L665.32 615.491L665.545 615.471L665.771 615.463L665.936 615.458H665.938C682.131 614.955 706.296 613.21 730.07 607.856C754.23 602.416 776.013 593.671 789.284 580.503C802.336 567.552 811.081 546.422 816.582 522.871C821.998 499.683 823.86 475.983 824.438 459.681L824.438 459.671C824.447 459.442 824.476 457.819 825.014 456.015C825.181 455.454 825.531 454.405 826.219 453.21C826.822 452.162 828.376 449.778 831.485 448.154C835.279 446.173 839.412 446.33 842.67 447.721L843.158 447.941C845.536 449.074 846.957 450.634 847.553 451.345L847.787 451.632C848.918 453.063 849.466 454.383 849.604 454.709L849.771 455.124C849.923 455.519 850.03 455.849 850.097 456.068L850.22 456.493C850.332 456.901 850.411 457.252 850.463 457.503V457.504L850.558 457.957L850.688 458.582L850.71 459.22L850.726 459.681L850.85 462.822C851.55 478.944 853.504 501.132 858.582 522.871C864.083 546.422 872.828 567.552 885.88 580.503C898.642 593.166 919.304 601.764 942.477 607.253C965.304 612.66 988.803 614.652 1005.53 615.326H1005.53L1005.7 615.333L1005.92 615.342L1006.14 615.364L1006.31 615.381C1006.72 615.422 1008.28 615.565 1009.96 616.132L1010.42 616.297C1010.95 616.499 1011.68 616.816 1012.49 617.296L1012.88 617.539C1013.94 618.214 1015.86 619.663 1017.28 622.236L1017.47 622.591Z" fill="#FFD700" stroke="black" stroke-width="15"/>
<path d="M761.74 812.125C763.535 815.385 763.619 819.207 762.171 822.452L762.026 822.765L761.785 823.237C760.712 825.224 759.311 826.433 758.516 827.028L758.195 827.26L757.905 827.456C757.236 827.894 756.613 828.204 756.121 828.418C755.834 828.543 755.578 828.641 755.368 828.716C755.263 828.753 755.171 828.785 755.095 828.81C755.057 828.822 755.024 828.833 754.999 828.841L754.957 828.854L754.57 828.971C754.448 829.006 754.331 829.036 754.224 829.063L753.69 829.188L753.094 829.303L752.595 829.38L752.534 829.388L752.375 829.409L752.314 829.417L752.145 829.438L751.836 829.476L751.524 829.488L751.354 829.495V829.494C738.873 829.998 721.383 831.484 704.427 835.501C687.16 839.591 672.07 845.938 662.867 855.069C653.215 864.646 646.687 880.611 642.612 898.639C638.616 916.319 637.349 934.269 636.999 946.142V946.148C636.994 946.316 636.984 946.563 636.966 946.831L636.91 947.443L636.889 947.626C636.874 947.738 636.854 947.879 636.828 948.039C636.79 948.272 636.734 948.573 636.651 948.917L636.56 949.274H636.559C636.498 949.496 636.398 949.835 636.245 950.245L636.074 950.678L635.854 951.176C635.558 951.8 635.028 952.767 634.167 953.769L634.166 953.77C633.134 954.971 629.954 958.081 624.718 957.807C619.768 957.547 617.004 954.428 616.206 953.423C615.373 952.374 614.861 951.349 614.557 950.611C614.399 950.231 614.283 949.893 614.198 949.619C614.157 949.486 614.124 949.365 614.096 949.259C614.095 949.257 614.094 949.256 614.094 949.254C614.093 949.252 614.092 949.251 614.092 949.249C614.077 949.195 614.063 949.144 614.052 949.098C614.046 949.074 614.041 949.048 614.036 949.026C613.925 948.585 613.861 948.234 613.832 948.062C613.717 947.369 613.678 946.733 613.666 946.548V946.539L613.661 946.467L613.653 946.339L613.649 946.21L613.648 946.141L613.647 946.142C613.298 934.269 612.03 916.319 608.034 898.639C603.96 880.611 597.431 864.646 587.779 855.069C578.206 845.57 562.292 839.108 544.277 835.052C526.608 831.073 508.615 829.772 496.532 829.396L496.521 829.396L496.496 829.395L496.463 829.394L496.431 829.393L496.405 829.392L496.393 829.391C496.211 829.383 495.353 829.353 494.398 829.176C494.113 829.123 493.504 829.001 492.765 828.752C492.831 828.774 492.536 828.679 492.212 828.552C491.887 828.424 491.488 828.248 491.044 828.014C490.171 827.552 489.041 826.815 487.968 825.668V825.667C486.686 824.297 484.979 821.765 484.845 818.179C484.719 814.828 486.033 812.301 487.144 810.81L487.362 810.525C488.329 809.312 489.381 808.492 490.203 807.966C490.621 807.698 491 807.493 491.31 807.34C491.62 807.186 491.901 807.068 491.84 807.095C492.452 806.829 492.999 806.655 493.4 806.543C493.607 806.486 493.789 806.441 493.936 806.407C494.08 806.374 494.209 806.348 494.185 806.354C494.532 806.281 494.823 806.237 494.988 806.213C495.33 806.164 495.633 806.133 495.833 806.114L495.955 806.104L496.18 806.083L496.405 806.075L496.529 806.071H496.532C508.615 805.696 526.608 804.395 544.277 800.416C562.292 796.36 578.206 789.898 587.779 780.398C597.191 771.06 603.647 755.63 607.747 738.079C611.771 720.853 613.16 703.211 613.591 691.047L613.592 691.036C613.592 691.028 613.594 690.971 613.596 690.923C613.598 690.857 613.603 690.774 613.608 690.678C613.62 690.486 613.638 690.244 613.669 689.967C613.729 689.434 613.848 688.677 614.101 687.828C614.231 687.391 614.486 686.619 614.959 685.718L615.176 685.324C615.714 684.388 617.104 682.258 619.883 680.807C623.274 679.036 626.966 679.177 629.875 680.419L630.312 680.615C632.436 681.627 633.706 683.021 634.238 683.656L634.447 683.913C635.456 685.19 635.945 686.366 636.067 686.655L636.215 687.022C636.349 687.371 636.443 687.662 636.502 687.854L636.609 688.225C636.707 688.579 636.775 688.883 636.819 689.098V689.099L636.891 689.438L637.021 690.062L637.043 690.701L637.055 691.047L637.147 693.39C637.67 705.414 639.126 721.929 642.898 738.079C646.998 755.63 653.456 771.06 662.867 780.398C672.07 789.53 687.16 795.877 704.427 799.967C721.385 803.984 738.877 805.469 751.358 805.973L751.363 805.974L751.489 805.979L751.711 805.987L751.933 806.01L752.058 806.022C752.37 806.054 753.733 806.176 755.206 806.676L755.613 806.822C756.085 807.001 756.74 807.283 757.461 807.711L757.812 807.928C758.753 808.53 760.474 809.824 761.74 812.125Z" fill="#FFD700" stroke="black" stroke-width="15"/>
<path d="M415.625 1088.89L417.015 1088.9L417.421 1088.9L417.824 1088.91C472.677 1089.71 517.662 1114.76 547.613 1136.32C579.266 1159.1 607.557 1187.77 631.26 1215.16C646.109 1232.32 660.335 1250.37 673.664 1268.38C686.993 1250.37 701.225 1232.32 716.075 1215.16C739.777 1187.77 768.066 1159.1 799.718 1136.32C829.669 1114.76 874.654 1089.71 929.507 1088.91L929.914 1088.9L930.316 1088.9L931.71 1088.89H1065.33V1207.2H932.165L931.229 1207.21C851.619 1208.37 751.733 1356.8 703.056 1437.9L702.746 1438.4L702.12 1439.37C688.893 1459.02 658.438 1459.02 645.211 1439.37L644.585 1438.4L644.279 1437.9C595.602 1356.8 495.713 1208.37 416.102 1207.21L415.166 1207.2H282.001V1088.89H415.625ZM0 250.849C0 112.851 111.352 0.876418 249.045 0.00372711L250.667 0H1112.33L1113.95 0.00372711C1251.65 0.87668 1363 112.851 1363 250.849L1363 957.979C1362.13 1095.23 1251.11 1206.33 1113.95 1207.2L1112.33 1207.2H1065.33V1088.89H1111.99L1113.37 1088.89C1185.61 1088.34 1244.22 1029.75 1244.68 957.229L1244.69 250.849L1244.64 247.435C1242.84 176.028 1184.68 118.771 1113.21 118.317L249.791 118.313L249.795 118.317C177.189 118.778 118.313 177.863 118.313 250.849V956.011L118.317 957.229L118.38 960.621C120.611 1031.56 178.514 1088.34 249.623 1088.89L251.006 1088.89H282.001V1207.2H250.667L249.045 1207.2C112.964 1206.34 2.60936 1096.96 0.0447253 961.191L0.00372711 957.979L0 956.357V250.849Z" fill="black"/>
</svg>
