<svg width="1035" height="1244" viewBox="0 0 1035 1244" fill="none" xmlns="http://www.w3.org/2000/svg">
<g filter="url(#filter0_d_465_31)">
<path d="M1014.71 539.991C1037.84 566.115 1035.38 606.015 1009.22 629.109C983.051 652.203 943.087 649.746 919.956 623.622L580.407 262.951V773.987H453.934V259.979L114.45 624.61C91.0069 650.455 51.0169 652.433 25.1299 629.027C-0.757007 605.622 -2.73803 565.696 20.7052 539.85L517.739 1.52539L1014.71 539.991Z" fill="white"/>
</g>
<path d="M454 658H581V1180.5C581 1215.57 552.57 1244 517.5 1244V1244C482.43 1244 454 1215.57 454 1180.5V658Z" fill="url(#paint0_linear_465_31)"/>
<defs>
<filter id="filter0_d_465_31" x="0.34082" y="0.525391" width="1034.23" height="780.461" filterUnits="userSpaceOnUse" color-interpolation-filters="sRGB">
<feFlood flood-opacity="0" result="BackgroundImageFix"/>
<feColorMatrix in="SourceAlpha" type="matrix" values="0 0 0 0 0 0 0 0 0 0 0 0 0 0 0 0 0 0 127 0" result="hardAlpha"/>
<feOffset dy="3"/>
<feGaussianBlur stdDeviation="2"/>
<feComposite in2="hardAlpha" operator="out"/>
<feColorMatrix type="matrix" values="0 0 0 0 0 0 0 0 0 0 0 0 0 0 0 0 0 0 0.25 0"/>
<feBlend mode="normal" in2="BackgroundImageFix" result="effect1_dropShadow_465_31"/>
<feBlend mode="normal" in="SourceGraphic" in2="effect1_dropShadow_465_31" result="shape"/>
</filter>
<linearGradient id="paint0_linear_465_31" x1="517.5" y1="658" x2="517.5" y2="1244" gradientUnits="userSpaceOnUse">
<stop stop-color="white"/>
<stop offset="1" stop-color="#E3FF00"/>
</linearGradient>
</defs>
</svg>
