<svg width="119" height="106" viewBox="0 0 119 106" fill="none" xmlns="http://www.w3.org/2000/svg">
<path d="M33.2373 24.1738C37.2667 24.1738 40.5331 27.479 40.5331 31.5562V73.3896C40.5331 77.4668 37.2667 80.772 33.2373 80.772C29.2079 80.772 25.9414 77.4668 25.9414 73.3896V31.5562C25.9414 27.479 29.2079 24.1738 33.2373 24.1738Z" fill="#FF8D00"/>
<path d="M59.3271 0C63.3565 0 66.623 3.28258 66.623 7.33185V97.758C66.623 101.807 63.3565 105.09 59.3271 105.09C55.2977 105.09 52.0312 101.807 52.0312 97.758V7.33185C52.0312 3.28258 55.2977 0 59.3271 0Z" fill="#E3FF00"/>
<path d="M85.2685 24.1738C89.2979 24.1738 92.5644 27.479 92.5644 31.5562V73.3896C92.5644 77.4668 89.2979 80.772 85.2685 80.772C81.2391 80.772 77.9727 77.4668 77.9727 73.3896V31.5562C77.9727 27.479 81.2391 24.1738 85.2685 24.1738Z" fill="#00FF04"/>
<path d="M111.362 39.0596C115.392 39.0596 118.658 42.353 118.658 46.4157V58.676C118.658 62.7387 115.392 66.0321 111.362 66.0321C107.333 66.0321 104.066 62.7387 104.066 58.676V46.4157C104.066 42.353 107.333 39.0596 111.362 39.0596Z" fill="#0051FF"/>
<path d="M7.29586 39.0596C11.3252 39.0596 14.5917 42.353 14.5917 46.4157V58.676C14.5917 62.7387 11.3252 66.0321 7.29586 66.0321C3.26647 66.0321 0 62.7387 0 58.676V46.4157C0 42.353 3.26647 39.0596 7.29586 39.0596Z" fill="#FF1A00"/>
</svg>
