<svg width="31" height="32" viewBox="0 0 31 32" fill="none" xmlns="http://www.w3.org/2000/svg">
<path d="M8.85686 7.44141C10.0798 7.44141 11.0711 8.44096 11.0711 9.67396V22.3251C11.0711 23.5581 10.0798 24.5577 8.85686 24.5577C7.63395 24.5577 6.64258 23.5581 6.64258 22.3251V9.67396C6.64258 8.44096 7.63395 7.44141 8.85686 7.44141Z" fill="#FF8D00"/>
<path d="M15.4994 0C16.7224 0 17.7137 0.99955 17.7137 2.23256V29.7674C17.7137 31.0004 16.7224 32 15.4994 32C14.2765 32 13.2852 31.0004 13.2852 29.7674V2.23256C13.2852 0.99955 14.2765 0 15.4994 0Z" fill="#E3FF00"/>
<path d="M22.2143 7C23.4372 7 24.4286 7.99955 24.4286 9.23256V21.8837C24.4286 23.1167 23.4372 24.1163 22.2143 24.1163C20.9914 24.1163 20 23.1167 20 21.8837V9.23256C20 7.99955 20.9914 7 22.2143 7Z" fill="#00FF04"/>
<path d="M28.7846 11.9062C30.0075 11.9062 30.9989 12.9058 30.9989 14.1388V17.8597C30.9989 19.0927 30.0075 20.0923 28.7846 20.0923C27.5617 20.0923 26.5703 19.0927 26.5703 17.8597V14.1388C26.5703 12.9058 27.5617 11.9062 28.7846 11.9062Z" fill="#0051FF"/>
<path d="M2.21429 11.9062C3.4372 11.9062 4.42857 12.9058 4.42857 14.1388V17.8597C4.42857 19.0927 3.4372 20.0923 2.21429 20.0923C0.991369 20.0923 0 19.0927 0 17.8597V14.1388C0 12.9058 0.991369 11.9062 2.21429 11.9062Z" fill="#FF1A00"/>
</svg>
