<svg width="1045" height="927" viewBox="0 0 1045 927" fill="none" xmlns="http://www.w3.org/2000/svg">
<path d="M522.5 0.713867C557.989 0.713867 586.758 29.625 586.758 65.2886V861.711C586.758 897.374 557.989 926.285 522.5 926.285C487.011 926.285 458.242 897.374 458.242 861.711V65.2886C458.242 29.625 487.011 0.713867 522.5 0.713867Z" fill="#E3FF00"/>
<path d="M980.742 344.721C1016.23 344.721 1045 373.728 1045 409.51V517.491C1045 553.273 1016.23 582.28 980.742 582.28C945.254 582.28 916.484 553.273 916.484 517.491V409.51C916.484 373.728 945.254 344.721 980.742 344.721Z" fill="#0051FF"/>
<path d="M64.2578 344.721C99.7464 344.721 128.516 373.728 128.516 409.51V517.491C128.516 553.273 99.7464 582.28 64.2578 582.28C28.7692 582.28 0 553.273 0 517.491V409.51C0 373.728 28.7692 344.721 64.2578 344.721Z" fill="#FF1A00"/>
<path d="M932.256 513.955C923.283 513.955 915.889 512.178 910.074 508.625C904.295 505.036 900.239 500.046 897.906 493.657C895.573 487.232 895.106 479.784 896.506 471.314C897.906 462.843 900.831 455.413 905.282 449.024C909.733 442.599 915.458 437.609 922.457 434.056C929.456 430.467 937.461 428.672 946.47 428.672C955.408 428.672 962.766 430.467 968.545 434.056C974.359 437.609 978.433 442.599 980.766 449.024C983.135 455.413 983.62 462.843 982.22 471.314C980.82 479.784 977.877 487.232 973.39 493.657C968.904 500.046 963.161 505.036 956.161 508.625C949.198 512.178 941.23 513.955 932.256 513.955ZM935.917 491.988C938.502 491.988 940.853 491.145 942.971 489.458C945.124 487.771 946.955 485.366 948.462 482.243C950.006 479.12 951.136 475.405 951.854 471.098C952.572 466.755 952.68 463.04 952.177 459.953C951.675 456.83 950.634 454.426 949.054 452.739C947.475 451.052 945.393 450.208 942.809 450.208C940.225 450.208 937.856 451.052 935.702 452.739C933.548 454.426 931.718 456.83 930.21 459.953C928.703 463.04 927.59 466.755 926.872 471.098C926.154 475.405 926.029 479.12 926.495 482.243C926.998 485.366 928.039 487.771 929.618 489.458C931.233 491.145 933.333 491.988 935.917 491.988Z" fill="white"/>
<path d="M847.768 512.449L861.551 429.75H891.271L877.487 512.449H847.768ZM877.703 421.136C873.683 421.136 870.434 419.808 867.958 417.151C865.481 414.459 864.566 411.265 865.212 407.568C865.858 403.799 867.832 400.604 871.134 397.984C874.437 395.328 878.098 394 882.118 394C886.174 394 889.404 395.328 891.809 397.984C894.214 400.604 895.111 403.799 894.501 407.568C893.927 411.265 891.989 414.459 888.686 417.151C885.42 419.808 881.759 421.136 877.703 421.136Z" fill="white"/>
<path d="M779.874 513.526C773.988 513.526 768.819 511.982 764.368 508.895C759.953 505.808 756.777 501.124 754.838 494.843C752.936 488.562 752.775 480.647 754.354 471.099C756.005 461.121 758.894 453.009 763.022 446.763C767.186 440.518 771.96 435.942 777.344 433.034C782.764 430.127 788.202 428.673 793.657 428.673C797.749 428.673 801.213 429.391 804.049 430.827C806.92 432.227 809.199 434.111 810.886 436.48C812.573 438.813 813.722 441.379 814.332 444.179H814.763L821.762 402.184H851.482L833.176 512.449H803.672L805.933 498.881H805.287C803.672 501.681 801.608 504.193 799.095 506.419C796.619 508.608 793.765 510.349 790.535 511.641C787.304 512.897 783.751 513.526 779.874 513.526ZM794.627 490.697C797.354 490.697 799.831 489.908 802.057 488.328C804.282 486.713 806.166 484.452 807.71 481.544C809.253 478.601 810.348 475.119 810.994 471.099C811.676 467.007 811.73 463.508 811.156 460.6C810.581 457.657 809.433 455.414 807.71 453.87C806.023 452.291 803.815 451.501 801.087 451.501C798.359 451.501 795.901 452.291 793.711 453.87C791.522 455.414 789.673 457.657 788.166 460.6C786.694 463.508 785.617 467.007 784.935 471.099C784.253 475.191 784.164 478.709 784.666 481.652C785.204 484.559 786.317 486.803 788.004 488.382C789.691 489.926 791.899 490.697 794.627 490.697Z" fill="white"/>
<path d="M711.242 476.267L718.995 429.749H748.715L734.932 512.448H706.72L709.304 496.727H708.442C705.894 502.003 702.089 506.131 697.028 509.11C692.003 512.053 686.404 513.525 680.23 513.525C674.451 513.525 669.623 512.197 665.747 509.541C661.87 506.884 659.125 503.223 657.509 498.557C655.894 493.891 655.571 488.543 656.54 482.513L665.37 429.749H695.09L687.337 476.267C686.727 480.359 687.247 483.572 688.898 485.905C690.585 488.238 693.295 489.404 697.028 489.404C699.505 489.404 701.73 488.884 703.704 487.843C705.715 486.766 707.366 485.259 708.658 483.32C709.986 481.346 710.847 478.995 711.242 476.267Z" fill="white"/>
<path d="M559.129 512.449H526.825L581.527 402.184H622.446L640.536 512.449H608.232L597.464 432.55H596.602L559.129 512.449ZM560.422 468.946H621.154L617.277 491.343H556.545L560.422 468.946Z" fill="white"/>
<path d="M368.214 513.526C362.328 513.526 357.159 511.982 352.708 508.895C348.293 505.808 345.117 501.124 343.178 494.843C341.276 488.562 341.114 480.647 342.694 471.099C344.345 461.121 347.234 453.009 351.362 446.763C355.526 440.518 360.3 435.942 365.684 433.034C371.104 430.127 376.541 428.673 381.997 428.673C386.089 428.673 389.553 429.391 392.388 430.827C395.26 432.227 397.539 434.111 399.226 436.48C400.913 438.813 402.062 441.379 402.672 444.179H403.103L410.102 402.184H439.822L421.516 512.449H392.012L394.273 498.881H393.627C392.012 501.681 389.948 504.193 387.435 506.419C384.958 508.608 382.105 510.349 378.875 511.641C375.644 512.897 372.091 513.526 368.214 513.526ZM382.966 490.697C385.694 490.697 388.171 489.908 390.396 488.328C392.622 486.713 394.506 484.452 396.05 481.544C397.593 478.601 398.688 475.119 399.334 471.099C400.016 467.007 400.07 463.508 399.495 460.6C398.921 457.657 397.773 455.414 396.05 453.87C394.363 452.291 392.155 451.501 389.427 451.501C386.699 451.501 384.241 452.291 382.051 453.87C379.862 455.414 378.013 457.657 376.506 460.6C375.034 463.508 373.957 467.007 373.275 471.099C372.593 475.191 372.503 478.709 373.006 481.652C373.544 484.559 374.657 486.803 376.344 488.382C378.031 489.926 380.238 490.697 382.966 490.697Z" fill="white"/>
<path d="M278.059 465.929L270.306 512.448H240.586L254.369 429.749H282.581L279.997 445.47H280.859C283.479 440.194 287.302 436.084 292.327 433.141C297.388 430.161 302.969 428.672 309.071 428.672C314.922 428.672 319.785 430 323.662 432.656C327.538 435.312 330.284 438.973 331.899 443.64C333.515 448.306 333.802 453.654 332.761 459.684L323.931 512.448H294.211L301.964 465.929C302.646 461.838 302.144 458.625 300.457 456.292C298.805 453.959 296.077 452.792 292.273 452.792C289.868 452.792 287.66 453.331 285.65 454.408C283.676 455.449 282.025 456.956 280.697 458.93C279.405 460.868 278.525 463.202 278.059 465.929Z" fill="white"/>
<path d="M187.538 513.955C178.708 513.955 171.386 512.268 165.571 508.894C159.756 505.484 155.665 500.603 153.296 494.25C150.927 487.86 150.496 480.215 152.003 471.314C153.439 462.771 156.4 455.305 160.887 448.916C165.41 442.527 171.099 437.556 177.955 434.002C184.846 430.449 192.563 428.672 201.106 428.672C207.351 428.672 212.825 429.641 217.527 431.579C222.265 433.518 226.124 436.335 229.103 440.032C232.082 443.729 234.092 448.198 235.133 453.438C236.21 458.643 236.21 464.53 235.133 471.098L234.056 477.99H160.187L162.772 461.622H209.29C209.649 459.253 209.415 457.171 208.59 455.377C207.8 453.546 206.526 452.128 204.767 451.123C203.044 450.082 200.962 449.562 198.522 449.562C196.081 449.562 193.784 450.082 191.63 451.123C189.512 452.164 187.7 453.618 186.192 455.484C184.72 457.351 183.733 459.54 183.231 462.053L180 479.282C179.57 481.938 179.731 484.307 180.485 486.389C181.239 488.471 182.549 490.104 184.415 491.288C186.282 492.473 188.687 493.065 191.63 493.065C193.64 493.065 195.542 492.796 197.337 492.257C199.168 491.683 200.783 490.858 202.183 489.781C203.618 488.668 204.767 487.322 205.629 485.743H232.764C230.826 491.486 227.757 496.475 223.557 500.71C219.394 504.91 214.261 508.176 208.159 510.509C202.093 512.807 195.219 513.955 187.538 513.955Z" fill="white"/>
<path d="M143.631 456.669H116.926C117.069 454.946 116.764 453.474 116.011 452.254C115.257 451.034 114.198 450.1 112.834 449.454C111.506 448.808 109.998 448.485 108.311 448.485C105.368 448.485 102.694 449.149 100.289 450.477C97.8843 451.769 96.5382 453.474 96.2511 455.592C96.0716 456.418 96.3408 457.189 97.0587 457.907C97.7766 458.625 99.661 459.289 102.712 459.899L119.079 462.914C127.263 464.422 133.222 467.168 136.954 471.152C140.723 475.1 142.087 480.323 141.046 486.82C140.077 492.455 137.601 497.3 133.616 501.356C129.632 505.412 124.571 508.535 118.433 510.725C112.331 512.878 105.583 513.955 98.1894 513.955C85.16 513.955 75.3969 511.353 68.9002 506.148C62.4393 500.944 59.496 494.142 60.0703 485.743H88.9288C89.0006 488.435 89.8979 490.463 91.6208 491.827C93.3796 493.155 95.7127 493.855 98.6201 493.926C101.779 494.034 104.543 493.406 106.912 492.042C109.28 490.642 110.609 488.901 110.896 486.82C111.003 485.635 110.483 484.738 109.334 484.128C108.222 483.517 106.086 482.907 102.927 482.297L88.7134 479.713C80.5297 478.241 74.5713 475.298 70.8384 470.883C67.1055 466.432 65.8133 460.761 66.9619 453.869C67.8951 448.377 70.1205 443.765 73.6381 440.032C77.1916 436.299 81.8578 433.482 87.6366 431.579C93.4155 429.641 100.092 428.672 107.665 428.672C120.049 428.672 129.417 431.166 135.77 436.156C142.159 441.109 144.779 447.947 143.631 456.669Z" fill="white"/>
<path d="M292.729 213.608C328.218 213.608 356.987 242.719 356.987 278.628V647.073C356.987 682.983 328.218 712.093 292.729 712.093C257.241 712.093 228.472 682.983 228.472 647.073V278.628C228.472 242.719 257.241 213.608 292.729 213.608Z" fill="#FF8D00"/>
<path d="M750.972 213.608C786.46 213.608 815.229 242.719 815.229 278.628V647.073C815.229 682.983 786.46 712.093 750.972 712.093C715.483 712.093 686.714 682.983 686.714 647.073V278.628C686.714 242.719 715.483 213.608 750.972 213.608Z" fill="#00FF04"/>
<path d="M779.874 513.526C773.988 513.526 768.819 511.982 764.368 508.895C759.953 505.808 756.777 501.124 754.838 494.843C752.936 488.562 752.775 480.647 754.354 471.099C756.005 461.121 758.894 453.009 763.022 446.763C767.186 440.518 771.96 435.942 777.344 433.034C782.764 430.127 788.202 428.673 793.657 428.673C797.749 428.673 801.213 429.391 804.049 430.827C806.92 432.227 809.199 434.111 810.886 436.48C812.573 438.813 813.722 441.379 814.332 444.179H814.763L821.762 402.184H851.482L833.176 512.449H803.672L805.933 498.881H805.287C803.672 501.681 801.608 504.193 799.095 506.419C796.619 508.608 793.765 510.349 790.535 511.641C787.304 512.897 783.751 513.526 779.874 513.526ZM794.627 490.697C797.354 490.697 799.831 489.908 802.057 488.328C804.282 486.713 806.166 484.452 807.71 481.544C809.253 478.601 810.348 475.119 810.994 471.099C811.676 467.007 811.73 463.508 811.156 460.6C810.581 457.657 809.433 455.414 807.71 453.87C806.023 452.291 803.815 451.501 801.087 451.501C798.359 451.501 795.901 452.291 793.711 453.87C791.522 455.414 789.673 457.657 788.166 460.6C786.694 463.508 785.617 467.007 784.935 471.099C784.253 475.191 784.164 478.709 784.666 481.652C785.204 484.559 786.317 486.803 788.004 488.382C789.691 489.926 791.899 490.697 794.627 490.697Z" stroke="white" stroke-width="8"/>
<path d="M711.242 476.267L718.995 429.749H748.715L734.932 512.448H706.72L709.304 496.727H708.442C705.894 502.003 702.089 506.131 697.028 509.11C692.003 512.053 686.404 513.525 680.23 513.525C674.451 513.525 669.623 512.197 665.747 509.541C661.87 506.884 659.125 503.223 657.509 498.557C655.894 493.891 655.571 488.543 656.54 482.513L665.37 429.749H695.09L687.337 476.267C686.727 480.359 687.247 483.572 688.898 485.905C690.585 488.238 693.295 489.404 697.028 489.404C699.505 489.404 701.73 488.884 703.704 487.843C705.715 486.766 707.366 485.259 708.658 483.32C709.986 481.346 710.847 478.995 711.242 476.267Z" stroke="white" stroke-width="8"/>
<path d="M368.214 513.526C362.328 513.526 357.159 511.982 352.708 508.895C348.293 505.808 345.117 501.124 343.178 494.843C341.276 488.562 341.114 480.647 342.694 471.099C344.345 461.121 347.234 453.009 351.362 446.763C355.526 440.518 360.3 435.942 365.684 433.034C371.104 430.127 376.541 428.673 381.997 428.673C386.089 428.673 389.553 429.391 392.388 430.827C395.26 432.227 397.539 434.111 399.226 436.48C400.913 438.813 402.062 441.379 402.672 444.179H403.103L410.102 402.184H439.822L421.516 512.449H392.012L394.273 498.881H393.627C392.012 501.681 389.948 504.193 387.435 506.419C384.958 508.608 382.105 510.349 378.875 511.641C375.644 512.897 372.091 513.526 368.214 513.526ZM382.966 490.697C385.694 490.697 388.171 489.908 390.396 488.328C392.622 486.713 394.506 484.452 396.05 481.544C397.593 478.601 398.688 475.119 399.334 471.099C400.016 467.007 400.07 463.508 399.495 460.6C398.921 457.657 397.773 455.414 396.05 453.87C394.363 452.291 392.155 451.501 389.427 451.501C386.699 451.501 384.241 452.291 382.051 453.87C379.862 455.414 378.013 457.657 376.506 460.6C375.034 463.508 373.957 467.007 373.275 471.099C372.593 475.191 372.503 478.709 373.006 481.652C373.544 484.559 374.657 486.803 376.344 488.382C378.031 489.926 380.238 490.697 382.966 490.697Z" stroke="white" stroke-width="8"/>
<path d="M278.059 465.929L270.306 512.448H240.586L254.369 429.749H282.581L279.997 445.47H280.859C283.479 440.194 287.302 436.084 292.327 433.141C297.388 430.161 302.969 428.672 309.071 428.672C314.922 428.672 319.785 430 323.662 432.656C327.538 435.312 330.284 438.973 331.899 443.64C333.515 448.306 333.802 453.654 332.761 459.684L323.931 512.448H294.211L301.964 465.929C302.646 461.838 302.144 458.625 300.457 456.292C298.805 453.959 296.077 452.792 292.273 452.792C289.868 452.792 287.66 453.331 285.65 454.408C283.676 455.449 282.025 456.956 280.697 458.93C279.405 460.868 278.525 463.202 278.059 465.929Z" stroke="white" stroke-width="8"/>
<path d="M187.538 513.955C178.708 513.955 171.386 512.268 165.571 508.894C159.756 505.484 155.665 500.603 153.296 494.25C150.927 487.86 150.496 480.215 152.003 471.314C153.439 462.771 156.4 455.305 160.887 448.916C165.41 442.527 171.099 437.556 177.955 434.002C184.846 430.449 192.563 428.672 201.106 428.672C207.351 428.672 212.825 429.641 217.527 431.579C222.265 433.518 226.124 436.335 229.103 440.032C232.082 443.729 234.092 448.198 235.133 453.438C236.21 458.643 236.21 464.53 235.133 471.098L234.056 477.99H160.187L162.772 461.622H209.29C209.649 459.253 209.415 457.171 208.59 455.377C207.8 453.546 206.526 452.128 204.767 451.123C203.044 450.082 200.962 449.562 198.522 449.562C196.081 449.562 193.784 450.082 191.63 451.123C189.512 452.164 187.7 453.618 186.192 455.484C184.72 457.351 183.733 459.54 183.231 462.053L180 479.282C179.57 481.938 179.731 484.307 180.485 486.389C181.239 488.471 182.549 490.104 184.415 491.288C186.282 492.473 188.687 493.065 191.63 493.065C193.64 493.065 195.542 492.796 197.337 492.257C199.168 491.683 200.783 490.858 202.183 489.781C203.618 488.668 204.767 487.322 205.629 485.743H232.764C230.826 491.486 227.757 496.475 223.557 500.71C219.394 504.91 214.261 508.176 208.159 510.509C202.093 512.807 195.219 513.955 187.538 513.955Z" stroke="white" stroke-width="6"/>
</svg>
