<svg width="665" height="306" viewBox="0 0 665 306" fill="none" xmlns="http://www.w3.org/2000/svg">
<rect y="95" width="665" height="211" rx="70" fill="#FCE9CE"/>
<circle cx="216.5" cy="95.5" r="95.5" fill="#FCE9CE"/>
<path d="M364 95C326.8 93.8 307.667 67.6667 303 55L304 103.5L364 95Z" fill="#FCE9CE"/>
<path d="M69 95C106.2 93.8 125.333 67.6667 130 55L129 103.5L69 95Z" fill="#FCE9CE"/>
<path d="M191.289 73.1626H209.169V55.8562C209.169 54.2946 210.463 53.0288 212.022 53.0288H220.995C222.571 53.0288 223.848 54.311 223.848 55.8562V73.1626H241.728C249.424 73.1626 255.726 79.409 255.726 87.0526V101.091H263.505C265.976 101.091 268 103.08 268 105.545C268 107.995 265.993 110 263.505 110H169.495C167.024 110 165 108.011 165 105.545C165 103.096 167.007 101.091 169.495 101.091H177.274V87.0526C177.29 79.409 183.593 73.1626 191.289 73.1626ZM216.517 27C218.691 33.9167 222.72 37.208 222.72 40.6271C222.72 44.0297 221.177 47.4324 216.517 47.4324C211.872 47.4324 210.313 44.0297 210.313 40.6271C210.313 37.2244 214.309 33.9167 216.517 27Z" stroke="black" stroke-width="5"/>
</svg>
