<svg width="5798" height="3397" viewBox="0 0 5798 3397" fill="none" xmlns="http://www.w3.org/2000/svg">
<rect width="5798" height="3397" fill="url(#paint0_radial_468_32)"/>
<g filter="url(#filter0_d_468_32)">
<path d="M2190.24 1433.1C2190.24 1686.65 1939.02 1892.2 1629.12 1892.2C1319.22 1892.2 1068 1686.65 1068 1433.1C1068 1179.55 1319.22 974 1629.12 974C1939.02 974 2190.24 1179.55 2190.24 1433.1Z" fill="#37C863"/>
<path d="M2125 1892L2028.5 1722L1708 1800.46L2125 1892Z" fill="#37C863"/>
</g>
<g filter="url(#filter1_d_468_32)">
<path d="M2149.52 1497.47C2151.2 1500.51 2151.23 1504.1 2149.78 1507.1C2148.65 1509.46 2146.95 1510.74 2146.27 1511.21C2144.85 1512.2 2143.48 1512.63 2143.16 1512.73C2142.59 1512.91 2142.09 1513.03 2141.75 1513.1C2141.22 1513.21 2140.71 1513.3 2140.28 1513.36L2139.87 1513.41L2139.43 1513.47L2139 1513.48C2106.42 1514.8 2060.31 1518.68 2015.26 1529.35C1969.93 1540.09 1927.15 1557.37 1899.83 1584.48C1871.2 1612.89 1853.47 1658.12 1842.8 1705.35C1832.19 1752.26 1828.89 1799.55 1827.97 1830.56C1827.96 1830.84 1827.95 1831.22 1827.92 1831.58C1827.91 1831.76 1827.89 1832.01 1827.86 1832.3C1827.85 1832.41 1827.77 1833.17 1827.53 1834.05C1827.45 1834.32 1827.31 1834.78 1827.08 1835.33C1826.91 1835.76 1826.4 1836.92 1825.35 1838.14C1824.38 1839.27 1821.48 1842.06 1816.73 1841.81C1812.24 1841.58 1809.72 1838.76 1808.97 1837.82C1807.5 1835.97 1807.06 1834.03 1807.06 1834.03C1806.92 1833.52 1806.84 1833.1 1806.81 1832.89C1806.69 1832.16 1806.63 1831.39 1806.6 1830.93L1806.59 1830.74L1806.59 1830.56C1805.67 1799.55 1802.36 1752.26 1791.76 1705.35C1781.09 1658.12 1763.36 1612.89 1734.73 1584.48C1706.35 1556.31 1661.3 1538.78 1614.12 1528.16C1567.25 1517.6 1519.87 1514.21 1488.33 1513.22L1488.27 1513.22L1488.2 1513.22C1487.74 1513.2 1486.76 1513.16 1485.78 1512.97C1485.5 1512.92 1484.92 1512.81 1484.23 1512.57C1483.99 1512.49 1481.76 1511.81 1479.83 1509.75C1478.65 1508.49 1477.13 1506.2 1477.01 1502.99C1476.89 1499.78 1478.23 1497.4 1479.28 1496.07C1481.02 1493.9 1483.14 1493.04 1483.38 1492.94C1484.49 1492.46 1485.47 1492.27 1485.62 1492.24C1485.99 1492.16 1486.31 1492.11 1486.52 1492.08C1486.96 1492.02 1487.38 1491.97 1487.7 1491.94L1488.01 1491.92L1488.33 1491.91C1519.87 1490.92 1567.25 1487.53 1614.12 1476.97C1661.3 1466.35 1706.35 1448.82 1734.73 1420.65C1762.67 1392.93 1780.24 1349.17 1790.99 1303.11C1801.68 1257.36 1805.31 1210.85 1806.44 1179.08C1806.45 1178.68 1806.49 1177.2 1806.95 1175.65C1807.09 1175.18 1807.38 1174.32 1807.95 1173.34C1808.44 1172.48 1809.71 1170.54 1812.24 1169.21C1815.33 1167.6 1818.71 1167.72 1821.39 1168.86C1823.58 1169.79 1824.86 1171.2 1825.38 1171.82C1826.45 1173.09 1826.96 1174.33 1827.09 1174.63C1827.3 1175.13 1827.45 1175.58 1827.53 1175.85C1827.71 1176.42 1827.83 1176.95 1827.91 1177.33L1828.09 1178.2L1828.12 1179.08C1829.24 1210.85 1832.87 1257.36 1843.56 1303.11C1854.32 1349.17 1871.89 1392.93 1899.83 1420.65C1927.15 1447.76 1969.93 1465.04 2015.26 1475.78C2060.31 1486.45 2106.42 1490.33 2139 1491.65L2139.32 1491.66L2139.64 1491.69C2140.38 1491.77 2141.94 1491.93 2143.45 1492.44C2143.9 1492.6 2144.7 1492.89 2145.6 1493.43C2146.34 1493.87 2148.21 1495.07 2149.52 1497.47Z" fill="#FFD700"/>
<path d="M2483.97 1752.63C2485.24 1754.95 2485.27 1757.67 2484.16 1759.95C2483.3 1761.75 2482.01 1762.72 2481.5 1763.08C2480.41 1763.84 2479.37 1764.16 2479.13 1764.24C2478.7 1764.37 2478.31 1764.46 2478.05 1764.52C2477.66 1764.6 2477.27 1764.67 2476.94 1764.71L2476.63 1764.75L2476.3 1764.79L2475.96 1764.81C2451.19 1765.81 2416.14 1768.76 2381.88 1776.87C2347.42 1785.04 2314.89 1798.17 2294.12 1818.79C2272.35 1840.39 2258.87 1874.78 2250.75 1910.69C2242.69 1946.36 2240.18 1982.32 2239.48 2005.89C2239.48 2006.11 2239.46 2006.39 2239.45 2006.67C2239.44 2006.8 2239.42 2007 2239.4 2007.21C2239.39 2007.29 2239.33 2007.87 2239.14 2008.55C2239.09 2008.75 2238.98 2009.1 2238.81 2009.52C2238.67 2009.84 2238.29 2010.73 2237.49 2011.65C2236.75 2012.51 2234.54 2014.64 2230.94 2014.45C2227.52 2014.27 2225.61 2012.13 2225.04 2011.41C2223.92 2010.01 2223.58 2008.53 2223.58 2008.53C2223.47 2008.14 2223.42 2007.82 2223.39 2007.67C2223.3 2007.11 2223.26 2006.52 2223.23 2006.17L2223.22 2006.03L2223.22 2005.89C2222.53 1982.32 2220.01 1946.36 2211.95 1910.69C2203.83 1874.78 2190.36 1840.39 2168.59 1818.79C2147.01 1797.37 2112.75 1784.04 2076.88 1775.96C2041.25 1767.94 2005.23 1765.36 1981.24 1764.61L1981.19 1764.61L1981.15 1764.61C1980.79 1764.59 1980.05 1764.56 1979.3 1764.42C1979.09 1764.38 1978.65 1764.29 1978.12 1764.12C1977.94 1764.05 1976.25 1763.54 1974.78 1761.97C1973.88 1761.01 1972.72 1759.27 1972.63 1756.83C1972.54 1754.39 1973.56 1752.58 1974.36 1751.57C1975.68 1749.92 1977.3 1749.27 1977.48 1749.19C1978.32 1748.82 1979.07 1748.68 1979.18 1748.65C1979.46 1748.6 1979.71 1748.56 1979.87 1748.53C1980.2 1748.49 1980.52 1748.45 1980.76 1748.43L1981 1748.41L1981.24 1748.4C2005.23 1747.66 2041.25 1745.07 2076.88 1737.05C2112.75 1728.97 2147.01 1715.64 2168.59 1694.23C2189.83 1673.15 2203.19 1639.87 2211.37 1604.86C2219.49 1570.07 2222.25 1534.71 2223.11 1510.55C2223.12 1510.25 2223.15 1509.12 2223.5 1507.94C2223.61 1507.59 2223.83 1506.93 2224.25 1506.18C2224.63 1505.53 2225.59 1504.06 2227.52 1503.05C2229.87 1501.82 2232.44 1501.91 2234.48 1502.78C2236.14 1503.49 2237.12 1504.56 2237.51 1505.03C2238.32 1506 2238.71 1506.94 2238.81 1507.17C2238.97 1507.55 2239.08 1507.89 2239.15 1508.1C2239.28 1508.53 2239.37 1508.93 2239.43 1509.22L2239.57 1509.88L2239.59 1510.55C2240.45 1534.71 2243.21 1570.07 2251.34 1604.86C2259.52 1639.87 2272.87 1673.15 2294.12 1694.23C2314.89 1714.84 2347.42 1727.98 2381.88 1736.14C2416.14 1744.25 2451.19 1747.21 2475.96 1748.21L2476.21 1748.22L2476.45 1748.24C2477.01 1748.3 2478.2 1748.42 2479.35 1748.81C2479.69 1748.93 2480.3 1749.15 2480.98 1749.56C2481.55 1749.89 2482.97 1750.81 2483.97 1752.63Z" fill="#FFD700"/>
<path d="M2111.1 2029.71C2112.06 2031.44 2112.08 2033.49 2111.25 2035.2C2110.6 2036.54 2109.64 2037.27 2109.25 2037.54C2108.44 2038.11 2107.66 2038.35 2107.47 2038.41C2107.15 2038.51 2106.86 2038.58 2106.67 2038.62C2106.37 2038.68 2106.08 2038.73 2105.83 2038.77L2105.6 2038.8L2105.35 2038.83L2105.1 2038.84C2086.52 2039.59 2060.23 2041.8 2034.54 2047.89C2008.69 2054.01 1984.29 2063.86 1968.71 2079.32C1952.39 2095.52 1942.28 2121.32 1936.19 2148.25C1930.15 2175 1928.26 2201.97 1927.74 2219.65C1927.74 2219.81 1927.73 2220.02 1927.71 2220.23C1927.71 2220.33 1927.69 2220.48 1927.68 2220.64C1927.67 2220.7 1927.62 2221.14 1927.49 2221.64C1927.44 2221.79 1927.36 2222.06 1927.23 2222.37C1927.13 2222.62 1926.84 2223.28 1926.25 2223.97C1925.69 2224.62 1924.04 2226.21 1921.33 2226.07C1918.77 2225.93 1917.33 2224.33 1916.91 2223.79C1916.07 2222.74 1915.81 2221.63 1915.81 2221.63C1915.73 2221.34 1915.69 2221.1 1915.67 2220.98C1915.6 2220.57 1915.57 2220.13 1915.55 2219.86L1915.55 2219.76L1915.54 2219.65C1915.02 2201.97 1913.14 2175 1907.09 2148.25C1901 2121.32 1890.9 2095.52 1874.57 2079.32C1858.38 2063.26 1832.69 2053.26 1805.79 2047.21C1779.07 2041.19 1752.05 2039.25 1734.06 2038.69L1734.02 2038.69L1733.99 2038.69C1733.72 2038.68 1733.16 2038.65 1732.6 2038.55C1732.44 2038.52 1732.12 2038.45 1731.72 2038.32C1731.58 2038.27 1730.31 2037.89 1729.21 2036.71C1728.54 2035.99 1727.67 2034.69 1727.6 2032.85C1727.53 2031.02 1728.3 2029.67 1728.9 2028.91C1729.89 2027.67 1731.1 2027.18 1731.24 2027.12C1731.87 2026.85 1732.43 2026.74 1732.52 2026.72C1732.72 2026.68 1732.91 2026.65 1733.03 2026.63C1733.28 2026.6 1733.52 2026.57 1733.7 2026.56L1733.88 2026.54L1734.06 2026.53C1752.05 2025.97 1779.07 2024.04 1805.79 2018.02C1832.69 2011.96 1858.38 2001.96 1874.57 1985.9C1890.5 1970.09 1900.52 1945.14 1906.65 1918.88C1912.75 1892.78 1914.82 1866.26 1915.46 1848.15C1915.47 1847.92 1915.49 1847.07 1915.75 1846.19C1915.83 1845.92 1916 1845.43 1916.32 1844.87C1916.6 1844.38 1917.32 1843.27 1918.77 1842.52C1920.53 1841.6 1922.46 1841.66 1923.99 1842.32C1925.23 1842.85 1925.97 1843.65 1926.26 1844.01C1926.87 1844.73 1927.16 1845.44 1927.24 1845.61C1927.36 1845.9 1927.44 1846.15 1927.49 1846.31C1927.59 1846.63 1927.66 1846.93 1927.7 1847.15L1927.81 1847.64L1927.82 1848.15C1928.47 1866.26 1930.54 1892.78 1936.63 1918.88C1942.76 1945.14 1952.78 1970.09 1968.71 1985.9C1984.29 2001.36 2008.69 2011.21 2034.54 2017.34C2060.23 2023.42 2086.52 2025.64 2105.1 2026.39L2105.28 2026.39L2105.47 2026.41C2105.89 2026.45 2106.78 2026.55 2107.64 2026.84C2107.9 2026.93 2108.35 2027.1 2108.86 2027.4C2109.29 2027.65 2110.35 2028.34 2111.1 2029.71Z" fill="#FFD700"/>
</g>
<g filter="url(#filter2_d_468_32)">
<path d="M2258.6 579.999C2285.94 579.999 2308.1 602.424 2308.1 630.086V913.912C2308.1 941.574 2285.94 963.999 2258.6 963.999C2231.26 963.999 2209.1 941.574 2209.1 913.912V630.086C2209.1 602.424 2231.26 579.999 2258.6 579.999Z" fill="#FF8D00"/>
</g>
<path d="M831.464 428.159C962.74 380.457 1277.05 307.629 1631.08 413.358C1988.35 520.053 2376.48 805.757 2655.61 1458.23C2982.83 2223.1 3286.98 2656.89 3563.94 2900.69C3838.27 3142.17 4088.61 3199.67 4317.8 3204.83C4781.01 3215.27 5286.36 2975.22 5470.36 2468.62C5648.99 1976.81 5493.47 1622.65 5211.72 1466.74C5025.86 1363.9 4863.29 1332.33 4693.11 1373.32C4547.55 1408.38 4390.63 1497.82 4205.52 1654.03L4592.04 1668.55C4624.84 1669.78 4650.43 1697.36 4649.2 1730.15C4647.97 1762.95 4620.38 1788.54 4587.58 1787.3L4053.08 1767.24C4020.28 1766.01 3994.69 1738.42 3995.92 1705.63L4015.99 1171.21C4017.22 1138.42 4044.81 1112.83 4077.61 1114.06C4110.41 1115.29 4136 1142.88 4134.77 1175.67L4119.93 1570.77C4316.19 1403.73 4492.44 1299.41 4665.27 1257.78C4871.68 1208.07 5064.83 1249.63 5269.27 1362.76C5613.27 1553.11 5776.01 1975.26 5582.08 2509.19C5376.35 3075.61 4815.37 3334.92 4315.12 3323.65C4062.58 3317.96 3783.98 3252.72 3485.4 2989.89C3189.46 2729.38 2876.73 2277.28 2546.33 1504.97C2279.15 880.455 1916.11 622.51 1597.07 527.229C1274.79 430.983 987.651 497.852 872.062 539.854C465.473 687.597 184.824 1119.53 264.395 1735.1C301.524 2022.33 455.572 2288.33 643.018 2499.05C830.903 2710.27 1046.6 2859.52 1197.92 2916.69C1228.63 2928.29 1244.11 2962.58 1232.51 2993.28C1220.91 3023.98 1186.61 3039.46 1155.91 3027.86C982.078 2962.19 751.189 2799.48 554.203 2578.03C356.778 2356.09 187.672 2068.74 146.513 1750.33C61.0887 1089.48 363.735 598.118 831.464 428.159Z" fill="white"/>
<path d="M3630.97 586.71C3640.16 523.758 3698.64 480.174 3761.59 489.361L4052.88 531.875C4089.73 537.253 4119.95 559.526 4136.83 589.699L4074.63 644.619C4074.06 626.368 4060.49 610.593 4041.79 607.864L3750.5 565.351C3729.51 562.288 3710.02 576.816 3706.96 597.8L3634.87 1091.73C3631.81 1112.72 3646.34 1132.21 3667.32 1135.27L3721.75 1143.22L3801.88 1232.52L3656.23 1211.26C3593.28 1202.07 3549.69 1143.59 3558.88 1080.64L3630.97 586.71Z" fill="white"/>
<path d="M3958.61 1177.79C3979.6 1180.85 3999.09 1166.32 4002.15 1145.34L4042.61 868.113L4131.13 793.388L4078.14 1156.43C4071.74 1200.3 4041.4 1234.76 4002.29 1248.51L3938.48 1174.85L3958.61 1177.79Z" fill="white"/>
<g filter="url(#filter3_d_468_32)">
<path d="M4592.16 1668.52L4205.65 1654.01V1500.5L4120.05 1570.75L4134.89 1175.65C4136.12 1142.86 4110.53 1115.27 4077.73 1114.04C4044.93 1112.81 4017.34 1138.4 4016.11 1171.19L3996.04 1705.61C3994.81 1738.4 4020.4 1765.99 4053.2 1767.22L4587.7 1787.28C4620.5 1788.51 4648.09 1762.93 4649.32 1730.13C4650.55 1697.34 4624.96 1669.76 4592.16 1668.52Z" fill="white"/>
</g>
<g filter="url(#filter4_d_468_32)">
<path fill-rule="evenodd" clip-rule="evenodd" d="M4137.88 637.547C4185.61 595.483 4258.4 600.075 4300.46 647.803L4495.1 868.654C4537.16 916.382 4532.57 989.172 4484.84 1031.24L4110.36 1361.28C4062.63 1403.34 3989.84 1398.75 3947.78 1351.02L3753.14 1130.17C3711.07 1082.44 3715.67 1009.65 3763.39 967.587L4137.88 637.547ZM4242.85 698.579C4228.83 682.669 4204.56 681.139 4188.65 695.16L3814.17 1025.2C3798.26 1039.22 3796.73 1063.48 3810.75 1079.39L4005.39 1300.24C4019.41 1316.15 4043.67 1317.68 4059.58 1303.66L4434.07 973.623C4449.98 959.602 4451.51 935.338 4437.49 919.429L4242.85 698.579Z" fill="#FFD700"/>
</g>
<g filter="url(#filter5_d_468_32)">
<path d="M2435.6 415.999C2462.94 415.999 2485.1 438.27 2485.1 465.743V1079.25C2485.1 1106.73 2462.94 1129 2435.6 1129C2408.26 1129 2386.1 1106.73 2386.1 1079.25V465.743C2386.1 438.27 2408.26 415.999 2435.6 415.999Z" fill="#E3FF00"/>
</g>
<g filter="url(#filter6_d_468_32)">
<path d="M2611.6 579.999C2638.94 579.999 2661.1 602.424 2661.1 630.086V913.912C2661.1 941.574 2638.94 963.999 2611.6 963.999C2584.26 963.999 2562.1 941.574 2562.1 913.912V630.086C2562.1 602.424 2584.26 579.999 2611.6 579.999Z" fill="#00FF04"/>
</g>
<g filter="url(#filter7_d_468_32)">
<path d="M2788.6 680.999C2815.94 680.999 2838.1 703.344 2838.1 730.908V814.09C2838.1 841.654 2815.94 863.999 2788.6 863.999C2761.26 863.999 2739.1 841.654 2739.1 814.09V730.908C2739.1 703.344 2761.26 680.999 2788.6 680.999Z" fill="#0051FF"/>
</g>
<g filter="url(#filter8_d_468_32)">
<path d="M2082.6 680.999C2109.94 680.999 2132.1 703.344 2132.1 730.908V814.09C2132.1 841.654 2109.94 863.999 2082.6 863.999C2055.26 863.999 2033.1 841.654 2033.1 814.09V730.908C2033.1 703.344 2055.26 680.999 2082.6 680.999Z" fill="#FF1A00"/>
</g>
<g filter="url(#filter9_d_468_32)">
<path d="M4510.72 1830C4510.72 1815.24 4498.98 1803.27 4484.5 1803.27C4470.02 1803.27 4458.28 1815.24 4458.28 1830C4458.28 1844.76 4470.02 1856.73 4484.5 1856.73C4498.98 1856.73 4510.72 1844.76 4510.72 1830ZM4513 1830C4513 1845.97 4500.29 1859 4484.5 1859C4468.71 1859 4456 1845.97 4456 1830C4456 1814.03 4468.71 1801 4484.5 1801C4500.29 1801 4513 1814.03 4513 1830Z" fill="black"/>
</g>
<g filter="url(#filter10_d_468_32)">
<path d="M4096.91 2219.02C4082.96 2219 4071.6 2230.1 4071.23 2243.96L4071.22 2244.62C4071.19 2258.79 4082.66 2270.29 4096.82 2270.31L4097.48 2270.31C4111.12 2269.98 4122.14 2259.01 4122.5 2245.37L4122.51 2244.71C4122.53 2230.76 4111.43 2219.4 4097.57 2219.03L4096.91 2219.02ZM4096.91 2216.73C4112.34 2216.76 4124.82 2229.28 4124.8 2244.71C4124.77 2260.14 4112.25 2272.62 4096.82 2272.6C4081.39 2272.57 4068.9 2260.05 4068.93 2244.62C4068.95 2229.19 4081.48 2216.71 4096.91 2216.73Z" fill="black"/>
</g>
<g filter="url(#filter11_d_468_32)">
<path d="M4431.65 1915.76L4469.36 1727.33L4527.06 1915.76L4644.19 1771.87L4625.91 1950.02L4888.73 1765.01L4706.47 2031.1L4885.87 2013.4L4743.03 2128.17L4932.72 2186.41L4749.89 2222.96L4975 2401.11L4683.61 2303.47L4797.31 2514.17L4612.19 2383.41L4651.62 2613.52L4531.06 2439.94L4463.64 2734L4426.5 2415.38L4301.38 2609.52L4320.8 2415.38L4000.28 2655.77L4233.39 2343.44L4012.28 2400.54L4213.96 2238.94L4023.13 2181.84L4205.96 2135.02L3942 1961.44L4244.24 2025.96L4149.97 1855.23L4313.95 1954.59L4274.53 1592L4431.65 1915.76ZM4372.8 2051.66L4261.38 1974.57L4338.52 2103.62L4203.68 2072.78L4301.95 2149.87L4168.25 2185.27L4293.95 2223.53L4174.54 2319.45L4327.66 2279.48L4232.82 2420.52L4368.23 2333.73L4355.66 2454.78L4453.36 2304.04L4475.07 2504.46L4512.78 2347.43L4585.34 2450.21L4559.06 2298.33L4684.18 2385.69L4604.77 2237.23L4779.6 2294.9L4661.33 2201.83L4742.46 2177.28L4661.33 2146.44L4760.74 2064.22L4627.62 2077.35L4699.04 1955.73L4579.05 2029.96L4592.77 1895.2L4511.06 1994.56L4481.35 1920.9L4445.36 2035.1L4361.94 1882.64L4372.8 2051.66Z" fill="#F05A27"/>
<path d="M4272.36 1583.33C4276.36 1582.18 4280.61 1584.08 4282.43 1587.83L4428.27 1888.9L4460.95 1725.32L4461.03 1724.96C4461.92 1721.3 4465.12 1718.63 4468.92 1718.44C4472.83 1718.25 4476.38 1720.74 4477.53 1724.49L4530.48 1897.69L4637.35 1766.16C4639.73 1763.22 4643.77 1762.2 4647.26 1763.65C4650.76 1765.1 4652.89 1768.68 4652.5 1772.45L4636.16 1932.02L4883.33 1757.71C4886.72 1755.32 4891.32 1755.7 4894.27 1758.61C4897.22 1761.53 4897.66 1766.13 4895.32 1769.56L4723.64 2020.66L4884.56 2004.76C4888.33 2004.38 4891.9 2006.53 4893.33 2010.05C4894.76 2013.56 4893.72 2017.59 4890.77 2019.97L4760.67 2124.7L4934.72 2178.24C4938.46 2179.39 4940.95 2182.94 4940.75 2186.86C4940.56 2190.78 4937.73 2194.06 4933.88 2194.83L4769.38 2227.77L4979.75 2394.57C4983.01 2397.15 4983.95 2401.71 4981.97 2405.37C4979.98 2409.03 4975.66 2410.74 4971.72 2409.41L4701.18 2318.59L4804.48 2510.36C4806.36 2513.86 4805.59 2518.2 4802.62 2520.84C4799.64 2523.48 4795.25 2523.73 4792 2521.43L4623.95 2402.51L4659.84 2612.41C4660.52 2616.37 4658.36 2620.27 4654.65 2621.79C4650.93 2623.31 4646.66 2622.04 4644.37 2618.74L4535 2460.97L4471.98 2736.34C4471.05 2740.41 4467.33 2743.21 4463.17 2742.99C4459.01 2742.76 4455.62 2739.56 4455.13 2735.42L4420.8 2440.32L4308.75 2614.5C4306.61 2617.83 4302.46 2619.26 4298.73 2617.95C4294.99 2616.64 4292.64 2612.95 4293.03 2609L4310.5 2434.15L4005.91 2663C4002.51 2665.56 3997.75 2665.22 3994.73 2662.21C3991.72 2659.2 3991.37 2654.43 3993.91 2651.02L4212.23 2357.96L4014.9 2409.01C4011 2410.02 4006.91 2408.16 4005.11 2404.55C4003.3 2400.94 4004.26 2396.55 4007.41 2394.03L4196.15 2242.53L4021.15 2190.07C4017.47 2188.96 4014.97 2185.54 4015.05 2181.69C4015.12 2177.84 4017.76 2174.51 4021.48 2173.55L4185.36 2131.51L3937.86 1968.45C3934.42 1966.18 3933.07 1961.78 3934.66 1957.98C3936.25 1954.17 3940.32 1952.04 3944.35 1952.9L4227.91 2013.55L4142.81 1859.14C4140.94 1855.74 4141.58 1851.51 4144.38 1848.82C4147.18 1846.13 4151.43 1845.66 4154.75 1847.67L4303.72 1938.1L4266.22 1592.5C4265.77 1588.35 4268.36 1584.49 4272.36 1583.33ZM4322.62 1953.5C4322.97 1956.75 4321.45 1959.91 4318.7 1961.66C4315.96 1963.41 4312.45 1963.45 4309.67 1961.76L4173.3 1878.98L4251.97 2021.72C4253.59 2024.65 4253.35 2028.27 4251.35 2030.97C4249.35 2033.66 4245.97 2034.94 4242.69 2034.24L3985.32 1979.2L4210.94 2127.84C4213.78 2129.7 4215.24 2133.07 4214.68 2136.41C4214.12 2139.76 4211.65 2142.46 4208.36 2143.3L4055.59 2182.5L4216.68 2230.79C4219.73 2231.7 4222.02 2234.23 4222.63 2237.36C4223.24 2240.49 4222.07 2243.69 4219.58 2245.69L4049.23 2382.43L4231.49 2335.27C4235.01 2334.36 4238.72 2335.77 4240.74 2338.79C4242.77 2341.81 4242.67 2345.78 4240.5 2348.7L4043.17 2613.57L4315.82 2408.72C4318.53 2406.67 4322.2 2406.43 4325.16 2408.1C4328.12 2409.78 4329.81 2413.04 4329.47 2416.42L4313.61 2575.29L4419.34 2410.93C4421.3 2407.89 4424.95 2406.4 4428.48 2407.22C4432 2408.04 4434.62 2410.98 4435.04 2414.58L4466.39 2684.02L4522.64 2438.23L4522.72 2437.92C4523.56 2434.76 4526.14 2432.35 4529.36 2431.73C4532.69 2431.08 4536.08 2432.47 4538.02 2435.26L4636.46 2577.27L4603.59 2385.02C4603 2381.6 4604.53 2378.17 4607.46 2376.32C4610.39 2374.47 4614.14 2374.57 4616.97 2376.57L4772.09 2486.34L4675.83 2307.64C4674.16 2304.54 4674.56 2300.74 4676.82 2298.05C4679.08 2295.36 4682.76 2294.33 4686.09 2295.44L4930.74 2377.58L4744.26 2229.72C4741.64 2227.65 4740.47 2224.24 4741.25 2220.99C4742.03 2217.75 4744.62 2215.25 4747.89 2214.59L4897.34 2184.67L4740.21 2136.34C4737.18 2135.4 4734.91 2132.87 4734.32 2129.76C4733.72 2126.64 4734.89 2123.45 4737.36 2121.46L4857.63 2024.64L4707.04 2039.53C4703.73 2039.86 4700.52 2038.23 4698.83 2035.37C4697.13 2032.5 4697.25 2028.91 4699.13 2026.16L4854.38 1799.09L4630.65 1956.87C4627.91 1958.8 4624.29 1958.95 4621.4 1957.25C4618.5 1955.56 4616.87 1952.32 4617.21 1948.98L4632.55 1799.24L4533.63 1920.98C4531.63 1923.44 4528.45 1924.59 4525.35 1923.98C4522.24 1923.38 4519.73 1921.11 4518.8 1918.08L4471.09 1761.99L4440.07 1917.25C4439.35 1920.86 4436.41 1923.61 4432.76 1924.07C4429.11 1924.54 4425.58 1922.62 4423.97 1919.31L4288.57 1639.79L4322.62 1953.5ZM4359.66 1874.2C4363.52 1873.08 4367.63 1874.79 4369.56 1878.32L4443.24 2013.24L4473.16 1918.14L4473.27 1917.82C4474.45 1914.54 4477.5 1912.29 4481 1912.15C4484.61 1912.01 4487.92 1914.15 4489.27 1917.51L4513.55 1977.83L4586.01 1889.56C4588.4 1886.64 4592.43 1885.63 4595.91 1887.09C4599.4 1888.54 4601.52 1892.11 4601.14 1895.87L4589.2 2013.41L4694.27 1948.28C4697.62 1946.21 4701.94 1946.69 4704.76 1949.44C4707.57 1952.19 4708.15 1956.51 4706.16 1959.91L4643.33 2067.1L4759.58 2055.61C4763.32 2055.24 4766.87 2057.37 4768.32 2060.85C4769.77 2064.33 4768.77 2068.34 4765.87 2070.75L4677.89 2143.65L4745.2 2169.27C4748.62 2170.58 4750.83 2173.92 4750.71 2177.58C4750.58 2181.25 4748.14 2184.43 4744.63 2185.49L4679.31 2205.29L4784.55 2288.27C4787.81 2290.84 4788.76 2295.39 4786.79 2299.06C4784.83 2302.72 4780.51 2304.44 4776.57 2303.14L4622.25 2252.14L4691.49 2381.82C4693.35 2385.31 4692.58 2389.64 4689.62 2392.27C4686.66 2394.9 4682.28 2395.15 4679.04 2392.88L4570.88 2317.23L4593.64 2448.97C4594.32 2452.92 4592.18 2456.81 4588.48 2458.35C4584.78 2459.88 4580.52 2458.64 4578.21 2455.37L4516.63 2367.99L4483.38 2506.71C4482.4 2510.77 4478.66 2513.53 4474.51 2513.27C4470.35 2513 4466.99 2509.78 4466.54 2505.64L4447.45 2329.05L4362.95 2459.66C4360.8 2462.99 4356.65 2464.4 4352.92 2463.08C4349.19 2461.77 4346.85 2458.06 4347.25 2454.11L4357.97 2350.69L4237.68 2427.93C4234.27 2430.12 4229.78 2429.61 4226.94 2426.71C4224.11 2423.81 4223.69 2419.31 4225.96 2415.93L4308.08 2293.59L4177.01 2327.86C4173.11 2328.89 4169.02 2327.04 4167.2 2323.43C4165.39 2319.81 4166.34 2315.42 4169.48 2312.89L4276.15 2227.05L4166.08 2193.49C4162.42 2192.37 4159.94 2188.96 4160.01 2185.13C4160.08 2181.3 4162.68 2177.98 4166.38 2177L4283.32 2145.98L4198.67 2079.46C4195.52 2076.98 4194.5 2072.64 4196.23 2069.02C4197.96 2065.4 4201.96 2063.46 4205.86 2064.36L4321.02 2090.74L4254.25 1978.82C4252.18 1975.36 4252.81 1970.92 4255.75 1968.17C4258.7 1965.41 4263.16 1965.09 4266.47 1967.38L4363.21 2034.44L4353.5 1882.98C4353.25 1878.97 4355.81 1875.32 4359.66 1874.2ZM4381.43 2051.02C4381.64 2054.3 4379.96 2057.41 4377.11 2059.03C4374.25 2060.65 4370.72 2060.49 4368.02 2058.62L4289.21 2003.99L4346 2099.18C4347.75 2102.12 4347.59 2105.84 4345.57 2108.61C4343.56 2111.39 4340.08 2112.69 4336.74 2111.93L4239.32 2089.61L4307.41 2143.12C4309.96 2145.12 4311.16 2148.4 4310.51 2151.59C4309.85 2154.77 4307.45 2157.31 4304.31 2158.14L4199.84 2185.86L4296.62 2215.37C4299.66 2216.3 4301.94 2218.83 4302.54 2221.95C4303.14 2225.07 4301.97 2228.26 4299.49 2230.25L4211.4 2301.15L4325.64 2271.28C4329.08 2270.38 4332.72 2271.7 4334.78 2274.61C4336.84 2277.52 4336.89 2281.4 4334.91 2284.35L4263.2 2391.18L4363.7 2326.64C4366.47 2324.86 4370.01 2324.83 4372.81 2326.56C4375.61 2328.29 4377.18 2331.47 4376.84 2334.74L4367.96 2420.38L4446.18 2299.48L4446.37 2299.2C4448.38 2296.35 4451.93 2294.99 4455.34 2295.8C4458.87 2296.64 4461.48 2299.61 4461.87 2303.22L4478.25 2454.65L4504.39 2345.57L4504.47 2345.27C4505.34 2342.14 4507.91 2339.77 4511.11 2339.15C4514.41 2338.52 4517.78 2339.88 4519.71 2342.63L4570.29 2414.4L4550.51 2299.89C4549.92 2296.48 4551.44 2293.05 4554.36 2291.19C4557.27 2289.34 4561.02 2289.42 4563.85 2291.4L4659.53 2358.33L4597.06 2241.33C4595.41 2238.24 4595.8 2234.45 4598.06 2231.77C4600.31 2229.09 4603.97 2228.05 4607.29 2229.15L4735.71 2271.59L4655.81 2208.59C4653.31 2206.62 4652.1 2203.41 4652.7 2200.27C4653.29 2197.13 4655.57 2194.58 4658.63 2193.65L4715.65 2176.37L4658.07 2154.44C4655.22 2153.36 4653.16 2150.84 4652.66 2147.83C4652.17 2144.82 4653.3 2141.77 4655.65 2139.82L4733.37 2075.43L4628.28 2085.82C4625.07 2086.13 4621.96 2084.62 4620.22 2081.91C4618.49 2079.19 4618.42 2075.73 4620.05 2072.95L4673.91 1981.07L4583.43 2037.15C4580.66 2038.86 4577.15 2038.86 4574.38 2037.12C4571.62 2035.39 4570.08 2032.24 4570.41 2028.99L4581.24 1922.37L4517.62 1999.87C4515.7 2002.21 4512.69 2003.36 4509.71 2002.9C4506.72 2002.44 4504.2 2000.44 4503.07 1997.63L4482.32 1946.1L4453.54 2037.58C4452.51 2040.85 4449.62 2043.2 4446.21 2043.53C4442.79 2043.87 4439.51 2042.13 4437.86 2039.11L4373.06 1920.47L4381.43 2051.02Z" fill="black"/>
<g filter="url(#filter12_d_468_32)">
<path d="M4714.02 2182C4714.02 2328.59 4595.18 2447.42 4448.59 2447.42C4302.01 2447.42 4183.17 2328.59 4183.17 2182C4183.17 2035.41 4302.01 1916.58 4448.59 1916.58C4595.18 1916.58 4714.02 2035.41 4714.02 2182Z" fill="#FF0000"/>
<path d="M4592.4 1879.05C4600.13 1871.61 4612.43 1871.85 4619.87 1879.58L4750.97 2015.83C4758.41 2023.57 4758.17 2035.87 4750.44 2043.3L4640.13 2149.45C4632.39 2156.89 4620.1 2156.65 4612.66 2148.92L4481.55 2012.67C4474.12 2004.94 4474.35 1992.64 4482.08 1985.2L4592.4 1879.05Z" fill="#FF0000"/>
<path d="M4731.68 1865.71C4734.98 1862.32 4740.41 1862.25 4743.8 1865.55L4763.75 1884.97C4767.15 1888.27 4767.22 1893.7 4763.92 1897.09L4659.14 2004.75C4655.84 2008.14 4650.41 2008.22 4647.02 2004.92L4627.06 1985.5C4623.67 1982.19 4623.6 1976.77 4626.9 1973.37L4731.68 1865.71Z" fill="#FF0000"/>
<path d="M4843.58 1755.27C4846.89 1751.88 4852.31 1751.8 4855.7 1755.1L4875.66 1774.52C4879.05 1777.82 4879.13 1783.25 4875.82 1786.64L4812.81 1851.39C4809.51 1854.78 4804.08 1854.86 4800.69 1851.55L4780.74 1832.13C4777.34 1828.83 4777.27 1823.41 4780.57 1820.01L4843.58 1755.27Z" fill="#FF0000"/>
<path d="M4884.98 1870.51C4889.71 1870.53 4893.53 1874.39 4893.5 1879.13L4893.35 1906.97C4893.32 1911.7 4889.46 1915.52 4884.73 1915.49L4812.91 1915.1C4808.17 1915.07 4804.36 1911.21 4804.38 1906.48L4804.54 1878.64C4804.56 1873.9 4808.42 1870.09 4813.16 1870.11L4884.98 1870.51Z" fill="#FF0000"/>
<path d="M4714.07 1745.63C4714.02 1740.9 4717.82 1737.02 4722.56 1736.98L4750.4 1736.71C4755.13 1736.66 4759.01 1740.46 4759.05 1745.2L4759.74 1817.02C4759.79 1821.75 4755.99 1825.62 4751.25 1825.67L4723.41 1825.94C4718.68 1825.98 4714.8 1822.18 4714.76 1817.45L4714.07 1745.63Z" fill="#FF0000"/>
<path d="M4623.13 1813.06C4619.55 1809.96 4619.16 1804.55 4622.26 1800.97L4640.48 1779.91C4643.58 1776.33 4648.99 1775.94 4652.57 1779.04L4696.37 1816.94C4699.95 1820.04 4700.34 1825.45 4697.24 1829.03L4679.02 1850.09C4675.92 1853.67 4670.51 1854.06 4666.93 1850.96L4623.13 1813.06Z" fill="#FF0000"/>
<path d="M4780.49 1968.21C4776.91 1965.11 4776.52 1959.7 4779.62 1956.12L4797.84 1935.06C4800.94 1931.49 4806.35 1931.09 4809.93 1934.19L4853.73 1972.1C4857.31 1975.19 4857.7 1980.61 4854.6 1984.19L4836.38 2005.24C4833.28 2008.82 4827.87 2009.21 4824.29 2006.11L4780.49 1968.21Z" fill="#FF0000"/>
<path fill-rule="evenodd" clip-rule="evenodd" d="M4250.63 2187.99C4250.63 2056.41 4360.14 1988.55 4433.58 1988.55C4447.66 1988.55 4459.07 1999.96 4459.07 2014.04C4459.07 2028.12 4447.66 2039.53 4433.58 2039.53C4384.05 2039.53 4301.62 2088.63 4301.62 2187.99C4301.62 2202.07 4290.2 2213.48 4276.12 2213.48C4262.04 2213.48 4250.63 2202.07 4250.63 2187.99Z" fill="white"/>
</g>
<g filter="url(#filter13_d_468_32)">
<path d="M4511 1829.5C4511 1844.14 4499.36 1856 4485 1856C4470.64 1856 4459 1844.14 4459 1829.5C4459 1814.87 4470.64 1803 4485 1803C4499.36 1803 4511 1814.87 4511 1829.5Z" fill="#FFF700"/>
</g>
<path d="M4299.87 1871.72C4306.94 1884 4302.71 1899.68 4290.43 1906.75C4278.16 1913.81 4262.48 1909.59 4255.41 1897.31C4248.35 1885.03 4252.57 1869.35 4264.85 1862.29C4277.12 1855.22 4292.8 1859.45 4299.87 1871.72Z" fill="#0040FF"/>
<path d="M4299.87 1871.72C4292.91 1859.64 4277.61 1855.36 4265.42 1861.97L4264.85 1862.29C4252.57 1869.35 4248.35 1885.03 4255.41 1897.31L4255.75 1897.88C4262.85 1909.53 4277.86 1913.57 4289.86 1907.07L4290.43 1906.75C4302.52 1899.79 4306.8 1884.49 4300.19 1872.3L4299.87 1871.72ZM4301.85 1870.58C4309.55 1883.95 4304.95 1901.03 4291.58 1908.73C4278.2 1916.42 4261.13 1911.82 4253.43 1898.45C4245.73 1885.08 4250.34 1868 4263.71 1860.31C4277.08 1852.61 4294.15 1857.21 4301.85 1870.58Z" fill="black"/>
<g filter="url(#filter14_d_468_32)">
<path d="M4096.91 2219.02C4111.07 2219.04 4122.54 2230.54 4122.51 2244.71C4122.49 2258.87 4110.99 2270.34 4096.82 2270.31C4082.66 2270.29 4071.19 2258.79 4071.22 2244.63C4071.24 2230.46 4082.74 2219 4096.91 2219.02Z" fill="#FF0000"/>
</g>
<g filter="url(#filter15_d_468_32)">
<path d="M4138.87 2013.25C4151.1 2020.4 4155.21 2036.11 4148.06 2048.34C4140.9 2060.56 4125.19 2064.67 4112.97 2057.52C4100.74 2050.37 4096.63 2034.66 4103.78 2022.43C4110.94 2010.2 4126.65 2006.09 4138.87 2013.25Z" fill="#00FF51"/>
</g>
</g>
<path d="M2612.98 2613.56C2612.98 2490.17 2512.95 2390.14 2389.56 2390.14C2266.17 2390.14 2166.14 2490.17 2166.14 2613.56V2943.83C2166.14 3067.22 2266.17 3167.25 2389.56 3167.25C2512.95 3167.25 2612.98 3067.22 2612.98 2943.83V2613.56ZM2694.12 2943.83C2694.12 3112.03 2557.76 3248.39 2389.56 3248.39C2221.36 3248.39 2085 3112.03 2085 2943.83V2613.56C2085 2445.36 2221.36 2309 2389.56 2309C2557.76 2309 2694.12 2445.36 2694.12 2613.56V2943.83Z" fill="white"/>
<path d="M2452.41 2827.84C2452.41 2865.39 2421.97 2895.83 2384.42 2895.83C2346.86 2895.83 2316.42 2865.39 2316.42 2827.84C2316.42 2790.28 2346.86 2759.84 2384.42 2759.84C2421.97 2759.84 2452.41 2790.28 2452.41 2827.84Z" fill="#1D1800"/>
<g filter="url(#filter16_d_468_32)">
<path d="M2452.41 2743.27C2452.41 2780.82 2421.97 2811.26 2384.42 2811.26C2346.86 2811.26 2316.42 2780.82 2316.42 2743.27C2316.42 2705.71 2346.86 2675.27 2384.42 2675.27C2421.97 2675.27 2452.41 2705.71 2452.41 2743.27Z" fill="#4C4000"/>
</g>
<g filter="url(#filter17_d_468_32)">
<path d="M2452.41 2657.56C2452.41 2695.11 2421.97 2725.55 2384.42 2725.55C2346.86 2725.55 2316.42 2695.11 2316.42 2657.56C2316.42 2620 2346.86 2589.56 2384.42 2589.56C2421.97 2589.56 2452.41 2620 2452.41 2657.56Z" fill="#957E01"/>
</g>
<g filter="url(#filter18_d_468_32)">
<path d="M2452.41 2571.85C2452.41 2609.4 2421.97 2639.84 2384.42 2639.84C2346.86 2639.84 2316.42 2609.4 2316.42 2571.85C2316.42 2534.29 2346.86 2503.85 2384.42 2503.85C2421.97 2503.85 2452.41 2534.29 2452.41 2571.85Z" fill="#FFD700"/>
</g>
<g filter="url(#filter19_d_468_32)">
<circle cx="2186.87" cy="2006.87" r="85.5" transform="rotate(-17.1085 2186.87 2006.87)" fill="#D03030"/>
<rect x="2190.02" y="2065.54" width="28.5" height="313.5" rx="14.25" transform="rotate(-17.1085 2190.02 2065.54)" fill="#D03030"/>
</g>
<path d="M4824 2829.52C4847.46 2812.96 4879.91 2818.55 4896.48 2842C4913.04 2865.46 4907.45 2897.91 4884 2914.48C4496.88 3187.83 4117.88 3059.49 3972.96 2956.95C3949.52 2940.36 3943.96 2907.91 3960.55 2884.46C3977.14 2861.02 4009.59 2855.46 4033.04 2872.05C4151.45 2955.84 4481.52 3071.37 4824 2829.52ZM562.393 1893.25C589.314 1883.25 619.245 1896.97 629.245 1923.89C667.008 2025.55 748.308 2187.78 867.898 2338.88C987.789 2490.35 1142.35 2625.84 1325.33 2682.31C1352.78 2690.78 1368.16 2719.89 1359.69 2747.33C1351.22 2774.78 1322.11 2790.16 1294.67 2781.69C1083.66 2716.56 912.961 2563.38 786.352 2403.42C659.442 2243.08 572.992 2071.12 531.755 1960.11C521.754 1933.19 535.471 1903.26 562.393 1893.25ZM5098.76 1706.21C5111.35 1680.39 5142.48 1669.67 5168.29 1682.26C5263.3 1728.59 5370.63 1837.58 5396.21 2013.13C5421.74 2188.35 5364.65 2420.77 5151.04 2714.11C5134.13 2737.33 5101.6 2742.44 5078.39 2725.53C5055.17 2708.63 5050.06 2676.1 5066.96 2652.89C5271.35 2372.23 5313.51 2166.9 5293.29 2028.12C5273.12 1889.67 5189.7 1808.41 5122.71 1775.74C5096.89 1763.15 5086.17 1732.02 5098.76 1706.21ZM778.773 1486.56C785.09 1458.55 812.922 1440.96 840.938 1447.27C868.953 1453.59 886.543 1481.42 880.227 1509.44C854.831 1622.07 865.304 1894.12 1114.19 2062.97C1137.96 2079.09 1144.16 2111.43 1128.03 2135.19C1111.91 2158.96 1079.57 2165.15 1055.81 2149.03C759.897 1948.28 747.502 1625.26 778.773 1486.56ZM455.5 1498C455.5 1077.48 674.189 743.697 1071.78 639.208C1099.56 631.908 1127.99 648.507 1135.29 676.283C1142.59 704.059 1125.99 732.492 1098.22 739.792C753.811 830.303 559.5 1116.52 559.5 1498C559.5 1526.72 536.219 1550 507.5 1550C478.781 1550 455.5 1526.72 455.5 1498Z" fill="white"/>
<defs>
<filter id="filter0_d_468_32" x="1064" y="974" width="1130.24" height="926.195" filterUnits="userSpaceOnUse" color-interpolation-filters="sRGB">
<feFlood flood-opacity="0" result="BackgroundImageFix"/>
<feColorMatrix in="SourceAlpha" type="matrix" values="0 0 0 0 0 0 0 0 0 0 0 0 0 0 0 0 0 0 127 0" result="hardAlpha"/>
<feOffset dy="4"/>
<feGaussianBlur stdDeviation="2"/>
<feComposite in2="hardAlpha" operator="out"/>
<feColorMatrix type="matrix" values="0 0 0 0 0 0 0 0 0 0 0 0 0 0 0 0 0 0 0.25 0"/>
<feBlend mode="normal" in2="BackgroundImageFix" result="effect1_dropShadow_468_32"/>
<feBlend mode="normal" in="SourceGraphic" in2="effect1_dropShadow_468_32" result="shape"/>
</filter>
<filter id="filter1_d_468_32" x="1448" y="1168" width="1036.96" height="1084.08" filterUnits="userSpaceOnUse" color-interpolation-filters="sRGB">
<feFlood flood-opacity="0" result="BackgroundImageFix"/>
<feColorMatrix in="SourceAlpha" type="matrix" values="0 0 0 0 0 0 0 0 0 0 0 0 0 0 0 0 0 0 127 0" result="hardAlpha"/>
<feOffset dx="-25" dy="22"/>
<feGaussianBlur stdDeviation="2"/>
<feComposite in2="hardAlpha" operator="out"/>
<feColorMatrix type="matrix" values="0 0 0 0 0 0 0 0 0 0 0 0 0 0 0 0 0 0 0.25 0"/>
<feBlend mode="normal" in2="BackgroundImageFix" result="effect1_dropShadow_468_32"/>
<feBlend mode="normal" in="SourceGraphic" in2="effect1_dropShadow_468_32" result="shape"/>
</filter>
<filter id="filter2_d_468_32" x="2190.4" y="574.299" width="117.7" height="399.4" filterUnits="userSpaceOnUse" color-interpolation-filters="sRGB">
<feFlood flood-opacity="0" result="BackgroundImageFix"/>
<feColorMatrix in="SourceAlpha" type="matrix" values="0 0 0 0 0 0 0 0 0 0 0 0 0 0 0 0 0 0 127 0" result="hardAlpha"/>
<feOffset dx="-11" dy="2"/>
<feGaussianBlur stdDeviation="3.85"/>
<feComposite in2="hardAlpha" operator="out"/>
<feColorMatrix type="matrix" values="0 0 0 0 0 0 0 0 0 0 0 0 0 0 0 0 0 0 0.25 0"/>
<feBlend mode="normal" in2="BackgroundImageFix" result="effect1_dropShadow_468_32"/>
<feBlend mode="normal" in="SourceGraphic" in2="effect1_dropShadow_468_32" result="shape"/>
</filter>
<filter id="filter3_d_468_32" x="3976" y="1105" width="673.363" height="682.326" filterUnits="userSpaceOnUse" color-interpolation-filters="sRGB">
<feFlood flood-opacity="0" result="BackgroundImageFix"/>
<feColorMatrix in="SourceAlpha" type="matrix" values="0 0 0 0 0 0 0 0 0 0 0 0 0 0 0 0 0 0 127 0" result="hardAlpha"/>
<feOffset dx="-16" dy="-5"/>
<feGaussianBlur stdDeviation="2"/>
<feComposite in2="hardAlpha" operator="out"/>
<feColorMatrix type="matrix" values="0 0 0 0 0 0 0 0 0 0 0 0 0 0 0 0 0 0 0.25 0"/>
<feBlend mode="normal" in2="BackgroundImageFix" result="effect1_dropShadow_468_32"/>
<feBlend mode="normal" in="SourceGraphic" in2="effect1_dropShadow_468_32" result="shape"/>
</filter>
<filter id="filter4_d_468_32" x="3724.36" y="608.773" width="813.512" height="800.276" filterUnits="userSpaceOnUse" color-interpolation-filters="sRGB">
<feFlood flood-opacity="0" result="BackgroundImageFix"/>
<feColorMatrix in="SourceAlpha" type="matrix" values="0 0 0 0 0 0 0 0 0 0 0 0 0 0 0 0 0 0 127 0" result="hardAlpha"/>
<feOffset dx="10" dy="15"/>
<feGaussianBlur stdDeviation="2"/>
<feComposite in2="hardAlpha" operator="out"/>
<feColorMatrix type="matrix" values="0 0 0 0 0 0 0 0 0 0 0 0 0 0 0 0 0 0 0.25 0"/>
<feBlend mode="normal" in2="BackgroundImageFix" result="effect1_dropShadow_468_32"/>
<feBlend mode="normal" in="SourceGraphic" in2="effect1_dropShadow_468_32" result="shape"/>
</filter>
<filter id="filter5_d_468_32" x="2367.4" y="410.299" width="117.7" height="728.4" filterUnits="userSpaceOnUse" color-interpolation-filters="sRGB">
<feFlood flood-opacity="0" result="BackgroundImageFix"/>
<feColorMatrix in="SourceAlpha" type="matrix" values="0 0 0 0 0 0 0 0 0 0 0 0 0 0 0 0 0 0 127 0" result="hardAlpha"/>
<feOffset dx="-11" dy="2"/>
<feGaussianBlur stdDeviation="3.85"/>
<feComposite in2="hardAlpha" operator="out"/>
<feColorMatrix type="matrix" values="0 0 0 0 0 0 0 0 0 0 0 0 0 0 0 0 0 0 0.25 0"/>
<feBlend mode="normal" in2="BackgroundImageFix" result="effect1_dropShadow_468_32"/>
<feBlend mode="normal" in="SourceGraphic" in2="effect1_dropShadow_468_32" result="shape"/>
</filter>
<filter id="filter6_d_468_32" x="2543.4" y="574.299" width="117.7" height="399.4" filterUnits="userSpaceOnUse" color-interpolation-filters="sRGB">
<feFlood flood-opacity="0" result="BackgroundImageFix"/>
<feColorMatrix in="SourceAlpha" type="matrix" values="0 0 0 0 0 0 0 0 0 0 0 0 0 0 0 0 0 0 127 0" result="hardAlpha"/>
<feOffset dx="-11" dy="2"/>
<feGaussianBlur stdDeviation="3.85"/>
<feComposite in2="hardAlpha" operator="out"/>
<feColorMatrix type="matrix" values="0 0 0 0 0 0 0 0 0 0 0 0 0 0 0 0 0 0 0.25 0"/>
<feBlend mode="normal" in2="BackgroundImageFix" result="effect1_dropShadow_468_32"/>
<feBlend mode="normal" in="SourceGraphic" in2="effect1_dropShadow_468_32" result="shape"/>
</filter>
<filter id="filter7_d_468_32" x="2720.4" y="675.299" width="117.7" height="198.4" filterUnits="userSpaceOnUse" color-interpolation-filters="sRGB">
<feFlood flood-opacity="0" result="BackgroundImageFix"/>
<feColorMatrix in="SourceAlpha" type="matrix" values="0 0 0 0 0 0 0 0 0 0 0 0 0 0 0 0 0 0 127 0" result="hardAlpha"/>
<feOffset dx="-11" dy="2"/>
<feGaussianBlur stdDeviation="3.85"/>
<feComposite in2="hardAlpha" operator="out"/>
<feColorMatrix type="matrix" values="0 0 0 0 0 0 0 0 0 0 0 0 0 0 0 0 0 0 0.25 0"/>
<feBlend mode="normal" in2="BackgroundImageFix" result="effect1_dropShadow_468_32"/>
<feBlend mode="normal" in="SourceGraphic" in2="effect1_dropShadow_468_32" result="shape"/>
</filter>
<filter id="filter8_d_468_32" x="2014.4" y="675.299" width="117.7" height="198.4" filterUnits="userSpaceOnUse" color-interpolation-filters="sRGB">
<feFlood flood-opacity="0" result="BackgroundImageFix"/>
<feColorMatrix in="SourceAlpha" type="matrix" values="0 0 0 0 0 0 0 0 0 0 0 0 0 0 0 0 0 0 127 0" result="hardAlpha"/>
<feOffset dx="-11" dy="2"/>
<feGaussianBlur stdDeviation="3.85"/>
<feComposite in2="hardAlpha" operator="out"/>
<feColorMatrix type="matrix" values="0 0 0 0 0 0 0 0 0 0 0 0 0 0 0 0 0 0 0.25 0"/>
<feBlend mode="normal" in2="BackgroundImageFix" result="effect1_dropShadow_468_32"/>
<feBlend mode="normal" in="SourceGraphic" in2="effect1_dropShadow_468_32" result="shape"/>
</filter>
<filter id="filter9_d_468_32" x="4456" y="1798.2" width="90.8" height="79.6" filterUnits="userSpaceOnUse" color-interpolation-filters="sRGB">
<feFlood flood-opacity="0" result="BackgroundImageFix"/>
<feColorMatrix in="SourceAlpha" type="matrix" values="0 0 0 0 0 0 0 0 0 0 0 0 0 0 0 0 0 0 127 0" result="hardAlpha"/>
<feOffset dx="23" dy="8"/>
<feGaussianBlur stdDeviation="5.4"/>
<feComposite in2="hardAlpha" operator="out"/>
<feColorMatrix type="matrix" values="0 0 0 0 0 0 0 0 0 0 0 0 0 0 0 0 0 0 0.5 0"/>
<feBlend mode="normal" in2="BackgroundImageFix" result="effect1_dropShadow_468_32"/>
<feBlend mode="normal" in="SourceGraphic" in2="effect1_dropShadow_468_32" result="shape"/>
</filter>
<filter id="filter10_d_468_32" x="4068.93" y="2213.93" width="89.6672" height="77.4672" filterUnits="userSpaceOnUse" color-interpolation-filters="sRGB">
<feFlood flood-opacity="0" result="BackgroundImageFix"/>
<feColorMatrix in="SourceAlpha" type="matrix" values="0 0 0 0 0 0 0 0 0 0 0 0 0 0 0 0 0 0 127 0" result="hardAlpha"/>
<feOffset dx="23" dy="8"/>
<feGaussianBlur stdDeviation="5.4"/>
<feComposite in2="hardAlpha" operator="out"/>
<feColorMatrix type="matrix" values="0 0 0 0 0 0 0 0 0 0 0 0 0 0 0 0 0 0 0.5 0"/>
<feBlend mode="normal" in2="BackgroundImageFix" result="effect1_dropShadow_468_32"/>
<feBlend mode="normal" in="SourceGraphic" in2="effect1_dropShadow_468_32" result="shape"/>
</filter>
<filter id="filter11_d_468_32" x="3934" y="1580.2" width="1082.8" height="1181.6" filterUnits="userSpaceOnUse" color-interpolation-filters="sRGB">
<feFlood flood-opacity="0" result="BackgroundImageFix"/>
<feColorMatrix in="SourceAlpha" type="matrix" values="0 0 0 0 0 0 0 0 0 0 0 0 0 0 0 0 0 0 127 0" result="hardAlpha"/>
<feOffset dx="23" dy="8"/>
<feGaussianBlur stdDeviation="5.4"/>
<feComposite in2="hardAlpha" operator="out"/>
<feColorMatrix type="matrix" values="0 0 0 0 0 0 0 0 0 0 0 0 0 0 0 0 0 0 0.5 0"/>
<feBlend mode="normal" in2="BackgroundImageFix" result="effect1_dropShadow_468_32"/>
<feBlend mode="normal" in="SourceGraphic" in2="effect1_dropShadow_468_32" result="shape"/>
</filter>
<filter id="filter12_d_468_32" x="4183.17" y="1736.71" width="744.328" height="738.716" filterUnits="userSpaceOnUse" color-interpolation-filters="sRGB">
<feFlood flood-opacity="0" result="BackgroundImageFix"/>
<feColorMatrix in="SourceAlpha" type="matrix" values="0 0 0 0 0 0 0 0 0 0 0 0 0 0 0 0 0 0 127 0" result="hardAlpha"/>
<feOffset dx="30" dy="24"/>
<feGaussianBlur stdDeviation="2"/>
<feComposite in2="hardAlpha" operator="out"/>
<feColorMatrix type="matrix" values="0 0 0 0 0 0 0 0 0 0 0 0 0 0 0 0 0 0 0.5 0"/>
<feBlend mode="normal" in2="BackgroundImageFix" result="effect1_dropShadow_468_32"/>
<feBlend mode="normal" in="SourceGraphic" in2="effect1_dropShadow_468_32" result="shape"/>
</filter>
<filter id="filter13_d_468_32" x="4453" y="1803" width="60" height="64" filterUnits="userSpaceOnUse" color-interpolation-filters="sRGB">
<feFlood flood-opacity="0" result="BackgroundImageFix"/>
<feColorMatrix in="SourceAlpha" type="matrix" values="0 0 0 0 0 0 0 0 0 0 0 0 0 0 0 0 0 0 127 0" result="hardAlpha"/>
<feOffset dx="-2" dy="7"/>
<feGaussianBlur stdDeviation="2"/>
<feComposite in2="hardAlpha" operator="out"/>
<feColorMatrix type="matrix" values="0 0 0 0 0 0 0 0 0 0 0 0 0 0 0 0 0 0 0.5 0"/>
<feBlend mode="normal" in2="BackgroundImageFix" result="effect1_dropShadow_468_32"/>
<feBlend mode="normal" in="SourceGraphic" in2="effect1_dropShadow_468_32" result="shape"/>
</filter>
<filter id="filter14_d_468_32" x="4071.22" y="2216.22" width="85.0969" height="72.8959" filterUnits="userSpaceOnUse" color-interpolation-filters="sRGB">
<feFlood flood-opacity="0" result="BackgroundImageFix"/>
<feColorMatrix in="SourceAlpha" type="matrix" values="0 0 0 0 0 0 0 0 0 0 0 0 0 0 0 0 0 0 127 0" result="hardAlpha"/>
<feOffset dx="23" dy="8"/>
<feGaussianBlur stdDeviation="5.4"/>
<feComposite in2="hardAlpha" operator="out"/>
<feColorMatrix type="matrix" values="0 0 0 0 0 0 0 0 0 0 0 0 0 0 0 0 0 0 0.5 0"/>
<feBlend mode="normal" in2="BackgroundImageFix" result="effect1_dropShadow_468_32"/>
<feBlend mode="normal" in="SourceGraphic" in2="effect1_dropShadow_468_32" result="shape"/>
</filter>
<filter id="filter15_d_468_32" x="4094.27" y="2009.73" width="59.3047" height="62.3047" filterUnits="userSpaceOnUse" color-interpolation-filters="sRGB">
<feFlood flood-opacity="0" result="BackgroundImageFix"/>
<feColorMatrix in="SourceAlpha" type="matrix" values="0 0 0 0 0 0 0 0 0 0 0 0 0 0 0 0 0 0 127 0" result="hardAlpha"/>
<feOffset dx="-2" dy="7"/>
<feGaussianBlur stdDeviation="2"/>
<feComposite in2="hardAlpha" operator="out"/>
<feColorMatrix type="matrix" values="0 0 0 0 0 0 0 0 0 0 0 0 0 0 0 0 0 0 0.5 0"/>
<feBlend mode="normal" in2="BackgroundImageFix" result="effect1_dropShadow_468_32"/>
<feBlend mode="normal" in="SourceGraphic" in2="effect1_dropShadow_468_32" result="shape"/>
</filter>
<filter id="filter16_d_468_32" x="2312.42" y="2675.27" width="143.994" height="154.994" filterUnits="userSpaceOnUse" color-interpolation-filters="sRGB">
<feFlood flood-opacity="0" result="BackgroundImageFix"/>
<feColorMatrix in="SourceAlpha" type="matrix" values="0 0 0 0 0 0 0 0 0 0 0 0 0 0 0 0 0 0 127 0" result="hardAlpha"/>
<feOffset dy="15"/>
<feGaussianBlur stdDeviation="2"/>
<feComposite in2="hardAlpha" operator="out"/>
<feColorMatrix type="matrix" values="0 0 0 0 0 0 0 0 0 0 0 0 0 0 0 0 0 0 0.25 0"/>
<feBlend mode="normal" in2="BackgroundImageFix" result="effect1_dropShadow_468_32"/>
<feBlend mode="normal" in="SourceGraphic" in2="effect1_dropShadow_468_32" result="shape"/>
</filter>
<filter id="filter17_d_468_32" x="2312.42" y="2589.56" width="143.994" height="154.994" filterUnits="userSpaceOnUse" color-interpolation-filters="sRGB">
<feFlood flood-opacity="0" result="BackgroundImageFix"/>
<feColorMatrix in="SourceAlpha" type="matrix" values="0 0 0 0 0 0 0 0 0 0 0 0 0 0 0 0 0 0 127 0" result="hardAlpha"/>
<feOffset dy="15"/>
<feGaussianBlur stdDeviation="2"/>
<feComposite in2="hardAlpha" operator="out"/>
<feColorMatrix type="matrix" values="0 0 0 0 0 0 0 0 0 0 0 0 0 0 0 0 0 0 0.25 0"/>
<feBlend mode="normal" in2="BackgroundImageFix" result="effect1_dropShadow_468_32"/>
<feBlend mode="normal" in="SourceGraphic" in2="effect1_dropShadow_468_32" result="shape"/>
</filter>
<filter id="filter18_d_468_32" x="2312.42" y="2503.85" width="143.994" height="154.994" filterUnits="userSpaceOnUse" color-interpolation-filters="sRGB">
<feFlood flood-opacity="0" result="BackgroundImageFix"/>
<feColorMatrix in="SourceAlpha" type="matrix" values="0 0 0 0 0 0 0 0 0 0 0 0 0 0 0 0 0 0 127 0" result="hardAlpha"/>
<feOffset dy="15"/>
<feGaussianBlur stdDeviation="2"/>
<feComposite in2="hardAlpha" operator="out"/>
<feColorMatrix type="matrix" values="0 0 0 0 0 0 0 0 0 0 0 0 0 0 0 0 0 0 0.25 0"/>
<feBlend mode="normal" in2="BackgroundImageFix" result="effect1_dropShadow_468_32"/>
<feBlend mode="normal" in="SourceGraphic" in2="effect1_dropShadow_468_32" result="shape"/>
</filter>
<filter id="filter19_d_468_32" x="2091.35" y="1921.35" width="214.578" height="450.264" filterUnits="userSpaceOnUse" color-interpolation-filters="sRGB">
<feFlood flood-opacity="0" result="BackgroundImageFix"/>
<feColorMatrix in="SourceAlpha" type="matrix" values="0 0 0 0 0 0 0 0 0 0 0 0 0 0 0 0 0 0 127 0" result="hardAlpha"/>
<feOffset dx="-6" dy="6"/>
<feGaussianBlur stdDeviation="2"/>
<feComposite in2="hardAlpha" operator="out"/>
<feColorMatrix type="matrix" values="0 0 0 0 0 0 0 0 0 0 0 0 0 0 0 0 0 0 0.25 0"/>
<feBlend mode="normal" in2="BackgroundImageFix" result="effect1_dropShadow_468_32"/>
<feBlend mode="normal" in="SourceGraphic" in2="effect1_dropShadow_468_32" result="shape"/>
</filter>
<radialGradient id="paint0_radial_468_32" cx="0" cy="0" r="1" gradientUnits="userSpaceOnUse" gradientTransform="translate(2899 1698.5) rotate(90) scale(1698.5 2899)">
<stop stop-color="#0C003D"/>
<stop offset="1"/>
</radialGradient>
</defs>
</svg>
