<svg width="44" height="45" viewBox="0 0 44 45" fill="none" xmlns="http://www.w3.org/2000/svg">
<g filter="url(#filter0_d_223_2640)">
<circle cx="17.448" cy="22.5651" r="13.448" fill="black"/>
<rect x="25.4434" y="6.53516" width="11.5488" height="9.72507" rx="4.86254" transform="rotate(46.1038 25.4434 6.53516)" fill="black"/>
<rect x="32.0938" y="6.22852" width="2.27931" height="8.48036" rx="1.13966" transform="rotate(44.2227 32.0938 6.22852)" fill="black"/>
<rect x="37.7637" y="0.632812" width="2.27931" height="5.44615" rx="1.13966" transform="rotate(44.2227 37.7637 0.632812)" fill="black"/>
<rect x="39.9922" y="6.78516" width="2.27931" height="4.50747" rx="1.13966" transform="rotate(90.3153 39.9922 6.78516)" fill="black"/>
<rect x="30.8945" y="0.0214844" width="2.27931" height="4.50747" rx="1.13966" transform="rotate(-0.548761 30.8945 0.0214844)" fill="black"/>
<rect x="25.9629" y="3.58789" width="2.27931" height="3.80326" rx="1.13966" transform="rotate(-49.1261 25.9629 3.58789)" fill="black"/>
<rect x="33.9355" y="11.4492" width="2.27931" height="3.80326" rx="1.13966" transform="rotate(-49.1261 33.9355 11.4492)" fill="black"/>
<path fill-rule="evenodd" clip-rule="evenodd" d="M7.41797 22.8686C7.41797 16.2022 12.9662 12.7637 16.6872 12.7637C17.4005 12.7637 17.9788 13.3419 17.9788 14.0553C17.9788 14.7686 17.4005 15.3469 16.6872 15.3469C14.178 15.3469 10.0012 17.8346 10.0012 22.8686C10.0012 23.582 9.42292 24.1602 8.70958 24.1602C7.99624 24.1602 7.41797 23.582 7.41797 22.8686Z" fill="white"/>
</g>
<defs>
<filter id="filter0_d_223_2640" x="0" y="0.00976562" width="43.9863" height="44.0039" filterUnits="userSpaceOnUse" color-interpolation-filters="sRGB">
<feFlood flood-opacity="0" result="BackgroundImageFix"/>
<feColorMatrix in="SourceAlpha" type="matrix" values="0 0 0 0 0 0 0 0 0 0 0 0 0 0 0 0 0 0 127 0" result="hardAlpha"/>
<feOffset dy="4"/>
<feGaussianBlur stdDeviation="2"/>
<feComposite in2="hardAlpha" operator="out"/>
<feColorMatrix type="matrix" values="0 0 0 0 0 0 0 0 0 0 0 0 0 0 0 0 0 0 0.25 0"/>
<feBlend mode="normal" in2="BackgroundImageFix" result="effect1_dropShadow_223_2640"/>
<feBlend mode="normal" in="SourceGraphic" in2="effect1_dropShadow_223_2640" result="shape"/>
</filter>
</defs>
</svg>
