<svg width="711" height="711" viewBox="0 0 711 711" fill="none" xmlns="http://www.w3.org/2000/svg">
<path d="M530.844 445.373C530.844 591.962 412.01 710.795 265.422 710.795C118.833 710.795 1.24018e-05 591.962 7.98941e-06 445.373C3.57698e-06 298.785 118.833 179.951 265.422 179.951C412.01 179.951 530.844 298.785 530.844 445.373Z" fill="black"/>
<path d="M409.227 142.425C416.959 134.986 429.257 135.223 436.697 142.955L567.798 279.207C575.237 286.939 575 299.237 567.269 306.677L456.954 412.821C449.222 420.26 436.924 420.023 429.484 412.292L298.383 276.04C290.944 268.308 291.181 256.009 298.912 248.57L409.227 142.425Z" fill="black"/>
<path d="M548.506 129.082C551.808 125.689 557.234 125.616 560.627 128.917L580.581 148.338C583.973 151.639 584.047 157.065 580.746 160.458L475.965 268.121C472.663 271.513 467.237 271.587 463.845 268.286L443.89 248.865C440.498 245.564 440.424 240.137 443.726 236.745L548.506 129.082Z" fill="black"/>
<path d="M660.413 18.6384C663.714 15.2461 669.141 15.1725 672.533 18.474L692.487 37.8942C695.88 41.1957 695.953 46.6221 692.652 50.0144L629.638 114.761C626.337 118.154 620.911 118.227 617.518 114.926L597.564 95.5055C594.172 92.204 594.098 86.7776 597.399 83.3853L660.413 18.6384Z" fill="black"/>
<path d="M701.804 133.879C706.538 133.905 710.354 137.763 710.328 142.497L710.175 170.341C710.149 175.075 706.29 178.891 701.556 178.865L629.736 178.469C625.002 178.443 621.186 174.585 621.212 169.851L621.365 142.007C621.391 137.274 625.25 133.457 629.983 133.483L701.804 133.879Z" fill="black"/>
<path d="M530.895 9.00038C530.849 4.26692 534.65 0.392956 539.383 0.347619L567.227 0.080935C571.96 0.0355979 575.834 3.83607 575.879 8.56953L576.567 80.3879C576.613 85.1214 572.812 88.9953 568.079 89.0407L540.235 89.3074C535.502 89.3527 531.628 85.5522 531.582 80.8188L530.895 9.00038Z" fill="black"/>
<path d="M439.958 76.4273C436.378 73.3296 435.988 67.9167 439.085 64.3374L457.307 43.2826C460.405 39.7032 465.817 39.3128 469.397 42.4105L513.195 80.3149C516.774 83.4126 517.165 88.8255 514.067 92.4048L495.846 113.46C492.748 117.039 487.335 117.429 483.756 114.332L439.958 76.4273Z" fill="black"/>
<path d="M597.317 231.58C593.738 228.482 593.347 223.069 596.445 219.49L614.666 198.435C617.764 194.856 623.177 194.465 626.756 197.563L670.554 235.467C674.134 238.565 674.524 243.978 671.427 247.557L653.205 268.612C650.108 272.191 644.695 272.582 641.115 269.484L597.317 231.58Z" fill="black"/>
<path fill-rule="evenodd" clip-rule="evenodd" d="M67.4609 451.357C67.4609 319.782 176.966 251.916 250.407 251.916C264.486 251.916 275.9 263.329 275.9 277.409C275.9 291.488 264.486 302.901 250.407 302.901C200.884 302.901 118.446 352.001 118.446 451.357C118.446 465.436 107.033 476.85 92.9534 476.85C78.8743 476.85 67.4609 465.436 67.4609 451.357Z" fill="white"/>
</svg>
