<svg width="745" height="739" viewBox="0 0 745 739" fill="none" xmlns="http://www.w3.org/2000/svg">
<g filter="url(#filter0_d_473_237)">
<path d="M530.844 445.375C530.844 591.963 412.01 710.797 265.422 710.797C118.833 710.797 1.24018e-05 591.964 7.98941e-06 445.375C3.57698e-06 298.787 118.833 179.953 265.422 179.953C412.01 179.953 530.844 298.787 530.844 445.375Z" fill="#FF0000"/>
<path d="M409.227 142.425C416.959 134.986 429.257 135.223 436.697 142.955L567.798 279.207C575.237 286.939 575 299.237 567.269 306.677L456.954 412.821C449.222 420.26 436.924 420.023 429.484 412.292L298.383 276.039C290.944 268.308 291.181 256.009 298.912 248.57L409.227 142.425Z" fill="#FF0000"/>
<path d="M548.508 129.084C551.81 125.691 557.236 125.618 560.629 128.919L580.583 148.339C583.975 151.641 584.049 157.067 580.748 160.46L475.967 268.123C472.665 271.515 467.239 271.589 463.846 268.287L443.892 248.867C440.5 245.566 440.426 240.139 443.728 236.747L548.508 129.084Z" fill="#FF0000"/>
<path d="M660.413 18.6394C663.714 15.2471 669.141 15.1735 672.533 18.475L692.487 37.8951C695.88 41.1966 695.953 46.623 692.652 50.0153L629.638 114.762C626.337 118.154 620.911 118.228 617.518 114.927L597.564 95.5064C594.172 92.205 594.098 86.7785 597.399 83.3862L660.413 18.6394Z" fill="#FF0000"/>
<path d="M701.804 133.88C706.538 133.906 710.354 137.764 710.328 142.498L710.175 170.342C710.149 175.075 706.29 178.892 701.556 178.866L629.736 178.47C625.002 178.444 621.186 174.586 621.212 169.852L621.365 142.008C621.391 137.275 625.25 133.458 629.983 133.484L701.804 133.88Z" fill="#FF0000"/>
<path d="M530.897 9.00133C530.851 4.26787 534.652 0.393911 539.385 0.348574L567.228 0.0818902C571.962 0.036553 575.836 3.83702 575.881 8.57048L576.569 80.3889C576.614 85.1223 572.814 88.9963 568.081 89.0416L540.237 89.3083C535.504 89.3536 531.63 85.5532 531.584 80.8197L530.897 9.00133Z" fill="#FF0000"/>
<path d="M439.961 76.4282C436.381 73.3305 435.991 67.9177 439.088 64.3383L457.31 43.2836C460.408 39.7042 465.82 39.3137 469.4 42.4114L513.198 80.3159C516.777 83.4136 517.168 88.8264 514.07 92.4058L495.849 113.461C492.751 117.04 487.338 117.43 483.759 114.333L439.961 76.4282Z" fill="#FF0000"/>
<path d="M597.317 231.582C593.738 228.484 593.347 223.071 596.445 219.492L614.666 198.437C617.764 194.858 623.177 194.467 626.756 197.565L670.554 235.469C674.134 238.567 674.524 243.98 671.427 247.559L653.205 268.614C650.108 272.193 644.695 272.584 641.115 269.486L597.317 231.582Z" fill="#FF0000"/>
<path fill-rule="evenodd" clip-rule="evenodd" d="M67.459 451.359C67.459 319.784 176.964 251.918 250.405 251.918C264.484 251.918 275.898 263.331 275.898 277.41C275.898 291.49 264.484 302.903 250.405 302.903C200.882 302.903 118.444 352.003 118.444 451.359C118.444 465.438 107.031 476.852 92.9515 476.852C78.8724 476.852 67.459 465.438 67.459 451.359Z" fill="white"/>
</g>
<defs>
<filter id="filter0_d_473_237" x="0" y="0.0810547" width="744.328" height="738.716" filterUnits="userSpaceOnUse" color-interpolation-filters="sRGB">
<feFlood flood-opacity="0" result="BackgroundImageFix"/>
<feColorMatrix in="SourceAlpha" type="matrix" values="0 0 0 0 0 0 0 0 0 0 0 0 0 0 0 0 0 0 127 0" result="hardAlpha"/>
<feOffset dx="30" dy="24"/>
<feGaussianBlur stdDeviation="2"/>
<feComposite in2="hardAlpha" operator="out"/>
<feColorMatrix type="matrix" values="0 0 0 0 0 0 0 0 0 0 0 0 0 0 0 0 0 0 0.5 0"/>
<feBlend mode="normal" in2="BackgroundImageFix" result="effect1_dropShadow_473_237"/>
<feBlend mode="normal" in="SourceGraphic" in2="effect1_dropShadow_473_237" result="shape"/>
</filter>
</defs>
</svg>
