<svg width="1049" height="1160" viewBox="0 0 1049 1160" fill="none" xmlns="http://www.w3.org/2000/svg">
<path d="M497.647 331.757L535.356 143.327L593.062 331.757L710.189 187.865L691.905 366.017L954.726 181.013L772.466 447.099L951.869 429.398L809.032 544.169L998.72 602.411L815.888 638.955L1041 817.107L749.612 719.466L863.31 930.165L678.193 799.406L717.616 1029.52L597.061 855.935L529.642 1150L492.504 831.382L367.379 1025.52L386.805 831.382L66.2777 1071.77L299.388 759.436L78.276 816.536L279.962 654.943L89.1317 597.843L271.964 551.021L8.00001 377.437L310.244 441.96L215.971 271.231L379.949 370.585L340.525 7.99999L497.647 331.757ZM438.798 467.655L327.384 390.57L404.517 519.616L269.678 488.782L367.95 565.867L234.254 601.269L359.951 639.526L240.539 735.454L393.661 695.484L298.817 836.521L434.227 749.729L421.657 870.781L519.358 720.037L541.069 920.458L578.778 763.433L651.34 866.213L625.058 714.327L750.183 801.69L670.766 653.23L845.598 710.901L727.329 617.828L808.461 593.275L727.329 562.441L826.744 480.217L693.619 493.35L765.038 371.727L645.055 445.957L658.767 311.201L577.064 410.555L547.354 336.896L511.359 451.096L427.942 298.639L438.798 467.655Z" fill="#F05A27"/>
<path d="M425.664 290.197C429.519 289.077 433.633 290.79 435.559 294.316L509.245 429.237L539.165 334.14L539.272 333.818C540.446 330.54 543.497 328.287 546.996 328.15C550.607 328.008 553.919 330.154 555.27 333.51L579.554 393.827L652.009 305.558C654.405 302.638 658.429 301.634 661.914 303.087C665.398 304.54 667.521 308.107 667.14 311.867L655.2 429.406L760.272 364.283C763.618 362.21 767.944 362.687 770.759 365.44C773.574 368.192 774.153 372.512 772.161 375.91L709.332 483.1L825.576 471.613C829.322 471.243 832.87 473.367 834.318 476.846C835.766 480.325 834.775 484.343 831.875 486.747L743.893 559.648L811.196 585.274C814.62 586.578 816.835 589.917 816.708 593.582C816.581 597.247 814.14 600.425 810.634 601.488L745.307 621.294L850.546 704.265C853.811 706.839 854.759 711.39 852.792 715.055C850.826 718.721 846.514 720.443 842.567 719.139L688.247 668.14L757.489 797.815C759.356 801.312 758.583 805.635 755.621 808.267C752.66 810.899 748.282 811.154 745.036 808.883L636.885 733.233L659.639 864.967C660.321 868.916 658.178 872.812 654.48 874.346C650.782 875.881 646.516 874.644 644.208 871.37L582.629 783.987L549.377 922.713C548.405 926.767 544.661 929.533 540.506 929.267C536.351 929.001 532.99 925.781 532.541 921.636L513.448 745.054L428.955 875.659C426.804 878.985 422.654 880.401 418.922 879.083C415.189 877.765 412.846 874.056 413.255 870.114L423.974 766.686L303.685 843.929C300.269 846.122 295.783 845.613 292.945 842.709C290.106 839.805 289.695 835.305 291.958 831.932L374.081 709.588L243.013 743.864C239.106 744.886 235.018 743.036 233.202 739.425C231.387 735.814 232.338 731.423 235.485 728.89L342.147 643.046L232.077 609.485C228.418 608.369 225.941 604.957 226.011 601.128C226.081 597.299 228.681 593.981 232.378 593L349.319 561.976L264.67 495.456C261.518 492.979 260.505 488.644 262.23 485.023C263.956 481.402 267.959 479.463 271.866 480.358L387.02 506.739L320.251 394.824C318.184 391.36 318.81 386.923 321.753 384.167C324.696 381.412 329.16 381.085 332.473 383.382L429.215 450.439L419.505 298.978C419.248 294.967 421.808 291.316 425.664 290.197ZM447.435 467.022C447.645 470.302 445.964 473.414 443.106 475.032C440.249 476.65 436.718 476.489 434.018 474.618L355.208 419.99L411.997 515.176C413.755 518.123 413.588 521.835 411.573 524.611C409.557 527.388 406.081 528.693 402.739 527.927L305.32 505.609L373.407 559.115C375.961 561.122 377.162 564.403 376.506 567.587C375.851 570.771 373.453 573.31 370.314 574.143L265.836 601.858L362.625 631.371C365.66 632.297 367.936 634.827 368.537 637.946C369.139 641.065 367.968 644.262 365.495 646.252L277.398 717.152L391.641 687.277C395.084 686.377 398.726 687.704 400.786 690.61C402.845 693.516 402.895 697.395 400.909 700.352L329.205 807.175L429.704 742.641C432.473 740.863 436.014 740.832 438.815 742.559C441.615 744.285 443.181 747.466 442.841 750.742L433.964 836.382L512.179 715.483L512.369 715.201C514.378 712.348 517.93 710.99 521.345 711.803C524.87 712.642 527.485 715.613 527.875 719.219L544.249 870.648L570.396 761.571L570.475 761.266C571.345 758.142 573.909 755.767 577.108 755.152C580.41 754.519 583.777 755.879 585.715 758.629L636.291 830.4L616.513 715.889C615.924 712.48 617.441 709.049 620.358 707.194C623.274 705.338 627.019 705.42 629.852 707.401L725.531 774.328L663.058 657.327C661.407 654.236 661.803 650.45 664.056 647.767C666.31 645.086 669.967 644.047 673.291 645.146L801.716 687.585L721.814 624.591C719.307 622.615 718.105 619.407 718.697 616.267C719.288 613.128 721.575 610.58 724.628 609.654L781.651 592.365L724.066 570.439C721.219 569.355 719.161 566.837 718.663 563.828C718.166 560.818 719.304 557.77 721.651 555.825L799.366 491.428L694.277 501.816C691.072 502.132 687.961 500.621 686.226 497.905C684.49 495.189 684.423 491.728 686.053 488.947L739.906 397.066L649.43 453.145C646.657 454.863 643.151 454.855 640.386 453.124C637.621 451.392 636.077 448.238 636.407 444.99L647.237 338.369L583.622 415.87C581.703 418.208 578.695 419.36 575.708 418.901C572.721 418.441 570.198 416.439 569.068 413.633L548.319 362.097L519.539 453.575C518.509 456.851 515.624 459.195 512.209 459.53C508.794 459.865 505.51 458.127 503.863 455.113L439.065 336.465L447.435 467.022Z" fill="white"/>
<path d="M338.36 0.334699C342.362 -0.817041 346.611 1.08145 348.428 4.83246L494.272 305.905L526.949 142.32L527.028 141.962C527.924 138.295 531.124 135.63 534.918 135.441C538.834 135.245 542.383 137.738 543.531 141.492L596.476 314.694L703.346 183.163C705.734 180.224 709.766 179.203 713.262 180.653C716.758 182.102 718.889 185.678 718.503 189.447L702.157 349.015L949.329 174.707C952.716 172.32 957.323 172.701 960.271 175.613C963.22 178.526 963.662 183.134 961.323 186.557L789.638 437.662L950.563 421.756C954.332 421.383 957.899 423.535 959.331 427.045C960.763 430.555 959.72 434.59 956.769 436.966L826.666 541.696L1000.72 595.236C1004.47 596.388 1006.95 599.94 1006.75 603.859C1006.56 607.779 1003.73 611.064 999.884 611.834L835.383 644.773L1045.75 811.566C1049.01 814.151 1049.95 818.708 1047.97 822.369C1045.98 826.03 1041.66 827.736 1037.72 826.413L767.185 735.594L870.478 927.36C872.364 930.863 871.594 935.204 868.619 937.843C865.644 940.482 861.246 940.725 858.001 938.428L689.949 819.505L725.845 1029.41C726.522 1033.37 724.361 1037.27 720.647 1038.79C716.933 1040.31 712.662 1039.04 710.374 1035.74L600.999 877.968L537.982 1153.34C537.051 1157.41 533.331 1160.21 529.17 1159.99C525.009 1159.76 521.616 1156.56 521.134 1152.42L486.8 857.321L374.748 1031.5C372.605 1034.83 368.463 1036.26 364.728 1034.95C360.993 1033.64 358.638 1029.95 359.031 1026L376.496 851.146L71.915 1080C68.5105 1082.56 63.7454 1082.22 60.7312 1079.21C57.717 1076.2 57.3692 1071.43 59.9141 1068.02L278.233 774.961L80.9028 826.013C76.9957 827.024 72.914 825.165 71.1068 821.552C69.2998 817.94 70.258 813.554 73.4065 811.027L262.147 659.527L87.1496 607.068C83.4655 605.964 80.9696 602.535 81.0466 598.685C81.1238 594.836 83.7553 591.51 87.4807 590.554L251.361 548.507L3.85562 385.447C0.41544 383.18 -0.92512 378.782 0.664228 374.978C2.25356 371.174 6.32263 369.042 10.3499 369.903L293.915 430.549L208.812 276.142C206.938 272.743 207.581 268.507 210.378 265.818C213.175 263.129 217.43 262.658 220.746 264.671L369.723 355.102L332.215 9.49875C331.765 5.35434 334.359 1.48654 338.36 0.334699ZM388.617 370.503C388.969 373.745 387.452 376.907 384.704 378.659C381.956 380.411 378.453 380.449 375.667 378.758L239.303 295.983L317.972 438.716C319.592 441.655 319.35 445.27 317.352 447.966C315.353 450.661 311.968 451.941 308.689 451.24L51.3231 396.197L276.945 544.84C279.775 546.705 281.241 550.067 280.682 553.413C280.124 556.76 277.646 559.462 274.363 560.304L121.593 599.499L282.684 647.789C285.732 648.703 288.023 651.234 288.631 654.361C289.24 657.488 288.066 660.695 285.584 662.688L115.232 799.425L297.492 752.272C301.008 751.363 304.716 752.774 306.741 755.792C308.766 758.811 308.667 762.781 306.495 765.696L109.17 1030.57L381.816 825.715C384.533 823.674 388.2 823.434 391.159 825.105C394.119 826.775 395.811 830.04 395.473 833.424L379.606 992.285L485.342 827.929C487.299 824.887 490.955 823.403 494.476 824.222C497.996 825.04 500.624 827.985 501.042 831.579L532.39 1101.02L588.638 855.229L588.715 854.921C589.561 851.762 592.135 849.35 595.36 848.726C598.688 848.083 602.082 849.467 604.015 852.255L702.464 994.27L669.588 802.018C669.004 798.602 670.532 795.17 673.46 793.321C676.389 791.473 680.141 791.571 682.968 793.571L838.088 903.342L741.832 724.639C740.164 721.543 740.555 717.741 742.818 715.05C745.081 712.359 748.757 711.326 752.088 712.444L996.745 794.576L810.257 646.72C807.642 644.647 806.468 641.241 807.248 637.994C808.029 634.748 810.622 632.25 813.893 631.595L963.337 601.669L806.209 553.336C803.18 552.404 800.913 549.874 800.316 546.758C799.719 543.642 800.889 540.451 803.359 538.463L923.632 441.644L773.038 456.53C769.726 456.858 766.524 455.234 764.829 452.366C763.134 449.499 763.253 445.908 765.133 443.159L920.383 216.088L696.653 373.865C693.911 375.799 690.293 375.951 687.399 374.255C684.504 372.558 682.865 369.324 683.207 365.983L698.547 216.235L599.629 337.982C597.634 340.437 594.449 341.591 591.346 340.984C588.243 340.377 585.727 338.108 584.801 335.081L537.085 178.987L506.071 334.253C505.35 337.862 502.407 340.608 498.761 341.074C495.114 341.54 491.578 339.624 489.973 336.312L354.57 56.7922L388.617 370.503Z" fill="white"/>
</svg>
