<svg width="1049" height="1160" viewBox="0 0 1049 1160" fill="none" xmlns="http://www.w3.org/2000/svg">
<path d="M497.647 332.757L535.356 144.327L593.062 332.757L710.189 188.865L691.905 367.017L954.726 182.013L772.466 448.099L951.869 430.398L809.032 545.169L998.72 603.411L815.888 639.955L1041 818.107L749.612 720.466L863.31 931.165L678.193 800.406L717.616 1030.52L597.061 856.935L529.642 1151L492.504 832.382L367.379 1026.52L386.805 832.382L66.2777 1072.77L299.388 760.436L78.276 817.536L279.962 655.943L89.1317 598.843L271.964 552.021L8.00001 378.437L310.244 442.96L215.971 272.231L379.949 371.585L340.525 8.99999L497.647 332.757ZM438.798 468.655L327.384 391.57L404.517 520.616L269.678 489.782L367.95 566.867L234.254 602.269L359.951 640.526L240.539 736.454L393.661 696.484L298.817 837.521L434.227 750.729L421.657 871.781L519.358 721.037L541.069 921.458L578.778 764.433L651.34 867.213L625.058 715.327L750.183 802.69L670.766 654.23L845.598 711.901L727.329 618.828L808.461 594.275L727.329 563.441L826.744 481.217L693.619 494.35L765.038 372.727L645.055 446.957L658.767 312.201L577.064 411.555L547.354 337.896L511.359 452.096L427.942 299.639L438.798 468.655Z" fill="#F05A27"/>
<path d="M338.36 0.334699C342.362 -0.817041 346.611 1.08145 348.428 4.83246L494.272 305.905L526.949 142.32L527.028 141.962C527.924 138.295 531.124 135.63 534.918 135.441C538.834 135.245 542.383 137.738 543.531 141.492L596.476 314.694L703.346 183.163C705.734 180.224 709.766 179.203 713.262 180.653C716.758 182.102 718.889 185.678 718.503 189.447L702.157 349.015L949.329 174.707C952.716 172.32 957.323 172.701 960.271 175.613C963.22 178.526 963.662 183.134 961.323 186.557L789.638 437.662L950.563 421.756C954.332 421.383 957.899 423.535 959.331 427.045C960.763 430.555 959.72 434.59 956.769 436.966L826.666 541.696L1000.72 595.236C1004.46 596.388 1006.95 599.94 1006.75 603.859C1006.56 607.779 1003.73 611.064 999.884 611.834L835.383 644.773L1045.75 811.566C1049.01 814.151 1049.95 818.708 1047.97 822.369C1045.98 826.03 1041.66 827.736 1037.72 826.413L767.185 735.594L870.478 927.36C872.364 930.863 871.594 935.204 868.619 937.843C865.644 940.483 861.247 940.725 858.001 938.428L689.949 819.505L725.845 1029.41C726.522 1033.37 724.361 1037.27 720.647 1038.79C716.933 1040.31 712.662 1039.04 710.374 1035.74L600.999 877.968L537.982 1153.34C537.051 1157.41 533.331 1160.21 529.17 1159.99C525.009 1159.76 521.616 1156.56 521.134 1152.42L486.8 857.321L374.748 1031.5C372.605 1034.83 368.463 1036.26 364.728 1034.95C360.993 1033.64 358.638 1029.95 359.031 1026L376.496 851.146L71.915 1080C68.5105 1082.56 63.7454 1082.22 60.7312 1079.21C57.717 1076.2 57.3692 1071.43 59.9141 1068.02L278.233 774.961L80.9028 826.013C76.9957 827.024 72.914 825.165 71.1068 821.552C69.2998 817.94 70.258 813.554 73.4065 811.027L262.147 659.527L87.1496 607.068C83.4655 605.964 80.9696 602.535 81.0466 598.685C81.1238 594.836 83.7553 591.51 87.4807 590.554L251.361 548.507L3.85562 385.447C0.41544 383.18 -0.92512 378.782 0.664228 374.978C2.25356 371.174 6.32263 369.042 10.3499 369.903L293.915 430.55L208.812 276.142C206.938 272.743 207.581 268.507 210.378 265.818C213.175 263.129 217.43 262.658 220.746 264.671L369.723 355.102L332.215 9.49875C331.765 5.35434 334.359 1.48654 338.36 0.334699ZM388.617 370.503C388.969 373.745 387.452 376.907 384.704 378.659C381.956 380.411 378.453 380.449 375.667 378.758L239.303 295.983L317.972 438.716C319.592 441.655 319.35 445.27 317.352 447.966C315.353 450.661 311.968 451.941 308.689 451.24L51.3231 396.197L276.945 544.84C279.775 546.705 281.241 550.067 280.682 553.413C280.124 556.76 277.646 559.462 274.363 560.304L121.593 599.499L282.684 647.789C285.732 648.703 288.023 651.234 288.631 654.361C289.24 657.488 288.066 660.695 285.584 662.688L115.232 799.425L297.492 752.272C301.008 751.363 304.716 752.774 306.741 755.792C308.766 758.811 308.667 762.781 306.495 765.696L109.17 1030.57L381.816 825.715C384.533 823.674 388.2 823.434 391.159 825.105C394.119 826.775 395.811 830.04 395.473 833.424L379.606 992.285L485.342 827.929C487.299 824.887 490.955 823.403 494.476 824.222C497.996 825.04 500.624 827.985 501.042 831.579L532.39 1101.02L588.638 855.229L588.715 854.921C589.561 851.762 592.135 849.35 595.36 848.726C598.688 848.083 602.082 849.467 604.015 852.255L702.464 994.27L669.588 802.018C669.004 798.602 670.532 795.17 673.46 793.321C676.389 791.473 680.141 791.571 682.968 793.571L838.088 903.342L741.832 724.639C740.164 721.543 740.555 717.741 742.818 715.05C745.081 712.359 748.757 711.326 752.088 712.444L996.745 794.576L810.257 646.72C807.642 644.647 806.468 641.241 807.248 637.994C808.029 634.748 810.622 632.25 813.893 631.595L963.337 601.669L806.209 553.336C803.18 552.404 800.913 549.874 800.316 546.758C799.719 543.642 800.889 540.451 803.359 538.463L923.632 441.644L773.038 456.53C769.726 456.858 766.524 455.234 764.829 452.366C763.134 449.499 763.253 445.908 765.133 443.159L920.383 216.088L696.653 373.865C693.911 375.799 690.293 375.951 687.399 374.255C684.504 372.558 682.865 369.324 683.207 365.983L698.547 216.235L599.629 337.982C597.634 340.437 594.449 341.591 591.346 340.984C588.243 340.377 585.727 338.108 584.801 335.081L537.085 178.987L506.071 334.253C505.35 337.862 502.407 340.608 498.761 341.074C495.114 341.54 491.578 339.624 489.973 336.312L354.57 56.7922L388.617 370.503ZM425.663 291.197C429.518 290.078 433.632 291.79 435.558 295.316L509.244 430.237L539.164 335.14L539.271 334.819C540.446 331.54 543.497 329.287 546.995 329.15C550.607 329.009 553.918 331.154 555.269 334.511L579.553 394.827L652.008 306.559C654.405 303.639 658.429 302.635 661.913 304.088C665.398 305.541 667.521 309.108 667.139 312.868L655.199 430.407L760.271 365.284C763.617 363.21 767.943 363.688 770.758 366.44C773.573 369.193 774.152 373.512 772.161 376.91L709.332 484.101L825.575 472.613C829.321 472.243 832.87 474.367 834.318 477.846C835.766 481.325 834.774 485.344 831.874 487.747L743.892 560.649L811.195 586.275C814.619 587.578 816.834 590.918 816.708 594.583C816.581 598.248 814.139 601.426 810.634 602.489L745.306 622.295L850.546 705.266C853.811 707.84 854.758 712.39 852.792 716.056C850.825 719.721 846.513 721.444 842.567 720.139L688.246 669.141L757.488 798.816C759.355 802.312 758.582 806.635 755.621 809.268C752.659 811.899 748.282 812.154 745.036 809.884L636.885 734.233L659.638 865.967C660.32 869.917 658.177 873.812 654.479 875.347C650.781 876.881 646.515 875.645 644.207 872.37L582.629 784.988L549.376 923.714C548.404 927.768 544.66 930.533 540.505 930.268C536.35 930.002 532.989 926.781 532.541 922.637L513.447 746.055L428.955 876.659C426.803 879.985 422.654 881.402 418.921 880.083C415.189 878.765 412.845 875.056 413.254 871.115L423.973 767.686L303.684 844.929C300.268 847.123 295.783 846.613 292.944 843.71C290.106 840.806 289.694 836.305 291.958 832.933L374.08 710.588L243.012 744.865C239.105 745.886 235.017 744.036 233.201 740.425C231.386 736.814 232.337 732.423 235.484 729.891L342.146 644.047L232.077 610.486C228.417 609.37 225.94 605.958 226.011 602.128C226.081 598.299 228.68 594.981 232.378 594L349.318 562.977L264.67 496.457C261.517 493.979 260.504 489.645 262.229 486.024C263.955 482.403 267.959 480.464 271.865 481.359L387.019 507.739L320.25 395.824C318.184 392.361 318.809 387.923 321.752 385.168C324.696 382.413 329.16 382.086 332.473 384.382L429.214 451.439L419.504 299.978C419.247 295.967 421.808 292.316 425.663 291.197ZM447.434 468.023C447.644 471.303 445.963 474.415 443.106 476.033C440.248 477.651 436.717 477.49 434.018 475.619L355.207 420.99L411.997 516.177C413.755 519.123 413.588 522.836 411.572 525.612C409.556 528.388 406.08 529.693 402.738 528.928L305.319 506.61L373.407 560.115C375.961 562.122 377.161 565.403 376.506 568.587C375.85 571.771 373.452 574.31 370.313 575.143L265.836 602.858L362.624 632.372C365.659 633.297 367.935 635.827 368.537 638.946C369.138 642.065 367.967 645.262 365.495 647.252L277.397 718.153L391.64 688.278C395.083 687.377 398.725 688.705 400.785 691.61C402.845 694.516 402.894 698.395 400.909 701.353L329.204 808.175L429.704 743.642C432.472 741.864 436.013 741.832 438.814 743.559C441.615 745.286 443.18 748.466 442.84 751.742L433.963 837.383L512.178 716.483L512.368 716.202C514.377 713.348 517.93 711.99 521.345 712.804C524.869 713.643 527.484 716.613 527.875 720.22L544.248 871.648L570.395 762.571L570.474 762.267C571.344 759.143 573.909 756.767 577.108 756.153C580.409 755.519 583.776 756.879 585.714 759.629L636.291 831.4L616.512 716.889C615.924 713.48 617.44 710.05 620.357 708.194C623.273 706.339 627.018 706.421 629.851 708.402L725.53 775.328L663.057 658.327C661.406 655.236 661.802 651.45 664.056 648.768C666.309 646.086 669.966 645.048 673.29 646.146L801.715 688.586L721.813 625.592C719.306 623.615 718.105 620.407 718.696 617.268C719.288 614.129 721.574 611.58 724.628 610.654L781.65 593.365L724.066 571.44C721.218 570.356 719.16 567.838 718.663 564.828C718.165 561.819 719.303 558.77 721.65 556.825L799.365 492.429L694.276 502.816C691.072 503.133 687.961 501.621 686.225 498.905C684.489 496.19 684.422 492.729 686.052 489.948L739.906 398.066L649.43 454.145C646.657 455.864 643.15 455.856 640.385 454.124C637.62 452.393 636.077 449.239 636.407 445.99L647.236 339.37L583.621 416.871C581.702 419.209 578.695 420.36 575.708 419.901C572.721 419.442 570.197 417.439 569.067 414.633L548.318 363.098L519.539 454.575C518.508 457.852 515.623 460.195 512.208 460.53C508.794 460.865 505.509 459.127 503.863 456.113L439.064 337.466L447.434 468.023Z" fill="black"/>
</svg>
