<svg width="272" height="231" viewBox="0 0 272 231" fill="none" xmlns="http://www.w3.org/2000/svg">
<path d="M10.8286 81.7516C4.84812 66.2965 12.5289 48.9195 27.9841 42.939L99.4989 15.266C108.547 11.7648 118.253 12.9458 125.946 17.6276L118.874 38.0516C116.408 33.985 111.308 32.1457 106.718 33.922L35.2031 61.595C30.0514 63.5885 27.4911 69.3809 29.4846 74.5326L76.4084 195.797C78.4019 200.949 84.1943 203.509 89.346 201.515L102.71 196.344L132.322 206.335L96.565 220.171C81.1099 226.152 63.7329 218.471 57.7524 203.016L10.8286 81.7516Z" fill="white"/>
<path d="M160.861 173.842C166.013 171.849 168.573 166.056 166.579 160.905L140.243 92.8443L150.746 64.5569L185.235 153.686C189.403 164.456 186.936 176.16 179.827 184.29L155.917 175.755L160.861 173.842Z" fill="white"/>
<path fill-rule="evenodd" clip-rule="evenodd" d="M132.315 28.3453C137.752 12.6906 154.85 4.40742 170.504 9.84426L242.942 35.0018C258.597 40.4386 266.88 57.5367 261.444 73.1914L218.785 196.021C213.348 211.676 196.25 219.959 180.596 214.522L108.158 189.365C92.5028 183.928 84.2196 166.83 89.6565 151.175L132.315 28.3453ZM163.942 28.7411C158.723 26.9288 153.024 29.6899 151.212 34.9081L108.553 157.738C106.741 162.956 109.502 168.655 114.72 170.468L187.158 195.625C192.377 197.437 198.076 194.676 199.888 189.458L242.547 66.6285C244.359 61.4103 241.598 55.7109 236.38 53.8987L163.942 28.7411Z" fill="#FFD700"/>
</svg>
