<svg width="3166" height="4061" viewBox="0 0 3166 4061" fill="none" xmlns="http://www.w3.org/2000/svg">
<path d="M743.82 3347.26C671.433 3280.35 637.388 3202.69 634.791 3126.02C632.252 3051.08 659.955 2983.27 699.923 2933.83C700.656 2932.92 701.411 2932.03 702.186 2931.16L1182.12 2391.73C1132.66 2383.18 1081.96 2360.24 1035.46 2315.52C989.025 2270.86 958.284 2224.32 943.044 2175.47C927.608 2125.99 929.717 2079.37 940.814 2037.79C948.449 2009.19 960.279 1983.18 972.99 1960.23C920.485 1953.18 864.483 1931.23 810.238 1885.18C764.186 1846.09 733.592 1800.2 719.055 1749.06C704.648 1698.38 707.465 1647.7 719.754 1600.73C729.354 1564.05 745.063 1528.31 764.464 1494.31C705.055 1487.34 642.582 1462.23 584.645 1409C498.361 1329.73 486.431 1230.15 503.765 1146.62C520.147 1067.68 562.757 998.413 597.618 956.814L599.272 954.855L600.081 953.919C600.354 953.609 600.629 953.301 600.907 952.996L1246.96 242.478L1247.21 242.209C1358.11 121.443 1673.39 -80.9271 2078.46 34.2452C2325.69 104.538 2564.33 265.544 2752.2 452.056C2939.37 637.877 3084.23 857.117 3135.04 1051.11C3213.74 1351.56 3120.67 1627.08 3058.29 1738.51L2823.8 2390.38C2808.06 2436.19 2771.86 2497.74 2710.77 2541.92C2646.23 2588.59 2557.73 2612.81 2449.3 2583.72C2383.86 2566.16 2333.13 2536.09 2296.56 2495.73C2260.1 2455.48 2241.56 2409.23 2233.56 2365.3C2218.08 2280.33 2240.93 2198.64 2254.66 2160.95C2259.82 2146.76 2269.21 2119.1 2280.54 2084.33L1161.74 3331.38C1161.16 3332.03 1160.57 3332.67 1159.96 3333.3C1116.75 3378.16 1050.18 3413.82 976.608 3423.03C900.564 3432.55 815.748 3413.75 743.82 3347.26ZM782.707 3121.01C783.845 3154.63 798.211 3195.99 844.28 3238.58C880.881 3272.41 920.853 3280.85 958.223 3276.17C997.542 3271.25 1032.61 3251.73 1052.58 3231.43L2386.03 1745.12C2408.38 1720.21 2444.66 1713.39 2474.52 1728.5C2504.39 1743.61 2520.39 1776.89 2513.55 1809.65C2489.99 1922.62 2413.14 2158.27 2393.72 2211.59C2383.63 2239.3 2370.57 2291.61 2379.16 2338.78C2383.19 2360.92 2391.67 2380.27 2406.25 2396.36C2420.73 2412.34 2445.04 2429.34 2487.65 2440.77C2552.13 2458.07 2594.83 2443.12 2624.05 2421.99C2655.84 2399 2675.76 2365.3 2683.58 2343.02L2683.95 2341.97L2684.39 2340.71L2921.19 1682.4L2921.48 1681.62C2922.94 1677.69 2924.74 1673.89 2926.85 1670.26C2974.68 1587.99 3059.8 1347.96 2991.87 1088.62C2950.12 929.206 2824.27 732.164 2647.93 557.085C2472.27 382.698 2254.59 238.186 2037.99 176.602C1700.96 80.776 1440.46 250.587 1356.23 342.302L711.338 1051.54C687.609 1079.73 658.874 1127.56 648.677 1176.69C639.072 1222.98 646.176 1264.55 684.776 1300.02C730.676 1342.19 776.087 1351.14 814.788 1347.77C852.815 1344.46 885.877 1328.87 904.823 1315.72L1198.08 982.729C1224.99 952.168 1271.54 949.095 1302.24 975.855C1332.93 1002.62 1336.24 1049.15 1309.64 1079.98C1246.37 1153.3 1107.22 1313.1 1009.91 1420.31C998.311 1433.09 987.262 1445.17 976.975 1456.31C920.572 1517.35 877.785 1581.44 862.933 1638.2C855.813 1665.41 855.725 1688.58 861.415 1708.59C866.974 1728.15 879.476 1749.82 906.016 1772.35C982.499 1837.28 1062.98 1813.8 1098.3 1791.93L1451.13 1390.36C1478.11 1359.66 1524.86 1356.64 1555.57 1383.62C1586.27 1410.59 1589.29 1457.35 1562.31 1488.05L1159.05 1947.01C1141.69 1972.69 1130.18 1987.03 1114.06 2012.47C1099.49 2035.46 1089.08 2056.22 1083.81 2075.96C1078.83 2094.61 1078.4 2112.4 1084.33 2131.4C1090.45 2151.02 1104.97 2177.03 1138.06 2208.85C1177.27 2246.57 1218.13 2252.2 1256.79 2245.25C1296.41 2238.12 1331.82 2217.49 1350.29 2202.7L1705.36 1803.62C1732.52 1773.09 1779.3 1770.36 1809.83 1797.52C1840.36 1824.69 1843.09 1871.46 1815.93 1902L814.038 3028.1C794.32 3053.04 781.529 3086.25 782.707 3121.01ZM1276.54 3485C1245.73 3458.15 1242.51 3411.41 1269.35 3380.59C1296.2 3349.78 1342.94 3346.56 1373.76 3373.4L1673.28 3634.33C1704.09 3661.17 1707.31 3707.92 1680.47 3738.73C1653.62 3769.55 1606.88 3772.77 1576.06 3745.92L1276.54 3485ZM1013.46 4060.18C972.745 4063.73 936.856 4033.61 933.298 3992.9L899.283 3603.68C895.725 3562.97 925.846 3527.08 966.56 3523.52C1007.27 3519.96 1043.16 3550.08 1046.72 3590.8L1080.74 3980.02C1084.29 4020.73 1054.17 4056.62 1013.46 4060.18ZM254.44 2559.23C223.626 2532.38 220.409 2485.64 247.255 2454.82C274.101 2424.01 320.844 2420.79 351.659 2447.64L634.747 2694.27C665.562 2721.11 668.779 2767.86 641.933 2798.67C615.086 2829.49 568.343 2832.7 537.528 2805.86L254.44 2559.23ZM306.342 3814.4C276.002 3787.02 273.602 3740.23 300.982 3709.89L563.124 3419.41C590.505 3389.07 637.298 3386.67 667.639 3414.05C697.979 3441.43 700.379 3488.22 672.998 3518.57L410.857 3809.04C383.476 3839.38 336.683 3841.78 306.342 3814.4ZM77.799 3214.94C36.984 3217.04 2.19486 3185.65 0.0960439 3144.84C-2.0026 3104.02 29.3834 3069.24 70.1984 3067.14L443.575 3047.94C484.39 3045.84 519.179 3077.23 521.278 3118.04C523.376 3158.86 491.99 3193.64 451.175 3195.74L77.799 3214.94Z" fill="black"/>
</svg>
