<svg width="946" height="152" viewBox="0 0 946 152" fill="none" xmlns="http://www.w3.org/2000/svg">
<path d="M810.5 26.5C829 4 856 0.00047567 867 0V152C852 152 827.5 146 810 125C787.653 98.1837 776.5 91.4997 753 91.4997H709.5C683.5 91.4997 673 99.0157 651.5 126.016C634.3 147.616 608 152.016 597 151.516V0.0339141C610.229 0.514001 635.605 6.18406 651.5 26.5153C673 54.0153 685.5 61.9994 709.5 61.9994H753C776 61.9994 788.58 53.1599 810.5 26.5Z" fill="#2A5073"/>
<rect x="3.5" y="3.5" width="660" height="145" rx="72.5" fill="#FFF5E6" stroke="url(#paint0_linear_768_217)" stroke-width="7"/>
<circle cx="870" cy="76" r="76" fill="#2A5073"/>
<path d="M833 52.167C833 50.6777 833.054 49.2002 833.161 47.7373C833.26 46.3919 833.312 44.7909 834.147 43.3398C834.795 42.2155 835.861 41.2256 837.029 40.6621L837.315 40.5332C838.375 40.0964 839.515 40.0133 840.589 40H853.012C853.909 40.0087 854.856 40.0644 855.747 40.3574L855.988 40.4434L856.365 40.6016C857.231 40.9966 858.004 41.573 858.631 42.2939C859.53 43.3282 859.97 44.6791 860.391 45.8369L864.666 57.5947C864.945 58.3623 865.212 59.0916 865.391 59.7246C865.555 60.3103 865.691 60.9662 865.685 61.6943L865.674 62.0107C865.594 63.2429 865.173 64.4279 864.46 65.4336C863.964 66.1334 863.368 66.63 862.8 67.0312C862.263 67.4107 861.596 67.8083 860.896 68.2285L858.247 69.8164C862.085 76.9874 868.012 82.9204 875.182 86.7539L876.771 84.1045C877.192 83.4043 877.59 82.7383 877.969 82.2012C878.37 81.633 878.866 81.0361 879.566 80.54C880.572 79.8274 881.757 79.4062 882.989 79.3262C883.845 79.2706 884.606 79.421 885.275 79.6094C885.592 79.6985 885.933 79.8097 886.29 79.9336L887.405 80.334L899.163 84.6094H899.164C900.321 85.0301 901.671 85.4708 902.705 86.3691C903.528 87.084 904.165 87.9907 904.557 89.0107L904.643 89.252C904.936 90.1429 904.991 91.0907 905 91.9883V104.411C904.985 105.583 904.887 106.833 904.338 107.972L904.337 107.971C903.774 109.139 902.784 110.206 901.659 110.854C900.208 111.688 898.608 111.739 897.263 111.838C895.799 111.945 894.322 112 892.833 112C859.788 112 833 85.2117 833 52.167ZM839 52.167C839 81.898 863.102 106 892.833 106C894.176 106 895.507 105.951 896.824 105.854C897.674 105.792 898.114 105.757 898.437 105.703C898.574 105.68 898.638 105.662 898.66 105.654C898.664 105.653 898.667 105.651 898.669 105.65C898.675 105.646 898.691 105.637 898.713 105.619C898.743 105.594 898.779 105.562 898.814 105.523C898.85 105.485 898.88 105.447 898.902 105.414C898.914 105.398 898.921 105.384 898.926 105.376C898.934 105.341 898.951 105.256 898.965 105.093C898.997 104.715 899 104.202 899 103.272V92.9424C899 92.1624 898.999 91.725 898.977 91.4004C898.967 91.2525 898.954 91.1764 898.948 91.1465C898.911 91.0569 898.855 90.9759 898.781 90.9092C898.753 90.8927 898.685 90.8561 898.554 90.7979C898.256 90.6662 897.846 90.5146 897.113 90.248L885.354 85.9727C884.504 85.6634 884.019 85.4884 883.65 85.3848C883.484 85.338 883.394 85.3218 883.356 85.3164C883.249 85.327 883.145 85.3642 883.054 85.4248C883.028 85.4531 882.968 85.5222 882.87 85.6611C882.65 85.9735 882.383 86.4149 881.917 87.1914V87.1924L878.906 92.21C878.122 93.5163 876.483 94.0279 875.096 93.3994C864.715 88.698 856.308 80.2793 851.602 69.9062C850.972 68.5182 851.483 66.878 852.79 66.0938L857.809 63.083C858.585 62.6174 859.026 62.3504 859.338 62.1299C859.477 62.0317 859.546 61.9714 859.574 61.9453C859.635 61.8537 859.672 61.7504 859.683 61.6426C859.677 61.6046 859.661 61.5148 859.615 61.3506C859.512 60.9823 859.337 60.4965 859.027 59.6455L854.752 47.8867C854.485 47.1539 854.334 46.7439 854.202 46.4463C854.143 46.3118 854.106 46.2436 854.09 46.2168C854.024 46.1445 853.942 46.0881 853.852 46.0508C853.82 46.0448 853.744 46.0332 853.6 46.0234C853.275 46.0014 852.838 46 852.058 46H841.728C840.798 46 840.285 46.003 839.907 46.0352C839.743 46.0491 839.658 46.0649 839.623 46.0732C839.615 46.0782 839.602 46.0855 839.586 46.0967C839.554 46.1193 839.516 46.1497 839.478 46.1855C839.439 46.2214 839.406 46.2565 839.381 46.2871C839.361 46.311 839.351 46.3267 839.348 46.332C839.347 46.3338 839.347 46.3365 839.346 46.3398C839.338 46.3619 839.32 46.4261 839.297 46.5635C839.243 46.8862 839.208 47.3262 839.146 48.1758C839.049 49.493 839 50.8242 839 52.167Z" fill="white"/>
<defs>
<linearGradient id="paint0_linear_768_217" x1="0" y1="76" x2="667" y2="76" gradientUnits="userSpaceOnUse">
<stop stop-color="#FCE9CE"/>
<stop offset="0.846154" stop-color="#2A5073"/>
</linearGradient>
</defs>
</svg>
