<svg width="1093" height="152" viewBox="0 0 1093 152" fill="none" xmlns="http://www.w3.org/2000/svg">
<path d="M959.5 26.5C978 4 1005 0.00047567 1016 0V152C1001 152 976.5 146 959 125C936.653 98.1837 925.5 91.4997 902 91.4997H858.5C832.5 91.4997 822 99.0157 800.5 126.016C783.3 147.616 757 152.016 746 151.516V0.0339141C759.229 0.514001 784.605 6.18406 800.5 26.5153C822 54.0153 834.5 61.9994 858.5 61.9994H902C925 61.9994 937.58 53.1599 959.5 26.5Z" fill="#2A5073"/>
<rect x="3.5" y="3.5" width="810" height="145" rx="72.5" fill="#FFF5E6" stroke="url(#paint0_linear_762_177)" stroke-width="7"/>
<circle cx="1017" cy="76" r="76" fill="#2A5073"/>
<path d="M1057 53C1057 51.3431 1055.66 50 1054 50H979C977.343 50 976 51.3431 976 53V100C976 101.657 977.343 103 979 103H1054C1055.66 103 1057 101.657 1057 100V53ZM1067 100C1067 107.18 1061.18 113 1054 113H979C971.82 113 966 107.18 966 100V53C966 45.8203 971.82 40 979 40H1054C1061.18 40 1067 45.8203 1067 53V100Z" fill="white"/>
<path d="M971.686 49.9738C973.081 47.5908 976.144 46.7898 978.528 48.1847L1016.99 70.6965L1054.95 48.1984L1060.05 56.8019L1017.02 82.3029L973.475 56.8156C971.092 55.4205 970.291 52.3569 971.686 49.9738Z" fill="white"/>
<defs>
<linearGradient id="paint0_linear_762_177" x1="0" y1="76" x2="817" y2="76" gradientUnits="userSpaceOnUse">
<stop stop-color="#FCE9CE"/>
<stop offset="0.865385" stop-color="#2A5073"/>
</linearGradient>
</defs>
</svg>
