<svg width="665" height="306" viewBox="0 0 665 306" fill="none" xmlns="http://www.w3.org/2000/svg">
<rect y="95" width="665" height="211" rx="70" fill="#FCE9CE"/>
<circle cx="216.5" cy="95.5" r="95.5" fill="#FCE9CE"/>
<path d="M364 95C326.8 93.8 307.667 67.6667 303 55L304 103.5L364 95Z" fill="#FCE9CE"/>
<path d="M69 95C106.2 93.8 125.333 67.6667 130 55L129 103.5L69 95Z" fill="#FCE9CE"/>
<path d="M254.952 84.6745C254.966 85.3857 254.48 85.9912 253.811 86.1518C252.948 86.4363 252.002 86.861 251.102 86.8833C250.403 86.8975 249.806 86.4322 249.626 85.7941L248.148 81.6183C247.911 80.9457 247.678 80.2873 247.449 79.6147L244.638 84.896C244.329 85.469 243.14 86.105 242.643 86.4342C241.952 86.8894 241.022 86.7045 240.564 86.0197C240.447 85.8449 240.372 85.656 240.339 85.465L238.679 77.2271L236.404 75.6929L231.121 74.8719C231.307 75.1503 231.497 75.4287 231.683 75.701C232.652 77.1194 233.556 78.4443 233.877 79.822C234.392 82.0369 233.595 83.9145 229.897 85.3227C230.007 85.3857 230.115 85.4528 230.22 85.53C231.696 86.6029 232.08 88.2245 229.003 92.4044C228.224 93.459 227.556 94.3897 226.996 95.2004C226.556 95.8385 226.145 96.4502 225.769 97.0395L226.591 102.176C226.701 102.869 226.548 103.546 226.112 104.206C225.419 105.247 224.412 105.655 223.557 106.49C223.441 106.606 223.332 106.722 223.236 106.834L223.594 108.299C223.729 108.846 223.539 109.394 223.15 109.748C222.901 109.971 222.529 110.112 222.226 110.25C222.128 110.674 221.979 111.091 221.787 111.504C221.13 112.904 219.89 114.312 218.487 114.999C216.927 115.765 215.143 115.604 213.434 115.641C212.606 115.657 211.919 115.005 211.902 114.182C211.888 113.507 211.79 112.796 211.61 112.04C211.183 110.236 210.328 108.616 209.84 106.818C209.408 105.231 209.169 103.083 210.116 101.638C210.255 101.435 210.261 100.36 210.257 100.106C210.234 99.1568 209.805 98.2099 209.322 97.4093C208.885 96.6859 208.002 95.2756 207.985 94.4445C207.932 92.0101 207.082 91.494 205.917 91.5184C204.13 91.555 202.339 92.0914 200.493 92.13C199.706 92.1463 198.923 91.8049 198.15 91.112C196.987 90.0675 195.828 88.1432 195.075 86.7512C194.413 85.53 194.464 85.2597 194.436 83.9104C194.307 79.7752 194.188 75.8656 198.14 72.8988C199.753 70.5132 201.219 68.9567 203.001 67.9488C204.856 66.8962 206.937 66.4999 209.76 66.441C210.588 66.4227 211.273 67.077 211.291 67.9L211.336 70.0133L213.151 70.757L213.176 70.6351C213.505 68.916 215.372 69.4769 216.463 69.8467C217.778 70.2876 218.503 71.0375 220.067 70.7001C220.66 70.5701 220.529 70.4096 220.591 69.8101L218.812 70.0072C218.364 70.054 217.941 69.8995 217.635 69.6171C217.369 69.3712 217.265 69.0623 217.06 68.7738C216.39 67.8268 215.253 67.2802 213.871 66.6157C212.176 65.8009 210.183 64.8418 208.018 62.8768C200.904 65.555 198.622 65.9513 198.013 64.3724C197.655 63.4498 198.126 62.6939 198.757 61.6759C199.326 60.7574 200.137 59.4528 200.111 58.2437C200.104 57.9356 200.194 57.6329 200.367 57.3774C200.541 57.1219 200.79 56.9262 201.08 56.8173L207.053 53.95C205.63 53.95 205.082 51.5075 204.856 50.5118C204.537 49.1138 206.291 48.494 207.223 47.8397C207.857 47.3927 208.615 46.8196 209.496 46.1206L209.551 46.0759C204.04 47.0492 198.821 49.2703 194.243 52.4646C186.107 58.1442 180.342 67.1055 178.596 76.841C178.148 79.3363 177.952 81.9089 178.009 84.5566C178.065 87.2023 178.371 89.7627 178.923 92.2377C178.954 92.3719 178.985 92.506 179.017 92.6401L186.023 95.7918C186.671 96.0824 186.898 96.6432 186.91 97.2874C186.976 99.1426 186.497 100.555 186.007 102.004C185.627 103.123 185.238 104.269 185.199 105.609C185.197 105.751 185.175 105.887 185.134 106.015C187.928 109.935 191.52 113.343 195.591 115.933C199.829 118.632 204.596 120.544 209.553 121.422C214.599 122.316 220.043 122.2 225.045 121.095C229.962 120.01 234.643 117.898 238.763 115.023C242.766 112.229 246.243 108.624 248.882 104.53C251.595 100.323 253.523 95.5723 254.404 90.6507C254.848 88.1655 255.044 85.6052 254.989 82.9716C254.962 83.5304 254.94 84.1116 254.952 84.6745ZM235.666 31.1079C240.063 31.1079 243.624 34.6497 243.624 39.0206C243.624 43.3895 240.063 46.9293 235.666 46.9293C231.27 46.9293 227.707 43.3895 227.707 39.0206C227.707 34.6497 231.27 31.1079 235.666 31.1079ZM244.867 60.8488C242.853 63.0414 240.503 65.0165 237.855 66.6401C237.384 66.9862 236.818 67.1825 236.233 67.2036C235.647 67.2246 235.069 67.0693 234.574 66.758C230.649 64.2769 227.343 61.2776 224.739 58.0263C221.12 53.5152 218.837 48.4818 218.048 43.6171C217.224 38.5512 218.013 33.652 220.578 29.6367C221.601 28.0395 222.907 26.5846 224.502 25.3206C228.1 22.4717 232.248 20.968 236.389 21.0005C240.421 21.033 244.395 22.5144 247.809 25.6092C249.005 26.6963 250.023 27.944 250.855 29.3095C253.594 33.8003 254.208 39.4758 253.024 45.1757C251.879 50.6947 249.05 56.291 244.867 60.8488ZM236.13 64.3236C250.074 55.9191 255.455 36.444 245.857 27.7408C240.006 22.4331 232.339 22.7968 226.305 27.5762C215.725 35.9543 220.468 54.4337 236.13 64.3236ZM250.597 60.1722C253.623 64.5248 255.845 69.4423 257.004 74.6078C257.599 77.2758 257.928 80.0313 257.99 82.87C258.051 85.7108 257.838 88.4785 257.356 91.1689C256.403 96.4847 254.328 101.589 251.401 106.131C248.547 110.559 244.808 114.436 240.478 117.457C236.04 120.556 230.99 122.834 225.691 124.007C220.3 125.197 214.468 125.321 209.03 124.358C203.68 123.409 198.547 121.349 193.978 118.437C189.521 115.598 185.622 111.886 182.583 107.58C179.467 103.168 177.171 98.1489 175.996 92.8819C175.399 90.2138 175.07 87.4584 175.01 84.6176C174.949 81.7768 175.16 79.0092 175.644 76.3187C177.527 65.8151 183.738 56.1609 192.52 50.0323C198.88 45.5943 206.08 43.0542 213.857 42.5767C213.896 42.8856 213.941 43.1965 213.992 43.5054C214.161 44.5559 214.39 45.6146 214.672 46.6733C214.026 46.6855 213.998 46.6875 213.391 47.0269C212.849 47.3297 212.17 47.8031 211.356 48.4493C210.484 49.1382 209.68 49.7437 208.944 50.2619C208.515 50.5647 208.122 50.8268 207.765 51.0524C208.323 51.1702 208.785 51.4547 209.171 53.1332C209.418 54.1959 209.938 55.8642 208.654 56.4799L203.04 59.1724C202.799 60.8122 201.932 62.2103 201.292 63.2426C201.28 63.2629 201.264 63.2791 201.247 63.2934C201.957 62.8484 203.656 61.3711 207.74 59.8023C208.019 59.6757 208.33 59.6371 208.632 59.6915C208.933 59.746 209.211 59.8911 209.427 60.1071C211.489 62.1636 213.493 63.1267 215.167 63.9335C216.921 64.7768 218.375 65.4758 219.434 66.951L221.85 66.6848C222.328 66.5954 222.803 66.7174 223.165 67.0486C223.314 67.1843 223.433 67.3486 223.517 67.5316C223.6 67.7146 223.645 67.9125 223.649 68.1134C223.672 69.168 223.641 71.1309 223.052 72.086C222.535 72.9212 221.68 73.3987 220.709 73.61C218.649 74.0652 217.6 73.5206 215.807 72.7789C215.735 73.1589 215.701 73.4373 215.439 73.7604C215.236 74.0103 214.958 74.1884 214.645 74.2682C214.332 74.348 214.002 74.3253 213.703 74.2034L209.388 72.4335C208.799 72.2425 208.366 71.6979 208.351 71.0456L208.319 69.4992C206.744 69.6333 205.52 69.9442 204.469 70.5396C203.099 71.3159 201.906 72.6286 200.517 74.7073C200.413 74.8801 200.274 75.0345 200.1 75.1564C197.214 77.2169 197.312 80.4275 197.416 83.8292C197.437 84.516 197.451 84.7883 197.455 84.9955C197.457 85.0646 197.535 85.0423 197.7 85.3451C198.271 86.4037 199.275 88.1188 200.149 88.9052C200.331 89.0678 200.423 89.149 200.425 89.149C202.249 89.1104 204.036 88.578 205.849 88.5374C208.758 88.4785 210.874 89.5067 210.978 94.3836C210.978 94.3897 211.857 95.8405 211.888 95.8893C213.014 97.7629 213.499 99.5978 213.149 101.772C212.83 103.731 212.056 103.587 212.726 106.047C213.223 107.868 214.075 109.486 214.523 111.363C214.625 111.796 214.707 112.219 214.768 112.629C215.551 112.613 216.451 112.686 217.162 112.337C218.217 111.816 219.276 110.343 219.378 109.165C219.411 108.478 219.808 108.086 220.399 107.811C220.229 107.124 219.932 106.421 220.343 105.753C220.991 104.694 221.94 103.847 222.958 103.152C223.263 102.943 223.471 102.762 223.586 102.609C223.629 102.538 223.629 102.603 223.612 102.498L222.735 97.0334C222.656 96.6656 222.711 96.2693 222.927 95.9259C223.346 95.2594 223.88 94.4547 224.53 93.5159C225.162 92.6055 225.847 91.6484 226.583 90.6487C228.2 88.452 228.502 87.9684 228.453 87.9318C228.349 87.8546 228.098 87.7591 227.834 87.6596C227.03 87.3527 226.166 87.0174 225.556 86.1843C224.872 85.2374 224.608 83.6808 226.155 83.3252C230.203 82.3945 231.189 81.4761 230.958 80.4885C230.763 79.6493 230.011 78.5499 229.208 77.3734C228.408 76.1988 227.562 74.9593 226.983 73.5978C226.842 73.3214 226.792 73.0082 226.838 72.7017C226.963 71.8889 227.727 71.3301 228.545 71.454L236.655 72.7159C237.054 72.7789 237.438 72.8094 237.786 73.0431L240.75 75.0365C240.942 75.1418 241.109 75.2876 241.239 75.4639C241.368 75.6401 241.458 75.8424 241.5 76.0566L242.723 82.1344L246.376 75.2722C246.92 74.0429 248.725 74.0957 249.168 75.3901C250.094 78.0947 251.016 80.7628 251.969 83.4553C252.002 82.6343 252.063 81.5655 252.18 80.4966C252.296 79.4074 252.47 78.3203 252.721 77.4851C252.905 76.8715 253.151 76.3472 253.468 75.955C253.216 74.5427 252.881 73.1549 252.462 71.7914C251.961 70.1474 251.335 68.5482 250.589 66.9917C249.942 65.6408 249.215 64.3286 248.414 63.0617C249.187 62.127 249.917 61.1618 250.597 60.1722ZM182.983 101.628C183.045 101.437 183.108 101.248 183.173 101.059C183.503 100.092 183.823 99.1426 183.905 98.0961L180.724 96.6676C181.331 98.3339 182.116 100.071 182.983 101.628Z" fill="black"/>
</svg>
