<svg width="933" height="214" viewBox="0 0 933 214" fill="none" xmlns="http://www.w3.org/2000/svg">
<path d="M853.547 37.3093C879.562 5.63159 917.531 0.000669694 933 0V214C911.906 214 877.453 205.553 852.844 175.987C821.418 138.233 805.734 128.822 772.688 128.822H158.203C121.641 128.822 106.875 139.404 76.6406 177.417C52.4531 207.828 15.4688 214.022 0 213.319V0.0477476C18.6037 0.723661 54.2878 8.70652 76.6406 37.3309C106.875 76.0481 124.453 87.2888 158.203 87.2888H772.688C805.031 87.2888 822.721 74.8436 853.547 37.3093Z" fill="url(#paint0_linear_718_2728)"/>
<defs>
<linearGradient id="paint0_linear_718_2728" x1="110.5" y1="107" x2="817.5" y2="107" gradientUnits="userSpaceOnUse">
<stop stop-color="#EB0000"/>
<stop offset="1" stop-color="#63E300"/>
</linearGradient>
</defs>
</svg>
