<svg width="24888" height="18102" viewBox="0 0 24888 18102" fill="none" xmlns="http://www.w3.org/2000/svg">
<rect width="24888" height="18101.2" fill="#08121E"/>
<g filter="url(#filter0_d_110_51)">
<path d="M20301.9 5580.74C20289 5569.08 20263.3 5552.27 20227.1 5553.76C20191.6 5555.23 20167.9 5573.52 20156.5 5584.97C20137.6 5604.1 20131.2 5625.69 20130.4 5628.22C20128 5635.39 20126.6 5641.85 20125.8 5646.04C20122.9 5661.57 20120.9 5683.33 20119.3 5709.03L20119.3 5709.55L20119.3 5710.08C20105.7 5969.2 20070.2 6339.95 19980.2 6703.02C19890.3 7065.99 19749.3 7407.06 19533.9 7625.56L19528.8 7630.69C19282.6 7876.85 18878 8025.96 18464.8 8113.4C18055.5 8200.02 17656.1 8222.47 17437.5 8227.79H17437.4L17437.3 8227.8L17437.2 8227.8C17433.7 8227.89 17425.3 8228.11 17416.8 8229.41C17414.4 8229.79 17409.2 8230.65 17402.9 8232.48C17401.6 8232.87 17379.6 8238.36 17359.8 8257.15C17347.7 8268.65 17328.7 8292.64 17327.2 8328.82C17325.7 8364.75 17342.4 8390.01 17353.1 8402.21C17370.7 8422.36 17391.5 8429.89 17392.9 8430.43C17402.5 8434.31 17411 8435.96 17412.7 8436.3L17412.9 8436.34C17416 8436.96 17418.7 8437.38 17420.5 8437.63C17424.2 8438.15 17427.6 8438.52 17430.2 8438.76L17433.8 8439.1L17437.5 8439.19C17656.1 8444.51 18055.5 8466.96 18464.8 8553.58C18878 8641.02 19282.6 8790.13 19528.8 9036.29C19764 9271.46 19910.8 9651.6 19999.8 10046.6C20002 10056.6 20004.2 10066.6 20006.4 10076.5L20209.8 10022.2C20118.4 9616.19 19954.8 9166.43 19676.7 8888.36C19386.1 8597.79 18931.3 8438.45 18508.2 8348.91C18482.7 8343.54 18457.4 8338.4 18432.1 8333.49C18457.4 8328.58 18482.7 8323.45 18508.2 8318.07C18931.3 8228.53 19386.1 8069.19 19676.7 7778.62L19682.8 7772.53C19937.8 7513.81 20090.3 7128.56 20183.3 6753.34C20201.4 6680.09 20217.5 6606.68 20231.6 6533.98C20245.7 6606.68 20261.7 6680.09 20279.9 6753.34C20373.6 7131.51 20527.7 7519.88 20786.4 7778.62C21081.2 8073.41 21545.3 8233.22 21974 8322.04C21993 8325.99 22012.1 8329.8 22031.1 8333.49C22012.1 8337.18 21993 8340.99 21974 8344.94C21914.3 8357.3 21854 8371.04 21793.5 8386.32C21799.8 8453.16 21808.1 8520.11 21833.2 8592.09C21893.8 8576.57 21955.1 8562.5 22016.4 8549.79C22431.6 8463.78 22833.8 8443.18 23044.5 8438.76L23044.9 8438.76C23053.2 8438.55 23060 8438.33 23064.7 8438.05C23066 8437.97 23067.9 8437.84 23070.2 8437.62C23071.3 8437.52 23073.1 8437.32 23075.4 8436.99C23076.8 8436.8 23082.2 8436.02 23088.9 8434.15C23091.7 8433.38 23100.2 8430.95 23110.1 8425.64C23115.1 8423 23124.5 8417.46 23134.3 8407.82C23144 8398.29 23159.8 8378.8 23164.3 8348.89C23174.4 8281.21 23121.2 8247.75 23116.6 8244.83L23116.5 8244.8C23104.4 8237.18 23093.6 8233.95 23090.7 8233.1L23090.7 8233.09C23083 8230.8 23076.7 8229.93 23075.4 8229.74C23073 8229.39 23071.1 8229.19 23069.9 8229.09C23062.4 8228.37 23049.4 8228.25 23044.2 8228.21C22833.4 8223.78 22431.3 8203.15 22016.4 8117.19C21597.3 8030.35 21184.2 7880.57 20934.4 7630.69C20716.1 7412.43 20573.6 7068.85 20482.9 6703.02C20392.9 6339.95 20357.5 5969.2 20343.9 5710.08L20343.8 5709.47L20343.3 5700.31C20342.6 5690.9 20341.8 5680.89 20340.8 5671.63C20340.2 5665.51 20339.3 5658.77 20338.3 5652.29C20337.6 5647.83 20335.6 5636.22 20331.2 5624.19C20330.4 5622.09 20322.9 5599.62 20301.9 5580.74Z" fill="#FFD700"/>
<path d="M20463.4 10046.6C20552.3 9651.6 20699.2 9271.46 20934.4 9036.29C21089.5 8881.17 21307.5 8764.62 21550.8 8677.76C21534.1 8616.34 21525.7 8546.25 21515.2 8465.72C21239.2 8560.72 20976.6 8698.23 20786.4 8888.36C20508.4 9166.43 20350.7 9594.69 20259.3 10000.6C20249.3 10044.9 20240.1 10089.1 20231.6 10133L20203.9 10317.1L20057.3 10350.6C20060 10368.1 20062.7 10385.6 20065.2 10402.9L20385.1 10497C20403.5 10353.2 20428.8 10200.1 20463.4 10046.6Z" fill="#FFD700"/>
<path d="M20339.1 11066.7L20339.1 11066.3C20341.6 10993.8 20345.9 10907.2 20353.2 10810.8L20102.7 10723C20113.6 10844.4 20119.8 10953.6 20123.2 11043.5L20124.1 11066.3C20124.3 11073.8 20124.6 11082.3 20125.1 11089.9L20125.1 11090.6C20125.4 11095.5 20126.1 11108.8 20128.5 11120C20129 11122.3 20129.9 11126.2 20131.4 11130.9C20132.4 11134.1 20135.9 11144.7 20143.5 11156.5L20143.6 11156.5C20147 11161.9 20177.2 11208.3 20238.8 11204C20294.2 11200.1 20318.8 11157.7 20321.7 11152.7L20321.9 11152.4C20328.3 11141.5 20331.2 11132 20332.1 11128.7C20333.5 11124.3 20334.3 11120.6 20334.7 11118.3C20335.6 11113.7 20336.1 11109.6 20336.5 11107.1C20337.6 11097.3 20338.4 11083.6 20339.1 11067L20339.1 11066.7Z" fill="#FFD700"/>
<path d="M21640.8 7630.88C21627.8 7619.22 21602.2 7602.41 21566 7603.9C21530.5 7605.37 21506.8 7623.66 21495.4 7635.11C21476.5 7654.24 21470.1 7675.83 21469.2 7678.36C21466.9 7685.53 21465.5 7691.99 21464.7 7696.18C21461.7 7711.71 21459.8 7733.47 21458.2 7759.17L21458.2 7759.69L21458.1 7760.22C21456.1 7798.52 21453.5 7862.27 21450.4 7905.05L21701.4 7995.01C21697.6 7949.03 21689.1 7867.3 21686.5 7825.56C21685.1 7803.08 21683.9 7781.28 21682.7 7760.22L21682.7 7759.61L21682.1 7750.45C21681.5 7741.04 21680.7 7731.03 21679.7 7721.77C21679 7715.65 21678.2 7708.91 21677.2 7702.43C21676.4 7697.98 21674.5 7686.36 21670.1 7674.33C21669.3 7672.23 21661.8 7649.76 21640.8 7630.88Z" fill="#FFD700"/>
<path d="M22273.2 9680.83C22055 9462.57 21912.4 9118.99 21821.8 8753.16C21786.5 8610.8 21763.8 8450.52 21743.3 8312.99L21416.9 8214.67C21411.5 8255.22 21388 8432.4 21381.4 8474.08L21544.5 8413.41L21570.4 8584.12C21584.6 8656.82 21600.6 8730.23 21618.7 8803.48C21712.4 9181.65 21866.6 9570.02 22125.3 9828.76C22420.1 10123.5 22884.1 10283.4 23312.9 10372.2C23331.9 10376.1 23351 10379.9 23369.9 10383.6C23351 10387.3 23331.9 10391.1 23312.9 10395.1C22884.1 10483.9 22420.1 10643.7 22125.3 10938.5C21847.2 11216.6 21689.6 11644.8 21598.2 12050.8C21588.2 12095 21579 12139.2 21570.4 12183.1C21561.9 12139.2 21552.7 12095 21542.7 12050.8C21451.3 11644.8 21293.6 11216.6 21015.6 10938.5C20725 10647.9 20270.1 10488.6 19847 10399.1C19821.6 10393.7 19796.2 10388.5 19770.9 10383.6C19796.2 10378.7 19821.6 10373.6 19847 10368.2C19900.6 10356.9 20122.1 10295.3 20176.4 10281.6L20209.8 10062.9C20136.7 10082.9 19878.3 10147.8 19803.7 10163.5C19394.4 10250.2 18995 10272.6 18776.3 10277.9H18776.2L18776.2 10277.9L18776.1 10277.9C18772.6 10278 18764.2 10278.2 18755.7 10279.6C18753.3 10279.9 18748.1 10280.8 18741.8 10282.6C18740.4 10283 18718.5 10288.5 18698.7 10307.3C18686.5 10318.8 18667.6 10342.8 18666.1 10379C18664.6 10414.9 18681.2 10440.1 18691.9 10452.3C18709.6 10472.5 18730.4 10480 18731.8 10480.6C18741.4 10484.5 18749.8 10486.1 18751.6 10486.4L18751.7 10486.5C18754.9 10487.1 18757.6 10487.5 18759.4 10487.8C18763 10488.3 18766.5 10488.7 18769.1 10488.9L18772.7 10489.2L18776.3 10489.3C18995 10494.6 19394.4 10517.1 19803.7 10603.7C20216.9 10691.2 20621.5 10840.3 20867.7 11086.4C21102.8 11321.6 21249.7 11701.7 21338.6 12096.8C21424.1 12476.1 21452.8 12853.6 21462.1 13093.7L21462.9 13116.5C21463.2 13123.9 21463.5 13132.4 21463.9 13140.1L21464 13140.7C21464.3 13145.6 21465 13158.9 21467.4 13170.2C21467.9 13172.4 21468.8 13176.3 21470.3 13181C21471.3 13184.2 21474.7 13194.8 21482.4 13206.6L21482.4 13206.7C21485.9 13212 21516.1 13258.5 21577.6 13254.1C21633.1 13250.2 21657.7 13207.8 21660.6 13202.8L21660.7 13202.6C21667.1 13191.7 21670.1 13182.1 21671 13178.9C21672.3 13174.5 21673.1 13170.7 21673.6 13168.4C21674.5 13163.8 21675 13159.8 21675.3 13157.2C21676.5 13147.5 21677.2 13133.7 21677.9 13117.2L21678 13116.8L21678 13116.5C21686.3 12878 21714 12488.4 21802.2 12096.8C21891.2 11701.7 22038.1 11321.6 22273.2 11086.4C22523.1 10836.6 22936.2 10686.8 23355.3 10599.9C23770.4 10513.9 24172.7 10493.3 24383.4 10488.9L24383.8 10488.9C24392.1 10488.7 24398.8 10488.5 24403.6 10488.2C24404.8 10488.1 24406.8 10488 24409 10487.8C24410.1 10487.7 24412 10487.5 24414.3 10487.1C24415.6 10486.9 24421.1 10486.2 24427.8 10484.3C24430.5 10483.5 24439 10481.1 24449 10475.8C24453.9 10473.1 24463.4 10467.6 24473.2 10458C24482.8 10448.4 24498.7 10428.9 24503.1 10399C24513.3 10331.4 24460.1 10297.9 24455.4 10295L24455.4 10294.9C24443.3 10287.3 24432.4 10284.1 24429.6 10283.2L24429.5 10283.2C24421.9 10280.9 24415.6 10280.1 24414.3 10279.9C24411.9 10279.5 24409.9 10279.3 24408.8 10279.2C24401.2 10278.5 24388.3 10278.4 24383.1 10278.3C24172.2 10273.9 23770.2 10253.3 23355.3 10167.3C22936.2 10080.5 22523.1 9930.71 22273.2 9680.83Z" fill="#FFD700"/>
<path d="M20872.8 9675.7L20867.7 9680.83C20757.3 9791.17 20677.9 9861.92 20517.4 9936.45L20463 10183.2C20691.4 10092.4 20854.6 9989.7 21015.6 9828.76L21021.6 9822.67C21276.7 9563.95 21429.2 9178.7 21522.2 8803.48C21526.7 8785.19 21538.7 8751.19 21544.5 8727.21L21305.9 8831.81C21215.5 9168.2 21074.2 9471.37 20872.8 9675.7Z" fill="#FFD700"/>
</g>
<g filter="url(#filter1_d_110_51)">
<path d="M3635.75 228.239C3621.28 215.225 3592.6 196.459 3552.23 198.127C3512.56 199.767 3486.11 220.187 3473.45 232.968C3452.32 254.316 3445.16 278.419 3444.23 281.241C3441.6 289.245 3440.06 296.461 3439.17 301.132C3435.85 318.468 3433.71 342.76 3431.92 371.448L3431.88 372.031L3431.85 372.62C3416.66 661.862 3377.07 1075.72 3276.65 1481C3176.26 1886.17 3018.82 2266.89 2778.39 2510.79L2772.7 2516.52C2497.93 2791.29 2046.26 2957.75 1585.07 3055.35C1128.17 3152.04 682.345 3177.1 438.248 3183.04H438.153L438.057 3183.04L437.988 3183.04C434.04 3183.15 424.725 3183.39 415.239 3184.85C412.52 3185.27 406.725 3186.23 399.686 3188.27C398.191 3188.71 373.703 3194.84 351.563 3215.8C337.998 3228.65 316.827 3255.43 315.144 3295.81C313.473 3335.92 332.109 3364.11 344.047 3377.73C363.767 3400.22 386.998 3408.63 388.498 3409.23C399.247 3413.57 408.662 3415.41 410.586 3415.79L410.787 3415.83C414.296 3416.53 417.354 3416.99 419.325 3417.27C423.396 3417.85 427.28 3418.26 430.139 3418.53L434.185 3418.92L438.248 3419.01C682.345 3424.95 1128.17 3450.01 1585.07 3546.7C2046.26 3644.3 2497.93 3810.76 2772.7 4085.53C3035.21 4348.04 3199.14 4772.37 3298.45 5213.32C3300.96 5224.46 3303.43 5235.59 3305.85 5246.73L3532.95 5186.01C3430.88 4732.85 3248.22 4230.8 2937.83 3920.41C2613.48 3596.06 2105.71 3418.19 1633.42 3318.24C1605.04 3312.24 1576.72 3306.51 1548.49 3301.03C1576.72 3295.54 1605.04 3289.81 1633.42 3283.81C2105.71 3183.86 2613.48 3005.99 2937.83 2681.65L2944.57 2674.85C3229.33 2386.05 3399.53 1956.01 3503.31 1537.16C3523.57 1455.4 3541.44 1373.45 3557.2 1292.31C3572.96 1373.45 3590.83 1455.4 3611.09 1537.16C3715.69 1959.3 3887.76 2392.83 4176.58 2681.65C4505.64 3010.71 5023.61 3189.09 5502.18 3288.25C5523.46 3292.65 5544.71 3296.91 5565.91 3301.03C5544.71 3305.14 5523.46 3309.4 5502.18 3313.8C5435.58 3327.6 5368.21 3342.94 5300.69 3360C5307.7 3434.61 5317.04 3509.34 5345.06 3589.69C5412.71 3572.36 5481.06 3556.66 5549.56 3542.47C6012.95 3446.46 6461.94 3423.46 6697.2 3418.54L6697.63 3418.53C6706.87 3418.3 6714.42 3418.06 6719.71 3417.74C6721.1 3417.66 6723.31 3417.51 6725.81 3417.27C6727.04 3417.14 6729.12 3416.93 6731.64 3416.56L6731.7 3416.56C6733.31 3416.32 6739.34 3415.45 6746.73 3413.38C6749.79 3412.53 6759.29 3409.82 6770.38 3403.89C6775.91 3400.94 6786.5 3394.76 6797.4 3384C6808.18 3373.36 6825.84 3351.6 6830.85 3318.22C6842.19 3242.67 6782.76 3205.31 6777.58 3202.06L6777.52 3202.02C6764.01 3193.52 6751.92 3189.91 6748.73 3188.96L6748.69 3188.95C6740.14 3186.39 6733.13 3185.42 6731.7 3185.21C6729 3184.82 6726.79 3184.6 6725.56 3184.48C6717.1 3183.69 6702.68 3183.55 6696.82 3183.5C6461.46 3178.56 6012.7 3155.53 5549.56 3059.58C5081.7 2962.64 4620.63 2795.45 4341.71 2516.52C4098.07 2272.88 3938.94 1889.36 3837.76 1481C3737.34 1075.72 3697.75 661.862 3682.56 372.62L3682.52 371.936L3681.88 361.715C3681.17 351.211 3680.26 340.038 3679.16 329.697C3678.43 322.871 3677.5 315.348 3676.31 308.11C3675.5 303.138 3673.35 290.174 3668.39 276.749C3667.52 274.4 3659.19 249.319 3635.75 228.239Z" fill="#FFD700"/>
<path d="M3815.95 5213.32C3915.26 4772.37 4079.19 4348.04 4341.71 4085.53C4514.86 3912.37 4758.21 3782.28 5029.81 3685.32C5011.13 3616.76 5001.79 3538.52 4990.11 3448.62C4681.97 3554.67 4388.81 3708.17 4176.58 3920.41C3866.19 4230.8 3690.2 4708.85 3588.14 5162.01C3577.02 5211.39 3566.72 5260.7 3557.2 5309.72L3526.27 5515.27L3362.65 5552.64C3365.7 5572.2 3368.64 5591.67 3371.46 5611.02L3728.53 5716.1C3749.15 5555.53 3777.37 5384.59 3815.95 5213.32Z" fill="#FFD700"/>
<path d="M3677.2 6351.98L3677.22 6351.59C3680.04 6270.58 3684.87 6173.94 3693 6066.38L3413.29 5968.3C3425.46 6103.81 3432.38 6225.74 3436.25 6326.14L3437.19 6351.59C3437.44 6359.89 3437.81 6369.38 3438.31 6377.94C3438.58 6382.69 3439.38 6398.36 3442.18 6411.51C3442.72 6414.06 3443.72 6418.42 3445.39 6423.63C3446.54 6427.22 3450.37 6439.06 3458.92 6452.22L3458.95 6452.26C3462.83 6458.24 3496.51 6510.08 3565.24 6505.26C3627.12 6500.91 3654.59 6453.54 3657.81 6448L3657.98 6447.7C3665.12 6435.54 3668.39 6424.84 3669.46 6421.25C3670.93 6416.31 3671.82 6412.15 3672.33 6409.6C3673.34 6404.47 3673.93 6399.92 3674.27 6397.04C3675.54 6386.2 3676.42 6370.86 3677.19 6352.37L3677.2 6351.98Z" fill="#FFD700"/>
<path d="M5130.28 2516.73C5115.81 2503.72 5087.13 2484.95 5046.77 2486.62C5007.09 2488.26 4980.64 2508.68 4967.98 2521.46C4946.85 2542.81 4939.69 2566.91 4938.76 2569.73C4936.13 2577.74 4934.59 2584.95 4933.7 2589.62C4930.38 2606.96 4928.24 2631.25 4926.45 2659.94L4926.41 2660.52L4926.38 2661.11C4924.13 2703.86 4921.15 2775.02 4917.72 2822.78L5197.95 2923.2C5193.64 2871.87 5184.23 2780.64 5181.3 2734.05C5179.72 2708.96 5178.32 2684.62 5177.09 2661.11L5177.05 2660.43L5176.41 2650.21C5175.7 2639.7 5174.79 2628.53 5173.69 2618.19C5172.96 2611.36 5172.03 2603.84 5170.85 2596.6C5170.03 2591.63 5167.88 2578.67 5162.92 2565.24C5162.06 2562.89 5153.72 2537.81 5130.28 2516.73Z" fill="#FFD700"/>
<path d="M5836.24 4805.01C5592.6 4561.38 5433.47 4177.85 5332.29 3769.49C5292.91 3610.58 5267.52 3431.67 5244.65 3278.15L4880.36 3168.39C4874.26 3213.65 4848.03 3411.44 4840.66 3457.96L5022.81 3390.24L5051.73 3580.8C5067.5 3661.95 5085.36 3743.89 5105.62 3825.66C5210.22 4247.8 5382.29 4681.32 5671.11 4970.14C6000.17 5299.2 6518.14 5477.59 6996.71 5576.74C7017.99 5581.15 7039.24 5585.4 7060.44 5589.52C7039.24 5593.63 7017.99 5597.89 6996.71 5602.3C6518.14 5701.45 6000.17 5879.84 5671.11 6208.9C5360.72 6519.29 5184.74 6997.34 5082.67 7450.5C5071.55 7499.88 5061.26 7549.19 5051.73 7598.21C5042.21 7549.19 5031.92 7499.88 5020.8 7450.5C4918.73 6997.34 4742.75 6519.29 4432.36 6208.9C4108.01 5884.55 3600.24 5706.68 3127.95 5606.73C3099.57 5600.73 3071.25 5595 3043.03 5589.52C3071.25 5584.03 3099.57 5578.3 3127.95 5572.3C3187.8 5559.63 3435.04 5490.88 3495.59 5475.57L3532.95 5231.52C3451.3 5253.86 3162.86 5326.22 3079.6 5343.84C2622.7 5440.53 2176.88 5465.59 1932.78 5471.53H1932.68L1932.59 5471.54L1932.52 5471.54C1928.57 5471.64 1919.26 5471.88 1909.77 5473.34C1907.05 5473.76 1901.26 5474.72 1894.22 5476.77C1892.72 5477.2 1868.23 5483.33 1846.09 5504.3C1832.53 5517.14 1811.36 5543.92 1809.68 5584.3C1808 5624.41 1826.64 5652.61 1838.58 5666.22C1858.3 5688.72 1881.53 5697.12 1883.03 5697.73C1893.78 5702.06 1903.19 5703.9 1905.12 5704.28L1905.32 5704.32C1908.83 5705.02 1911.89 5705.49 1913.86 5705.77C1917.93 5706.35 1921.81 5706.76 1924.67 5707.03L1928.72 5707.41L1932.78 5707.5C2176.88 5713.44 2622.7 5738.51 3079.6 5835.2C3540.79 5932.8 3992.46 6099.25 4267.23 6374.02C4529.74 6636.53 4693.67 7060.87 4792.99 7501.81C4888.37 7925.3 4920.45 8346.68 4930.79 8614.63L4931.72 8640.08C4931.97 8648.38 4932.34 8657.87 4932.84 8666.43C4933.11 8671.18 4933.91 8686.85 4936.71 8700C4937.25 8702.56 4938.26 8706.91 4939.92 8712.12C4941.07 8715.71 4944.9 8727.55 4953.45 8740.72L4953.48 8740.75C4957.36 8746.73 4991.04 8798.58 5059.77 8793.75C5121.65 8789.41 5149.12 8742.04 5152.34 8736.49L5152.51 8736.2C5159.66 8724.03 5162.92 8713.33 5163.99 8709.75C5165.46 8704.8 5166.35 8700.64 5166.86 8698.09C5167.88 8692.96 5168.46 8688.42 5168.8 8685.53C5170.07 8674.69 5170.95 8659.35 5171.72 8640.86L5171.73 8640.47L5171.75 8640.08C5181.02 8373.86 5212.02 7938.96 5310.48 7501.81C5409.79 7060.87 5573.73 6636.53 5836.24 6374.02C6115.16 6095.1 6576.23 5927.9 7044.09 5830.96C7507.48 5734.96 7956.48 5711.95 8191.73 5707.03L8192.16 5707.02C8201.4 5706.79 8208.95 5706.55 8214.24 5706.23C8215.63 5706.15 8217.84 5706 8220.34 5705.76C8221.58 5705.64 8223.65 5705.42 8226.17 5705.06L8226.23 5705.05C8227.84 5704.81 8233.87 5703.95 8241.26 5701.88C8244.32 5701.02 8253.82 5698.31 8264.91 5692.38C8270.45 5689.43 8281.03 5683.25 8291.93 5672.49C8302.71 5661.85 8320.37 5640.09 8325.38 5606.71C8336.72 5531.16 8277.29 5493.81 8272.11 5490.55L8272.06 5490.51C8258.54 5482.01 8246.45 5478.4 8243.26 5477.45L8243.23 5477.44C8234.67 5474.89 8227.66 5473.91 8226.23 5473.71C8223.53 5473.32 8221.33 5473.09 8220.09 5472.98C8211.63 5472.18 8197.21 5472.05 8191.35 5472C7955.99 5467.05 7507.23 5444.03 7044.09 5348.07C6576.23 5251.14 6115.16 5083.94 5836.24 4805.01Z" fill="#FFD700"/>
<path d="M4272.92 4799.28L4267.23 4805.01C4144.06 4928.18 4055.41 5007.15 3876.22 5090.34L3815.51 5365.82C4070.5 5264.39 4252.71 5149.79 4432.36 4970.14L4439.1 4963.34C4723.86 4674.54 4894.06 4244.5 4997.84 3825.66C5002.9 3805.24 5016.27 3767.29 5022.81 3740.52L4756.41 3857.28C4655.51 4232.78 4497.77 4571.19 4272.92 4799.28Z" fill="#FFD700"/>
</g>
<g filter="url(#filter2_d_110_51)">
<path d="M10250.5 12054.3C10241 12045.8 10222.1 12033.4 10195.5 12034.5C10169.4 12035.6 10152 12049 10143.7 12057.4C10129.8 12071.5 10125.1 12087.4 10124.5 12089.2C10122.7 12094.5 10121.7 12099.2 10121.1 12102.3C10118.9 12113.7 10117.5 12129.7 10116.4 12148.6L10116.3 12149L10116.3 12149.4C10106.3 12339.7 10080.3 12612.1 10014.2 12878.8C9948.09 13145.5 9844.47 13396.1 9686.23 13556.6L9682.49 13560.4C9501.64 13741.2 9204.38 13850.8 8900.84 13915C8600.13 13978.6 8306.71 13995.1 8146.06 13999H8146L8145.93 13999L8145.89 13999.1C8143.29 13999.1 8137.16 13999.3 8130.92 14000.2C8129.13 14000.5 8125.31 14001.1 8120.68 14002.5C8119.7 14002.8 8103.58 14006.8 8089.01 14020.6C8080.08 14029.1 8066.15 14046.7 8065.04 14073.3C8063.94 14099.7 8076.2 14118.2 8084.06 14127.2C8097.04 14142 8112.33 14147.5 8113.32 14147.9C8120.39 14150.8 8126.59 14152 8127.86 14152.2L8127.99 14152.3C8130.29 14152.7 8132.31 14153 8133.6 14153.2C8136.28 14153.6 8138.84 14153.9 8140.72 14154L8143.38 14154.3L8146.06 14154.4C8306.71 14158.3 8600.13 14174.8 8900.84 14238.4C9204.38 14302.6 9501.64 14412.2 9682.49 14593C9855.26 14765.8 9963.15 15045.1 10028.5 15335.3C10030.2 15342.6 10031.8 15349.9 10033.4 15357.3L10182.8 15317.3C10115.7 15019.1 9995.45 14688.6 9791.16 14484.3C9577.69 14270.9 9243.5 14153.8 8932.66 14088C8913.99 14084.1 8895.35 14080.3 8876.77 14076.7C8895.35 14073.1 8913.99 14069.3 8932.66 14065.4C9243.5 13999.6 9577.69 13882.5 9791.16 13669.1L9795.6 13664.6C9983.02 13474.5 10095 13191.5 10163.3 12915.8C10176.7 12862 10188.4 12808.1 10198.8 12754.7C10209.2 12808.1 10220.9 12862 10234.3 12915.8C10303.1 13193.6 10416.4 13479 10606.5 13669.1C10823 13885.6 11163.9 14003 11478.9 14068.3C11492.9 14071.2 11506.9 14074 11520.8 14076.7C11506.9 14079.4 11492.9 14082.2 11478.9 14085.1C11435.1 14094.2 11390.7 14104.3 11346.3 14115.5C11350.9 14164.6 11357.1 14213.8 11375.5 14266.7C11420 14255.3 11465 14244.9 11510.1 14235.6C11815.1 14172.4 12110.6 14157.3 12265.4 14154L12265.7 14154C12271.8 14153.9 12276.7 14153.7 12280.2 14153.5C12281.1 14153.5 12282.6 14153.4 12284.2 14153.2C12285 14153.1 12286.4 14153 12288.1 14152.7C12289.1 14152.6 12293.1 14152 12298 14150.6C12300 14150.1 12306.3 14148.3 12313.6 14144.4C12317.2 14142.5 12324.2 14138.4 12331.4 14131.3C12338.4 14124.3 12350.1 14110 12353.4 14088C12360.8 14038.3 12321.7 14013.7 12318.3 14011.6L12318.3 14011.5C12309.4 14005.9 12301.4 14003.6 12299.3 14002.9L12299.3 14002.9C12293.7 14001.3 12289.1 14000.6 12288.1 14000.5C12286.3 14000.2 12284.9 14000.1 12284.1 14000C12278.5 13999.5 12269 13999.4 12265.2 13999.4C12110.3 13996.1 11814.9 13980.9 11510.1 13917.8C11202.2 13854 10898.7 13744 10715.1 13560.4C10554.8 13400 10450.1 13147.6 10383.5 12878.8C10317.4 12612.1 10291.3 12339.7 10281.3 12149.4L10281.3 12148.9L10280.9 12142.2C10280.4 12135.3 10279.8 12127.9 10279.1 12121.1C10278.6 12116.6 10278 12111.7 10277.2 12106.9C10276.7 12103.6 10275.3 12095.1 10272 12086.3C10271.4 12084.7 10265.9 12068.2 10250.5 12054.3Z" fill="#FFD700"/>
<path d="M10369.1 15335.3C10434.5 15045.1 10542.4 14765.8 10715.1 14593C10829.1 14479.1 10989.3 14393.4 11168 14329.6C11155.7 14284.5 11149.6 14233 11141.9 14173.8C10939.1 14243.6 10746.1 14344.7 10606.5 14484.3C10402.2 14688.6 10286.3 15003.3 10219.2 15301.5C10211.8 15334 10205.1 15366.5 10198.8 15398.7L10178.4 15534L10070.8 15558.6C10072.8 15571.5 10074.7 15584.3 10076.6 15597L10311.6 15666.2C10325.1 15560.5 10343.7 15448 10369.1 15335.3Z" fill="#FFD700"/>
<path d="M10277.8 16084.7L10277.8 16084.4C10279.7 16031.1 10282.8 15967.5 10288.2 15896.7L10104.1 15832.2C10112.1 15921.4 10116.7 16001.6 10119.2 16067.7L10119.8 16084.4C10120 16089.9 10120.2 16096.1 10120.6 16101.8C10120.7 16104.9 10121.3 16115.2 10123.1 16123.9C10123.5 16125.6 10124.1 16128.4 10125.2 16131.9C10126 16134.2 10128.5 16142 10134.1 16150.7L10134.1 16150.7C10136.7 16154.6 10158.9 16188.8 10204.1 16185.6C10244.8 16182.7 10262.9 16151.5 10265 16147.9L10265.1 16147.7C10269.8 16139.7 10272 16132.6 10272.7 16130.3C10273.7 16127 10274.2 16124.3 10274.6 16122.6C10275.2 16119.2 10275.6 16116.2 10275.9 16114.4C10276.7 16107.2 10277.3 16097.1 10277.8 16085L10277.8 16084.7Z" fill="#FFD700"/>
<path d="M11234.1 13560.5C11224.6 13551.9 11205.7 13539.6 11179.2 13540.7C11153.1 13541.8 11135.6 13555.2 11127.3 13563.6C11113.4 13577.7 11108.7 13593.5 11108.1 13595.4C11106.4 13600.7 11105.3 13605.4 11104.8 13608.5C11102.6 13619.9 11101.2 13635.9 11100 13654.8L11100 13655.1L11099.9 13655.5C11098.5 13683.7 11096.5 13730.5 11094.2 13761.9L11278.7 13828C11275.8 13794.2 11269.6 13734.2 11267.7 13703.5C11266.7 13687 11265.8 13671 11264.9 13655.5L11264.9 13655.1L11264.5 13648.4C11264 13641.4 11263.4 13634.1 11262.7 13627.3C11262.2 13622.8 11261.6 13617.8 11260.8 13613.1C11260.3 13609.8 11258.9 13601.3 11255.6 13592.4C11255.1 13590.9 11249.6 13574.4 11234.1 13560.5Z" fill="#FFD700"/>
<path d="M11698.8 15066.5C11538.4 14906.2 11433.7 14653.8 11367.1 14385C11341.2 14280.4 11324.5 14162.7 11309.4 14061.6L11069.7 13989.4C11065.6 14019.2 11048.4 14149.4 11043.5 14180L11163.4 14135.4L11182.4 14260.8C11192.8 14314.2 11204.6 14368.2 11217.9 14422C11286.8 14699.8 11400 14985.1 11590.1 15175.2C11806.7 15391.8 12147.6 15509.2 12462.5 15574.5C12476.5 15577.4 12490.5 15580.2 12504.5 15582.9C12490.5 15585.6 12476.5 15588.4 12462.5 15591.3C12147.6 15656.5 11806.7 15773.9 11590.1 15990.5C11385.8 16194.8 11270 16509.4 11202.8 16807.7C11195.5 16840.2 11188.7 16872.6 11182.4 16904.9C11176.2 16872.6 11169.4 16840.2 11162.1 16807.7C11094.9 16509.4 10979.1 16194.8 10774.8 15990.5C10561.3 15777 10227.1 15660 9916.29 15594.2C9897.62 15590.3 9878.98 15586.5 9860.4 15582.9C9878.98 15579.3 9897.62 15575.5 9916.29 15571.5C9955.69 15563.2 10118.4 15518 10158.3 15507.9L10182.8 15347.3C10129.1 15362 9939.27 15409.6 9884.48 15421.2C9583.77 15484.8 9290.34 15501.3 9129.69 15505.2H9129.63L9129.57 15505.2L9129.52 15505.2C9126.92 15505.3 9120.79 15505.4 9114.55 15506.4C9112.76 15506.7 9108.95 15507.3 9104.31 15508.7C9103.33 15508.9 9087.21 15513 9072.64 15526.8C9063.71 15535.2 9049.78 15552.9 9048.67 15579.4C9047.57 15605.8 9059.84 15624.4 9067.69 15633.4C9080.67 15648.2 9095.96 15653.7 9096.95 15654.1C9104.03 15656.9 9110.23 15658.2 9111.49 15658.4L9111.62 15658.4C9113.93 15658.9 9115.94 15659.2 9117.24 15659.4C9119.92 15659.8 9122.47 15660 9124.36 15660.2L9127.02 15660.5L9129.69 15660.5C9290.34 15664.4 9583.77 15680.9 9884.48 15744.6C10188 15808.8 10485.3 15918.4 10666.1 16099.2C10838.9 16272 10946.8 16551.2 11012.1 16841.5C11074.9 17120.2 11096 17397.5 11102.8 17573.9L11103.5 17590.6C11103.6 17596.1 11103.9 17602.3 11104.2 17608C11104.4 17611.1 11104.9 17621.4 11106.7 17630C11107.1 17631.7 11107.8 17634.6 11108.9 17638C11109.6 17640.4 11112.1 17648.2 11117.8 17656.8L11117.8 17656.9C11120.3 17660.8 11142.5 17694.9 11187.7 17691.7C11228.5 17688.9 11246.5 17657.7 11248.7 17654.1L11248.8 17653.9C11253.5 17645.9 11255.6 17638.8 11256.3 17636.5C11257.3 17633.2 11257.9 17630.5 11258.2 17628.8C11258.9 17625.4 11259.3 17622.4 11259.5 17620.5C11260.3 17613.4 11260.9 17603.3 11261.4 17591.1L11261.4 17590.9L11261.4 17590.6C11267.5 17415.4 11287.9 17129.2 11352.7 16841.5C11418.1 16551.2 11526 16272 11698.8 16099.2C11882.3 15915.6 12185.8 15805.6 12493.7 15741.8C12798.7 15678.6 13094.2 15663.5 13249 15660.2L13249.3 15660.2C13255.4 15660.1 13260.4 15659.9 13263.9 15659.7C13264.8 15659.6 13266.2 15659.5 13267.9 15659.4C13268.7 15659.3 13270.1 15659.2 13271.7 15658.9C13272.7 15658.8 13276.7 15658.2 13281.6 15656.8C13283.7 15656.3 13289.9 15654.5 13297.2 15650.6C13300.8 15648.6 13307.8 15644.6 13315 15637.5C13322.1 15630.5 13333.7 15616.2 13337 15594.2C13344.5 15544.5 13305.4 15519.9 13301.9 15517.7L13301.9 15517.7C13293 15512.1 13285 15509.7 13283 15509.1L13282.9 15509.1C13277.3 15507.4 13272.7 15506.8 13271.7 15506.6C13270 15506.4 13268.5 15506.2 13267.7 15506.2C13262.1 15505.6 13252.6 15505.6 13248.8 15505.5C13093.9 15502.3 12798.5 15487.1 12493.7 15424C12185.8 15360.2 11882.3 15250.1 11698.8 15066.5Z" fill="#FFD700"/>
<path d="M10669.9 15062.8L10666.1 15066.5C10585.1 15147.6 10526.7 15199.6 10408.8 15254.3L10368.8 15435.6C10536.6 15368.9 10656.6 15293.5 10774.8 15175.2L10779.2 15170.8C10966.6 14980.7 11078.7 14697.6 11147 14422C11150.3 14408.5 11159.1 14383.6 11163.4 14365.9L10988.1 14442.8C10921.7 14689.9 10817.8 14912.7 10669.9 15062.8Z" fill="#FFD700"/>
</g>
<defs>
<filter id="filter0_d_110_51" x="17033.9" y="5424.47" width="7611.74" height="8135.16" filterUnits="userSpaceOnUse" color-interpolation-filters="sRGB">
<feFlood flood-opacity="0" result="BackgroundImageFix"/>
<feColorMatrix in="SourceAlpha" type="matrix" values="0 0 0 0 0 0 0 0 0 0 0 0 0 0 0 0 0 0 127 0" result="hardAlpha"/>
<feOffset dx="-76" dy="88"/>
<feGaussianBlur stdDeviation="108.6"/>
<feComposite in2="hardAlpha" operator="out"/>
<feColorMatrix type="matrix" values="0 0 0 0 0.799842 0 0 0 0 0.674377 0 0 0 0 0 0 0 0 1 0"/>
<feBlend mode="normal" in2="BackgroundImageFix" result="effect1_dropShadow_110_51"/>
<feBlend mode="normal" in="SourceGraphic" in2="effect1_dropShadow_110_51" result="shape"/>
</filter>
<filter id="filter1_d_110_51" x="21.8391" y="68.8234" width="8446.18" height="9030.44" filterUnits="userSpaceOnUse" color-interpolation-filters="sRGB">
<feFlood flood-opacity="0" result="BackgroundImageFix"/>
<feColorMatrix in="SourceAlpha" type="matrix" values="0 0 0 0 0 0 0 0 0 0 0 0 0 0 0 0 0 0 127 0" result="hardAlpha"/>
<feOffset dx="-76" dy="88"/>
<feGaussianBlur stdDeviation="108.6"/>
<feComposite in2="hardAlpha" operator="out"/>
<feColorMatrix type="matrix" values="0 0 0 0 0.799842 0 0 0 0 0.674377 0 0 0 0 0 0 0 0 1 0"/>
<feBlend mode="normal" in2="BackgroundImageFix" result="effect1_dropShadow_110_51"/>
<feBlend mode="normal" in="SourceGraphic" in2="effect1_dropShadow_110_51" result="shape"/>
</filter>
<filter id="filter2_d_110_51" x="7771.77" y="11905.2" width="5707.38" height="6091.9" filterUnits="userSpaceOnUse" color-interpolation-filters="sRGB">
<feFlood flood-opacity="0" result="BackgroundImageFix"/>
<feColorMatrix in="SourceAlpha" type="matrix" values="0 0 0 0 0 0 0 0 0 0 0 0 0 0 0 0 0 0 127 0" result="hardAlpha"/>
<feOffset dx="-76" dy="88"/>
<feGaussianBlur stdDeviation="108.6"/>
<feComposite in2="hardAlpha" operator="out"/>
<feColorMatrix type="matrix" values="0 0 0 0 0.799842 0 0 0 0 0.674377 0 0 0 0 0 0 0 0 1 0"/>
<feBlend mode="normal" in2="BackgroundImageFix" result="effect1_dropShadow_110_51"/>
<feBlend mode="normal" in="SourceGraphic" in2="effect1_dropShadow_110_51" result="shape"/>
</filter>
</defs>
</svg>
