<svg width="765" height="763" viewBox="0 0 765 763" fill="none" xmlns="http://www.w3.org/2000/svg">
<circle cx="229" cy="229" r="229" fill="#FFC400"/>
<path d="M309.479 296.324H145.594C139.009 296.324 133.156 291.934 133.156 283.154C133.156 274.374 139.009 272.18 145.594 264.132C159.495 242.914 156.568 233.403 161.69 196.822C166.811 160.24 199.735 147.071 207.051 146.339C212.904 145.754 214.855 139.755 215.099 136.828C215.099 126.293 223.147 123.236 229 122.927C234.853 122.619 240.706 127.464 240.706 136.828C240.706 148.534 254.607 144.876 273.629 160.972C292.651 177.068 294.115 201.943 293.383 231.209C292.651 260.474 321.917 266.327 322.648 281.691C323.234 293.982 314.113 296.567 309.479 296.324Z" fill="black"/>
<path d="M254.607 310.224H201.198C201.442 319.004 207.051 336.563 227.536 336.563C248.022 336.563 254.119 319.004 254.607 310.224Z" fill="black"/>
<path d="M309.479 296.324H145.594C139.009 296.324 133.156 291.934 133.156 283.154C133.156 274.374 139.009 272.18 145.594 264.132C159.495 242.914 156.568 233.403 161.69 196.822C166.811 160.24 199.735 147.071 207.051 146.339C212.904 145.754 214.855 139.755 215.099 136.828C215.099 126.293 223.147 123.236 229 122.927C234.853 122.619 240.706 127.464 240.706 136.828C240.706 148.534 254.607 144.876 273.629 160.972C292.651 177.068 294.115 201.943 293.383 231.209C292.651 260.474 321.917 266.327 322.648 281.691C323.234 293.982 314.113 296.567 309.479 296.324Z" stroke="black" stroke-linecap="round" stroke-linejoin="round"/>
<path d="M254.607 310.224H201.198C201.442 319.004 207.051 336.563 227.536 336.563C248.022 336.563 254.119 319.004 254.607 310.224Z" stroke="black" stroke-linecap="round" stroke-linejoin="round"/>
<path d="M491.789 469.279L445.161 418.615C441.125 413.384 437.001 399.067 452.783 383.644C468.565 368.22 483.869 377.217 489.549 383.644L512.863 405.165C494.892 388.576 489.067 367.503 507.033 352.707C517.793 343.846 531.245 339.257 551.421 357.191C554.903 360.286 563.729 369.795 568.008 373.78C558.593 364.307 558.415 337.463 572.045 328.496C589.082 317.288 603.878 323.565 611.948 333.428C618.405 341.319 683.385 422.202 715.069 461.657C723.289 474.061 739.549 506.402 738.832 536.531C737.935 574.193 690.41 658.931 606.568 658.931C522.727 658.931 443.129 615.999 434.401 593.92C426.781 574.641 438.434 561.191 455.472 561.191C469.102 561.191 499.111 570.158 512.412 574.641L346.974 408.751C338.456 399.336 327.426 376.739 351.458 361.674C368.044 351.277 383.736 357.191 396.29 367.951L491.789 469.279Z" fill="black"/>
<path d="M551.421 441.033L512.863 405.165M512.863 405.165L489.549 383.644C483.869 377.217 468.565 368.22 452.783 383.644C437.001 399.067 441.125 413.384 445.161 418.615L491.789 469.279L396.29 367.951C383.736 357.191 368.044 351.277 351.458 361.674C327.426 376.739 338.456 399.336 346.974 408.751L512.412 574.641C499.111 570.158 469.102 561.191 455.472 561.191C438.434 561.191 426.781 574.641 434.401 593.92C443.129 615.999 522.727 658.931 606.568 658.931C690.41 658.931 737.935 574.193 738.831 536.531C739.549 506.402 723.289 474.061 715.069 461.657C683.385 422.202 618.405 341.319 611.948 333.428C603.878 323.565 589.082 317.288 572.045 328.496C558.415 337.463 558.593 364.307 568.008 373.78M512.863 405.165C494.892 388.576 489.067 367.503 507.033 352.707C517.793 343.846 531.245 339.257 551.421 357.191C554.903 360.286 563.729 369.795 568.008 373.78M568.008 373.78C585.046 393.507 592.824 404.093 602.083 413.235L568.008 373.78Z" stroke="black" stroke-width="31" stroke-linecap="round" stroke-linejoin="round"/>
<path d="M501.652 456.724L455.024 406.061C450.989 400.83 446.864 386.513 462.646 371.089C478.428 355.666 493.732 364.663 499.412 371.089L522.726 392.61C504.755 376.021 498.93 354.949 516.896 340.153C527.656 331.292 541.109 326.703 561.284 344.637C564.767 347.732 573.593 357.241 577.872 361.226C568.456 351.753 568.279 324.909 581.908 315.942C598.946 304.733 613.741 311.01 621.812 320.874C628.268 328.765 693.249 409.648 724.932 449.102C733.152 461.507 749.412 493.848 748.695 523.977C747.798 561.639 700.273 646.377 616.431 646.377C532.59 646.377 452.992 603.445 444.265 581.366C436.644 562.087 448.298 548.636 465.335 548.636C478.965 548.636 508.975 557.603 522.276 562.087L356.838 396.197C348.319 386.782 337.29 364.185 361.321 349.12C377.907 338.723 393.6 344.637 406.153 355.397L501.652 456.724Z" fill="white"/>
<path d="M561.284 428.478L522.726 392.61M522.726 392.61L499.412 371.089C493.732 364.663 478.428 355.666 462.646 371.089C446.864 386.513 450.989 400.83 455.024 406.061L501.652 456.724L406.153 355.397C393.6 344.637 377.907 338.723 361.321 349.12C337.29 364.185 348.319 386.782 356.838 396.197L522.276 562.087C508.975 557.603 478.965 548.636 465.335 548.636C448.298 548.636 436.644 562.087 444.265 581.366C452.992 603.445 532.59 646.377 616.431 646.377C700.273 646.377 747.798 561.639 748.695 523.977C749.412 493.848 733.152 461.507 724.932 449.102C693.249 409.648 628.268 328.765 621.812 320.874C613.741 311.01 598.946 304.733 581.908 315.942C568.279 324.909 568.456 351.753 577.872 361.226M522.726 392.61C504.755 376.021 498.93 354.949 516.896 340.153C527.656 331.292 541.109 326.703 561.284 344.637C564.767 347.732 573.593 357.241 577.872 361.226M577.872 361.226C594.909 380.953 602.687 391.539 611.946 400.681L577.872 361.226Z" stroke="black" stroke-width="31" stroke-linecap="round" stroke-linejoin="round"/>
<path d="M369.355 298.302C340.959 292.473 285.962 298.929 293.135 371.383M369.355 249.88C325.117 244.5 238.614 261.268 246.505 371.383" stroke="white" stroke-width="20" stroke-linecap="round" stroke-linejoin="round"/>
</svg>
