<svg width="544" height="71" viewBox="0 0 544 71" fill="none" xmlns="http://www.w3.org/2000/svg">
<path d="M503.594 70.7266V15H543.756V27.1902H518.723V36.7682H541.688V48.9584H518.723V58.5364H543.647V70.7266H503.594Z" fill="#3F3602"/>
<path d="M452.411 70.7266V15H476.465C480.601 15 484.22 15.7528 487.322 17.2584C490.424 18.7641 492.836 20.9318 494.56 23.7617C496.283 26.5916 497.145 29.9838 497.145 33.9383C497.145 37.9292 496.256 41.2942 494.478 44.0333C492.719 46.7725 490.242 48.8405 487.05 50.2373C483.875 51.634 480.166 52.3324 475.921 52.3324H461.554V40.5776H472.873C474.651 40.5776 476.166 40.3599 477.417 39.9246C478.687 39.4711 479.658 38.7545 480.329 37.775C481.018 36.7954 481.363 35.5165 481.363 33.9383C481.363 32.342 481.018 31.045 480.329 30.0473C479.658 29.0314 478.687 28.2877 477.417 27.816C476.166 27.3262 474.651 27.0813 472.873 27.0813H467.54V70.7266H452.411ZM485.063 45.1489L498.995 70.7266H482.56L468.955 45.1489H485.063Z" fill="#3F3602"/>
<path d="M404.746 70.7266V15H444.908V27.1902H419.875V36.7682H442.84V48.9584H419.875V58.5364H444.8V70.7266H404.746Z" fill="#3F3602"/>
<path d="M347.277 70.7266V15H362.406V36.7682H382.433V15H397.562V70.7266H382.433V48.9584H362.406V70.7266H347.277Z" fill="#3F3602"/>
<path d="M277.617 70.7266L261.182 15H278.052L285.671 49.2849H286.106L295.14 15H308.419L317.452 49.3937H317.888L325.507 15H342.377L325.942 70.7266H311.466L301.997 39.5981H301.562L292.092 70.7266H277.617Z" fill="#3F3602"/>
<path d="M202.592 15H219.462L230.346 37.6389H230.782L241.666 15H258.536L238.074 53.2032V70.7266H223.054V53.2032L202.592 15Z" fill="#3F3602"/>
<path d="M156.316 70.7266V15H180.37C184.506 15 188.125 15.7528 191.227 17.2584C194.329 18.7641 196.742 20.9318 198.465 23.7617C200.188 26.5916 201.05 29.9838 201.05 33.9383C201.05 37.9292 200.161 41.2942 198.383 44.0333C196.624 46.7725 194.148 48.8405 190.955 50.2373C187.781 51.634 184.071 52.3324 179.826 52.3324H165.459V40.5776H176.779C178.556 40.5776 180.071 40.3599 181.323 39.9246C182.592 39.4711 183.563 38.7545 184.234 37.775C184.923 36.7954 185.268 35.5165 185.268 33.9383C185.268 32.342 184.923 31.045 184.234 30.0473C183.563 29.0314 182.592 28.2877 181.323 27.816C180.071 27.3262 178.556 27.0813 176.779 27.0813H171.445V70.7266H156.316ZM188.969 45.1489L202.9 70.7266H186.465L172.86 45.1489H188.969Z" fill="#3F3602"/>
<path d="M108.651 70.7266V15H148.814V27.1902H123.78V36.7682H146.746V48.9584H123.78V58.5364H148.705V70.7266H108.651Z" fill="#3F3602"/>
<path d="M62.9015 15L74.3298 54.2916H74.7652L86.1935 15H103.281L84.8874 70.7266H64.2076L45.8135 15H62.9015Z" fill="#3F3602"/>
<path d="M0 70.7266V15H40.1623V27.1902H15.1289V36.7682H38.0943V48.9584H15.1289V58.5364H40.0535V70.7266H0Z" fill="#3F3602"/>
<path d="M503.594 63.7266V8H543.756V20.1902H518.723V29.7682H541.688V41.9584H518.723V51.5364H543.647V63.7266H503.594Z" fill="#A98E00"/>
<path d="M452.411 63.7266V8H476.465C480.601 8 484.22 8.75282 487.322 10.2584C490.424 11.7641 492.836 13.9318 494.56 16.7617C496.283 19.5916 497.145 22.9838 497.145 26.9383C497.145 30.9292 496.256 34.2942 494.478 37.0333C492.719 39.7725 490.242 41.8405 487.05 43.2373C483.875 44.634 480.166 45.3324 475.921 45.3324H461.554V33.5776H472.873C474.651 33.5776 476.166 33.3599 477.417 32.9246C478.687 32.4711 479.658 31.7545 480.329 30.775C481.018 29.7954 481.363 28.5165 481.363 26.9383C481.363 25.342 481.018 24.045 480.329 23.0473C479.658 22.0314 478.687 21.2877 477.417 20.816C476.166 20.3262 474.651 20.0813 472.873 20.0813H467.54V63.7266H452.411ZM485.063 38.1489L498.995 63.7266H482.56L468.955 38.1489H485.063Z" fill="#A98E00"/>
<path d="M404.746 63.7266V8H444.908V20.1902H419.875V29.7682H442.84V41.9584H419.875V51.5364H444.8V63.7266H404.746Z" fill="#A98E00"/>
<path d="M347.277 63.7266V8H362.406V29.7682H382.433V8H397.562V63.7266H382.433V41.9584H362.406V63.7266H347.277Z" fill="#A98E00"/>
<path d="M277.617 63.7266L261.182 8H278.052L285.671 42.2849H286.106L295.14 8H308.419L317.452 42.3937H317.888L325.507 8H342.377L325.942 63.7266H311.466L301.997 32.5981H301.562L292.092 63.7266H277.617Z" fill="#A98E00"/>
<path d="M202.592 8H219.462L230.346 30.6389H230.782L241.666 8H258.536L238.074 46.2032V63.7266H223.054V46.2032L202.592 8Z" fill="#A98E00"/>
<path d="M156.316 63.7266V8H180.37C184.506 8 188.125 8.75282 191.227 10.2584C194.329 11.7641 196.742 13.9318 198.465 16.7617C200.188 19.5916 201.05 22.9838 201.05 26.9383C201.05 30.9292 200.161 34.2942 198.383 37.0333C196.624 39.7725 194.148 41.8405 190.955 43.2373C187.781 44.634 184.071 45.3324 179.826 45.3324H165.459V33.5776H176.779C178.556 33.5776 180.071 33.3599 181.323 32.9246C182.592 32.4711 183.563 31.7545 184.234 30.775C184.923 29.7954 185.268 28.5165 185.268 26.9383C185.268 25.342 184.923 24.045 184.234 23.0473C183.563 22.0314 182.592 21.2877 181.323 20.816C180.071 20.3262 178.556 20.0813 176.779 20.0813H171.445V63.7266H156.316ZM188.969 38.1489L202.9 63.7266H186.465L172.86 38.1489H188.969Z" fill="#A98E00"/>
<path d="M108.651 63.7266V8H148.814V20.1902H123.78V29.7682H146.746V41.9584H123.78V51.5364H148.705V63.7266H108.651Z" fill="#A98E00"/>
<path d="M62.9015 8L74.3298 47.2916H74.7652L86.1935 8H103.281L84.8874 63.7266H64.2076L45.8135 8H62.9015Z" fill="#A98E00"/>
<path d="M0 63.7266V8H40.1623V20.1902H15.1289V29.7682H38.0943V41.9584H15.1289V51.5364H40.0535V63.7266H0Z" fill="#A98E00"/>
<path d="M503.594 55.7266V0H543.756V12.1902H518.723V21.7682H541.688V33.9584H518.723V43.5364H543.647V55.7266H503.594Z" fill="#FFD700"/>
<path d="M452.411 55.7266V0H476.465C480.601 0 484.22 0.752817 487.322 2.25845C490.424 3.76408 492.836 5.93183 494.56 8.7617C496.283 11.5916 497.145 14.9838 497.145 18.9383C497.145 22.9292 496.256 26.2942 494.478 29.0333C492.719 31.7725 490.242 33.8405 487.05 35.2373C483.875 36.634 480.166 37.3324 475.921 37.3324H461.554V25.5776H472.873C474.651 25.5776 476.166 25.3599 477.417 24.9246C478.687 24.4711 479.658 23.7545 480.329 22.775C481.018 21.7954 481.363 20.5165 481.363 18.9383C481.363 17.342 481.018 16.045 480.329 15.0473C479.658 14.0314 478.687 13.2877 477.417 12.816C476.166 12.3262 474.651 12.0813 472.873 12.0813H467.54V55.7266H452.411ZM485.063 30.1489L498.995 55.7266H482.56L468.955 30.1489H485.063Z" fill="#FFD700"/>
<path d="M404.746 55.7266V0H444.908V12.1902H419.875V21.7682H442.84V33.9584H419.875V43.5364H444.8V55.7266H404.746Z" fill="#FFD700"/>
<path d="M347.277 55.7266V0H362.406V21.7682H382.433V0H397.562V55.7266H382.433V33.9584H362.406V55.7266H347.277Z" fill="#FFD700"/>
<path d="M277.617 55.7266L261.182 0H278.052L285.671 34.2849H286.106L295.14 0H308.419L317.452 34.3937H317.888L325.507 0H342.377L325.942 55.7266H311.466L301.997 24.5981H301.562L292.092 55.7266H277.617Z" fill="#FFD700"/>
<path d="M202.592 0H219.462L230.346 22.6389H230.782L241.666 0H258.536L238.074 38.2032V55.7266H223.054V38.2032L202.592 0Z" fill="#FFD700"/>
<path d="M156.316 55.7266V0H180.37C184.506 0 188.125 0.752817 191.227 2.25845C194.329 3.76408 196.742 5.93183 198.465 8.7617C200.188 11.5916 201.05 14.9838 201.05 18.9383C201.05 22.9292 200.161 26.2942 198.383 29.0333C196.624 31.7725 194.148 33.8405 190.955 35.2373C187.781 36.634 184.071 37.3324 179.826 37.3324H165.459V25.5776H176.779C178.556 25.5776 180.071 25.3599 181.323 24.9246C182.592 24.4711 183.563 23.7545 184.234 22.775C184.923 21.7954 185.268 20.5165 185.268 18.9383C185.268 17.342 184.923 16.045 184.234 15.0473C183.563 14.0314 182.592 13.2877 181.323 12.816C180.071 12.3262 178.556 12.0813 176.779 12.0813H171.445V55.7266H156.316ZM188.969 30.1489L202.9 55.7266H186.465L172.86 30.1489H188.969Z" fill="#FFD700"/>
<path d="M108.651 55.7266V0H148.814V12.1902H123.78V21.7682H146.746V33.9584H123.78V43.5364H148.705V55.7266H108.651Z" fill="#FFD700"/>
<path d="M62.9015 0L74.3298 39.2916H74.7652L86.1935 0H103.281L84.8874 55.7266H64.2076L45.8135 0H62.9015Z" fill="#FFD700"/>
<path d="M0 55.7266V0H40.1623V12.1902H15.1289V21.7682H38.0943V33.9584H15.1289V43.5364H40.0535V55.7266H0Z" fill="#FFD700"/>
</svg>
