<svg width="665" height="306" viewBox="0 0 665 306" fill="none" xmlns="http://www.w3.org/2000/svg">
<rect y="95" width="665" height="211" rx="70" fill="#FCE9CE"/>
<circle cx="216.5" cy="95.5" r="95.5" fill="#FCE9CE"/>
<path d="M364 95C326.8 93.8 307.667 67.6667 303 55L304 103.5L364 95Z" fill="#FCE9CE"/>
<path d="M69 95C106.2 93.8 125.333 67.6667 130 55L129 103.5L69 95Z" fill="#FCE9CE"/>
<circle cx="196.111" cy="55.3341" r="21.3341" stroke="black" stroke-width="5"/>
<circle cx="236.647" cy="84.4913" r="21.3341" stroke="black" stroke-width="5"/>
<path d="M236.647 63.1571V39.334M245.18 49.2899H228.469" stroke="black" stroke-width="5" stroke-linecap="round"/>
<path d="M193.99 103.331C194.966 104.308 196.549 104.308 197.525 103.331L213.434 87.4205C214.411 86.4442 214.411 84.8612 213.434 83.885C212.458 82.9087 210.875 82.9088 209.899 83.8852L195.757 98.028L181.614 83.8866C180.638 82.9104 179.055 82.9104 178.079 83.8868C177.103 84.8632 177.103 86.4461 178.079 87.4223L193.99 103.331ZM195.756 75.6021L193.256 75.6023L193.258 101.564L195.758 101.564L198.258 101.563L198.256 75.602L195.756 75.6021Z" fill="black"/>
</svg>
