<svg width="47" height="47" viewBox="0 0 47 47" fill="none" xmlns="http://www.w3.org/2000/svg">
<circle cx="23.5" cy="22.5" r="19.5" fill="#FFAA00"/>
<g filter="url(#filter0_d_231_2716)">
<path d="M42.8009 19.7912L4.18811 19.7912C4.056 20.6588 3.84076 22.8719 4.18808 25.209L42.8009 25.209C43.1622 22.4045 42.9515 20.4286 42.8009 19.7912Z" fill="#FF4395"/>
<path d="M26.2107 41.8009V3.18811C25.3432 3.056 23.13 2.84076 20.793 3.18808V41.8009C23.5975 42.1622 25.5733 41.9515 26.2107 41.8009Z" fill="#FF4395"/>
<path d="M28.5597 22.3691C29.712 22.0566 30.8902 21.8083 32.0946 21.6243C33.4637 21.3543 34.8294 21.0659 36.1916 20.7592C37.2237 20.5761 37.9007 19.9984 38.2229 19.0262C38.3219 17.9995 38.017 17.1049 37.3081 16.3424C36.2605 15.3474 35.1293 14.4586 33.9143 13.676C33.1636 13.0126 32.5321 12.2465 32.0198 11.3779C31.5759 10.1742 30.9529 9.07613 30.1508 8.08372C29.7756 7.67725 29.3319 7.56038 28.8194 7.73312C28.11 8.12486 27.4602 8.60218 26.87 9.16506C26.1496 9.84827 25.5705 10.6327 25.1327 11.5184L24.2947 13.2078C23.6917 14.8142 23.4022 16.4817 23.426 18.2101C23.0176 18.2538 22.6139 18.3243 22.2149 18.4216C21.1397 19.1942 20.2841 20.1691 19.6481 21.3465C18.603 21.2701 17.549 21.2251 16.4859 21.2118C15.2838 21.3103 14.0979 21.5045 12.9282 21.7944C11.001 22.4611 9.40746 23.5812 8.14778 25.1543C8.15928 25.8005 8.40129 26.3455 8.87381 26.7894C9.98283 27.7698 11.1314 28.6838 12.3196 29.5312C13.1982 30.7198 13.9019 31.9995 14.4306 33.3704C14.8696 34.2985 15.4894 35.08 16.2902 35.7147C17.2301 36.2728 18.1646 36.2517 19.0937 35.6517C19.494 35.1696 19.8196 34.6414 20.0705 34.0669C20.4404 33.0026 20.8752 31.9764 21.375 30.9885C21.7468 29.8033 22.207 28.6633 22.7556 27.5686L22.8368 27.5572C22.8486 27.3291 22.8858 27.1033 22.9484 26.8798C23.1561 26.3504 23.3581 25.8257 23.5544 25.3057C23.8444 25.1666 24.1093 24.9915 24.3491 24.7805C24.4722 24.8562 24.5685 24.953 24.638 25.0708C24.5898 24.9035 24.594 24.7375 24.6508 24.5727C24.9179 24.4357 25.1557 24.2644 25.3644 24.0588C25.5032 23.9355 25.6518 23.9146 25.8105 23.9961C25.7724 23.8792 25.7843 23.7673 25.8461 23.6603C26.2541 23.3468 26.666 23.0408 27.0819 22.7422C27.4601 22.5815 27.8521 22.5264 28.2581 22.5769C28.2944 22.4332 28.395 22.3639 28.5597 22.3691Z" fill="#FFCE49"/>
<path fill-rule="evenodd" clip-rule="evenodd" d="M32.4441 16.4452C33.2539 16.3177 34.0669 16.2172 34.8833 16.1438C35.8011 16.206 36.5338 16.6131 37.0815 17.3652C37.5848 18.3387 37.3745 19.0988 36.4507 19.6459C33.6907 20.3636 30.9166 21.0291 28.1286 21.6423C27.676 21.7745 27.2145 21.8256 26.7439 21.7955C26.6795 21.6803 26.5968 21.5817 26.4956 21.4995C26.4263 21.399 26.4111 21.2908 26.45 21.1751C27.1149 20.405 27.7944 19.6478 28.4883 18.9035C29.6308 17.7898 30.9495 16.9704 32.4441 16.4452Z" fill="#391400"/>
<path fill-rule="evenodd" clip-rule="evenodd" d="M32.4169 16.3423L32.4265 16.3408C33.2386 16.2129 34.054 16.1122 34.8727 16.0386L34.881 16.0379L34.8894 16.0384C35.8389 16.1028 36.6003 16.5261 37.1662 17.3033L37.171 17.3098L37.1747 17.317C37.4338 17.8182 37.5172 18.2799 37.4025 18.6944C37.2877 19.1093 36.9805 19.4555 36.5037 19.7379L36.4908 19.7455L36.4763 19.7493C33.7161 20.467 30.942 21.1326 28.1538 21.7459C27.6905 21.8808 27.2177 21.9329 26.7361 21.9021L26.6783 21.8984L26.6501 21.8479C26.5922 21.7443 26.5181 21.6561 26.4275 21.5826L26.4157 21.573L26.407 21.5604C26.3187 21.4323 26.2986 21.2892 26.3482 21.1418L26.3548 21.122L26.3685 21.1062C27.0343 20.3351 27.7146 19.5769 28.4094 18.8316L28.4112 18.8298L28.413 18.828C29.5666 17.7036 30.8984 16.8759 32.4078 16.3455L32.4169 16.3423ZM28.1275 21.6429C30.9155 21.0297 33.6895 20.3642 36.4495 19.6464C37.3734 19.0994 37.5836 18.3392 37.0804 17.3658C36.5326 16.6137 35.8 16.2066 34.8822 16.1444C34.0658 16.2178 33.2528 16.3183 32.443 16.4458C30.9483 16.971 29.6297 17.7904 28.4871 18.904C27.7933 19.6484 27.1138 20.4056 26.4489 21.1756C26.41 21.2914 26.4252 21.3996 26.4945 21.5001C26.5957 21.5822 26.6784 21.6809 26.7428 21.7961C27.2133 21.8262 27.6749 21.7751 28.1275 21.6429Z" fill="#391400"/>
<path fill-rule="evenodd" clip-rule="evenodd" d="M27.2952 15.5746C27.8111 15.4197 27.785 15.5574 27.6996 15.9581C27.4653 16.2689 27.2329 16.5774 27.0024 16.8832C26.616 18.0323 26.1384 19.1472 25.5698 20.2277C25.2759 19.9586 25.014 19.6645 24.7841 19.3455C24.6056 19.0979 24.6052 19.0953 24.507 18.9851C24.5538 18.848 24.958 18.3685 25.0415 18.234C25.4964 17.5014 25.8723 16.9803 26.4015 16.2787C26.6535 16.0643 26.9587 15.829 27.2952 15.5746Z" fill="#391400"/>
<path fill-rule="evenodd" clip-rule="evenodd" d="M27.246 15.4786L27.2642 15.4731C27.3948 15.4339 27.5007 15.41 27.5836 15.4069C27.6656 15.4038 27.7537 15.4203 27.8085 15.4958C27.857 15.5627 27.857 15.6483 27.8503 15.7177C27.8432 15.7919 27.824 15.8823 27.8031 15.9805L27.7982 16.0035L27.0972 16.9336C26.71 18.0824 26.232 19.1971 25.6634 20.2774L25.5993 20.3993L25.4977 20.3063C25.1985 20.0323 24.9318 19.7328 24.6976 19.4079C24.6849 19.3903 24.6731 19.374 24.6622 19.3588C24.5187 19.1596 24.5147 19.1541 24.4273 19.0559L24.3861 19.0097L24.4061 18.951C24.4233 18.9005 24.4663 18.833 24.5107 18.7687C24.558 18.7002 24.6168 18.6215 24.6757 18.5443C24.7088 18.5009 24.7415 18.4585 24.7723 18.4186C24.8545 18.312 24.9232 18.2229 24.9509 18.1782C25.4082 17.4418 25.7862 16.9178 26.3163 16.215L26.3234 16.2057L26.3323 16.1981C26.5868 15.9814 26.8942 15.7445 27.2307 15.4901L27.246 15.4786ZM27.002 16.8834L27.6992 15.9583C27.7846 15.5576 27.8107 15.4199 27.2948 15.5748C26.9583 15.8292 26.6531 16.0645 26.4011 16.279C25.872 16.9806 25.4961 17.5017 25.0412 18.2343C25.0103 18.2839 24.9358 18.3805 24.8517 18.4896C24.7079 18.676 24.5361 18.8988 24.5067 18.9853C24.5978 19.0876 24.6047 19.0972 24.7477 19.2957C24.7589 19.3112 24.7708 19.3278 24.7837 19.3457C24.9925 19.6353 25.2275 19.9043 25.4889 20.1528C25.5155 20.1781 25.5423 20.2031 25.5694 20.228C25.5865 20.1955 25.6035 20.163 25.6204 20.1305C26.1667 19.0804 26.6272 17.9981 27.002 16.8834Z" fill="#391400"/>
<path fill-rule="evenodd" clip-rule="evenodd" d="M19.0705 23.1252C19.5031 23.0644 19.9357 23.0036 20.3683 22.9428C20.6505 23.248 20.8659 23.6037 21.0146 24.0101C19.3763 24.3581 17.7498 24.7521 16.1349 25.192C16.1065 25.0824 16.1049 24.9723 16.1299 24.8618C16.4623 24.4849 16.8453 24.1692 17.2789 23.9146C17.9088 23.6988 18.506 23.4358 19.0705 23.1252Z" fill="#391400"/>
<path fill-rule="evenodd" clip-rule="evenodd" d="M19.0353 23.0233L20.4075 22.8305L20.4452 22.8713C20.7373 23.1871 20.9599 23.5552 21.1132 23.9741L21.1553 24.0891L21.0355 24.1146C19.3992 24.4622 17.7746 24.8557 16.1617 25.295L16.0579 25.3233L16.031 25.2192C15.9983 25.0932 15.9964 24.9659 16.0252 24.8389L16.0311 24.8125L16.0491 24.7921C16.389 24.4068 16.7807 24.0839 17.224 23.8235L17.2332 23.8181L17.2434 23.8146C17.8676 23.6008 18.4592 23.3402 19.0182 23.0327L19.0353 23.0233ZM16.1148 25.0876C16.1071 25.0127 16.1117 24.9376 16.1288 24.8624C16.4612 24.4855 16.8442 24.1698 17.2778 23.9151C17.9076 23.6994 18.5049 23.4363 19.0694 23.1258L20.3672 22.9434C20.6259 23.2231 20.8285 23.5454 20.975 23.9102C20.9882 23.9433 21.0011 23.9768 21.0135 24.0106C20.9785 24.0181 20.9435 24.0255 20.9085 24.033C19.3404 24.3681 17.783 24.7454 16.2363 25.1647C16.2021 25.174 16.168 25.1832 16.1338 25.1925C16.1247 25.1576 16.1184 25.1226 16.1148 25.0876Z" fill="#391400"/>
<path d="M38.9959 27.1908C35.7168 24.9625 32.137 23.4252 28.2564 22.5787C27.8504 22.5281 27.4584 22.5832 27.0802 22.744C26.6643 23.0425 26.2524 23.3485 25.8444 23.662C25.7826 23.7691 25.7708 23.881 25.8089 23.9979C26.208 24.2137 26.5994 24.4482 26.983 24.7015C29.6629 26.7205 31.9433 29.1159 33.8243 31.8879C33.9158 31.9442 34.0143 31.9579 34.1196 31.9291C34.1399 31.4852 34.1086 31.1041 34.1289 30.66C34.1669 29.8274 34.1323 29.207 34.2607 28.5179L34.3482 28.2574C34.7451 28.0811 35.1701 27.9663 35.6232 27.9128C36.7585 27.7254 37.8828 27.4847 38.9959 27.1908Z" fill="#391400"/>
<path fill-rule="evenodd" clip-rule="evenodd" d="M28.2752 22.4745L28.2799 22.4755C32.1737 23.3249 35.7661 24.8676 39.0564 27.1035L39.2493 27.2346L39.0238 27.2941C37.9075 27.5888 36.78 27.8302 35.6414 28.0182L35.6389 28.0186L35.6365 28.0189C35.2096 28.0692 34.8092 28.1752 34.4347 28.3365L34.3646 28.5452C34.2772 29.0181 34.2679 29.4541 34.257 29.9614C34.2524 30.1799 34.2474 30.4117 34.2358 30.6654C34.2258 30.8839 34.2285 31.0871 34.2313 31.2938L34.2313 31.2948C34.2341 31.5004 34.2369 31.7094 34.2265 31.9345L34.223 32.0117L34.1485 32.0321C34.0153 32.0686 33.8865 32.051 33.7694 31.9789L33.75 31.9669L33.7372 31.9481C31.8634 29.1867 29.592 26.8005 26.9226 24.7889C26.5424 24.538 26.1546 24.3057 25.7592 24.0919L25.7219 24.0717L25.7087 24.0314C25.6612 23.8857 25.6764 23.7425 25.7532 23.6095L25.7638 23.5912L25.7805 23.5784C26.1894 23.2642 26.6023 22.9575 27.0191 22.6582L27.0287 22.6514L27.0395 22.6468C27.4348 22.4787 27.8457 22.421 28.2704 22.4739L28.2752 22.4745ZM26.9839 24.702C29.6637 26.7211 31.9441 29.1165 33.8251 31.8884C33.9167 31.9448 34.0151 31.9585 34.1204 31.9297C34.1306 31.7076 34.1278 31.5013 34.1251 31.295C34.1223 31.0888 34.1195 30.8825 34.1297 30.6605C34.141 30.4134 34.1459 30.185 34.1505 29.968C34.1616 29.4537 34.1712 29.003 34.2615 28.5184L34.349 28.258C34.7459 28.0817 35.1709 27.9668 35.624 27.9134C36.713 27.7336 37.7916 27.5049 38.8601 27.2272C38.9057 27.2153 38.9512 27.2034 38.9967 27.1914C38.9578 27.1649 38.9188 27.1386 38.8797 27.1123C35.6326 24.9267 32.0917 23.4157 28.2572 22.5793C27.8513 22.5287 27.4592 22.5838 27.0811 22.7445C26.6652 23.0431 26.2532 23.3491 25.8452 23.6626C25.7834 23.7696 25.7716 23.8816 25.8097 23.9985C26.2089 24.2143 26.6002 24.4488 26.9839 24.702Z" fill="#391400"/>
<path d="M22.6727 25.5146C22.5335 25.2279 22.3003 25.0401 21.9732 24.9512C21.5942 25.1597 21.2114 25.3789 20.8248 25.6088L20.2158 25.9839C18.1059 27.2674 16.6074 29.0634 15.7203 31.3717C15.4067 32.4375 15.5338 33.4399 16.1014 34.3787C17.2805 35.6357 18.2673 35.497 19.0621 33.9627C19.3125 33.118 19.6695 32.3234 20.1334 31.5788C20.8643 29.5206 21.7107 27.4992 22.6727 25.5146Z" fill="#391400"/>
<path fill-rule="evenodd" clip-rule="evenodd" d="M21.9597 24.8364L22.0011 24.8477C22.3557 24.9441 22.6148 25.1511 22.7683 25.4673L22.7909 25.5136L22.7684 25.56C21.808 27.5411 20.9631 29.5589 20.2335 31.6134L20.2297 31.6243L20.2236 31.6341C19.7648 32.3705 19.4116 33.1563 19.164 33.9919L19.1612 34.0016L19.1565 34.0106C18.7547 34.7863 18.287 35.2449 17.7407 35.3217C17.1942 35.3985 16.6202 35.086 16.024 34.4504L16.0163 34.4423L16.0106 34.4327C15.4273 33.468 15.2965 32.4348 15.6184 31.3408L15.6196 31.3367L15.6212 31.3327C16.5167 29.0025 18.0305 27.1881 20.1604 25.8923C20.1605 25.8923 20.1606 25.8922 20.1606 25.8922L20.7699 25.517L20.7706 25.5166C21.1581 25.286 21.542 25.0662 21.922 24.8571L21.9597 24.8364ZM20.2159 25.9829C18.1059 27.2664 16.6075 29.0624 15.7203 31.3708C15.4067 32.4366 15.5338 33.4389 16.1015 34.3777C17.2805 35.6347 18.2674 35.4961 19.0622 33.9618C19.3125 33.117 19.6695 32.3224 20.1334 31.5779C20.8643 29.5196 21.7107 27.4982 22.6728 25.5137C22.5336 25.227 22.3004 25.0392 21.9732 24.9502C21.5942 25.1587 21.2115 25.3779 20.8249 25.6079L20.2159 25.9829Z" fill="#391400"/>
<path d="M26.5975 29.0139C25.8053 27.7694 25.1519 26.4551 24.6373 25.0707C24.5677 24.9529 24.4714 24.8561 24.3483 24.7804C24.1085 24.9914 23.8436 25.1665 23.5536 25.3057C23.3573 25.8257 23.1553 26.3504 22.9476 26.8797C22.885 27.1033 22.8479 27.3291 22.836 27.5572L22.955 28.6985C23.0739 29.8395 23.2199 30.977 23.3931 32.111C23.4809 32.5398 23.5688 32.9687 23.6566 33.3975L24.1962 35.4723C24.4958 36.2483 24.799 37.0329 25.1059 37.826C25.1545 38.0207 25.2352 38.2025 25.3479 38.371C25.4245 38.4604 25.4921 38.4509 25.5507 38.3425C26.0983 36.9418 26.6904 35.5628 27.3269 34.2053C28.3496 34.3367 29.3707 34.4414 30.3902 34.5193C30.635 34.5732 30.8649 34.5409 31.0796 34.4224C29.4211 32.77 27.927 30.9671 26.5975 29.0139Z" fill="#391400"/>
<path fill-rule="evenodd" clip-rule="evenodd" d="M24.7341 25.0254L24.7373 25.0343C25.2492 26.4111 25.899 27.7183 26.6867 28.956C28.0123 30.9033 29.5018 32.7005 31.1551 34.3478L31.2554 34.4477L31.1314 34.5161C30.8958 34.646 30.642 34.6823 30.3753 34.6253C29.382 34.5492 28.3871 34.4478 27.3907 34.3211C26.7677 35.6539 26.1875 37.0074 25.6502 38.3818L25.6478 38.3879L25.6447 38.3936C25.6117 38.4546 25.5579 38.5246 25.4713 38.5367C25.3817 38.5493 25.3125 38.4929 25.2678 38.4407L25.2637 38.4359L25.2602 38.4307C25.1419 38.2539 25.0567 38.0631 25.005 37.8588C24.6989 37.0678 24.3965 36.2852 24.0976 35.5111L24.0954 35.5055L23.5535 33.4221L23.553 33.4194C23.5091 33.205 23.4652 32.9906 23.4213 32.7762C23.3773 32.5617 23.3334 32.3473 23.2895 32.1329L23.289 32.1303L23.2886 32.1277C23.1152 30.9919 22.969 29.8528 22.8498 28.7101L22.73 27.5605L22.7304 27.5522C22.7427 27.3162 22.7812 27.0827 22.8458 26.8517L22.8472 26.8465L22.8492 26.8415C23.0567 26.3126 23.2586 25.7883 23.4547 25.2688L23.4698 25.2289L23.5081 25.2105C23.7894 25.0755 24.0462 24.9058 24.2787 24.7013L24.3376 24.6494L24.4045 24.6906C24.5414 24.7748 24.6504 24.8838 24.7292 25.0173L24.7341 25.0254ZM25.1064 37.8266C25.155 38.0213 25.2357 38.2031 25.3484 38.3716C25.425 38.461 25.4926 38.4515 25.5512 38.3431C26.0988 36.9424 26.6909 35.5634 27.3274 34.2059C28.3501 34.3373 29.3712 34.442 30.3907 34.5199C30.5975 34.5654 30.7935 34.5494 30.9789 34.472C31.013 34.4578 31.0467 34.4415 31.0801 34.423C31.0539 34.3969 31.0277 34.3707 31.0016 34.3445C29.3744 32.7135 27.9065 30.9368 26.598 29.0145C25.8058 27.77 25.1524 26.4557 24.6378 25.0713C24.5682 24.9535 24.4719 24.8567 24.3488 24.781C24.109 24.992 23.8441 25.1671 23.5541 25.3063C23.3578 25.8263 23.1558 26.351 22.9481 26.8803C22.8855 27.1039 22.8484 27.3297 22.8365 27.5578L22.9555 28.6991C23.0744 29.8401 23.2204 30.9776 23.3936 32.1116C23.4375 32.3261 23.4814 32.5406 23.5254 32.7551C23.5693 32.9694 23.6132 33.1838 23.6571 33.3981L24.1967 35.4729C24.4963 36.2489 24.7995 37.0335 25.1064 37.8266Z" fill="#391400"/>
</g>
<defs>
<filter id="filter0_d_231_2716" x="0" y="0" width="47" height="47" filterUnits="userSpaceOnUse" color-interpolation-filters="sRGB">
<feFlood flood-opacity="0" result="BackgroundImageFix"/>
<feColorMatrix in="SourceAlpha" type="matrix" values="0 0 0 0 0 0 0 0 0 0 0 0 0 0 0 0 0 0 127 0" result="hardAlpha"/>
<feOffset dy="1"/>
<feGaussianBlur stdDeviation="2"/>
<feComposite in2="hardAlpha" operator="out"/>
<feColorMatrix type="matrix" values="0 0 0 0 0 0 0 0 0 0 0 0 0 0 0 0 0 0 0.25 0"/>
<feBlend mode="normal" in2="BackgroundImageFix" result="effect1_dropShadow_231_2716"/>
<feBlend mode="normal" in="SourceGraphic" in2="effect1_dropShadow_231_2716" result="shape"/>
</filter>
</defs>
</svg>
