<svg width="39" height="39" viewBox="0 0 39 39" fill="none" xmlns="http://www.w3.org/2000/svg">
<circle cx="19.5" cy="19.5" r="19.5" fill="#FFAA00"/>
<path d="M38.8009 16.7912L0.188113 16.7912C0.0560038 17.6588 -0.159241 19.8719 0.188076 22.209L38.8009 22.209C39.1622 19.4045 38.9515 17.4286 38.8009 16.7912Z" fill="#FF4395"/>
<path d="M22.2107 38.8009V0.188113C21.3432 0.0560037 19.13 -0.159241 16.793 0.188076V38.8009C19.5975 39.1622 21.5733 38.9515 22.2107 38.8009Z" fill="#FF4395"/>
<path d="M24.5597 19.3691C25.712 19.0566 26.8902 18.8083 28.0946 18.6243C29.4637 18.3543 30.8294 18.0659 32.1916 17.7592C33.2237 17.5761 33.9007 16.9984 34.2229 16.0262C34.322 14.9995 34.017 14.1049 33.3081 13.3424C32.2605 12.3474 31.1293 11.4586 29.9143 10.676C29.1636 10.0126 28.5321 9.24654 28.0198 8.37795C27.5759 7.17417 26.9529 6.07613 26.1508 5.08372C25.7756 4.67725 25.3319 4.56038 24.8194 4.73312C24.11 5.12486 23.4602 5.60218 22.87 6.16506C22.1496 6.84827 21.5705 7.63272 21.1327 8.51843L20.2947 10.2078C19.6917 11.8142 19.4022 13.4817 19.426 15.2101C19.0176 15.2538 18.6139 15.3243 18.2149 15.4216C17.1397 16.1942 16.2841 17.1691 15.6481 18.3465C14.603 18.2701 13.549 18.2251 12.4859 18.2118C11.2838 18.3103 10.0979 18.5045 8.92822 18.7944C7.00096 19.4611 5.40746 20.5811 4.14778 22.1543C4.15928 22.8005 4.40129 23.3455 4.87381 23.7894C5.98283 24.7698 7.13138 25.6838 8.31956 26.5312C9.19817 27.7198 9.9019 28.9995 10.4306 30.3704C10.8696 31.2985 11.4894 32.08 12.2902 32.7147C13.2301 33.2728 14.1646 33.2517 15.0937 32.6517C15.494 32.1696 15.8196 31.6414 16.0705 31.0669C16.4404 30.0026 16.8752 28.9764 17.375 27.9885C17.7468 26.8033 18.207 25.6633 18.7556 24.5686L18.8368 24.5572C18.8486 24.3291 18.8858 24.1033 18.9484 23.8798C19.1561 23.3504 19.3581 22.8257 19.5544 22.3057C19.8444 22.1666 20.1093 21.9915 20.3491 21.7805C20.4722 21.8562 20.5685 21.953 20.638 22.0708C20.5898 21.9035 20.594 21.7375 20.6508 21.5727C20.9179 21.4357 21.1557 21.2644 21.3644 21.0588C21.5032 20.9355 21.6518 20.9146 21.8105 20.9961C21.7724 20.8792 21.7843 20.7673 21.8461 20.6603C22.2541 20.3468 22.666 20.0408 23.0819 19.7422C23.4601 19.5814 23.8521 19.5264 24.2581 19.5769C24.2944 19.4332 24.395 19.3639 24.5597 19.3691Z" fill="#FFCE49"/>
<path fill-rule="evenodd" clip-rule="evenodd" d="M28.4441 13.4452C29.2539 13.3177 30.0669 13.2172 30.8833 13.1438C31.8011 13.206 32.5338 13.6131 33.0815 14.3652C33.5848 15.3387 33.3745 16.0988 32.4507 16.6459C29.6907 17.3636 26.9166 18.0291 24.1286 18.6423C23.676 18.7745 23.2145 18.8256 22.7439 18.7955C22.6795 18.6803 22.5968 18.5817 22.4956 18.4995C22.4263 18.399 22.4111 18.2908 22.45 18.1751C23.1149 17.405 23.7944 16.6478 24.4883 15.9035C25.6308 14.7898 26.9495 13.9704 28.4441 13.4452Z" fill="#391400"/>
<path fill-rule="evenodd" clip-rule="evenodd" d="M28.4169 13.3423L28.4265 13.3408C29.2386 13.2129 30.054 13.1122 30.8727 13.0386L30.881 13.0379L30.8894 13.0384C31.8389 13.1028 32.6003 13.5261 33.1662 14.3033L33.171 14.3098L33.1747 14.317C33.4338 14.8182 33.5172 15.2799 33.4025 15.6944C33.2877 16.1093 32.9805 16.4555 32.5037 16.7379L32.4908 16.7455L32.4763 16.7493C29.7161 17.467 26.942 18.1326 24.1538 18.7459C23.6905 18.8808 23.2177 18.9329 22.7361 18.9021L22.6783 18.8984L22.6501 18.8479C22.5922 18.7443 22.5181 18.6561 22.4275 18.5826L22.4157 18.573L22.407 18.5604C22.3187 18.4323 22.2986 18.2892 22.3482 18.1418L22.3548 18.122L22.3685 18.1062C23.0343 17.3351 23.7146 16.5769 24.4094 15.8316L24.4112 15.8298L24.413 15.828C25.5666 14.7036 26.8984 13.8759 28.4078 13.3455L28.4169 13.3423ZM24.1275 18.6429C26.9155 18.0297 29.6895 17.3642 32.4495 16.6464C33.3734 16.0994 33.5836 15.3392 33.0804 14.3658C32.5326 13.6137 31.8 13.2066 30.8822 13.1444C30.0658 13.2178 29.2528 13.3183 28.443 13.4458C26.9483 13.971 25.6297 14.7904 24.4871 15.904C23.7933 16.6484 23.1138 17.4056 22.4489 18.1756C22.41 18.2914 22.4252 18.3996 22.4945 18.5001C22.5957 18.5822 22.6784 18.6809 22.7428 18.7961C23.2133 18.8262 23.6749 18.7751 24.1275 18.6429Z" fill="#391400"/>
<path fill-rule="evenodd" clip-rule="evenodd" d="M23.2952 12.5746C23.8111 12.4197 23.785 12.5574 23.6996 12.9581C23.4653 13.2689 23.2329 13.5774 23.0024 13.8832C22.616 15.0323 22.1384 16.1472 21.5698 17.2277C21.2759 16.9586 21.014 16.6645 20.7841 16.3455C20.6056 16.0979 20.6052 16.0953 20.507 15.9851C20.5538 15.848 20.958 15.3685 21.0415 15.234C21.4964 14.5014 21.8723 13.9803 22.4015 13.2787C22.6535 13.0643 22.9587 12.829 23.2952 12.5746Z" fill="#391400"/>
<path fill-rule="evenodd" clip-rule="evenodd" d="M23.246 12.4786L23.2642 12.4731C23.3948 12.4339 23.5007 12.41 23.5836 12.4069C23.6656 12.4038 23.7537 12.4203 23.8085 12.4958C23.857 12.5627 23.857 12.6483 23.8503 12.7177C23.8432 12.7919 23.824 12.8823 23.8031 12.9805L23.7982 13.0035L23.0972 13.9336C22.71 15.0824 22.232 16.1971 21.6634 17.2774L21.5993 17.3993L21.4977 17.3063C21.1985 17.0323 20.9318 16.7328 20.6976 16.4079C20.6849 16.3903 20.6731 16.374 20.6622 16.3588C20.5187 16.1596 20.5147 16.1541 20.4273 16.0559L20.3861 16.0097L20.4061 15.951C20.4233 15.9005 20.4663 15.833 20.5107 15.7687C20.558 15.7002 20.6168 15.6215 20.6757 15.5443C20.7088 15.5009 20.7415 15.4585 20.7723 15.4186C20.8545 15.312 20.9232 15.2229 20.9509 15.1782C21.4082 14.4418 21.7862 13.9178 22.3163 13.215L22.3234 13.2057L22.3323 13.1981C22.5868 12.9814 22.8942 12.7445 23.2307 12.4901L23.246 12.4786ZM23.002 13.8834L23.6992 12.9583C23.7846 12.5576 23.8107 12.4199 23.2948 12.5748C22.9583 12.8292 22.6531 13.0645 22.4011 13.279C21.872 13.9806 21.4961 14.5017 21.0412 15.2343C21.0103 15.2839 20.9358 15.3805 20.8517 15.4896C20.7079 15.676 20.5361 15.8988 20.5067 15.9853C20.5978 16.0876 20.6047 16.0972 20.7477 16.2957C20.7589 16.3112 20.7708 16.3278 20.7837 16.3457C20.9925 16.6353 21.2275 16.9043 21.4889 17.1528C21.5155 17.1781 21.5423 17.2031 21.5694 17.228C21.5865 17.1955 21.6035 17.163 21.6204 17.1305C22.1667 16.0804 22.6272 14.9981 23.002 13.8834Z" fill="#391400"/>
<path fill-rule="evenodd" clip-rule="evenodd" d="M15.0705 20.1252C15.5031 20.0644 15.9357 20.0036 16.3683 19.9428C16.6505 20.248 16.8659 20.6037 17.0146 21.0101C15.3763 21.3581 13.7498 21.7521 12.1349 22.192C12.1065 22.0824 12.1049 21.9723 12.1299 21.8618C12.4623 21.4849 12.8453 21.1692 13.2789 20.9146C13.9088 20.6988 14.506 20.4358 15.0705 20.1252Z" fill="#391400"/>
<path fill-rule="evenodd" clip-rule="evenodd" d="M15.0353 20.0233L16.4075 19.8305L16.4452 19.8713C16.7373 20.1871 16.9599 20.5552 17.1132 20.9741L17.1553 21.0891L17.0355 21.1146C15.3992 21.4622 13.7746 21.8557 12.1617 22.295L12.0579 22.3233L12.031 22.2192C11.9983 22.0932 11.9964 21.9659 12.0252 21.8389L12.0311 21.8125L12.0491 21.7921C12.389 21.4068 12.7807 21.0839 13.224 20.8235L13.2332 20.8181L13.2434 20.8146C13.8676 20.6008 14.4592 20.3402 15.0182 20.0327L15.0353 20.0233ZM12.1148 22.0876C12.1071 22.0127 12.1117 21.9376 12.1288 21.8624C12.4612 21.4855 12.8442 21.1698 13.2778 20.9151C13.9076 20.6994 14.5049 20.4363 15.0694 20.1258L16.3672 19.9434C16.6259 20.2231 16.8285 20.5454 16.975 20.9102C16.9882 20.9433 17.0011 20.9768 17.0135 21.0106C16.9785 21.0181 16.9435 21.0255 16.9085 21.033C15.3404 21.3681 13.783 21.7454 12.2363 22.1647C12.2021 22.174 12.168 22.1832 12.1338 22.1925C12.1247 22.1576 12.1184 22.1226 12.1148 22.0876Z" fill="#391400"/>
<path d="M34.9959 24.1908C31.7168 21.9625 28.137 20.4252 24.2564 19.5787C23.8504 19.5281 23.4584 19.5832 23.0802 19.744C22.6643 20.0425 22.2524 20.3485 21.8444 20.662C21.7826 20.7691 21.7708 20.881 21.8089 20.9979C22.208 21.2137 22.5994 21.4482 22.983 21.7015C25.6629 23.7205 27.9433 26.1159 29.8243 28.8879C29.9158 28.9442 30.0143 28.9579 30.1196 28.9291C30.1399 28.4852 30.1086 28.1041 30.1289 27.66C30.1669 26.8274 30.1323 26.207 30.2607 25.5179L30.3482 25.2574C30.7451 25.0811 31.1701 24.9663 31.6232 24.9128C32.7585 24.7254 33.8828 24.4847 34.9959 24.1908Z" fill="#391400"/>
<path fill-rule="evenodd" clip-rule="evenodd" d="M24.2752 19.4745L24.2799 19.4755C28.1737 20.3249 31.7661 21.8676 35.0564 24.1035L35.2493 24.2346L35.0238 24.2941C33.9075 24.5888 32.78 24.8302 31.6414 25.0182L31.6389 25.0186L31.6365 25.0189C31.2096 25.0692 30.8092 25.1752 30.4347 25.3365L30.3646 25.5452C30.2772 26.0181 30.2679 26.4541 30.257 26.9614C30.2524 27.1799 30.2474 27.4117 30.2358 27.6654C30.2258 27.8839 30.2285 28.0871 30.2313 28.2938L30.2313 28.2948C30.2341 28.5004 30.2369 28.7094 30.2265 28.9345L30.223 29.0117L30.1485 29.0321C30.0153 29.0686 29.8865 29.051 29.7694 28.9789L29.75 28.9669L29.7372 28.9481C27.8634 26.1867 25.592 23.8005 22.9226 21.7889C22.5424 21.538 22.1546 21.3057 21.7592 21.0919L21.7219 21.0717L21.7087 21.0314C21.6612 20.8857 21.6764 20.7425 21.7532 20.6095L21.7638 20.5912L21.7805 20.5784C22.1894 20.2642 22.6023 19.9575 23.0191 19.6582L23.0287 19.6514L23.0395 19.6468C23.4348 19.4787 23.8457 19.421 24.2704 19.4739L24.2752 19.4745ZM22.9839 21.702C25.6637 23.7211 27.9441 26.1165 29.8251 28.8884C29.9167 28.9448 30.0151 28.9585 30.1204 28.9297C30.1306 28.7076 30.1278 28.5013 30.1251 28.295C30.1223 28.0888 30.1195 27.8825 30.1297 27.6605C30.141 27.4134 30.1459 27.185 30.1505 26.968C30.1616 26.4537 30.1712 26.003 30.2615 25.5184L30.349 25.258C30.7459 25.0817 31.1709 24.9668 31.624 24.9134C32.713 24.7336 33.7916 24.5049 34.8601 24.2272C34.9057 24.2153 34.9512 24.2034 34.9967 24.1914C34.9578 24.1649 34.9188 24.1386 34.8797 24.1123C31.6326 21.9267 28.0917 20.4157 24.2572 19.5793C23.8513 19.5287 23.4592 19.5838 23.0811 19.7445C22.6652 20.0431 22.2532 20.3491 21.8452 20.6626C21.7834 20.7696 21.7716 20.8816 21.8097 20.9985C22.2089 21.2143 22.6002 21.4488 22.9839 21.702Z" fill="#391400"/>
<path d="M18.6727 22.5146C18.5335 22.2279 18.3003 22.0401 17.9732 21.9512C17.5942 22.1597 17.2114 22.3789 16.8248 22.6088L16.2158 22.9839C14.1059 24.2674 12.6074 26.0634 11.7203 28.3717C11.4067 29.4375 11.5338 30.4399 12.1014 31.3787C13.2805 32.6357 14.2673 32.497 15.0621 30.9627C15.3125 30.118 15.6695 29.3234 16.1334 28.5788C16.8643 26.5206 17.7107 24.4992 18.6727 22.5146Z" fill="#391400"/>
<path fill-rule="evenodd" clip-rule="evenodd" d="M17.9597 21.8364L18.0011 21.8477C18.3557 21.9441 18.6148 22.1511 18.7683 22.4673L18.7909 22.5136L18.7684 22.56C17.808 24.5411 16.9631 26.5589 16.2335 28.6134L16.2297 28.6243L16.2236 28.6341C15.7648 29.3705 15.4116 30.1563 15.164 30.9919L15.1612 31.0016L15.1565 31.0106C14.7547 31.7863 14.287 32.2449 13.7407 32.3217C13.1942 32.3985 12.6202 32.086 12.024 31.4504L12.0163 31.4423L12.0106 31.4327C11.4273 30.468 11.2965 29.4348 11.6184 28.3408L11.6196 28.3367L11.6212 28.3327C12.5167 26.0025 14.0305 24.1881 16.1604 22.8923C16.1605 22.8923 16.1606 22.8922 16.1606 22.8922L16.7699 22.517L16.7706 22.5166C17.1581 22.286 17.542 22.0662 17.922 21.8571L17.9597 21.8364ZM16.2159 22.9829C14.1059 24.2664 12.6075 26.0624 11.7203 28.3708C11.4067 29.4366 11.5338 30.4389 12.1015 31.3777C13.2805 32.6347 14.2674 32.4961 15.0622 30.9618C15.3125 30.117 15.6695 29.3224 16.1334 28.5779C16.8643 26.5196 17.7107 24.4982 18.6728 22.5137C18.5336 22.227 18.3004 22.0392 17.9732 21.9502C17.5942 22.1587 17.2115 22.3779 16.8249 22.6079L16.2159 22.9829Z" fill="#391400"/>
<path d="M22.5975 26.0139C21.8053 24.7694 21.1519 23.4551 20.6373 22.0707C20.5677 21.9529 20.4714 21.8561 20.3483 21.7804C20.1085 21.9914 19.8436 22.1665 19.5536 22.3057C19.3573 22.8257 19.1553 23.3504 18.9476 23.8797C18.885 24.1033 18.8479 24.3291 18.836 24.5572L18.955 25.6985C19.0739 26.8395 19.2199 27.977 19.3931 29.111C19.4809 29.5398 19.5688 29.9687 19.6566 30.3975L20.1962 32.4723C20.4958 33.2483 20.799 34.0329 21.1059 34.826C21.1545 35.0207 21.2352 35.2025 21.3479 35.371C21.4245 35.4604 21.4921 35.4509 21.5507 35.3425C22.0983 33.9418 22.6904 32.5628 23.3269 31.2053C24.3496 31.3367 25.3707 31.4414 26.3902 31.5193C26.635 31.5732 26.8649 31.5409 27.0796 31.4224C25.4211 29.77 23.927 27.9671 22.5975 26.0139Z" fill="#391400"/>
<path fill-rule="evenodd" clip-rule="evenodd" d="M20.7341 22.0254L20.7373 22.0343C21.2492 23.4111 21.899 24.7183 22.6867 25.956C24.0123 27.9033 25.5018 29.7005 27.1551 31.3478L27.2554 31.4477L27.1314 31.5161C26.8958 31.646 26.642 31.6823 26.3753 31.6253C25.382 31.5492 24.3871 31.4478 23.3907 31.3211C22.7677 32.6539 22.1875 34.0074 21.6502 35.3818L21.6478 35.3879L21.6447 35.3936C21.6117 35.4546 21.5579 35.5246 21.4713 35.5367C21.3817 35.5493 21.3125 35.4929 21.2678 35.4407L21.2637 35.4359L21.2602 35.4307C21.1419 35.2539 21.0567 35.0631 21.005 34.8588C20.6989 34.0678 20.3965 33.2852 20.0976 32.5111L20.0954 32.5055L19.5535 30.4221L19.553 30.4194C19.5091 30.205 19.4652 29.9906 19.4213 29.7762C19.3773 29.5617 19.3334 29.3473 19.2895 29.1329L19.289 29.1303L19.2886 29.1277C19.1152 27.9919 18.969 26.8528 18.8498 25.7101L18.73 24.5605L18.7304 24.5522C18.7427 24.3162 18.7812 24.0827 18.8458 23.8517L18.8472 23.8465L18.8492 23.8415C19.0567 23.3126 19.2586 22.7883 19.4547 22.2688L19.4698 22.2289L19.5081 22.2105C19.7894 22.0755 20.0462 21.9058 20.2787 21.7013L20.3376 21.6494L20.4045 21.6906C20.5414 21.7748 20.6504 21.8838 20.7292 22.0173L20.7341 22.0254ZM21.1064 34.8266C21.155 35.0213 21.2357 35.2031 21.3484 35.3716C21.425 35.461 21.4926 35.4515 21.5512 35.3431C22.0988 33.9424 22.6909 32.5634 23.3274 31.2059C24.3501 31.3373 25.3712 31.442 26.3907 31.5199C26.5975 31.5654 26.7935 31.5494 26.9789 31.472C27.013 31.4578 27.0467 31.4415 27.0801 31.423C27.0539 31.3969 27.0277 31.3707 27.0016 31.3445C25.3744 29.7135 23.9065 27.9368 22.598 26.0145C21.8058 24.77 21.1524 23.4557 20.6378 22.0713C20.5682 21.9535 20.4719 21.8567 20.3488 21.781C20.109 21.992 19.8441 22.1671 19.5541 22.3063C19.3578 22.8263 19.1558 23.351 18.9481 23.8803C18.8855 24.1039 18.8484 24.3297 18.8365 24.5578L18.9555 25.6991C19.0744 26.8401 19.2204 27.9776 19.3936 29.1116C19.4375 29.3261 19.4814 29.5406 19.5254 29.7551C19.5693 29.9694 19.6132 30.1838 19.6571 30.3981L20.1967 32.4729C20.4963 33.2489 20.7995 34.0335 21.1064 34.8266Z" fill="#391400"/>
</svg>
