<svg width="3408" height="2379" viewBox="0 0 3408 2379" fill="none" xmlns="http://www.w3.org/2000/svg">
<rect y="398.848" width="1447" height="2059" rx="278" transform="rotate(-16 0 398.848)" fill="#FCE9CE" stroke="black" stroke-width="67"/>
<path d="M1210.11 1072.83C1254.18 1226.52 1165.31 1386.84 1011.62 1430.91C857.929 1474.98 697.61 1386.11 653.539 1232.42C609.469 1078.73 698.335 918.41 852.027 874.34C1005.72 830.269 1166.04 919.135 1210.11 1072.83Z" fill="#EB0000"/>
<path d="M986.127 1003.46C993.885 989.832 1011.21 985.091 1024.83 992.869C1038.44 1000.65 1043.19 1018 1035.43 1031.63L972.248 1142.59L1084.64 1203.22C1098.44 1210.66 1103.6 1227.9 1096.18 1241.71C1088.76 1255.52 1071.55 1260.68 1057.75 1253.23L944.144 1191.95L880.274 1304.13C872.516 1317.75 855.189 1322.49 841.574 1314.71C827.959 1306.94 823.211 1289.58 830.969 1275.96L894.153 1164.99L781.765 1104.36C767.966 1096.92 762.797 1079.69 770.221 1065.88C777.645 1052.07 794.852 1046.9 808.652 1054.35L922.257 1115.63L986.127 1003.46Z" fill="white"/>
<rect x="980.742" y="59.543" width="1447" height="2059" rx="278" fill="#FCE9CE" stroke="black" stroke-width="67"/>
<rect x="2016.54" width="1447" height="2059" rx="278" transform="rotate(16 2016.54 0)" fill="#FCE9CE" stroke="black" stroke-width="67"/>
<path d="M2731.11 1232.42C2687.04 1386.11 2526.72 1474.98 2373.03 1430.91C2219.33 1386.84 2130.47 1226.52 2174.54 1072.83C2218.61 919.136 2378.93 830.269 2532.62 874.34C2686.31 918.411 2775.18 1078.73 2731.11 1232.42Z" fill="#63E300"/>
<path d="M2575.47 1052.81C2587.43 1042.59 2605.37 1044.02 2615.55 1055.99C2625.73 1067.96 2624.28 1085.95 2612.32 1096.16L2404.4 1273.73C2397.76 1279.39 2388.91 1281.7 2380.38 1279.99C2371.84 1278.29 2364.56 1272.76 2360.62 1264.99L2307.97 1161.23C2300.86 1147.21 2306.44 1130.05 2320.44 1122.9C2334.44 1115.75 2351.56 1121.32 2358.67 1135.34L2394.99 1206.93L2575.47 1052.81Z" fill="white"/>
</svg>
