<svg width="358" height="381" viewBox="0 0 358 381" fill="none" xmlns="http://www.w3.org/2000/svg">
<path d="M273.974 152.067C274.447 152.928 274.456 153.94 274.047 154.787C273.725 155.454 273.246 155.815 273.055 155.948C272.652 156.23 272.267 156.35 272.175 156.379C272.015 156.43 271.873 156.463 271.776 156.484C271.629 156.515 271.485 156.539 271.362 156.556L271.246 156.571L271.123 156.586L271 156.591C261.797 156.962 248.773 158.059 236.047 161.074C223.243 164.107 211.157 168.987 203.44 176.645C195.352 184.67 190.346 197.447 187.33 210.789C184.335 224.041 183.401 237.399 183.143 246.159C183.14 246.238 183.136 246.343 183.129 246.446C183.125 246.496 183.12 246.568 183.111 246.648C183.107 246.679 183.085 246.894 183.016 247.144C182.996 247.219 182.957 247.35 182.891 247.506C182.841 247.626 182.698 247.954 182.403 248.298C182.127 248.619 181.308 249.407 179.968 249.336C178.698 249.27 177.987 248.475 177.776 248.209C177.361 247.687 177.234 247.139 177.234 247.139C177.194 246.995 177.173 246.875 177.164 246.818C177.129 246.611 177.114 246.393 177.106 246.262L177.103 246.21L177.101 246.159C176.843 237.399 175.909 224.041 172.913 210.789C169.898 197.447 164.892 184.67 156.804 176.645C148.786 168.689 136.06 163.737 122.734 160.736C109.495 157.755 96.1116 156.795 87.2017 156.518L87.1836 156.517L87.1656 156.517C87.0354 156.511 86.7572 156.499 86.4804 156.447C86.4012 156.433 86.2381 156.4 86.0423 156.334C85.9743 156.311 85.3455 156.119 84.8013 155.537C84.4677 155.181 84.0371 154.534 84.0031 153.626C83.9692 152.721 84.3477 152.048 84.6461 151.673C85.1356 151.059 85.7366 150.817 85.8025 150.789C86.1168 150.652 86.3941 150.598 86.4371 150.589C86.54 150.568 86.6307 150.554 86.6907 150.545C86.8143 150.527 86.9337 150.515 87.0231 150.507L87.1122 150.499L87.2017 150.496C96.1116 150.219 109.495 149.259 122.734 146.278C136.06 143.277 148.786 138.325 156.804 130.369C164.697 122.537 169.658 110.176 172.697 97.1667C175.716 84.2409 176.742 71.1045 177.06 62.1308C177.064 62.0172 177.075 61.5974 177.205 61.1603C177.245 61.0282 177.326 60.784 177.485 60.5072C177.625 60.265 177.983 59.7166 178.699 59.3426C179.572 58.8868 180.527 58.9196 181.283 59.2426C181.901 59.5064 182.265 59.9048 182.411 60.0795C182.712 60.4388 182.857 60.7879 182.893 60.8721C182.953 61.0152 182.994 61.1399 183.018 61.2187C183.067 61.3799 183.102 61.5291 183.124 61.6349L183.175 61.8803L183.184 62.1308C183.502 71.1045 184.527 84.2409 187.546 97.1667C190.585 110.176 195.547 122.537 203.44 130.369C211.157 138.027 223.243 142.907 236.047 145.94C248.773 148.955 261.797 150.052 271 150.423L271.09 150.427L271.18 150.436C271.39 150.457 271.83 150.503 272.258 150.648C272.385 150.691 272.61 150.775 272.864 150.926C273.074 151.05 273.601 151.391 273.974 152.067Z" fill="#FFD700"/>
<path d="M108.9 285.306L109.265 285.309L109.371 285.31L109.477 285.312C123.849 285.522 135.636 292.085 143.483 297.733C151.777 303.703 159.19 311.214 165.4 318.391C169.291 322.887 173.018 327.617 176.511 332.336C180.003 327.617 183.732 322.888 187.623 318.391C193.833 311.214 201.246 303.703 209.539 297.733C217.387 292.085 229.173 285.522 243.546 285.312L243.652 285.31L243.758 285.309L244.123 285.306H279.135V316.306H244.242L243.997 316.308C223.138 316.612 196.966 355.504 184.212 376.753L184.131 376.885L183.967 377.138C180.501 382.287 172.521 382.287 169.056 377.138L168.892 376.885L168.811 376.753C156.057 355.504 129.885 316.612 109.025 316.308L108.78 316.306H73.8886V285.306H108.9ZM0 65.7265C0 29.5688 29.176 0.229636 65.2539 0.000976562L65.6787 0H291.449L291.874 0.000976562C327.952 0.229704 357.128 29.5689 357.128 65.7265L357.127 251.006C356.899 286.968 327.81 316.078 291.874 316.305L291.449 316.306H279.135V285.306H291.36L291.722 285.306C310.65 285.162 326.007 269.81 326.127 250.809L326.128 65.7265L326.116 64.832C325.644 46.1223 310.404 31.1198 291.678 31.001L65.4492 31L65.4502 31.001C46.4264 31.1216 31 46.6028 31 65.7265V250.49L31.001 250.809L31.0176 251.698C31.6021 270.287 46.7736 285.164 65.4053 285.306L65.7676 285.306H73.8886V316.306H65.6787L65.2539 316.305C29.5983 316.08 0.683694 287.421 0.0117187 251.848L0.000976562 251.006L0 250.581V65.7265Z" fill="black"/>
</svg>
