<svg width="665" height="306" viewBox="0 0 665 306" fill="none" xmlns="http://www.w3.org/2000/svg">
<rect y="95" width="665" height="211" rx="70" fill="#FCE9CE"/>
<circle cx="215.5" cy="95.5" r="95.5" fill="#FCE9CE"/>
<path d="M363 95C325.8 93.8 306.667 67.6667 302 55L303 103.5L363 95Z" fill="#FCE9CE"/>
<path d="M68 95C105.2 93.8 124.333 67.6667 129 55L128 103.5L68 95Z" fill="#FCE9CE"/>
<path d="M232.488 42.6164H257.131C264.863 42.6164 271.131 48.8845 271.131 56.6164V111C271.131 118.732 264.863 125 257.131 125H173.871C166.139 125 159.871 118.732 159.871 111V56.6164C159.871 48.8845 166.139 42.6164 173.871 42.6164H199.364M232.488 42.6164C232.488 42.1918 232.488 40.4082 232.488 36.6712C232.488 32.9342 228.807 32 226.967 32C220.88 32 207.772 32 204.035 32C200.298 32 199.364 34.5479 199.364 35.8219V42.6164M232.488 42.6164V48.9863C232.488 50.2603 231.468 52.8082 227.392 52.8082C223.315 52.8082 210.122 52.8082 204.035 52.8082C202.478 52.8082 199.364 51.9589 199.364 48.5616C199.364 45.1644 199.364 43.1826 199.364 42.6164M224.844 70.2192H260.515M224.844 91.0274H260.515M224.844 110.562H260.515M173.885 115.233V104.192C173.743 101.785 175.074 96.9726 181.529 96.9726C187.983 96.9726 199.223 96.9726 204.035 96.9726C206.583 97.2557 211.679 99.0959 211.679 104.192C211.679 109.288 211.679 113.11 211.679 114.384" stroke="black" stroke-width="5" stroke-linecap="round"/>
<circle cx="192.994" cy="75.7393" r="11.0411" stroke="black" stroke-width="5"/>
</svg>
