<svg width="152" height="152" viewBox="0 0 152 152" fill="none" xmlns="http://www.w3.org/2000/svg">
<circle cx="76" cy="76" r="76" fill="#FFD700"/>
<path d="M70.5455 39.8555C72.5125 37.9174 75.6785 37.9408 77.6166 39.9079C79.5547 41.8749 79.5312 45.0409 77.5642 46.979L54.1082 70.09L109.537 70.5006C112.299 70.5211 114.521 72.7762 114.5 75.5375C114.48 78.2988 112.225 80.5207 109.463 80.5003L54.0341 80.0898L77.1452 103.546C79.0833 105.513 79.0598 108.679 77.0928 110.617C75.1258 112.555 71.9598 112.531 70.0217 110.564L38.4389 78.5094C36.5008 76.5423 36.5243 73.3773 38.4913 71.4392L70.5455 39.8555Z" fill="white"/>
</svg>
