<svg width="1861" height="618" viewBox="0 0 1861 618" fill="none" xmlns="http://www.w3.org/2000/svg">
<path d="M1297 106.756C1420.27 4.43987 1489.78 2.99887 1534 2.99695V614.997C1473.7 614.998 1380.74 577.118 1296.37 506.547C1169 400 950.743 421.404 950.743 421.404H950.227C950.227 421.404 690 399.999 562.079 506.377C486.707 569.055 394.5 618.997 333 613.048V3.1335C382 -3.50312 474.334 33.8807 562.079 106.756C690 213 950.227 202.627 950.227 202.627H950.743C950.743 202.627 1169 213 1297 106.756Z" fill="url(#paint0_linear_882_554)"/>
<circle cx="307.5" cy="307.5" r="307.5" fill="#FFD700"/>
<circle cx="1553.5" cy="310.5" r="307.5" fill="#2A5073"/>
<defs>
<linearGradient id="paint0_linear_882_554" x1="611.5" y1="309" x2="1250" y2="309" gradientUnits="userSpaceOnUse">
<stop stop-color="#FFD700"/>
<stop offset="1" stop-color="#2A5073"/>
</linearGradient>
</defs>
</svg>
