<svg width="2765" height="2011" viewBox="0 0 2765 2011" fill="none" xmlns="http://www.w3.org/2000/svg">
<rect width="2765" height="2011" fill="#F6F5F5"/>
<g filter="url(#filter0_d_110_51)">
<path d="M2255.5 620.007C2254.06 618.712 2251.21 616.844 2247.19 617.01C2243.24 617.174 2240.61 619.206 2239.35 620.478C2237.24 622.603 2236.53 625.002 2236.44 625.282C2236.18 626.079 2236.02 626.797 2235.93 627.262C2235.6 628.987 2235.39 631.405 2235.21 634.26L2235.21 634.318L2235.21 634.377C2233.69 663.164 2229.75 704.354 2219.76 744.691C2209.77 785.016 2194.1 822.908 2170.17 847.182L2169.6 847.753C2142.26 875.1 2097.3 891.667 2051.4 901.38C2005.93 911.003 1961.56 913.498 1937.26 914.089H1937.25L1937.24 914.09L1937.24 914.09C1936.84 914.1 1935.92 914.124 1934.97 914.269C1934.7 914.311 1934.13 914.407 1933.42 914.61C1933.28 914.653 1930.84 915.263 1928.64 917.35C1927.29 918.629 1925.18 921.294 1925.01 925.313C1924.84 929.305 1926.7 932.111 1927.89 933.466C1929.85 935.705 1932.16 936.541 1932.31 936.602C1933.38 937.033 1934.32 937.217 1934.51 937.254L1934.53 937.258C1934.88 937.327 1935.18 937.374 1935.38 937.402C1935.78 937.459 1936.17 937.5 1936.46 937.527L1936.86 937.565L1937.26 937.575C1961.56 938.166 2005.93 940.66 2051.4 950.284C2097.3 959.997 2142.26 976.564 2169.6 1003.91C2195.73 1030.04 2212.05 1072.27 2221.93 1116.16C2222.18 1117.26 2222.42 1118.37 2222.67 1119.48L2245.27 1113.44C2235.11 1068.34 2216.93 1018.37 2186.04 987.477C2153.76 955.196 2103.22 937.493 2056.21 927.546C2053.39 926.948 2050.57 926.378 2047.76 925.832C2050.57 925.286 2053.39 924.716 2056.21 924.118C2103.22 914.171 2153.76 896.468 2186.04 864.187L2186.71 863.511C2215.05 834.768 2231.99 791.966 2242.32 750.28C2244.34 742.143 2246.11 733.987 2247.68 725.911C2249.25 733.987 2251.03 742.143 2253.05 750.28C2263.46 792.295 2280.58 835.442 2309.33 864.187C2342.08 896.937 2393.63 914.692 2441.26 924.56C2443.38 924.999 2445.49 925.422 2447.6 925.832C2445.49 926.242 2443.38 926.665 2441.26 927.104C2434.63 928.477 2427.93 930.003 2421.21 931.702C2421.9 939.127 2422.83 946.565 2425.62 954.562C2432.36 952.837 2439.16 951.275 2445.97 949.862C2492.09 940.307 2536.78 938.018 2560.2 937.528L2560.24 937.527C2561.16 937.504 2561.91 937.48 2562.44 937.448C2562.58 937.44 2562.79 937.425 2563.04 937.401C2563.17 937.389 2563.37 937.367 2563.62 937.331L2563.63 937.33C2563.79 937.307 2564.39 937.221 2565.13 937.015C2565.43 936.93 2566.38 936.66 2567.48 936.07C2568.03 935.776 2569.08 935.161 2570.17 934.09C2571.24 933.031 2573 930.866 2573.5 927.543C2574.63 920.024 2568.71 916.306 2568.2 915.982L2568.19 915.978C2566.84 915.132 2565.64 914.773 2565.32 914.678L2565.32 914.677C2564.47 914.423 2563.77 914.326 2563.63 914.306C2563.36 914.267 2563.14 914.245 2563.02 914.233C2562.18 914.154 2560.74 914.14 2560.16 914.135C2536.73 913.644 2492.07 911.352 2445.97 901.801C2399.41 892.154 2353.52 875.513 2325.76 847.753C2301.51 823.504 2285.68 785.333 2275.61 744.691C2265.61 704.354 2261.67 663.164 2260.16 634.377L2260.15 634.309L2260.09 633.292C2260.02 632.246 2259.93 631.134 2259.82 630.105C2259.75 629.426 2259.66 628.677 2259.54 627.957C2259.46 627.462 2259.24 626.171 2258.75 624.835C2258.66 624.602 2257.83 622.105 2255.5 620.007Z" fill="#FFD700"/>
<path d="M2273.43 1116.16C2283.32 1072.27 2299.63 1030.04 2325.76 1003.91C2342.99 986.677 2367.22 973.729 2394.25 964.079C2392.39 957.256 2391.46 949.469 2390.3 940.522C2359.63 951.076 2330.45 966.354 2309.33 987.477C2278.43 1018.37 2260.92 1065.95 2250.76 1111.05C2249.65 1115.96 2248.63 1120.87 2247.68 1125.75L2244.6 1146.21L2228.32 1149.93C2228.62 1151.87 2228.92 1153.81 2229.2 1155.74L2264.73 1166.2C2266.79 1150.22 2269.59 1133.2 2273.43 1116.16Z" fill="#FFD700"/>
<path d="M2259.63 1229.48L2259.63 1229.44C2259.91 1221.38 2260.39 1211.76 2261.2 1201.06L2233.36 1191.3C2234.57 1204.78 2235.26 1216.92 2235.64 1226.91L2235.74 1229.44C2235.76 1230.27 2235.8 1231.22 2235.85 1232.07L2235.85 1232.14C2235.88 1232.68 2235.97 1234.16 2236.23 1235.41C2236.29 1235.66 2236.39 1236.1 2236.55 1236.61C2236.67 1236.97 2237.05 1238.15 2237.9 1239.46L2237.9 1239.46C2238.29 1240.06 2241.64 1245.22 2248.48 1244.74C2254.64 1244.31 2257.38 1239.59 2257.69 1239.04L2257.71 1239.01C2258.42 1237.8 2258.75 1236.74 2258.85 1236.38C2259 1235.89 2259.09 1235.47 2259.14 1235.22C2259.24 1234.71 2259.3 1234.26 2259.33 1233.97C2259.46 1232.89 2259.55 1231.36 2259.62 1229.52L2259.63 1229.48Z" fill="#FFD700"/>
<path d="M2404.25 847.773C2402.81 846.478 2399.95 844.61 2395.93 844.776C2391.98 844.939 2389.35 846.971 2388.09 848.244C2385.99 850.368 2385.28 852.767 2385.18 853.048C2384.92 853.845 2384.77 854.563 2384.68 855.028C2384.35 856.753 2384.14 859.171 2383.96 862.026L2383.95 862.084L2383.95 862.143C2383.73 866.397 2383.43 873.48 2383.09 878.233L2410.98 888.227C2410.55 883.119 2409.61 874.039 2409.32 869.402C2409.17 866.905 2409.03 864.483 2408.9 862.143L2408.9 862.075L2408.84 861.057C2408.77 860.012 2408.68 858.9 2408.57 857.871C2408.49 857.191 2408.4 856.443 2408.28 855.722C2408.2 855.227 2407.99 853.937 2407.49 852.601C2407.41 852.367 2406.58 849.871 2404.25 847.773Z" fill="#FFD700"/>
<path d="M2474.51 1075.52C2450.26 1051.27 2434.42 1013.1 2424.35 972.456C2420.43 956.64 2417.9 938.834 2415.63 923.554L2379.37 912.631C2378.77 917.135 2376.15 936.82 2375.42 941.45L2393.55 934.71L2396.43 953.677C2398 961.753 2399.78 969.908 2401.79 978.046C2412.2 1020.06 2429.33 1063.21 2458.07 1091.95C2490.82 1124.7 2542.38 1142.46 2590.01 1152.33C2592.12 1152.76 2594.24 1153.19 2596.35 1153.6C2594.24 1154.01 2592.12 1154.43 2590.01 1154.87C2542.38 1164.74 2490.82 1182.49 2458.07 1215.24C2427.18 1246.14 2409.67 1293.71 2399.51 1338.82C2398.4 1343.73 2397.38 1348.64 2396.43 1353.52C2395.48 1348.64 2394.46 1343.73 2393.35 1338.82C2383.19 1293.71 2365.68 1246.14 2334.78 1215.24C2302.5 1182.96 2251.97 1165.26 2204.96 1155.31C2202.14 1154.71 2199.32 1154.14 2196.51 1153.6C2199.32 1153.05 2202.14 1152.48 2204.96 1151.88C2210.92 1150.62 2235.52 1143.78 2241.55 1142.26L2245.27 1117.97C2237.14 1120.19 2208.43 1127.39 2200.15 1129.15C2154.67 1138.77 2110.3 1141.26 2086.01 1141.85H2086L2085.99 1141.86L2085.98 1141.86C2085.59 1141.87 2084.66 1141.89 2083.72 1142.03C2083.45 1142.08 2082.87 1142.17 2082.17 1142.38C2082.02 1142.42 2079.58 1143.03 2077.38 1145.12C2076.03 1146.39 2073.92 1149.06 2073.76 1153.08C2073.59 1157.07 2075.45 1159.88 2076.63 1161.23C2078.6 1163.47 2080.91 1164.31 2081.06 1164.37C2082.13 1164.8 2083.06 1164.98 2083.26 1165.02L2083.28 1165.02C2083.62 1165.09 2083.93 1165.14 2084.13 1165.17C2084.53 1165.23 2084.92 1165.27 2085.2 1165.29L2085.6 1165.33L2086.01 1165.34C2110.3 1165.93 2154.67 1168.43 2200.15 1178.05C2246.05 1187.76 2291 1204.33 2318.35 1231.68C2344.48 1257.8 2360.79 1300.04 2370.68 1343.92C2380.17 1386.07 2383.36 1428.01 2384.39 1454.68L2384.48 1457.21C2384.51 1458.04 2384.55 1458.98 2384.59 1459.83L2384.6 1459.9C2384.63 1460.45 2384.71 1461.92 2384.98 1463.17C2385.03 1463.43 2385.13 1463.86 2385.3 1464.38C2385.41 1464.74 2385.8 1465.92 2386.65 1467.23L2386.65 1467.23C2387.04 1467.82 2390.39 1472.98 2397.23 1472.5C2403.39 1472.07 2406.12 1467.36 2406.44 1466.81L2406.46 1466.78C2407.17 1465.57 2407.49 1464.5 2407.6 1464.14C2407.75 1463.65 2407.84 1463.24 2407.89 1462.98C2407.99 1462.47 2408.05 1462.02 2408.08 1461.73C2408.21 1460.66 2408.29 1459.13 2408.37 1457.29L2408.37 1457.25L2408.37 1457.21C2409.3 1430.71 2412.38 1387.43 2422.18 1343.92C2432.06 1300.04 2448.38 1257.8 2474.51 1231.68C2502.27 1203.92 2548.16 1187.28 2594.72 1177.63C2640.84 1168.07 2685.53 1165.78 2708.94 1165.29L2708.98 1165.29C2709.9 1165.27 2710.66 1165.25 2711.18 1165.21C2711.32 1165.21 2711.54 1165.19 2711.79 1165.17C2711.91 1165.15 2712.12 1165.13 2712.37 1165.1L2712.38 1165.1C2712.54 1165.07 2713.14 1164.99 2713.87 1164.78C2714.18 1164.7 2715.12 1164.43 2716.23 1163.84C2716.78 1163.54 2717.83 1162.93 2718.91 1161.86C2719.99 1160.8 2721.75 1158.63 2722.24 1155.31C2723.37 1147.79 2717.46 1144.07 2716.94 1143.75L2716.94 1143.74C2715.59 1142.9 2714.39 1142.54 2714.07 1142.44L2714.07 1142.44C2713.22 1142.19 2712.52 1142.09 2712.38 1142.07C2712.11 1142.03 2711.89 1142.01 2711.76 1142C2710.92 1141.92 2709.49 1141.91 2708.9 1141.9C2685.48 1141.41 2640.82 1139.12 2594.72 1129.57C2548.16 1119.92 2502.27 1103.28 2474.51 1075.52Z" fill="#FFD700"/>
<path d="M2318.92 1074.95L2318.35 1075.52C2306.09 1087.78 2297.27 1095.64 2279.43 1103.92L2273.39 1131.33C2298.77 1121.24 2316.9 1109.83 2334.78 1091.95L2335.46 1091.28C2363.8 1062.53 2380.74 1019.73 2391.06 978.046C2391.57 976.014 2392.9 972.237 2393.55 969.573L2367.04 981.193C2356.99 1018.57 2341.29 1052.25 2318.92 1074.95Z" fill="#FFD700"/>
</g>
<g filter="url(#filter1_d_110_51)">
<path d="M403.923 25.3569C402.316 23.911 399.129 21.8262 394.645 22.0116C390.237 22.1938 387.298 24.4623 385.893 25.8823C383.545 28.254 382.749 30.9318 382.646 31.2453C382.354 32.1345 382.183 32.9362 382.084 33.4551C381.715 35.3811 381.477 38.0799 381.278 41.267L381.273 41.3319L381.27 41.3973C379.583 73.5314 375.185 119.51 364.028 164.536C352.875 209.549 335.384 251.847 308.673 278.943L308.041 279.58C277.514 310.107 227.335 328.599 176.097 339.442C125.337 350.184 75.8068 352.969 48.6883 353.628H48.6776L48.667 353.629L48.6594 353.629C48.2207 353.64 47.1859 353.667 46.1319 353.83C45.8299 353.876 45.1861 353.983 44.4041 354.21C44.238 354.258 41.5174 354.939 39.0578 357.269C37.5507 358.696 35.1987 361.671 35.0117 366.157C34.826 370.613 36.8965 373.746 38.2227 375.258C40.4135 377.757 42.9944 378.691 43.1611 378.758C44.3555 379.24 45.4015 379.445 45.6151 379.486L45.6374 379.491C46.0272 379.568 46.367 379.62 46.5859 379.651C47.0382 379.716 47.4697 379.761 47.7874 379.791L48.2368 379.834L48.6883 379.845C75.8068 380.504 125.337 383.289 176.097 394.031C227.335 404.874 277.514 423.366 308.041 453.893C337.205 483.057 355.417 530.2 366.451 579.188C366.729 580.425 367.003 581.663 367.272 582.899L392.502 576.154C381.163 525.809 360.87 470.033 326.386 435.548C290.351 399.514 233.939 379.753 181.469 368.649C178.316 367.982 175.17 367.346 172.034 366.736C175.17 366.127 178.316 365.491 181.469 364.824C233.939 353.72 290.351 333.959 326.386 297.925L327.135 297.17C358.771 265.085 377.68 217.308 389.21 170.776C391.461 161.692 393.445 152.588 395.197 143.573C396.948 152.588 398.933 161.692 401.184 170.776C412.805 217.674 431.921 265.837 464.008 297.925C500.566 334.483 558.112 354.301 611.28 365.317C613.644 365.807 616.005 366.279 618.359 366.736C616.005 367.194 613.644 367.666 611.28 368.156C603.88 369.689 596.396 371.393 588.895 373.288C589.673 381.578 590.711 389.88 593.824 398.807C601.34 396.881 608.933 395.137 616.543 393.561C668.024 382.894 717.907 380.339 744.043 379.792L744.091 379.791C745.118 379.766 745.957 379.738 746.544 379.703C746.699 379.694 746.944 379.678 747.222 379.65C747.359 379.637 747.59 379.613 747.87 379.572L747.875 379.572C748.054 379.546 748.724 379.449 749.547 379.219C749.886 379.124 750.942 378.823 752.174 378.165C752.789 377.836 753.965 377.15 755.176 375.954C756.373 374.773 758.335 372.355 758.892 368.646C760.151 360.253 753.549 356.103 752.974 355.741L752.967 355.737C751.465 354.793 750.122 354.392 749.769 354.286L749.764 354.285C748.836 354.008 748.072 353.898 747.889 353.872L747.876 353.87C747.577 353.827 747.331 353.802 747.194 353.789C746.255 353.701 744.652 353.686 744.001 353.68C717.854 353.131 667.997 350.573 616.543 339.912C564.565 329.143 513.341 310.568 482.353 279.58C455.286 252.512 437.607 209.903 426.366 164.536C415.209 119.51 410.811 73.5314 409.124 41.3973L409.12 41.3213L409.048 40.1857C408.969 39.0188 408.868 37.7775 408.746 36.6286C408.665 35.8703 408.562 35.0345 408.43 34.2304C408.339 33.678 408.101 32.2377 407.55 30.7462C407.453 30.4852 406.527 27.6988 403.923 25.3569Z" fill="#FFD700"/>
<path d="M423.943 579.188C434.977 530.2 453.189 483.057 482.353 453.893C501.591 434.656 528.627 420.202 558.8 409.43C556.725 401.814 555.687 393.122 554.39 383.134C520.156 394.916 487.587 411.97 464.008 435.548C429.524 470.033 409.973 523.142 398.634 573.487C397.398 578.973 396.255 584.452 395.197 589.898L391.76 612.735L373.582 616.886C373.922 619.059 374.248 621.221 374.562 623.371L414.231 635.046C416.522 617.206 419.657 598.216 423.943 579.188Z" fill="#FFD700"/>
<path d="M408.529 705.69L408.53 705.647C408.844 696.647 409.381 685.911 410.284 673.961L379.209 663.065C380.56 678.12 381.329 691.666 381.76 702.819L381.864 705.647C381.892 706.569 381.933 707.623 381.988 708.575L381.992 708.654C382.027 709.26 382.121 710.909 382.418 712.304C382.478 712.588 382.59 713.072 382.775 713.651C382.902 714.049 383.328 715.365 384.278 716.827L384.281 716.831C384.712 717.495 388.454 723.255 396.09 722.719C402.965 722.237 406.017 716.974 406.374 716.358L406.393 716.325C407.187 714.974 407.55 713.785 407.668 713.387C407.832 712.837 407.931 712.375 407.987 712.092C408.1 711.522 408.165 711.017 408.203 710.697C408.344 709.493 408.441 707.788 408.527 705.734L408.529 705.69Z" fill="#FFD700"/>
<path d="M569.962 279.603C568.355 278.157 565.168 276.072 560.684 276.258C556.276 276.44 553.337 278.708 551.932 280.128C549.584 282.5 548.788 285.178 548.685 285.491C548.393 286.381 548.222 287.182 548.123 287.701C547.754 289.627 547.517 292.326 547.317 295.513L547.312 295.578L547.309 295.643C547.06 300.393 546.729 308.298 546.348 313.605L577.48 324.761C577.002 319.058 575.956 308.923 575.63 303.746C575.455 300.959 575.3 298.255 575.163 295.643L575.159 295.567L575.087 294.432C575.008 293.265 574.907 292.024 574.785 290.875C574.704 290.116 574.601 289.281 574.469 288.476C574.379 287.924 574.14 286.484 573.589 284.992C573.492 284.731 572.566 281.945 569.962 279.603Z" fill="#FFD700"/>
<path d="M648.392 533.826C621.325 506.758 603.646 464.149 592.405 418.782C588.031 401.127 585.209 381.25 582.669 364.195L542.197 352.001C541.52 357.03 538.605 379.003 537.786 384.171L558.022 376.648L561.236 397.819C562.987 406.834 564.972 415.938 567.223 425.022C578.844 471.92 597.96 520.084 630.048 552.171C666.605 588.729 724.151 608.547 777.319 619.563C779.683 620.053 782.044 620.525 784.398 620.983C782.044 621.44 779.683 621.912 777.319 622.402C724.151 633.418 666.605 653.236 630.048 689.794C595.563 724.279 576.012 777.388 564.673 827.733C563.437 833.219 562.294 838.698 561.236 844.144C560.178 838.698 559.035 833.219 557.799 827.733C546.46 777.388 526.909 724.279 492.425 689.794C456.39 653.76 399.978 633.999 347.508 622.895C344.355 622.228 341.209 621.592 338.073 620.983C341.209 620.373 344.355 619.737 347.508 619.07C354.157 617.663 381.625 610.024 388.351 608.323L392.502 581.21C383.431 583.691 351.386 591.731 342.136 593.688C291.376 604.43 241.846 607.215 214.727 607.874H214.717L214.706 607.875L214.698 607.875C214.26 607.887 213.225 607.913 212.171 608.076C211.869 608.122 211.225 608.229 210.443 608.456C210.277 608.504 207.557 609.185 205.097 611.515C203.59 612.942 201.238 615.917 201.051 620.403C200.865 624.859 202.936 627.992 204.262 629.504C206.453 632.003 209.033 632.937 209.2 633.004C210.395 633.486 211.441 633.691 211.654 633.733L211.676 633.737C212.066 633.815 212.406 633.866 212.625 633.898C213.077 633.962 213.509 634.007 213.826 634.037L214.276 634.08L214.727 634.091C241.846 634.75 291.376 637.535 342.136 648.277C393.374 659.12 443.553 677.612 474.08 708.139C503.244 737.304 521.456 784.446 532.49 833.434C543.087 880.482 546.65 927.297 547.799 957.065L547.903 959.893C547.931 960.815 547.972 961.87 548.027 962.821L548.031 962.9C548.066 963.506 548.16 965.155 548.457 966.551C548.517 966.834 548.629 967.318 548.814 967.897C548.941 968.296 549.367 969.611 550.317 971.073L550.32 971.077C550.751 971.741 554.493 977.502 562.129 976.965C569.004 976.483 572.056 971.22 572.413 970.604L572.432 970.571C573.226 969.22 573.589 968.031 573.707 967.633C573.871 967.083 573.97 966.621 574.026 966.338C574.139 965.768 574.204 965.263 574.242 964.943C574.383 963.739 574.48 962.034 574.566 959.98L574.568 959.936L574.569 959.893C575.599 930.317 579.043 882 589.982 833.434C601.016 784.446 619.228 737.304 648.392 708.139C679.38 677.151 730.604 658.576 782.582 647.807C834.064 637.14 883.946 634.585 910.082 634.038L910.13 634.037C911.157 634.012 911.996 633.984 912.583 633.949C912.738 633.94 912.984 633.924 913.261 633.897C913.398 633.883 913.629 633.859 913.909 633.819L913.915 633.818C914.093 633.792 914.763 633.695 915.586 633.465C915.925 633.37 916.981 633.069 918.213 632.411C918.828 632.082 920.004 631.396 921.215 630.201C922.412 629.019 924.374 626.601 924.931 622.892C926.19 614.499 919.588 610.349 919.013 609.987L919.006 609.983C917.505 609.039 916.161 608.638 915.808 608.532L915.803 608.531C914.875 608.254 914.111 608.144 913.928 608.118L913.915 608.116C913.616 608.073 913.37 608.048 913.233 608.035C912.294 607.947 910.691 607.932 910.04 607.926C883.893 607.377 834.036 604.819 782.582 594.158C730.604 583.389 679.38 564.814 648.392 533.826Z" fill="#FFD700"/>
<path d="M474.712 533.189L474.08 533.826C460.396 547.51 450.546 556.283 430.639 565.525L423.894 596.13C452.223 584.862 472.466 572.129 492.425 552.171L493.174 551.416C524.81 519.331 543.719 471.554 555.249 425.022C555.811 422.753 557.296 418.537 558.022 415.563L528.426 428.535C517.216 470.252 499.692 507.849 474.712 533.189Z" fill="#FFD700"/>
</g>
<g filter="url(#filter2_d_110_51)">
<path d="M1138.81 1339.21C1137.75 1338.26 1135.65 1336.89 1132.7 1337.01C1129.8 1337.13 1127.87 1338.62 1126.94 1339.56C1125.4 1341.12 1124.87 1342.88 1124.8 1343.08C1124.61 1343.67 1124.5 1344.2 1124.43 1344.54C1124.19 1345.81 1124.04 1347.58 1123.9 1349.68L1123.9 1349.72L1123.9 1349.77C1122.79 1370.92 1119.89 1401.18 1112.55 1430.81C1105.21 1460.44 1093.7 1488.27 1076.12 1506.11L1075.7 1506.53C1055.61 1526.62 1022.59 1538.79 988.864 1545.93C955.456 1553 922.857 1554.83 905.009 1555.26H905.002L904.995 1555.26L904.99 1555.26C904.701 1555.27 904.02 1555.29 903.327 1555.39C903.128 1555.43 902.704 1555.5 902.189 1555.65C902.08 1555.68 900.289 1556.12 898.671 1557.66C897.679 1558.6 896.131 1560.56 896.008 1563.51C895.885 1566.44 897.248 1568.5 898.121 1569.5C899.563 1571.14 901.262 1571.76 901.371 1571.8C902.157 1572.12 902.846 1572.25 902.986 1572.28L903.001 1572.28C903.258 1572.33 903.481 1572.37 903.625 1572.39C903.923 1572.43 904.207 1572.46 904.416 1572.48L904.712 1572.51L905.009 1572.52C922.857 1572.95 955.456 1574.78 988.864 1581.85C1022.59 1588.99 1055.61 1601.16 1075.7 1621.25C1094.9 1640.45 1106.88 1671.47 1114.15 1703.71C1114.33 1704.53 1114.51 1705.34 1114.69 1706.16L1131.29 1701.72C1123.83 1668.58 1110.47 1631.87 1087.78 1609.18C1064.06 1585.46 1026.93 1572.46 992.399 1565.15C990.324 1564.71 988.253 1564.29 986.189 1563.89C988.253 1563.49 990.324 1563.07 992.399 1562.63C1026.93 1555.32 1064.06 1542.32 1087.78 1518.6L1088.27 1518.1C1109.09 1496.99 1121.54 1465.54 1129.12 1434.92C1130.61 1428.94 1131.91 1422.95 1133.06 1417.01C1134.22 1422.95 1135.52 1428.94 1137.01 1434.92C1144.65 1465.78 1157.23 1497.48 1178.35 1518.6C1202.41 1542.66 1240.29 1555.7 1275.28 1562.95C1276.84 1563.28 1278.39 1563.59 1279.94 1563.89C1278.39 1564.19 1276.84 1564.5 1275.28 1564.82C1270.41 1565.83 1265.48 1566.95 1260.55 1568.2C1261.06 1573.66 1261.74 1579.12 1263.79 1585C1268.74 1583.73 1273.74 1582.58 1278.74 1581.54C1312.63 1574.52 1345.46 1572.84 1362.66 1572.48L1362.69 1572.48C1363.37 1572.46 1363.92 1572.45 1364.3 1572.42C1364.41 1572.42 1364.57 1572.41 1364.75 1572.39C1364.84 1572.38 1364.99 1572.36 1365.18 1572.34L1365.18 1572.34C1365.3 1572.32 1365.74 1572.26 1366.28 1572.1C1366.5 1572.04 1367.2 1571.84 1368.01 1571.41C1368.41 1571.19 1369.19 1570.74 1369.99 1569.96C1370.77 1569.18 1372.07 1567.59 1372.43 1565.15C1373.26 1559.62 1368.92 1556.89 1368.54 1556.65L1368.53 1556.65C1367.54 1556.03 1366.66 1555.76 1366.43 1555.7L1366.42 1555.69C1365.8 1555.51 1365.29 1555.44 1365.18 1555.42C1364.98 1555.39 1364.82 1555.38 1364.73 1555.37C1364.11 1555.31 1363.06 1555.3 1362.63 1555.3C1345.42 1554.93 1312.61 1553.25 1278.74 1546.23C1244.53 1539.15 1210.82 1526.92 1190.43 1506.53C1172.61 1488.71 1160.98 1460.67 1153.58 1430.81C1146.24 1401.18 1143.34 1370.92 1142.23 1349.77L1142.23 1349.72L1142.18 1348.97C1142.13 1348.2 1142.06 1347.38 1141.98 1346.63C1141.93 1346.13 1141.86 1345.58 1141.77 1345.05C1141.71 1344.69 1141.56 1343.74 1141.19 1342.76C1141.13 1342.58 1140.52 1340.75 1138.81 1339.21Z" fill="#FFD700"/>
<path d="M1151.98 1703.71C1159.25 1671.47 1171.23 1640.45 1190.43 1621.25C1203.09 1608.59 1220.88 1599.08 1240.74 1591.99C1239.37 1586.98 1238.69 1581.26 1237.84 1574.68C1215.31 1582.44 1193.87 1593.66 1178.35 1609.18C1155.66 1631.87 1142.79 1666.83 1135.33 1699.96C1134.51 1703.57 1133.76 1707.18 1133.06 1710.76L1130.8 1725.79L1118.84 1728.53C1119.06 1729.96 1119.28 1731.38 1119.48 1732.79L1145.59 1740.48C1147.1 1728.74 1149.16 1716.24 1151.98 1703.71Z" fill="#FFD700"/>
<path d="M1141.84 1786.97L1141.84 1786.94C1142.05 1781.02 1142.4 1773.96 1142.99 1766.09L1122.54 1758.92C1123.43 1768.83 1123.94 1777.74 1124.22 1785.08L1124.29 1786.94C1124.31 1787.55 1124.33 1788.25 1124.37 1788.87L1124.37 1788.92C1124.4 1789.32 1124.46 1790.41 1124.65 1791.33C1124.69 1791.51 1124.77 1791.83 1124.89 1792.21C1124.97 1792.47 1125.25 1793.34 1125.88 1794.3L1125.88 1794.31C1126.16 1794.74 1128.63 1798.53 1133.65 1798.18C1138.18 1797.86 1140.19 1794.4 1140.42 1793.99L1140.43 1793.97C1140.96 1793.08 1141.19 1792.3 1141.27 1792.04C1141.38 1791.68 1141.45 1791.37 1141.48 1791.19C1141.56 1790.81 1141.6 1790.48 1141.62 1790.27C1141.72 1789.48 1141.78 1788.35 1141.84 1787L1141.84 1786.97Z" fill="#FFD700"/>
<path d="M1248.09 1506.54C1247.03 1505.59 1244.93 1504.22 1241.98 1504.34C1239.08 1504.46 1237.14 1505.95 1236.22 1506.89C1234.67 1508.45 1234.15 1510.21 1234.08 1510.42C1233.89 1511 1233.78 1511.53 1233.71 1511.87C1233.47 1513.14 1233.31 1514.92 1233.18 1517.01L1233.18 1517.06L1233.18 1517.1C1233.01 1520.22 1232.79 1525.43 1232.54 1528.92L1253.03 1536.26C1252.72 1532.51 1252.03 1525.84 1251.82 1522.43C1251.7 1520.6 1251.6 1518.82 1251.51 1517.1L1251.51 1517.05L1251.46 1516.3C1251.41 1515.53 1251.34 1514.72 1251.26 1513.96C1251.21 1513.46 1251.14 1512.91 1251.05 1512.38C1250.99 1512.02 1250.83 1511.07 1250.47 1510.09C1250.41 1509.92 1249.8 1508.08 1248.09 1506.54Z" fill="#FFD700"/>
<path d="M1299.7 1673.86C1281.89 1656.04 1270.25 1628 1262.86 1598.14C1259.98 1586.52 1258.12 1573.44 1256.45 1562.22L1229.81 1554.19C1229.37 1557.5 1227.45 1571.96 1226.91 1575.36L1240.23 1570.41L1242.34 1584.35C1243.49 1590.28 1244.8 1596.27 1246.28 1602.25C1253.93 1633.12 1266.51 1664.81 1287.63 1685.93C1311.69 1709.99 1349.57 1723.04 1384.56 1730.29C1386.11 1730.61 1387.67 1730.92 1389.22 1731.22C1387.67 1731.52 1386.11 1731.83 1384.56 1732.16C1349.57 1739.41 1311.69 1752.45 1287.63 1776.51C1264.93 1799.21 1252.07 1834.16 1244.6 1867.3C1243.79 1870.91 1243.04 1874.51 1242.34 1878.1C1241.65 1874.51 1240.89 1870.91 1240.08 1867.3C1232.62 1834.16 1219.75 1799.21 1197.05 1776.51C1173.34 1752.79 1136.21 1739.79 1101.68 1732.48C1099.6 1732.04 1097.53 1731.62 1095.47 1731.22C1097.53 1730.82 1099.6 1730.4 1101.68 1729.96C1106.05 1729.04 1124.13 1724.01 1128.56 1722.89L1131.29 1705.04C1125.32 1706.68 1104.23 1711.97 1098.14 1713.26C1064.73 1720.33 1032.13 1722.16 1014.29 1722.59H1014.28L1014.27 1722.59L1014.27 1722.59C1013.98 1722.6 1013.3 1722.62 1012.6 1722.73C1012.41 1722.76 1011.98 1722.83 1011.47 1722.98C1011.36 1723.01 1009.57 1723.46 1007.95 1724.99C1006.96 1725.93 1005.41 1727.89 1005.29 1730.84C1005.16 1733.77 1006.53 1735.83 1007.4 1736.83C1008.84 1738.47 1010.54 1739.09 1010.65 1739.13C1011.43 1739.45 1012.12 1739.59 1012.26 1739.61L1012.28 1739.62C1012.53 1739.67 1012.76 1739.7 1012.9 1739.72C1013.2 1739.76 1013.48 1739.79 1013.69 1739.81L1013.99 1739.84L1014.29 1739.85C1032.13 1740.28 1064.73 1742.12 1098.14 1749.19C1131.86 1756.32 1164.89 1768.49 1184.98 1788.58C1204.17 1807.78 1216.16 1838.81 1223.42 1871.05C1230.4 1902.01 1232.74 1932.82 1233.5 1952.42L1233.57 1954.28C1233.59 1954.88 1233.61 1955.58 1233.65 1956.2L1233.65 1956.26C1233.67 1956.65 1233.74 1957.74 1233.93 1958.66C1233.97 1958.84 1234.04 1959.16 1234.17 1959.54C1234.25 1959.81 1234.53 1960.67 1235.16 1961.63L1235.16 1961.64C1235.44 1962.07 1237.9 1965.87 1242.93 1965.51C1247.45 1965.19 1249.46 1961.73 1249.7 1961.33L1249.71 1961.3C1250.23 1960.41 1250.47 1959.63 1250.55 1959.37C1250.66 1959.01 1250.72 1958.7 1250.76 1958.52C1250.83 1958.14 1250.88 1957.81 1250.9 1957.6C1251 1956.81 1251.06 1955.69 1251.12 1954.33L1251.12 1954.3L1251.12 1954.28C1251.8 1934.81 1254.06 1903.01 1261.26 1871.05C1268.52 1838.81 1280.51 1807.78 1299.7 1788.58C1320.1 1768.19 1353.81 1755.96 1388.02 1748.88C1421.9 1741.86 1454.73 1740.17 1471.94 1739.81L1471.97 1739.81C1472.64 1739.8 1473.2 1739.78 1473.58 1739.76C1473.68 1739.75 1473.85 1739.74 1474.03 1739.72C1474.12 1739.71 1474.27 1739.7 1474.45 1739.67L1474.46 1739.67C1474.58 1739.65 1475.02 1739.59 1475.56 1739.44C1475.78 1739.37 1476.48 1739.18 1477.29 1738.74C1477.69 1738.53 1478.47 1738.07 1479.26 1737.29C1480.05 1736.51 1481.34 1734.92 1481.71 1732.48C1482.54 1726.95 1478.19 1724.22 1477.81 1723.98L1477.81 1723.98C1476.82 1723.36 1475.94 1723.1 1475.7 1723.03L1475.7 1723.03C1475.08 1722.84 1474.56 1722.77 1474.46 1722.75C1474.26 1722.72 1474.1 1722.71 1474.01 1722.7C1473.39 1722.64 1472.34 1722.63 1471.91 1722.63C1454.7 1722.27 1421.89 1720.58 1388.02 1713.57C1353.81 1706.48 1320.1 1694.25 1299.7 1673.86Z" fill="#FFD700"/>
<path d="M1185.4 1673.44L1184.98 1673.86C1175.97 1682.87 1169.49 1688.64 1156.39 1694.72L1151.95 1714.86C1170.59 1707.45 1183.92 1699.07 1197.05 1685.93L1197.55 1685.44C1218.37 1664.32 1230.81 1632.87 1238.4 1602.25C1238.77 1600.76 1239.75 1597.98 1240.23 1596.02L1220.75 1604.56C1213.37 1632.02 1201.84 1656.76 1185.4 1673.44Z" fill="#FFD700"/>
</g>
<defs>
<filter id="filter0_d_110_51" x="1893.5" y="609.5" width="846.387" height="904.535" filterUnits="userSpaceOnUse" color-interpolation-filters="sRGB">
<feFlood flood-opacity="0" result="BackgroundImageFix"/>
<feColorMatrix in="SourceAlpha" type="matrix" values="0 0 0 0 0 0 0 0 0 0 0 0 0 0 0 0 0 0 127 0" result="hardAlpha"/>
<feOffset dx="-7" dy="17"/>
<feGaussianBlur stdDeviation="12.25"/>
<feComposite in2="hardAlpha" operator="out"/>
<feColorMatrix type="matrix" values="0 0 0 0 0.799842 0 0 0 0 0.674377 0 0 0 0 0 0 0 0 1 0"/>
<feBlend mode="normal" in2="BackgroundImageFix" result="effect1_dropShadow_110_51"/>
<feBlend mode="normal" in="SourceGraphic" in2="effect1_dropShadow_110_51" result="shape"/>
</filter>
<filter id="filter1_d_110_51" x="3.5" y="14.5" width="939.09" height="1004" filterUnits="userSpaceOnUse" color-interpolation-filters="sRGB">
<feFlood flood-opacity="0" result="BackgroundImageFix"/>
<feColorMatrix in="SourceAlpha" type="matrix" values="0 0 0 0 0 0 0 0 0 0 0 0 0 0 0 0 0 0 127 0" result="hardAlpha"/>
<feOffset dx="-7" dy="17"/>
<feGaussianBlur stdDeviation="12.25"/>
<feComposite in2="hardAlpha" operator="out"/>
<feColorMatrix type="matrix" values="0 0 0 0 0.799842 0 0 0 0 0.674377 0 0 0 0 0 0 0 0 1 0"/>
<feBlend mode="normal" in2="BackgroundImageFix" result="effect1_dropShadow_110_51"/>
<feBlend mode="normal" in="SourceGraphic" in2="effect1_dropShadow_110_51" result="shape"/>
</filter>
<filter id="filter2_d_110_51" x="864.5" y="1329.5" width="634.812" height="677.535" filterUnits="userSpaceOnUse" color-interpolation-filters="sRGB">
<feFlood flood-opacity="0" result="BackgroundImageFix"/>
<feColorMatrix in="SourceAlpha" type="matrix" values="0 0 0 0 0 0 0 0 0 0 0 0 0 0 0 0 0 0 127 0" result="hardAlpha"/>
<feOffset dx="-7" dy="17"/>
<feGaussianBlur stdDeviation="12.25"/>
<feComposite in2="hardAlpha" operator="out"/>
<feColorMatrix type="matrix" values="0 0 0 0 0.799842 0 0 0 0 0.674377 0 0 0 0 0 0 0 0 1 0"/>
<feBlend mode="normal" in2="BackgroundImageFix" result="effect1_dropShadow_110_51"/>
<feBlend mode="normal" in="SourceGraphic" in2="effect1_dropShadow_110_51" result="shape"/>
</filter>
</defs>
</svg>
