<svg width="13818" height="3783" viewBox="0 0 13818 3783" fill="none" xmlns="http://www.w3.org/2000/svg">
<path d="M6643.8 280.402C6649.46 277.313 6656.11 277.257 6661.68 279.925C6666.06 282.022 6668.44 285.147 6669.32 286.392C6671.17 289.02 6671.96 291.537 6672.15 292.134C6672.48 293.177 6672.7 294.107 6672.83 294.734C6673.04 295.697 6673.19 296.637 6673.31 297.439L6673.41 298.191L6673.51 298.993L6673.54 299.8C6675.98 359.827 6683.19 444.784 6703.01 527.794C6722.95 611.317 6755.03 690.149 6805.37 740.49C6858.12 793.247 6942.12 825.902 7029.82 845.571C7116.94 865.109 7204.75 871.203 7262.33 872.888H7262.34L7262.35 872.889C7262.88 872.904 7263.55 872.931 7264.23 872.977C7264.56 873 7265.03 873.036 7265.55 873.096C7265.76 873.119 7267.17 873.262 7268.81 873.711C7269.31 873.846 7270.17 874.1 7271.19 874.525C7271.99 874.854 7274.14 875.788 7276.4 877.714C7278.51 879.512 7283.69 884.853 7283.23 893.595C7282.79 901.879 7277.56 906.515 7275.82 907.893C7272.38 910.601 7268.83 911.417 7268.78 911.429C7267.83 911.687 7267.05 911.824 7266.67 911.887C7265.31 912.11 7263.88 912.209 7263.02 912.265L7262.67 912.286L7262.33 912.296C7204.75 913.98 7116.94 920.074 7029.82 939.612C6942.12 959.282 6858.12 991.938 6805.37 1044.69C6753.07 1097 6720.51 1180 6700.79 1266.93C6681.19 1353.28 6674.88 1440.59 6673.06 1498.7L6673.06 1498.82L6673.05 1498.94C6673.01 1499.79 6672.93 1501.6 6672.6 1503.41C6672.5 1503.93 6672.28 1504.99 6671.85 1506.27C6671.7 1506.71 6670.44 1510.81 6666.61 1514.36C6664.27 1516.54 6660.02 1519.35 6654.05 1519.57C6648.1 1519.79 6643.68 1517.32 6641.21 1515.37C6637.17 1512.18 6635.59 1508.26 6635.4 1507.83C6634.5 1505.78 6634.14 1503.97 6634.09 1503.69C6633.95 1503.02 6633.85 1502.43 6633.8 1502.04C6633.68 1501.23 6633.6 1500.45 6633.54 1499.87L6633.49 1499.29L6633.47 1498.7C6631.65 1440.59 6625.34 1353.28 6605.75 1266.93C6586.02 1180 6553.47 1097 6501.16 1044.69C6449.68 993.209 6368.42 960.845 6282.9 941.023C6197.93 921.329 6111.57 914.64 6052.58 912.566L6052.57 912.565H6052.55C6051.81 912.538 6049.07 912.465 6046.2 911.616C6045.33 911.36 6043.73 910.828 6041.91 909.789C6040.32 908.879 6036.71 906.545 6034.25 901.873C6031.26 896.18 6031.47 889.95 6033.59 885.016C6035.33 880.986 6037.95 878.615 6039.1 877.659C6041.46 875.695 6043.75 874.748 6044.31 874.517C6045.25 874.123 6046.07 873.856 6046.58 873.699C6047.64 873.377 6048.63 873.152 6049.32 873.009L6050.93 872.676L6052.58 872.618C6111.57 870.545 6197.93 863.855 6282.9 844.161C6368.42 824.34 6449.68 791.976 6501.16 740.49C6551.5 690.149 6583.59 611.317 6603.52 527.794C6623.34 444.784 6630.55 359.827 6632.99 299.8L6633.02 299.21L6633.08 298.623C6633.22 297.253 6633.52 294.382 6634.47 291.594C6634.75 290.767 6635.31 289.294 6636.3 287.638C6637.11 286.269 6639.36 282.83 6643.8 280.402ZM6653.27 479.765C6649.91 498.659 6646.01 517.787 6641.46 536.851C6620.95 622.743 6586.74 710.07 6528.74 768.067C6469.46 827.347 6379.52 861.8 6291.7 882.153C6274.57 886.125 6257.41 889.581 6240.43 892.592C6257.41 895.602 6274.57 899.059 6291.7 903.03C6379.52 923.383 6469.46 957.837 6528.74 1017.12C6588.93 1077.31 6623.54 1169.14 6643.78 1258.3C6647.35 1274.05 6650.5 1289.82 6653.27 1305.42C6656.03 1289.82 6659.18 1274.05 6662.75 1258.3C6682.99 1169.14 6717.6 1077.31 6777.79 1017.12C6838.49 956.415 6931.37 921.722 7021.29 901.558C7036.27 898.197 7051.26 895.224 7066.1 892.592C7051.26 889.959 7036.27 886.986 7021.29 883.626C6931.37 863.461 6838.49 828.769 6777.79 768.067C6719.79 710.07 6685.58 622.743 6665.07 536.851C6660.52 517.787 6656.62 498.659 6653.27 479.765Z" fill="#FFD700"/>
<path d="M7209.3 901.261C7214.4 898.474 7220.4 898.423 7225.42 900.83C7229.37 902.722 7231.51 905.541 7232.3 906.664C7233.97 909.035 7234.68 911.305 7234.85 911.843C7235.16 912.784 7235.35 913.623 7235.47 914.189C7235.66 915.058 7235.8 915.906 7235.9 916.63L7235.99 917.308L7236.08 918.031L7236.11 918.759C7238.31 972.908 7244.81 1049.55 7262.68 1124.43C7280.65 1199.77 7309.57 1270.88 7354.95 1316.29C7402.51 1363.88 7478.23 1393.34 7557.3 1411.09C7635.83 1428.71 7715 1434.21 7766.91 1435.73H7766.91L7766.92 1435.73C7767.39 1435.74 7768 1435.77 7768.61 1435.81C7768.91 1435.83 7769.33 1435.86 7769.81 1435.91C7769.99 1435.94 7771.27 1436.06 7772.75 1436.47C7773.19 1436.59 7773.97 1436.82 7774.89 1437.2C7775.61 1437.5 7777.55 1438.34 7779.58 1440.08C7781.49 1441.7 7786.16 1446.52 7785.74 1454.41C7785.34 1461.88 7780.64 1466.06 7779.06 1467.3C7775.96 1469.75 7772.76 1470.48 7772.72 1470.49C7771.86 1470.73 7771.15 1470.85 7770.81 1470.91C7769.59 1471.11 7768.3 1471.2 7767.52 1471.25L7767.21 1471.27L7766.91 1471.28C7715 1472.8 7635.83 1478.29 7557.3 1495.92C7478.23 1513.66 7402.51 1543.12 7354.95 1590.71C7307.8 1637.89 7278.46 1712.77 7260.67 1791.18C7243.01 1869.08 7237.32 1947.83 7235.68 2000.26L7235.67 2000.37L7235.67 2000.47C7235.64 2001.24 7235.56 2002.88 7235.26 2004.5C7235.17 2004.97 7234.98 2005.93 7234.59 2007.08C7234.45 2007.48 7233.31 2011.18 7229.87 2014.38C7227.75 2016.35 7223.92 2018.88 7218.54 2019.08C7213.17 2019.28 7209.19 2017.05 7206.97 2015.3C7203.33 2012.42 7201.9 2008.88 7201.73 2008.49C7200.92 2006.64 7200.6 2005.01 7200.54 2004.76C7200.42 2004.15 7200.33 2003.62 7200.28 2003.27C7200.18 2002.54 7200.1 2001.84 7200.05 2001.31L7200.01 2000.79L7199.99 2000.26C7198.35 1947.83 7192.66 1869.08 7174.99 1791.18C7157.21 1712.77 7127.86 1637.89 7080.71 1590.71C7034.3 1544.27 6961.04 1515.07 6883.95 1497.19C6807.35 1479.42 6729.5 1473.39 6676.32 1471.52L6676.31 1471.52H6676.29C6675.62 1471.49 6673.16 1471.43 6670.57 1470.66C6669.79 1470.43 6668.34 1469.95 6666.7 1469.01C6665.26 1468.19 6662.01 1466.09 6659.8 1461.87C6657.09 1456.74 6657.29 1451.12 6659.2 1446.67C6660.77 1443.03 6663.13 1440.89 6664.16 1440.03C6666.29 1438.26 6668.36 1437.41 6668.86 1437.2C6669.71 1436.84 6670.45 1436.6 6670.91 1436.46C6671.87 1436.17 6672.75 1435.97 6673.38 1435.84L6674.84 1435.54L6676.32 1435.48C6729.5 1433.61 6807.35 1427.58 6883.95 1409.81C6961.04 1391.93 7034.3 1362.74 7080.71 1316.29C7126.1 1270.88 7155.02 1199.77 7172.99 1124.43C7190.86 1049.55 7197.36 972.908 7199.56 918.759L7199.58 918.227L7199.63 917.697C7199.76 916.462 7200.03 913.871 7200.89 911.356C7201.14 910.611 7201.64 909.282 7202.54 907.788C7203.27 906.553 7205.3 903.451 7209.3 901.261ZM7217.83 1081.1C7214.81 1098.14 7211.29 1115.4 7207.19 1132.6C7188.7 1210.08 7157.86 1288.85 7105.58 1341.17C7052.13 1394.65 6971.05 1425.73 6891.89 1444.09C6876.44 1447.67 6860.97 1450.79 6845.67 1453.5C6860.97 1456.22 6876.44 1459.34 6891.89 1462.92C6971.05 1481.28 7052.13 1512.36 7105.58 1565.83C7159.84 1620.13 7191.04 1702.96 7209.28 1783.4C7212.5 1797.61 7215.34 1811.83 7217.83 1825.91C7220.33 1811.83 7223.16 1797.61 7226.39 1783.4C7244.63 1702.96 7275.83 1620.13 7330.09 1565.83C7384.82 1511.07 7468.55 1479.78 7549.6 1461.59C7563.11 1458.56 7576.62 1455.88 7590 1453.5C7576.62 1451.13 7563.11 1448.44 7549.6 1445.41C7468.55 1427.22 7384.82 1395.93 7330.09 1341.17C7277.81 1288.85 7246.96 1210.08 7228.48 1132.6C7224.38 1115.4 7220.85 1098.14 7217.83 1081.1Z" fill="#FFD700"/>
<path d="M6768.33 1474.73C6772.19 1472.62 6776.73 1472.59 6780.53 1474.41C6783.52 1475.84 6785.15 1477.98 6785.74 1478.83C6787.01 1480.62 6787.54 1482.34 6787.68 1482.75C6787.9 1483.46 6788.05 1484.09 6788.14 1484.52C6788.29 1485.18 6788.39 1485.82 6788.47 1486.37L6788.54 1486.88L6788.6 1487.43L6788.63 1487.98C6790.29 1528.98 6795.21 1587.01 6808.74 1643.7C6822.35 1700.75 6844.24 1754.59 6878.6 1788.97C6914.61 1825.01 6971.93 1847.31 7031.79 1860.74C7091.25 1874.09 7151.19 1878.25 7190.49 1879.4H7190.49L7190.5 1879.4C7190.86 1879.41 7191.32 1879.43 7191.78 1879.46C7192 1879.48 7192.33 1879.5 7192.69 1879.54C7192.82 1879.56 7193.79 1879.66 7194.91 1879.96C7195.25 1880.06 7195.83 1880.23 7196.53 1880.52C7197.07 1880.74 7198.55 1881.38 7200.09 1882.7C7201.53 1883.93 7205.06 1887.57 7204.75 1893.54C7204.45 1899.2 7200.88 1902.37 7199.69 1903.31C7197.34 1905.16 7194.92 1905.72 7194.89 1905.73C7194.24 1905.9 7193.7 1906 7193.44 1906.04C7192.52 1906.19 7191.54 1906.26 7190.95 1906.3L7190.72 1906.31L7190.49 1906.32C7151.19 1907.47 7091.25 1911.63 7031.79 1924.97C6971.93 1938.41 6914.61 1960.71 6878.6 1996.75C6842.9 2032.47 6820.69 2089.16 6807.22 2148.53C6793.85 2207.51 6789.54 2267.14 6788.3 2306.83L6788.3 2306.91L6788.29 2306.99C6788.27 2307.58 6788.21 2308.81 6787.98 2310.05C6787.92 2310.4 6787.77 2311.13 6787.47 2312C6787.37 2312.3 6786.51 2315.1 6783.9 2317.53C6782.3 2319.01 6779.4 2320.93 6775.32 2321.08C6771.26 2321.24 6768.24 2319.55 6766.56 2318.22C6763.8 2316.04 6762.72 2313.36 6762.59 2313.07C6761.98 2311.67 6761.74 2310.43 6761.7 2310.24C6761.6 2309.78 6761.54 2309.38 6761.5 2309.11C6761.42 2308.56 6761.36 2308.03 6761.33 2307.63L6761.29 2307.23L6761.28 2306.83C6760.04 2267.14 6755.73 2207.51 6742.36 2148.53C6728.89 2089.16 6706.67 2032.47 6670.98 1996.75C6635.84 1961.58 6580.38 1939.48 6522.01 1925.94C6464.01 1912.49 6405.07 1907.92 6364.81 1906.5L6364.8 1906.5H6364.79C6364.28 1906.48 6362.42 1906.43 6360.46 1905.85C6359.87 1905.68 6358.77 1905.32 6357.53 1904.61C6356.44 1903.98 6353.98 1902.39 6352.3 1899.2C6350.26 1895.31 6350.4 1891.06 6351.85 1887.69C6353.04 1884.93 6354.83 1883.31 6355.61 1882.66C6357.22 1881.32 6358.79 1880.67 6359.17 1880.51C6359.81 1880.25 6360.37 1880.06 6360.72 1879.96C6361.44 1879.74 6362.11 1879.58 6362.59 1879.48L6363.69 1879.26L6364.81 1879.22C6405.07 1877.8 6464.01 1873.23 6522.01 1859.78C6580.38 1846.24 6635.84 1824.14 6670.98 1788.97C6705.34 1754.59 6727.23 1700.75 6740.84 1643.7C6754.36 1587.01 6759.29 1528.98 6760.95 1487.98L6760.97 1487.58L6761.01 1487.18C6761.1 1486.24 6761.31 1484.28 6761.96 1482.38C6762.15 1481.81 6762.53 1480.81 6763.21 1479.68C6763.77 1478.74 6765.3 1476.39 6768.33 1474.73ZM6774.79 1610.9C6772.5 1623.8 6769.84 1636.87 6766.73 1649.89C6752.73 1708.55 6729.38 1768.2 6689.8 1807.81C6649.34 1848.3 6587.95 1871.83 6528.02 1885.73C6516.32 1888.44 6504.61 1890.8 6493.02 1892.86C6504.61 1894.92 6516.32 1897.28 6528.02 1899.99C6587.95 1913.89 6649.34 1937.42 6689.8 1977.91C6730.88 2019.02 6754.5 2081.74 6768.31 2142.64C6770.75 2153.4 6772.9 2164.17 6774.79 2174.82C6776.68 2164.17 6778.82 2153.4 6781.26 2142.64C6795.07 2081.74 6818.7 2019.02 6859.78 1977.91C6901.21 1936.45 6964.6 1912.76 7025.97 1898.98C7036.2 1896.69 7046.42 1894.66 7056.55 1892.86C7046.42 1891.06 7036.2 1889.03 7025.97 1886.74C6964.6 1872.96 6901.21 1849.27 6859.78 1807.81C6820.19 1768.2 6796.84 1708.55 6782.85 1649.89C6779.74 1636.87 6777.08 1623.8 6774.79 1610.9Z" fill="#FFD700"/>
<path d="M9981.87 3078.13L9959.88 3122.12H9653.03V3088.03L9750.91 3011.04V2334.67L9653.03 2266.48V2232.39L9841.1 2162H9882.89V3039.64L9981.87 3078.13ZM10333.8 3122.12H10147.9L9941.18 2831.78L10146.8 2659.11L10041.3 2582.12L10063.3 2538.13H10326.1V2572.22L10071 2786.69L10256.8 3039.64L10355.8 3078.13L10333.8 3122.12Z" fill="white"/>
<path d="M9565.16 3123.13H9356.2V2752.49C9356.2 2712.17 9349.96 2683.94 9337.5 2667.81C9325.04 2651.68 9302.67 2643.61 9270.41 2643.61C9246.22 2643.61 9222.02 2648.01 9197.83 2656.81C9174.36 2665.61 9146.5 2682.47 9114.24 2707.4V3040.64L9213.22 3079.13L9191.23 3123.13H8884.38V3089.03L8982.26 3012.05V2700.8L8884.38 2643.61V2609.52L9072.45 2517.14L9108.74 2660.11L9264.91 2535.83C9280.31 2529.97 9300.47 2527.03 9325.4 2527.03C9375.26 2527.03 9414.85 2542.43 9444.18 2573.23C9473.51 2603.29 9488.17 2644.35 9488.17 2696.4V3039.54L9587.15 3079.13L9565.16 3123.13Z" fill="white"/>
<path d="M8763.75 3122.26H8456.91V3088.16L8554.79 3011.18V2690.04L8456.91 2621.85V2587.76L8644.98 2517.37H8686.77V3039.77L8785.75 3078.27L8763.75 3122.26ZM8616.38 2187.43C8638.38 2187.43 8656.34 2195.49 8670.27 2211.63C8684.94 2227.76 8692.27 2247.92 8692.27 2272.11C8692.27 2288.98 8687.13 2305.11 8676.87 2320.51C8666.61 2335.17 8653.77 2346.9 8638.38 2355.7C8622.98 2364.5 8607.95 2368.9 8593.29 2368.9C8571.29 2368.9 8552.96 2360.83 8538.3 2344.7C8524.36 2328.57 8517.4 2308.41 8517.4 2284.21C8517.4 2267.35 8522.53 2251.58 8532.8 2236.92C8543.06 2221.52 8555.89 2209.43 8571.29 2200.63C8586.69 2191.83 8601.72 2187.43 8616.38 2187.43Z" fill="white"/>
<path d="M8259.99 3122.03H7600.12V3087.93L7703.5 3006.55V2340.07L7589.12 2301.58L7611.11 2257.59H7945.45V2291.68L7840.97 2373.06V3072.54H8124.72L8286.39 2833.88L8319.38 2844.88V3141.82L8259.99 3122.03Z" fill="white"/>
<path d="M7058.18 2794.49L7102.17 2738.4H7446.41V2771.39L7402.42 2827.48H7058.18V2794.49Z" fill="white"/>
<path d="M6579.36 3078.13L6557.37 3122.12H6250.52V3088.03L6348.41 3011.04V2334.67L6250.52 2266.48V2232.39L6438.59 2162H6480.38V3039.64L6579.36 3078.13ZM6931.3 3122.12H6745.43L6538.67 2831.78L6744.33 2659.11L6638.75 2582.12L6660.75 2538.13H6923.6V2572.22L6668.45 2786.69L6854.31 3039.64L6953.29 3078.13L6931.3 3122.12Z" fill="white"/>
<path d="M6099.09 2528.13C6123.28 2528.13 6144.54 2534.73 6162.87 2547.93C6181.2 2561.13 6195.5 2579.46 6205.77 2602.92L6133.18 2694.2H6091.39C6088.45 2675.87 6082.96 2663.04 6074.89 2655.71C6067.56 2647.65 6057.29 2643.61 6044.1 2643.61C6027.97 2643.61 6010.74 2648.01 5992.41 2656.81C5974.81 2664.88 5954.65 2680.64 5931.92 2704.1V3031.84L6085.89 3079.13L6063.89 3123.13H5702.06V3089.03L5799.94 3012.05V2700.8L5702.06 2643.61V2609.52L5890.12 2517.14L5924.22 2652.41L6038.6 2535.83C6053.99 2529.97 6074.16 2527.03 6099.09 2527.03V2528.13Z" fill="white"/>
<path d="M5591.83 3122.17H5382.87V3026.48L5258.59 3124.37C5243.93 3130.23 5225.6 3133.16 5203.6 3133.16C5140.54 3133.16 5094.72 3117.4 5066.12 3085.87C5038.26 3054.35 5024.33 3016.59 5024.33 2972.59C5024.33 2946.2 5033.86 2920.17 5052.93 2894.51C5071.99 2868.85 5099.12 2844.65 5134.31 2821.92H5382.87V2751.53C5382.87 2703.88 5370.04 2670.15 5344.37 2650.35C5319.44 2630.56 5284.98 2620.66 5240.99 2620.66C5195.53 2620.66 5139.81 2648.15 5073.82 2703.14L5040.83 2661.35L5199.2 2535.97C5228.53 2530.11 5263.72 2527.18 5304.78 2527.18C5371.5 2527.18 5423.19 2543.67 5459.85 2576.67C5496.51 2608.93 5514.84 2656.22 5514.84 2718.54V3039.68L5613.82 3078.17L5591.83 3122.17ZM5238.79 3039.68C5283.52 3039.68 5331.54 3019.15 5382.87 2978.09V2867.01H5188.2C5178.67 2878.74 5171.71 2890.48 5167.31 2902.21C5163.64 2913.94 5161.81 2926.77 5161.81 2940.7C5161.81 2967.83 5168.77 2991.29 5182.7 3011.09C5196.63 3030.15 5215.33 3039.68 5238.79 3039.68Z" fill="white"/>
<path d="M4550.06 3134.12C4510.47 3134.12 4473.81 3122.03 4440.08 3097.83V3311.19L4594.06 3358.48L4572.06 3402.47H4210.23V3368.38L4308.11 3291.4V2700.8L4210.23 2643.61V2609.52L4398.29 2517.14L4434.59 2660.11L4591.86 2535.83C4615.32 2529.97 4642.08 2527.03 4672.14 2527.03C4711.73 2527.03 4747.29 2539.87 4778.82 2565.53C4811.08 2590.46 4836.01 2624.55 4853.61 2667.81C4871.94 2711.07 4881.1 2758.73 4881.1 2810.78C4881.1 2867.24 4863.87 2920.4 4829.41 2970.25C4794.95 3019.38 4751.69 3058.97 4699.64 3089.03C4648.31 3118.36 4598.46 3133.02 4550.06 3133.02V3134.12ZM4616.05 2632.62C4588.19 2632.62 4561.06 2638.11 4534.67 2649.11C4508.27 2660.11 4476.74 2681.74 4440.08 2714V2899.87C4440.08 2940.19 4455.12 2973.92 4485.18 3001.05C4515.24 3028.18 4558.13 3041.74 4613.85 3041.74C4696.7 3041.74 4738.13 2982.72 4738.13 2864.67C4738.13 2799.42 4727.5 2744.43 4706.24 2699.7C4684.97 2654.98 4654.91 2632.62 4616.05 2632.62Z" fill="white"/>
<path d="M3931.61 2927.51C3931.61 2904.78 3922.45 2883.52 3904.12 2863.72C3885.79 2843.93 3862.69 2825.96 3834.83 2809.83C3807.7 2792.97 3770.68 2772.44 3723.75 2748.24C3668.03 2718.92 3623.3 2693.99 3589.58 2673.46C3555.85 2652.2 3526.89 2627.27 3502.69 2598.67C3479.23 2570.08 3467.5 2538.55 3467.5 2504.09C3467.5 2467.43 3482.9 2428.2 3513.69 2386.41C3544.48 2343.89 3581.88 2308.33 3625.87 2279.73C3670.6 2250.4 3711.65 2235.74 3749.05 2235.74C3794.51 2235.74 3847.3 2241.24 3907.42 2252.24C3967.54 2263.23 4011.53 2274.96 4039.39 2287.43V2500.79H3997.6C3961.68 2441.4 3922.08 2395.21 3878.82 2362.22C3836.3 2329.22 3791.57 2312.72 3744.65 2312.72C3702.86 2312.72 3669.5 2325.92 3644.57 2352.32C3620.37 2377.98 3608.27 2411.71 3608.27 2453.5C3608.27 2477.69 3617.44 2500.42 3635.77 2521.69C3654.83 2542.22 3677.93 2560.55 3705.06 2576.68C3732.92 2592.81 3771.41 2613.7 3820.53 2639.36C3874.79 2666.49 3918.78 2690.69 3952.51 2711.95C3986.24 2732.48 4014.47 2756.68 4037.19 2784.54C4060.66 2811.67 4072.39 2842.46 4072.39 2876.92C4072.39 2913.58 4055.89 2953.17 4022.9 2995.7C3989.9 3037.49 3949.58 3073.05 3901.92 3102.38C3854.99 3130.97 3812.1 3145.27 3773.24 3145.27C3725.59 3145.27 3668.76 3139.77 3602.77 3128.77C3537.52 3117.78 3490.59 3106.05 3462 3093.58V2880.22H3503.79C3541.19 2939.61 3583.71 2985.8 3631.37 3018.79C3679.03 3051.79 3728.15 3068.29 3778.74 3068.29C3808.8 3068.29 3835.56 3061.69 3859.03 3048.49C3882.49 3035.29 3900.45 3018.06 3912.92 2996.8C3925.38 2974.8 3931.61 2951.71 3931.61 2927.51Z" fill="white"/>
</svg>
