<svg width="152" height="152" viewBox="0 0 152 152" fill="none" xmlns="http://www.w3.org/2000/svg">
<circle cx="76" cy="76" r="76" fill="#2A5073"/>
<path d="M116 53C116 51.3431 114.657 50 113 50H38C36.3431 50 35 51.3431 35 53V100C35 101.657 36.3431 103 38 103H113C114.657 103 116 101.657 116 100V53ZM126 100C126 107.18 120.18 113 113 113H38C30.8203 113 25 107.18 25 100V53C25 45.8203 30.8203 40 38 40H113C120.18 40 126 45.8203 126 53V100Z" fill="white"/>
<path d="M30.6857 49.9738C32.0808 47.5908 35.1444 46.7898 37.5275 48.1847L75.9855 70.6965L113.952 48.1984L119.05 56.8019L76.0168 82.3029L32.4748 56.8156C30.0918 55.4205 29.2907 52.3569 30.6857 49.9738Z" fill="white"/>
</svg>
