<svg width="29" height="22" viewBox="0 0 29 22" fill="none" xmlns="http://www.w3.org/2000/svg">
<path d="M19.4026 0.000667919H9.59614C8.87585 0.000667919 8.52756 0.520895 8.44344 0.781009C8.21501 1.46165 7.7071 2.94149 7.50294 3.41568C7.29878 3.88987 6.66088 4.09542 6.36746 4.13892H2.6886C0.809889 4.13892 0.11847 5.85912 0.00759951 6.71921C0.00186474 10.3128 -0.00616394 17.9121 0.00759951 19.5608C0.021363 21.2096 1.8542 21.8683 2.76889 21.9916C9.7223 21.9979 24.1498 22.0068 26.2327 21.9916C28.3156 21.9764 28.9395 20.2524 28.9911 19.3923C28.9978 15.941 29.0072 8.57463 28.9911 6.71921C28.9751 4.8638 27.2353 4.22593 26.3675 4.13892C25.3629 4.14527 23.2053 4.15415 22.6112 4.13892C22.0171 4.1237 21.6468 3.65042 21.5359 3.41568C21.2874 2.80935 20.7474 1.43356 20.5754 0.781009C20.4033 0.128459 19.7218 -0.0111142 19.4026 0.000667919Z" fill="#484848"/>
<path d="M22 12.5C22 16.6421 18.6421 20 14.5 20C10.3579 20 7 16.6421 7 12.5C7 8.35786 10.3579 5 14.5 5C18.6421 5 22 8.35786 22 12.5Z" fill="#D9D9D9"/>
<path d="M19 12.5C19 14.9853 16.9853 17 14.5 17C12.0147 17 10 14.9853 10 12.5C10 10.0147 12.0147 8 14.5 8C16.9853 8 19 10.0147 19 12.5Z" fill="#484848"/>
<path d="M25 7.5C25 7.77614 24.7761 8 24.5 8C24.2239 8 24 7.77614 24 7.5C24 7.22386 24.2239 7 24.5 7C24.7761 7 25 7.22386 25 7.5Z" fill="#D9D9D9"/>
</svg>
