<svg width="38" height="38" viewBox="0 0 38 38" fill="none" xmlns="http://www.w3.org/2000/svg">
<g filter="url(#filter0_d_223_2636)">
<mask id="path-1-outside-1_223_2636" maskUnits="userSpaceOnUse" x="12" y="9" width="13" height="21" fill="black">
<rect fill="white" x="12" y="9" width="13" height="21"/>
<path d="M20.68 28.048C19.896 28.048 19.288 27.808 18.856 27.328C18.424 26.848 18.208 26.256 18.208 25.552V16.96H17.728C17.616 17.328 17.376 17.656 17.008 17.944C16.64 18.232 16.176 18.376 15.616 18.376C15.008 18.376 14.472 18.176 14.008 17.776C13.56 17.36 13.336 16.784 13.336 16.048C13.336 15.488 13.464 15.016 13.72 14.632C13.976 14.248 14.304 13.872 14.704 13.504L16.456 11.944C17.064 11.4 17.632 11.008 18.16 10.768C18.688 10.512 19.296 10.384 19.984 10.384C20.544 10.384 21.064 10.504 21.544 10.744C22.024 10.984 22.408 11.36 22.696 11.872C23 12.368 23.152 13.024 23.152 13.84V25.552C23.152 26.256 22.944 26.848 22.528 27.328C22.112 27.808 21.496 28.048 20.68 28.048Z"/>
</mask>
<path d="M20.68 28.048C19.896 28.048 19.288 27.808 18.856 27.328C18.424 26.848 18.208 26.256 18.208 25.552V16.96H17.728C17.616 17.328 17.376 17.656 17.008 17.944C16.64 18.232 16.176 18.376 15.616 18.376C15.008 18.376 14.472 18.176 14.008 17.776C13.56 17.36 13.336 16.784 13.336 16.048C13.336 15.488 13.464 15.016 13.72 14.632C13.976 14.248 14.304 13.872 14.704 13.504L16.456 11.944C17.064 11.4 17.632 11.008 18.16 10.768C18.688 10.512 19.296 10.384 19.984 10.384C20.544 10.384 21.064 10.504 21.544 10.744C22.024 10.984 22.408 11.36 22.696 11.872C23 12.368 23.152 13.024 23.152 13.84V25.552C23.152 26.256 22.944 26.848 22.528 27.328C22.112 27.808 21.496 28.048 20.68 28.048Z" fill="white"/>
<path d="M18.856 27.328L18.1127 27.997L18.856 27.328ZM18.208 16.96H19.208V15.96H18.208V16.96ZM17.728 16.96V15.96H16.9871L16.7713 16.6688L17.728 16.96ZM17.008 17.944L16.3917 17.1565L16.3917 17.1565L17.008 17.944ZM14.008 17.776L13.3275 18.5088L13.3411 18.5214L13.3551 18.5334L14.008 17.776ZM13.72 14.632L12.8879 14.0773L12.8879 14.0773L13.72 14.632ZM14.704 13.504L14.039 12.7572L14.0329 12.7626L14.0269 12.7681L14.704 13.504ZM16.456 11.944L17.121 12.6908L17.1228 12.6892L16.456 11.944ZM18.16 10.768L18.5738 11.6784L18.5851 11.6732L18.5963 11.6678L18.16 10.768ZM22.696 11.872L21.8244 12.3623L21.8336 12.3786L21.8434 12.3946L22.696 11.872ZM22.528 27.328L23.2837 27.9829L22.528 27.328ZM20.68 28.048V27.048C20.1137 27.048 19.8017 26.8839 19.5993 26.659L18.856 27.328L18.1127 27.997C18.7743 28.7321 19.6783 29.048 20.68 29.048V28.048ZM18.856 27.328L19.5993 26.659C19.348 26.3799 19.208 26.0331 19.208 25.552H18.208H17.208C17.208 26.4789 17.5 27.3161 18.1127 27.997L18.856 27.328ZM18.208 25.552H19.208V16.96H18.208H17.208V25.552H18.208ZM18.208 16.96V15.96H17.728V16.96V17.96H18.208V16.96ZM17.728 16.96L16.7713 16.6688C16.731 16.8014 16.6333 16.9674 16.3917 17.1565L17.008 17.944L17.6243 18.7315C18.1187 18.3446 18.501 17.8546 18.6847 17.2512L17.728 16.96ZM17.008 17.944L16.3917 17.1565C16.2326 17.281 15.9984 17.376 15.616 17.376V18.376V19.376C16.3536 19.376 17.0474 19.183 17.6243 18.7315L17.008 17.944ZM15.616 18.376V17.376C15.2497 17.376 14.9449 17.2634 14.6609 17.0186L14.008 17.776L13.3551 18.5334C13.9991 19.0886 14.7663 19.376 15.616 19.376V18.376ZM14.008 17.776L14.6885 17.0432C14.4852 16.8545 14.336 16.5673 14.336 16.048H13.336H12.336C12.336 17.0007 12.6348 17.8655 13.3275 18.5088L14.008 17.776ZM13.336 16.048H14.336C14.336 15.6428 14.427 15.3742 14.5521 15.1867L13.72 14.632L12.8879 14.0773C12.501 14.6578 12.336 15.3332 12.336 16.048H13.336ZM13.72 14.632L14.5521 15.1867C14.7568 14.8796 15.0297 14.5632 15.3811 14.2399L14.704 13.504L14.0269 12.7681C13.5783 13.1808 13.1952 13.6164 12.8879 14.0773L13.72 14.632ZM14.704 13.504L15.369 14.2508L17.121 12.6908L16.456 11.944L15.791 11.1972L14.039 12.7572L14.704 13.504ZM16.456 11.944L17.1228 12.6892C17.6835 12.1876 18.167 11.8633 18.5738 11.6784L18.16 10.768L17.7462 9.85763C17.097 10.1527 16.4445 10.6124 15.7892 11.1988L16.456 11.944ZM18.16 10.768L18.5963 11.6678C18.9667 11.4882 19.4212 11.384 19.984 11.384V10.384V9.384C19.1708 9.384 18.4093 9.5358 17.7237 9.86818L18.16 10.768ZM19.984 10.384V11.384C20.3957 11.384 20.7617 11.4709 21.0968 11.6384L21.544 10.744L21.9912 9.84957C21.3663 9.5371 20.6923 9.384 19.984 9.384V10.384ZM21.544 10.744L21.0968 11.6384C21.3813 11.7807 21.6247 12.0071 21.8244 12.3623L22.696 11.872L23.5676 11.3817C23.1913 10.7129 22.6667 10.1873 21.9912 9.84957L21.544 10.744ZM22.696 11.872L21.8434 12.3946C22.0197 12.6822 22.152 13.1376 22.152 13.84H23.152H24.152C24.152 12.9104 23.9803 12.0538 23.5486 11.3494L22.696 11.872ZM23.152 13.84H22.152V25.552H23.152H24.152V13.84H23.152ZM23.152 25.552H22.152C22.152 26.0434 22.0133 26.395 21.7723 26.6731L22.528 27.328L23.2837 27.9829C23.8747 27.301 24.152 26.4686 24.152 25.552H23.152ZM22.528 27.328L21.7723 26.6731C21.5974 26.8749 21.2944 27.048 20.68 27.048V28.048V29.048C21.6976 29.048 22.6266 28.7411 23.2837 27.9829L22.528 27.328Z" fill="black" mask="url(#path-1-outside-1_223_2636)"/>
</g>
<path d="M15.6519 1.31055C7.31066 2.87962 1 10.2027 1 18.9997C1 28.9409 9.05887 36.9997 19 36.9997C27.9724 36.9997 35.4116 30.4349 36.7762 21.8464" stroke="black" stroke-width="2" stroke-linecap="round"/>
<path d="M19.5 1C26.5 1 36.5 6 37 18.0069" stroke="black" stroke-width="2" stroke-linecap="round" stroke-linejoin="round" stroke-dasharray="4 4"/>
<defs>
<filter id="filter0_d_223_2636" x="8.33594" y="9.38477" width="19.8164" height="27.6641" filterUnits="userSpaceOnUse" color-interpolation-filters="sRGB">
<feFlood flood-opacity="0" result="BackgroundImageFix"/>
<feColorMatrix in="SourceAlpha" type="matrix" values="0 0 0 0 0 0 0 0 0 0 0 0 0 0 0 0 0 0 127 0" result="hardAlpha"/>
<feOffset dy="4"/>
<feGaussianBlur stdDeviation="2"/>
<feComposite in2="hardAlpha" operator="out"/>
<feColorMatrix type="matrix" values="0 0 0 0 0 0 0 0 0 0 0 0 0 0 0 0 0 0 0.25 0"/>
<feBlend mode="normal" in2="BackgroundImageFix" result="effect1_dropShadow_223_2636"/>
<feBlend mode="normal" in="SourceGraphic" in2="effect1_dropShadow_223_2636" result="shape"/>
</filter>
</defs>
</svg>
