<svg width="152" height="152" viewBox="0 0 152 152" fill="none" xmlns="http://www.w3.org/2000/svg">
<circle cx="76" cy="76" r="76" fill="#2A5073"/>
<path d="M39 52.167C39 50.6777 39.054 49.2002 39.1611 47.7373C39.2596 46.3919 39.312 44.7909 40.1475 43.3398C40.7949 42.2155 41.8607 41.2256 43.0293 40.6621L43.3154 40.5332C44.3751 40.0964 45.5147 40.0133 46.5889 40H59.0117C59.9092 40.0087 60.8564 40.0644 61.7471 40.3574L61.9883 40.4434L62.3652 40.6016C63.2312 40.9966 64.0044 41.573 64.6309 42.2939C65.5295 43.3282 65.9696 44.6791 66.3906 45.8369L70.666 57.5947C70.9451 58.3623 71.2124 59.0916 71.3906 59.7246C71.5555 60.3103 71.6905 60.9662 71.6846 61.6943L71.6738 62.0107C71.5938 63.2429 71.1727 64.4279 70.46 65.4336C69.964 66.1334 69.368 66.63 68.7998 67.0312C68.2625 67.4107 67.5959 67.8083 66.8955 68.2285L64.2471 69.8164C68.0849 76.9874 74.0122 82.9204 81.1816 86.7539L82.7715 84.1045C83.1915 83.4043 83.5895 82.7383 83.9688 82.2012C84.3699 81.633 84.8664 81.0361 85.5664 80.54C86.5721 79.8274 87.757 79.4062 88.9893 79.3262C89.8451 79.2706 90.6061 79.421 91.2754 79.6094C91.592 79.6985 91.9327 79.8097 92.29 79.9336L93.4053 80.334L105.163 84.6094H105.164C106.321 85.0301 107.671 85.4708 108.705 86.3691C109.528 87.084 110.165 87.9907 110.557 89.0107L110.643 89.252C110.936 90.1429 110.991 91.0907 111 91.9883V104.411C110.985 105.583 110.887 106.833 110.338 107.972L110.337 107.971C109.774 109.139 108.784 110.206 107.659 110.854C106.208 111.688 104.608 111.739 103.263 111.838C101.799 111.945 100.322 112 98.833 112C65.7882 112 39.0002 85.2117 39 52.167ZM45 52.167C45.0002 81.898 69.102 106 98.833 106C100.176 106 101.507 105.951 102.824 105.854C103.674 105.792 104.114 105.757 104.437 105.703C104.574 105.68 104.638 105.662 104.66 105.654C104.664 105.653 104.667 105.651 104.669 105.65C104.675 105.646 104.691 105.637 104.713 105.619C104.743 105.594 104.779 105.562 104.814 105.523C104.85 105.485 104.88 105.447 104.902 105.414C104.914 105.398 104.921 105.384 104.926 105.376C104.934 105.341 104.951 105.256 104.965 105.093C104.997 104.715 105 104.202 105 103.272V92.9424C105 92.1624 104.999 91.725 104.977 91.4004C104.967 91.2525 104.954 91.1764 104.948 91.1465C104.911 91.0569 104.855 90.9759 104.781 90.9092C104.753 90.8927 104.685 90.8561 104.554 90.7979C104.256 90.6662 103.846 90.5146 103.113 90.248L91.3545 85.9727C90.5039 85.6634 90.0187 85.4884 89.6504 85.3848C89.4842 85.338 89.3938 85.3218 89.3564 85.3164C89.2488 85.327 89.1452 85.3642 89.0537 85.4248C89.0277 85.4531 88.9682 85.5222 88.8701 85.6611C88.6496 85.9735 88.3828 86.4149 87.917 87.1914V87.1924L84.9062 92.21C84.1224 93.5163 82.4835 94.0279 81.0957 93.3994C70.7147 88.698 62.3082 80.2793 57.6016 69.9062C56.9717 68.5182 57.483 66.878 58.79 66.0938L63.8086 63.083C64.5845 62.6174 65.0256 62.3504 65.3379 62.1299C65.4769 62.0317 65.5458 61.9714 65.5742 61.9453C65.6349 61.8537 65.6721 61.7504 65.6826 61.6426C65.6771 61.6046 65.6614 61.5148 65.6152 61.3506C65.5116 60.9823 65.3367 60.4965 65.0273 59.6455L60.752 47.8867C60.4855 47.1539 60.3338 46.7439 60.2021 46.4463C60.1426 46.3118 60.1058 46.2436 60.0898 46.2168C60.0236 46.1445 59.9423 46.0881 59.8516 46.0508C59.8198 46.0448 59.7437 46.0332 59.5996 46.0234C59.2749 46.0014 58.8376 46 58.0576 46H47.7275C46.7977 46 46.2854 46.003 45.9072 46.0352C45.7431 46.0491 45.6581 46.0649 45.623 46.0732C45.6147 46.0782 45.602 46.0855 45.5859 46.0967C45.5536 46.1193 45.5162 46.1497 45.4775 46.1855C45.4389 46.2214 45.4058 46.2565 45.3809 46.2871C45.3615 46.311 45.351 46.3267 45.3477 46.332C45.347 46.3338 45.3468 46.3365 45.3457 46.3398C45.3385 46.3619 45.3197 46.4261 45.2969 46.5635C45.2432 46.8862 45.2077 47.3262 45.1455 48.1758C45.0491 49.493 45 50.8242 45 52.167Z" fill="white"/>
</svg>
