<svg width="1154" height="987" viewBox="0 0 1154 987" fill="none" xmlns="http://www.w3.org/2000/svg">
<path d="M261.551 987H193.513V917.194H261.551V987ZM959.608 987H890.687V917.194H959.608V987ZM454.18 192.629H698.058V61.8535H776.7V201.465H837.669V262.435H898.639V323.403H959.608V516.032H1082.43V262.435H1153.12V516.032H1082.43V584.954H959.608V707.777H837.669V838.553H698.058V707.777H453.296V838.553H322.521V707.777H193.513V584.954H68.9229V516.032H0V262.435H68.9229V516.032H191.745V323.403H253.599V262.435H323.404V201.465H384.374V61.8535H454.18V192.629ZM323.405 393.21V577.002H446.229V393.21H323.405ZM706.896 577.002H829.718V393.21H706.896V577.002ZM262.435 201.465H200.582V262.435H129.892V130.775H262.435V201.465ZM1029.41 262.435H960.492V201.465H898.639V131.659H1029.41V262.435ZM968.444 71.5732H898.639V0H968.444V71.5732ZM262.435 70.6895H191.745V0H262.435V70.6895Z" fill="#1F0B3C"/>
</svg>
