<svg width="152" height="152" viewBox="0 0 152 152" fill="none" xmlns="http://www.w3.org/2000/svg">
<circle cx="76" cy="76" r="76" fill="#FFD700"/>
<path d="M74.4081 40.8841C76.3751 38.946 79.5411 38.9694 81.4792 40.9365L113.062 72.9916C115 74.9586 114.977 78.1236 113.01 80.0617L80.9554 111.645C78.9884 113.584 75.8224 113.56 73.8843 111.593C71.9462 109.626 71.9696 106.46 73.9367 104.522L97.3927 81.4109L41.9635 81.0003C39.2022 80.9799 36.9803 78.7248 37.0007 75.9634C37.0212 73.2021 39.2763 70.9802 42.0376 71.0006L97.4667 71.4112L74.3557 47.9552C72.4176 45.9881 72.441 42.8222 74.4081 40.8841Z" fill="white"/>
</svg>
