<svg width="2365" height="2440" viewBox="0 0 2365 2440" fill="none" xmlns="http://www.w3.org/2000/svg">
<g filter="url(#filter0_d_1001_34)">
<path d="M1623.54 730.024C1628.02 738.152 1628.1 747.718 1624.24 755.722C1621.2 762.009 1616.69 765.413 1614.9 766.662C1611.13 769.292 1607.55 770.406 1606.72 770.67C1605.27 771.132 1603.99 771.43 1603.15 771.608C1602.18 771.814 1601.24 771.979 1600.4 772.109L1599.58 772.228L1599.56 772.231L1599.54 772.234L1598.65 772.351L1598.63 772.354L1598.61 772.357L1597.65 772.474L1597.45 772.5L1597.24 772.508L1596.28 772.546L1589.52 772.832C1518.72 775.965 1421.19 784.643 1325.91 807.213C1226.82 830.687 1134.09 868.299 1075.17 926.767C1013.41 988.047 974.815 1086.09 951.473 1189.36C928.321 1291.8 921.085 1395.14 919.086 1462.97V1462.97C919.066 1463.63 919.03 1464.51 918.97 1465.39C918.94 1465.83 918.89 1466.46 918.809 1467.19V1467.18C918.811 1467.16 918.797 1467.29 918.79 1467.35C918.78 1467.44 918.766 1467.55 918.749 1467.69C918.715 1467.96 918.666 1468.31 918.599 1468.72C918.465 1469.53 918.255 1470.61 917.93 1471.8C917.734 1472.51 917.366 1473.74 916.752 1475.21C916.273 1476.35 914.921 1479.45 912.137 1482.69L911.594 1483.3C908.578 1486.58 901.052 1493.1 889.185 1492.48C877.198 1491.85 870.493 1484.34 868.516 1481.85C866.54 1479.36 865.273 1476.85 864.498 1474.97C864.107 1474.03 863.832 1473.22 863.65 1472.63C863.559 1472.34 863.49 1472.09 863.441 1471.91C863.417 1471.82 863.398 1471.75 863.383 1471.69C863.378 1471.67 863.374 1471.65 863.37 1471.63C863.11 1470.67 862.938 1469.83 862.833 1469.26L862.746 1468.75C862.435 1466.88 862.305 1464.97 862.239 1463.95L862.238 1463.94L862.213 1463.54L862.207 1463.45L862.205 1463.37L862.194 1462.97L862.193 1462.97C860.194 1395.14 852.959 1291.8 829.807 1189.36C806.464 1086.09 767.868 988.047 706.111 926.767C644.885 866.014 547.229 827.832 444.066 804.602C341.735 781.559 238.192 774.127 169.191 771.981H169.183L169.042 771.976L169.021 771.975H169L168.861 771.969L168.852 771.969C167.839 771.925 165.365 771.822 162.835 771.352C162.103 771.216 160.581 770.911 158.749 770.293C158.797 770.309 158.515 770.216 158.317 770.147C158.07 770.062 157.754 769.948 157.382 769.802C156.638 769.509 155.674 769.089 154.579 768.51C152.399 767.357 149.64 765.541 147.063 762.788C143.927 759.435 139.844 753.324 139.521 744.72C139.201 736.147 142.791 729.788 145.598 726.263C147.916 723.352 150.483 721.343 152.533 720.029C153.563 719.369 154.476 718.876 155.184 718.526C155.538 718.351 155.84 718.211 156.076 718.106C156.268 718.021 156.532 717.908 156.492 717.926C159.43 716.649 162.006 716.148 162.396 716.067C163.332 715.873 164.146 715.747 164.667 715.672C165.743 715.516 166.764 715.41 167.509 715.343H167.51L168.195 715.28L168.344 715.266L168.494 715.261L169.188 715.24L169.191 715.239C238.192 713.093 341.735 705.662 444.066 682.619C547.229 659.389 644.885 621.208 706.111 560.455C766.375 500.657 804.618 405.817 828.136 305.132C851.47 205.233 859.411 103.617 861.872 34.1257L861.873 34.1189C861.906 33.2239 861.999 29.4002 863.208 25.3416C863.576 24.1052 864.342 21.8103 865.841 19.2058V19.2048C867.154 16.9239 870.529 11.753 877.28 8.22729V8.22632C885.511 3.9285 894.505 4.24753 901.619 7.28491C907.437 9.76891 910.861 13.5203 912.242 15.1677C915.069 18.5401 916.427 21.8072 916.757 22.5886C917.314 23.9084 917.686 25.0493 917.903 25.7585C918.346 27.2028 918.649 28.5201 918.839 29.4343V29.4353L919.235 31.3396L919.322 31.7566L919.337 32.1824L919.406 34.1257L919.653 40.7332C922.379 109.966 930.537 208.354 953.143 305.132C976.661 405.817 1014.9 500.657 1075.17 560.455C1134.09 618.923 1226.82 656.535 1325.91 680.01C1424.27 703.307 1525.02 711.8 1596.28 714.675L1596.29 714.676L1596.99 714.704L1597.14 714.71L1597.28 714.725L1597.98 714.796C1599.63 714.961 1603.55 715.356 1607.45 716.681C1608.62 717.077 1610.73 717.862 1613.1 719.272C1615.07 720.436 1620.03 723.646 1623.54 730.024Z" fill="#FFD700" stroke="black" stroke-width="10"/>
<path d="M2356.84 1289.53C2360.44 1296.06 2360.5 1303.74 2357.4 1310.17C2354.96 1315.21 2351.34 1317.94 2349.91 1318.95V1318.95C2346.89 1321.05 2344.02 1321.94 2343.37 1322.15C2342.21 1322.52 2341.2 1322.76 2340.54 1322.9C2339.52 1323.11 2338.55 1323.27 2337.74 1323.38L2337.7 1323.39L2337.02 1323.48L2336.98 1323.48L2336.25 1323.57L2336.05 1323.6L2335.84 1323.61L2335.11 1323.63L2329.97 1323.85C2276.19 1326.23 2202.11 1332.83 2129.77 1349.96C2054.5 1367.79 1984.26 1396.33 1939.69 1440.55C1892.98 1486.9 1863.7 1561.16 1845.97 1639.62C1828.39 1717.4 1822.89 1795.89 1821.37 1847.42V1847.43C1821.35 1847.93 1821.33 1848.62 1821.28 1849.31C1821.26 1849.65 1821.22 1850.16 1821.15 1850.73C1821.15 1850.75 1821.14 1850.82 1821.14 1850.85C1821.13 1850.93 1821.12 1851.02 1821.1 1851.13C1821.08 1851.34 1821.04 1851.62 1820.98 1851.95C1820.88 1852.6 1820.71 1853.47 1820.45 1854.42C1820.29 1854.99 1820 1855.98 1819.5 1857.16C1819.12 1858.08 1818.03 1860.56 1815.8 1863.16C1813.74 1865.56 1807.54 1871.56 1797.37 1871.02C1787.75 1870.52 1782.37 1864.48 1780.78 1862.49C1779.19 1860.49 1778.18 1858.47 1777.56 1856.97C1777.25 1856.22 1777.02 1855.57 1776.88 1855.09C1776.8 1854.85 1776.75 1854.65 1776.71 1854.5C1776.69 1854.42 1776.67 1854.36 1776.66 1854.31C1776.65 1854.28 1776.64 1854.26 1776.64 1854.24C1776.64 1854.23 1776.64 1854.22 1776.63 1854.21C1776.37 1853.2 1776.22 1852.38 1776.15 1851.98C1775.9 1850.49 1775.8 1848.98 1775.75 1848.21L1775.75 1848.2L1775.73 1847.9L1775.73 1847.81L1775.73 1847.72L1775.72 1847.42C1774.2 1795.89 1768.7 1717.4 1751.12 1639.62C1733.39 1561.16 1704.11 1486.9 1657.4 1440.55C1611.09 1394.6 1537.11 1365.63 1458.74 1347.98C1381.03 1330.48 1302.39 1324.84 1249.97 1323.21H1249.96L1249.85 1323.2L1249.83 1323.2H1249.81L1249.7 1323.2H1249.69C1248.92 1323.16 1246.97 1323.08 1244.95 1322.71C1244.37 1322.6 1243.15 1322.36 1241.68 1321.86C1241.64 1321.85 1241.46 1321.79 1241.34 1321.75C1241.14 1321.68 1240.89 1321.58 1240.59 1321.47C1239.99 1321.23 1239.21 1320.89 1238.33 1320.43C1236.59 1319.5 1234.38 1318.05 1232.3 1315.84C1229.79 1313.15 1226.51 1308.24 1226.25 1301.33C1225.99 1294.44 1228.88 1289.33 1231.13 1286.5C1232.99 1284.16 1235.05 1282.55 1236.69 1281.5C1237.52 1280.97 1238.25 1280.57 1238.82 1280.29C1239.11 1280.15 1239.35 1280.04 1239.55 1279.95C1239.66 1279.9 1239.83 1279.83 1239.87 1279.81C1241.06 1279.29 1242.16 1278.94 1243 1278.71C1243.42 1278.59 1243.78 1278.5 1244.06 1278.44C1244.21 1278.4 1244.33 1278.38 1244.42 1278.36C1244.5 1278.34 1244.6 1278.32 1244.59 1278.32C1245.34 1278.17 1245.98 1278.07 1246.39 1278.01C1247.24 1277.89 1248.03 1277.8 1248.61 1277.75H1248.61L1249.14 1277.7L1249.29 1277.69L1249.44 1277.68L1249.97 1277.67H1249.97C1302.39 1276.04 1381.03 1270.39 1458.74 1252.89C1537.11 1235.25 1611.09 1206.28 1657.4 1160.33C1702.98 1115.1 1731.99 1043.26 1749.85 966.775C1767.57 890.924 1773.6 813.747 1775.47 760.951V760.944C1775.5 760.26 1775.57 757.218 1776.54 753.974V753.973C1776.83 752.982 1777.45 751.141 1778.65 749.052C1779.7 747.222 1782.41 743.07 1787.83 740.24C1794.44 736.79 1801.66 737.047 1807.36 739.483C1812.03 741.477 1814.78 744.488 1815.89 745.811C1818.15 748.514 1819.24 751.131 1819.5 751.756L1819.81 752.516C1820.09 753.242 1820.29 753.859 1820.42 754.281C1820.77 755.425 1821.01 756.465 1821.16 757.183V757.184L1821.46 758.632L1821.55 759.049L1821.56 759.474L1821.61 760.951C1823.48 813.747 1829.52 890.924 1847.23 966.775C1865.1 1043.26 1894.11 1115.1 1939.69 1160.33C1984.26 1204.55 2054.5 1233.08 2129.77 1250.91C2204.45 1268.6 2280.97 1275.06 2335.11 1277.24H2335.12L2335.65 1277.26L2335.8 1277.27L2335.95 1277.28L2336.48 1277.34C2337.73 1277.46 2340.83 1277.77 2343.94 1278.83C2344.88 1279.14 2346.56 1279.77 2348.47 1280.9C2350.04 1281.83 2354.03 1284.41 2356.84 1289.53Z" fill="#FFD700" stroke="black" stroke-width="10"/>
<path d="M1539.29 1897.08C1542.19 1902.34 1542.24 1908.53 1539.74 1913.7C1537.78 1917.77 1534.86 1919.96 1533.71 1920.77C1531.29 1922.46 1528.99 1923.17 1528.47 1923.34C1527.55 1923.63 1526.75 1923.82 1526.23 1923.93C1525.63 1924.06 1525.05 1924.16 1524.54 1924.24L1524.04 1924.31L1524.02 1924.31L1524 1924.31L1523.49 1924.38L1523.47 1924.38L1523.45 1924.39L1522.91 1924.45L1522.7 1924.48L1522.5 1924.49L1521.95 1924.51C1481.38 1926.15 1424.08 1930.98 1368.18 1944.22C1311.8 1957.58 1259.39 1978.91 1226.21 2011.83C1191.44 2046.34 1169.54 2101.75 1156.26 2160.52C1143.1 2218.75 1138.98 2277.53 1137.84 2316.14V2316.14C1137.83 2316.53 1137.81 2317.06 1137.77 2317.6C1137.75 2317.87 1137.72 2318.27 1137.67 2318.72C1137.67 2318.74 1137.66 2318.8 1137.66 2318.82C1137.65 2318.88 1137.64 2318.95 1137.63 2319.04C1137.61 2319.21 1137.58 2319.44 1137.54 2319.7C1137.45 2320.22 1137.32 2320.91 1137.11 2321.68C1136.98 2322.14 1136.74 2322.93 1136.35 2323.88C1136.04 2324.63 1135.16 2326.62 1133.36 2328.72C1131.71 2330.64 1126.72 2335.48 1118.53 2335.05C1110.78 2334.64 1106.45 2329.78 1105.17 2328.18C1103.89 2326.56 1103.08 2324.94 1102.58 2323.74C1102.33 2323.13 1102.15 2322.61 1102.03 2322.22C1101.97 2322.02 1101.92 2321.86 1101.89 2321.73C1101.87 2321.67 1101.86 2321.61 1101.84 2321.56C1101.84 2321.54 1101.83 2321.52 1101.83 2321.5C1101.83 2321.5 1101.83 2321.49 1101.83 2321.48C1101.62 2320.69 1101.5 2320.04 1101.45 2319.73C1101.25 2318.54 1101.17 2317.35 1101.13 2316.77V2316.76L1101.12 2316.53L1101.11 2316.45L1101.11 2316.36L1101.1 2316.14L1101.1 2316.14C1099.97 2277.53 1095.85 2218.75 1082.69 2160.52C1069.4 2101.75 1047.51 2046.34 1012.73 2011.83C978.253 1977.62 923.051 1955.96 864.344 1942.74C806.175 1929.64 747.28 1925.41 708.002 1924.19H707.992L707.912 1924.18L707.892 1924.18H707.871L707.791 1924.18H707.782C707.205 1924.16 705.659 1924.09 704.052 1923.79C703.584 1923.71 702.606 1923.51 701.427 1923.11C701.381 1923.1 701.245 1923.05 701.164 1923.02C700.999 1922.97 700.791 1922.89 700.547 1922.8C700.06 1922.6 699.437 1922.33 698.731 1921.96C697.418 1921.27 695.771 1920.19 694.195 1918.59L693.881 1918.27C691.857 1916.1 689.211 1912.15 689.002 1906.57C688.794 1901.02 691.122 1896.91 692.934 1894.63C694.436 1892.75 696.092 1891.45 697.41 1890.6C698.073 1890.18 698.665 1889.86 699.128 1889.63C699.36 1889.52 699.559 1889.42 699.717 1889.35C699.798 1889.32 699.927 1889.26 699.97 1889.24L700.326 1889.09C701.147 1888.76 701.896 1888.52 702.479 1888.36C702.817 1888.26 703.108 1888.19 703.335 1888.14C703.449 1888.12 703.546 1888.09 703.623 1888.08C703.681 1888.07 703.774 1888.05 703.758 1888.05C704.35 1887.93 704.861 1887.85 705.182 1887.8C705.846 1887.71 706.468 1887.64 706.915 1887.6H706.916L707.304 1887.57L707.453 1887.55L707.604 1887.55L708 1887.54H708.002C747.28 1886.31 806.175 1882.08 864.344 1868.98C923.051 1855.77 978.254 1834.1 1012.73 1799.89C1046.67 1766.22 1068.36 1712.62 1081.74 1655.33C1095 1598.55 1099.52 1540.76 1100.92 1501.2V1501.2C1100.94 1500.68 1101 1498.26 1101.77 1495.66C1102.01 1494.86 1102.5 1493.38 1103.47 1491.7C1104.32 1490.23 1106.5 1486.88 1110.86 1484.61C1116.18 1481.83 1121.99 1482.04 1126.58 1484C1130.33 1485.6 1132.55 1488.02 1133.44 1489.09C1135.26 1491.26 1136.13 1493.37 1136.35 1493.87C1136.7 1494.71 1136.94 1495.43 1137.07 1495.88C1137.35 1496.79 1137.54 1497.61 1137.66 1498.17V1498.17L1137.88 1499.25L1137.97 1499.67L1137.99 1500.1L1138.02 1501.2L1138.17 1504.96C1139.72 1544.37 1144.36 1600.33 1157.21 1655.33C1170.59 1712.62 1192.28 1766.22 1226.21 1799.89C1259.39 1832.81 1311.8 1854.15 1368.18 1867.5C1424.08 1880.74 1481.38 1885.58 1521.95 1887.21H1521.96L1522.36 1887.23L1522.5 1887.24L1522.65 1887.25L1523.05 1887.29C1523.99 1887.39 1526.44 1887.63 1528.92 1888.47C1529.67 1888.72 1531.02 1889.23 1532.55 1890.14C1533.82 1890.88 1537.02 1892.96 1539.29 1897.08Z" fill="#FFD700" stroke="black" stroke-width="10"/>
</g>
<defs>
<filter id="filter0_d_1001_34" x="0" y="0" width="2364.64" height="2439.58" filterUnits="userSpaceOnUse" color-interpolation-filters="sRGB">
<feFlood flood-opacity="0" result="BackgroundImageFix"/>
<feColorMatrix in="SourceAlpha" type="matrix" values="0 0 0 0 0 0 0 0 0 0 0 0 0 0 0 0 0 0 127 0" result="hardAlpha"/>
<feOffset dx="-110" dy="75"/>
<feGaussianBlur stdDeviation="12.25"/>
<feComposite in2="hardAlpha" operator="out"/>
<feColorMatrix type="matrix" values="0 0 0 0 0 0 0 0 0 0 0 0 0 0 0 0 0 0 0.25 0"/>
<feBlend mode="normal" in2="BackgroundImageFix" result="effect1_dropShadow_1001_34"/>
<feBlend mode="normal" in="SourceGraphic" in2="effect1_dropShadow_1001_34" result="shape"/>
</filter>
</defs>
</svg>
