<svg width="87" height="82" viewBox="0 0 87 82" fill="none" xmlns="http://www.w3.org/2000/svg">
<path d="M79.5 32C79.5 18.1929 68.3071 7 54.5 7C40.6929 7 29.5 18.1929 29.5 32C29.5 45.8071 40.6929 57 54.5 57V64C36.8269 64 22.5 49.6731 22.5 32C22.5 14.3269 36.8269 0 54.5 0C72.1731 0 86.5 14.3269 86.5 32C86.5 49.6731 72.1731 64 54.5 64V57C68.3071 57 79.5 45.8071 79.5 32Z" fill="white"/>
<path d="M28.8387 50.0135C30.4881 48.5441 33.0166 48.6896 34.4862 50.3387C35.9556 51.9881 35.8102 54.5166 34.161 55.9862L6.66099 80.4862C5.01163 81.9556 2.48311 81.8102 1.01353 80.161C-0.455904 78.5116 -0.310441 75.9831 1.33873 74.5135L28.8387 50.0135Z" fill="white"/>
</svg>
