<svg width="358" height="381" viewBox="0 0 358 381" fill="none" xmlns="http://www.w3.org/2000/svg">
<path d="M204.766 118.163C205.067 118.71 205.072 119.353 204.812 119.892C204.608 120.316 204.303 120.546 204.182 120.63C203.926 120.809 203.681 120.886 203.623 120.904C203.521 120.936 203.43 120.958 203.369 120.971C203.275 120.99 203.184 121.005 203.106 121.016L203.032 121.026L202.954 121.036L202.875 121.039C197.025 121.275 188.746 121.972 180.656 123.888C172.516 125.817 164.833 128.919 159.927 133.787C154.786 138.889 151.604 147.011 149.687 155.492C147.783 163.917 147.189 172.409 147.024 177.977C147.023 178.027 147.02 178.094 147.016 178.16C147.014 178.192 147.01 178.237 147.004 178.288C147.002 178.308 146.988 178.445 146.944 178.604C146.931 178.651 146.906 178.734 146.865 178.834C146.833 178.91 146.742 179.119 146.554 179.337C146.379 179.541 145.858 180.042 145.006 179.997C144.199 179.955 143.747 179.45 143.613 179.281C143.349 178.949 143.268 178.6 143.268 178.6C143.243 178.509 143.23 178.433 143.224 178.396C143.202 178.265 143.192 178.126 143.187 178.043L143.185 178.01L143.184 177.977C143.02 172.409 142.426 163.917 140.522 155.492C138.605 147.011 135.422 138.889 130.281 133.787C125.184 128.729 117.094 125.581 108.623 123.674C100.207 121.779 91.6988 121.168 86.0347 120.992L86.0232 120.992L86.0118 120.991C85.929 120.988 85.7522 120.98 85.5762 120.947C85.5258 120.938 85.4222 120.917 85.2977 120.875C85.2545 120.861 84.8547 120.739 84.5088 120.369C84.2967 120.142 84.023 119.731 84.0014 119.154C83.9798 118.578 84.2204 118.151 84.4101 117.913C84.7213 117.522 85.1034 117.369 85.1452 117.35C85.345 117.263 85.5214 117.229 85.5487 117.223C85.6141 117.21 85.6717 117.201 85.7099 117.195C85.7885 117.184 85.8644 117.176 85.9212 117.171L85.9778 117.166L86.0347 117.164C91.6988 116.988 100.207 116.378 108.623 114.483C117.094 112.575 125.184 109.427 130.281 104.37C135.298 99.3908 138.452 91.5325 140.384 83.2626C142.304 75.0457 142.955 66.6948 143.158 60.9902C143.16 60.918 143.167 60.6512 143.25 60.3733C143.275 60.2893 143.327 60.1341 143.428 59.9582C143.517 59.8042 143.744 59.4555 144.2 59.2178C144.754 58.9281 145.362 58.9489 145.843 59.1542C146.235 59.3219 146.466 59.5752 146.559 59.6863C146.751 59.9146 146.843 60.1366 146.866 60.1901C146.904 60.2811 146.93 60.3604 146.945 60.4104C146.977 60.5129 146.999 60.6078 147.013 60.675L147.045 60.831L147.051 60.9902C147.253 66.6948 147.905 75.0457 149.824 83.2626C151.756 91.5325 154.91 99.3908 159.927 104.37C164.833 109.238 172.516 112.34 180.656 114.268C188.746 116.184 197.025 116.882 202.875 117.118L202.933 117.12L202.99 117.126C203.124 117.139 203.403 117.169 203.675 117.261C203.756 117.288 203.899 117.342 204.061 117.437C204.194 117.516 204.529 117.733 204.766 118.163Z" fill="#FFD700"/>
<path d="M264.822 163.983C265.051 164.399 265.055 164.888 264.857 165.298C264.702 165.62 264.47 165.795 264.378 165.859C264.183 165.995 263.997 166.053 263.953 166.068C263.875 166.092 263.807 166.108 263.76 166.118C263.689 166.133 263.619 166.145 263.56 166.153L263.504 166.16L263.444 166.168L263.385 166.17C258.937 166.349 252.642 166.88 246.491 168.337C240.302 169.803 234.46 172.161 230.73 175.863C226.821 179.742 224.401 185.917 222.944 192.366C221.496 198.772 221.044 205.228 220.919 209.462C220.918 209.5 220.916 209.551 220.913 209.601C220.911 209.625 220.908 209.66 220.904 209.699C220.902 209.714 220.892 209.818 220.858 209.938C220.848 209.975 220.83 210.038 220.798 210.113C220.774 210.171 220.704 210.33 220.562 210.496C220.429 210.651 220.033 211.032 219.385 210.998C218.771 210.966 218.428 210.582 218.326 210.453C218.125 210.201 218.064 209.936 218.064 209.936C218.044 209.866 218.034 209.808 218.03 209.78C218.013 209.681 218.006 209.575 218.002 209.512L218 209.487L217.999 209.462C217.875 205.228 217.423 198.772 215.975 192.366C214.518 185.917 212.098 179.742 208.189 175.863C204.313 172.017 198.162 169.624 191.721 168.173C185.323 166.732 178.854 166.269 174.547 166.135L174.538 166.134L174.53 166.134C174.467 166.131 174.332 166.125 174.198 166.101C174.16 166.093 174.081 166.078 173.987 166.046C173.954 166.035 173.65 165.942 173.387 165.661C173.226 165.488 173.017 165.176 173.001 164.737C172.985 164.299 173.168 163.974 173.312 163.793C173.548 163.496 173.839 163.379 173.871 163.366C174.023 163.299 174.157 163.273 174.178 163.269C174.227 163.259 174.271 163.252 174.3 163.248C174.36 163.239 174.418 163.233 174.461 163.229L174.504 163.225L174.547 163.224C178.854 163.09 185.323 162.626 191.721 161.185C198.162 159.735 204.313 157.341 208.189 153.496C212.004 149.71 214.402 143.735 215.871 137.448C217.33 131.2 217.826 124.851 217.979 120.513C217.981 120.458 217.987 120.255 218.05 120.044C218.069 119.98 218.108 119.862 218.185 119.729C218.252 119.611 218.425 119.346 218.772 119.166C219.193 118.945 219.655 118.961 220.021 119.117C220.319 119.245 220.495 119.437 220.566 119.522C220.711 119.695 220.782 119.864 220.799 119.905C220.828 119.974 220.848 120.034 220.859 120.072C220.883 120.15 220.9 120.222 220.91 120.274L220.935 120.392L220.939 120.513C221.093 124.851 221.589 131.2 223.048 137.448C224.517 143.735 226.915 149.71 230.73 153.496C234.46 157.197 240.302 159.556 246.491 161.022C252.642 162.479 258.937 163.009 263.385 163.189L263.428 163.19L263.472 163.195C263.573 163.205 263.786 163.227 263.993 163.297C264.054 163.318 264.163 163.359 264.286 163.432C264.387 163.492 264.642 163.657 264.822 163.983Z" fill="#FFD700"/>
<path d="M197.866 213.738C198.038 214.049 198.041 214.416 197.893 214.724C197.776 214.965 197.603 215.096 197.534 215.145C197.388 215.247 197.248 215.29 197.215 215.301C197.157 215.319 197.105 215.331 197.07 215.339C197.016 215.35 196.964 215.358 196.92 215.365L196.878 215.37L196.833 215.376L196.788 215.377C193.453 215.512 188.731 215.91 184.118 217.002C179.476 218.102 175.095 219.871 172.297 222.647C169.366 225.556 167.551 230.188 166.458 235.025C165.372 239.829 165.033 244.671 164.94 247.846C164.939 247.875 164.937 247.913 164.935 247.951C164.933 247.969 164.931 247.995 164.928 248.024C164.927 248.035 164.919 248.113 164.894 248.204C164.886 248.231 164.872 248.278 164.849 248.335C164.83 248.379 164.778 248.497 164.671 248.622C164.571 248.738 164.275 249.024 163.789 248.998C163.328 248.974 163.071 248.686 162.994 248.59C162.844 248.4 162.798 248.202 162.798 248.202C162.783 248.149 162.776 248.106 162.772 248.085C162.76 248.01 162.754 247.931 162.751 247.884L162.75 247.865L162.749 247.846C162.656 244.671 162.317 239.829 161.231 235.025C160.138 230.188 158.323 225.556 155.392 222.647C152.485 219.763 147.872 217.968 143.041 216.88C138.242 215.799 133.39 215.451 130.16 215.351L130.154 215.351L130.147 215.351C130.1 215.348 129.999 215.344 129.899 215.325C129.87 215.32 129.811 215.308 129.74 215.284C129.715 215.276 129.487 215.206 129.29 214.996C129.169 214.866 129.013 214.632 129.001 214.303C128.988 213.974 129.126 213.731 129.234 213.595C129.411 213.372 129.629 213.285 129.653 213.274C129.767 213.225 129.868 213.205 129.883 213.202C129.92 213.194 129.953 213.189 129.975 213.186C130.02 213.179 130.063 213.175 130.096 213.172L130.128 213.169L130.16 213.168C133.39 213.068 138.242 212.72 143.041 211.639C147.872 210.551 152.485 208.756 155.392 205.872C158.253 203.033 160.051 198.552 161.153 193.836C162.247 189.15 162.619 184.388 162.734 181.135C162.736 181.094 162.74 180.942 162.787 180.783C162.802 180.735 162.831 180.647 162.889 180.546C162.939 180.459 163.069 180.26 163.329 180.124C163.645 179.959 163.991 179.971 164.266 180.088C164.49 180.184 164.621 180.328 164.674 180.391C164.784 180.522 164.836 180.648 164.849 180.679C164.871 180.731 164.886 180.776 164.894 180.804C164.912 180.863 164.925 180.917 164.933 180.955L164.951 181.044L164.955 181.135C165.07 184.388 165.442 189.15 166.536 193.836C167.638 198.552 169.436 203.033 172.297 205.872C175.095 208.648 179.476 210.417 184.118 211.517C188.731 212.609 193.453 213.007 196.788 213.142L196.821 213.143L196.854 213.146C196.93 213.154 197.09 213.17 197.245 213.223C197.29 213.239 197.372 213.269 197.464 213.324C197.54 213.369 197.732 213.492 197.866 213.738Z" fill="#FFD700"/>
<path d="M108.9 285.306L109.265 285.309L109.371 285.31L109.477 285.312C123.849 285.522 135.636 292.085 143.483 297.733C151.777 303.703 159.19 311.214 165.4 318.391C169.291 322.887 173.018 327.617 176.511 332.336C180.003 327.617 183.732 322.888 187.623 318.391C193.833 311.214 201.246 303.703 209.539 297.733C217.387 292.085 229.173 285.522 243.546 285.312L243.652 285.31L243.758 285.309L244.123 285.306H279.135V316.306H244.242L243.997 316.308C223.138 316.612 196.966 355.504 184.212 376.753L184.131 376.885L183.967 377.138C180.501 382.287 172.521 382.287 169.056 377.138L168.892 376.885L168.811 376.753C156.057 355.504 129.885 316.612 109.025 316.308L108.78 316.306H73.8886V285.306H108.9ZM0 65.7265C0 29.5688 29.176 0.229636 65.2539 0.000976562L65.6787 0H291.449L291.874 0.000976562C327.952 0.229704 357.128 29.5689 357.128 65.7265L357.127 251.006C356.899 286.968 327.81 316.078 291.874 316.305L291.449 316.306H279.135V285.306H291.36L291.722 285.306C310.65 285.162 326.007 269.81 326.127 250.809L326.128 65.7265L326.116 64.832C325.644 46.1223 310.404 31.1198 291.678 31.001L65.4492 31L65.4502 31.001C46.4264 31.1216 31 46.6028 31 65.7265V250.49L31.001 250.809L31.0176 251.698C31.6021 270.287 46.7736 285.164 65.4053 285.306L65.7676 285.306H73.8886V316.306H65.6787L65.2539 316.305C29.5983 316.08 0.683694 287.421 0.0117187 251.848L0.000976562 251.006L0 250.581V65.7265Z" fill="black"/>
</svg>
