<svg width="216" height="226" viewBox="0 0 216 226" fill="none" xmlns="http://www.w3.org/2000/svg">
<path d="M143.645 70.3729C144.003 71.0234 144.01 71.7887 143.701 72.4296C143.458 72.9335 143.095 73.2068 142.951 73.3076C142.646 73.5204 142.355 73.6112 142.285 73.6332C142.165 73.6717 142.057 73.6968 141.984 73.7123C141.872 73.7361 141.763 73.7538 141.67 73.7668L141.583 73.7783L141.49 73.7897L141.397 73.7934C134.438 74.0741 124.59 74.9036 114.967 77.1831C105.285 79.4766 96.1468 83.1667 90.3112 88.9571C84.1956 95.0255 80.4102 104.687 78.13 114.775C75.8652 124.796 75.1587 134.897 74.9635 141.52C74.9616 141.58 74.9584 141.66 74.953 141.738C74.9504 141.775 74.9462 141.83 74.9393 141.89C74.9367 141.914 74.92 142.076 74.868 142.265C74.8524 142.322 74.8229 142.421 74.7736 142.539C74.7355 142.63 74.6272 142.878 74.404 143.138C74.1955 143.38 73.5764 143.976 72.5631 143.923C71.6028 143.873 71.0653 143.272 70.9055 143.071C70.5916 142.676 70.4957 142.261 70.4957 142.261C70.4658 142.152 70.4499 142.062 70.4426 142.018C70.4167 141.862 70.4052 141.697 70.3988 141.598L70.3963 141.559L70.3952 141.52C70.1999 134.897 69.4935 124.796 67.2286 114.775C64.9485 104.687 61.163 95.0255 55.0473 88.9571C48.9845 82.9412 39.3619 79.1966 29.2853 76.9275C19.2752 74.6735 9.15501 73.9478 2.41775 73.7383L2.40405 73.7378L2.39046 73.7373C2.29198 73.733 2.08166 73.7238 1.87232 73.6849C1.81246 73.6738 1.68913 73.649 1.54109 73.5991C1.48966 73.5817 1.01421 73.4365 0.602725 72.9968C0.350422 72.7271 0.0248159 72.2381 -0.000881375 71.5513C-0.0264844 70.867 0.259696 70.3585 0.485334 70.0751C0.855439 69.6103 1.30992 69.4278 1.35973 69.4062C1.59738 69.3028 1.80712 69.262 1.83961 69.2553C1.91744 69.2392 1.98601 69.2285 2.03138 69.2219C2.12483 69.2085 2.21512 69.1991 2.2827 69.193L2.35005 69.1868L2.41775 69.1846C9.15501 68.9751 19.2752 68.2494 29.2853 65.9954C39.3619 63.7263 48.9845 59.9818 55.0473 53.9659C61.0156 48.0438 64.7673 38.6966 67.065 28.8597C69.348 19.0859 70.1235 9.1528 70.3638 2.36735C70.367 2.28143 70.3755 1.96402 70.474 1.6335C70.5037 1.53362 70.5653 1.34896 70.6858 1.1397C70.7912 0.956523 71.0618 0.541834 71.6034 0.259032C72.2634 -0.0855741 72.9855 -0.0608131 73.5576 0.183434C74.0247 0.382883 74.2996 0.684149 74.4103 0.816299C74.638 1.08794 74.7478 1.35191 74.7746 1.41558C74.8203 1.52382 74.8511 1.61811 74.8694 1.67764C74.9067 1.79953 74.9328 1.9124 74.9494 1.99239L74.988 2.17796L74.9947 2.36735C75.235 9.1528 76.0105 19.0859 78.2935 28.8597C80.5912 38.6966 84.3429 48.0438 90.3112 53.9659C96.1468 59.7563 105.285 63.4464 114.967 65.7399C124.59 68.0194 134.438 68.8488 141.397 69.1295L141.465 69.1323L141.533 69.1392C141.692 69.1551 142.025 69.1899 142.348 69.2996C142.444 69.3321 142.615 69.3957 142.807 69.5096C142.965 69.6037 143.364 69.8616 143.645 70.3729Z" fill="#FFD700"/>
<path d="M215.081 124.876C215.354 125.37 215.358 125.952 215.123 126.44C214.938 126.823 214.663 127.031 214.553 127.107C214.322 127.269 214.1 127.338 214.047 127.355C213.955 127.384 213.873 127.403 213.818 127.415C213.733 127.433 213.65 127.446 213.58 127.456L213.513 127.465L213.443 127.474L213.372 127.477C208.081 127.69 200.593 128.321 193.276 130.054C185.915 131.798 178.967 134.603 174.53 139.006C169.88 143.62 167.002 150.966 165.268 158.636C163.546 166.255 163.009 173.935 162.86 178.971C162.859 179.017 162.856 179.077 162.852 179.137C162.85 179.165 162.847 179.207 162.842 179.253C162.84 179.271 162.827 179.394 162.788 179.538C162.776 179.581 162.753 179.656 162.716 179.746C162.687 179.815 162.605 180.004 162.435 180.201C162.276 180.386 161.806 180.839 161.035 180.798C160.305 180.76 159.896 180.303 159.775 180.15C159.536 179.85 159.463 179.535 159.463 179.535C159.441 179.452 159.428 179.383 159.423 179.35C159.403 179.231 159.395 179.106 159.39 179.031L159.388 179.001L159.387 178.971C159.238 173.935 158.701 166.255 156.979 158.636C155.246 150.966 152.367 143.62 147.717 139.006C143.108 134.432 135.791 131.585 128.13 129.859C120.519 128.146 112.824 127.594 107.702 127.435L107.691 127.434L107.681 127.434C107.606 127.431 107.446 127.424 107.287 127.394C107.241 127.386 107.148 127.367 107.035 127.329C106.996 127.316 106.634 127.205 106.322 126.871C106.13 126.666 105.882 126.294 105.863 125.772C105.843 125.251 106.061 124.865 106.232 124.649C106.514 124.296 106.859 124.157 106.897 124.141C107.078 124.062 107.237 124.031 107.262 124.026C107.321 124.014 107.373 124.006 107.408 124.001C107.479 123.99 107.548 123.983 107.599 123.979L107.65 123.974L107.702 123.972C112.824 123.813 120.519 123.261 128.13 121.547C135.791 119.822 143.108 116.975 147.717 112.401C152.255 107.898 155.108 100.791 156.855 93.3121C158.591 85.8807 159.18 78.3283 159.363 73.1691C159.365 73.1038 159.372 72.8624 159.447 72.6111C159.469 72.5352 159.516 72.3948 159.608 72.2357C159.688 72.0964 159.894 71.7811 160.306 71.5661C160.807 71.3041 161.356 71.3229 161.791 71.5086C162.147 71.6603 162.356 71.8893 162.44 71.9898C162.613 72.1963 162.696 72.397 162.717 72.4454C162.751 72.5277 162.775 72.5994 162.789 72.6447C162.817 72.7374 162.837 72.8232 162.85 72.884L162.879 73.0251L162.884 73.1691C163.067 78.3283 163.656 85.8807 165.392 93.3121C167.139 100.791 169.992 107.898 174.53 112.401C178.967 116.804 185.915 119.609 193.276 121.353C200.593 123.086 208.081 123.717 213.372 123.93L213.424 123.933L213.475 123.938C213.596 123.95 213.849 123.976 214.095 124.06C214.168 124.084 214.297 124.133 214.444 124.219C214.564 124.291 214.867 124.487 215.081 124.876Z" fill="#FFD700"/>
<path d="M135.439 184.056C135.643 184.427 135.647 184.863 135.47 185.229C135.332 185.516 135.125 185.672 135.043 185.729C134.869 185.851 134.703 185.902 134.663 185.915C134.594 185.937 134.533 185.951 134.491 185.96C134.428 185.974 134.366 185.984 134.313 185.991L134.263 185.998L134.21 186.004L134.157 186.006C130.189 186.166 124.573 186.639 119.085 187.939C113.564 189.247 108.353 191.351 105.025 194.653C101.538 198.114 99.3791 203.623 98.0789 209.376C96.7873 215.09 96.3845 220.85 96.2731 224.627C96.2721 224.661 96.2702 224.707 96.2672 224.751C96.2657 224.773 96.2633 224.804 96.2594 224.838C96.2579 224.852 96.2484 224.945 96.2187 225.052C96.2098 225.085 96.193 225.141 96.1649 225.208C96.1431 225.26 96.0814 225.402 95.9541 225.55C95.8352 225.688 95.4822 226.028 94.9043 225.998C94.3567 225.969 94.0502 225.626 93.9591 225.512C93.7801 225.286 93.7254 225.05 93.7254 225.05C93.7084 224.988 93.6993 224.936 93.6951 224.911C93.6804 224.822 93.6738 224.728 93.6702 224.672L93.6687 224.65L93.6681 224.627C93.5568 220.85 93.1539 215.09 91.8624 209.376C90.5621 203.623 88.4035 198.114 84.916 194.653C81.4587 191.223 75.9714 189.087 70.2253 187.794C64.517 186.508 58.746 186.094 54.9041 185.975L54.8963 185.975L54.8885 185.974C54.8324 185.972 54.7125 185.967 54.5931 185.944C54.5589 185.938 54.4886 185.924 54.4042 185.896C54.3749 185.886 54.1037 185.803 53.8691 185.552C53.7252 185.398 53.5395 185.119 53.5249 184.728C53.5103 184.338 53.6735 184.048 53.8022 183.886C54.0132 183.621 54.2724 183.517 54.3008 183.504C54.4363 183.446 54.5559 183.422 54.5744 183.418C54.6188 183.409 54.6579 183.403 54.6838 183.399C54.7371 183.392 54.7886 183.386 54.8271 183.383L54.8655 183.379L54.9041 183.378C58.746 183.259 64.517 182.845 70.2253 181.56C75.9714 180.266 81.4587 178.13 84.916 174.7C88.3194 171.323 90.4588 165.992 91.7691 160.383C93.071 154.809 93.5132 149.145 93.6502 145.276C93.652 145.227 93.6569 145.046 93.713 144.857C93.73 144.8 93.7651 144.695 93.8338 144.576C93.8939 144.471 94.0483 144.235 94.3571 144.073C94.7334 143.877 95.1452 143.891 95.4714 144.03C95.7378 144.144 95.8946 144.316 95.9577 144.391C96.0876 144.546 96.1501 144.697 96.1655 144.733C96.1915 144.795 96.2091 144.849 96.2195 144.882C96.2408 144.952 96.2556 145.016 96.2651 145.062L96.2871 145.168L96.291 145.276C96.428 149.145 96.8702 154.809 98.1721 160.383C99.4824 165.992 101.622 171.323 105.025 174.7C108.353 178.002 113.564 180.106 119.085 181.414C124.573 182.714 130.189 183.187 134.157 183.347L134.196 183.348L134.234 183.352C134.325 183.361 134.515 183.381 134.699 183.444C134.754 183.462 134.851 183.499 134.961 183.563C135.051 183.617 135.278 183.764 135.439 184.056Z" fill="#FFD700"/>
</svg>
