<svg width="1252" height="1243" viewBox="0 0 1252 1243" fill="none" xmlns="http://www.w3.org/2000/svg">
<path d="M612.036 3.30854C617.691 0.219473 624.345 0.163073 629.917 2.831C634.297 4.92841 636.674 8.05344 637.55 9.29779C639.4 11.9262 640.189 14.4431 640.381 15.04C640.715 16.0828 640.934 17.0131 641.068 17.6406C641.275 18.6037 641.429 19.5436 641.542 20.3456L641.642 21.0976L641.741 21.8994L641.773 22.706C644.213 82.733 651.425 167.69 671.242 250.7C691.181 334.223 723.262 413.056 773.603 463.396C826.359 516.153 910.351 548.808 998.057 568.477C1085.17 588.015 1172.99 594.11 1230.57 595.794H1230.58L1230.59 595.795C1231.11 595.811 1231.78 595.838 1232.46 595.884C1232.79 595.906 1233.26 595.943 1233.79 596.002C1233.99 596.025 1235.41 596.169 1237.05 596.617C1237.54 596.752 1238.4 597.006 1239.43 597.432C1240.22 597.76 1242.38 598.695 1244.63 600.62C1246.74 602.419 1251.92 607.759 1251.46 616.501C1251.02 624.785 1245.8 629.422 1244.05 630.8C1240.62 633.507 1237.06 634.323 1237.01 634.335C1236.07 634.593 1235.28 634.73 1234.9 634.793C1233.55 635.017 1232.11 635.115 1231.25 635.171L1230.91 635.192L1230.57 635.202C1172.99 636.886 1085.17 642.981 998.057 662.518C910.351 682.188 826.359 714.844 773.603 767.601C721.301 819.902 688.747 902.911 669.021 989.837C649.424 1076.19 643.115 1163.49 641.294 1221.61L641.29 1221.73L641.285 1221.85C641.248 1222.7 641.168 1224.51 640.83 1226.32C640.733 1226.83 640.518 1227.9 640.084 1229.17C639.933 1229.62 638.671 1233.72 634.848 1237.27C632.503 1239.44 628.252 1242.25 622.281 1242.47C616.332 1242.7 611.911 1240.23 609.447 1238.28C605.406 1235.09 603.82 1231.17 603.632 1230.74C602.734 1228.69 602.379 1226.88 602.32 1226.6C602.18 1225.93 602.087 1225.33 602.03 1224.94C601.913 1224.14 601.832 1223.36 601.778 1222.78L601.725 1222.19L601.706 1221.61C599.885 1163.49 593.576 1076.19 573.979 989.837C554.253 902.911 521.699 819.902 469.398 767.601C417.913 716.115 336.652 683.751 251.133 663.93C166.162 644.235 79.8063 637.546 20.8154 635.473L20.8018 635.472H20.7881C20.0411 635.444 17.309 635.372 14.4355 634.522C13.5673 634.266 11.9618 633.734 10.1426 632.695C8.55012 631.786 4.94494 629.451 2.48633 624.779C-0.509585 619.086 -0.294316 612.856 1.8291 607.922C3.56306 603.892 6.18217 601.521 7.33105 600.565C9.69259 598.601 11.9875 597.655 12.541 597.423C13.4821 597.029 14.3018 596.763 14.8193 596.605C15.879 596.283 16.8602 596.059 17.5557 595.915L19.1689 595.582L20.8154 595.524C79.8063 593.451 166.162 586.762 251.133 567.067C336.652 547.246 417.913 514.882 469.398 463.396C519.739 413.056 551.82 334.223 571.759 250.7C591.576 167.69 598.787 82.733 601.227 22.706L601.251 22.1162L601.311 21.5292C601.45 20.1596 601.752 17.2882 602.705 14.4999C602.988 13.6732 603.541 12.2006 604.531 10.5439C605.349 9.1751 607.591 5.73636 612.036 3.30854ZM621.5 202.671C618.149 221.565 614.243 240.693 609.692 259.757C589.187 345.649 554.973 432.976 496.976 490.974C437.696 550.254 347.752 584.706 259.938 605.06C242.804 609.031 225.641 612.487 208.666 615.498C225.641 618.509 242.804 621.965 259.938 625.936C347.752 646.289 437.696 680.743 496.976 740.023C557.168 800.216 591.778 892.041 612.013 981.206C615.588 996.96 618.732 1012.72 621.5 1028.33C624.268 1012.72 627.413 996.96 630.988 981.206C651.223 892.041 685.833 800.216 746.025 740.023C806.728 679.321 899.609 644.629 989.521 624.464C1004.51 621.103 1019.49 618.13 1034.33 615.498C1019.49 612.866 1004.51 609.893 989.521 606.532C899.609 586.367 806.728 551.676 746.025 490.974C688.028 432.976 653.813 345.649 633.308 259.757C628.757 240.693 624.851 221.565 621.5 202.671Z" fill="#FFD700"/>
</svg>
