<svg width="854" height="848" viewBox="0 0 854 848" fill="none" xmlns="http://www.w3.org/2000/svg">
<path d="M417.564 1.64076C421.424 -0.469068 425.965 -0.50759 429.768 1.3146C432.758 2.74713 434.379 4.88153 434.977 5.73142C436.24 7.52659 436.779 9.24565 436.91 9.65333C437.138 10.3656 437.287 11.0009 437.379 11.4295C437.52 12.0874 437.625 12.7293 437.702 13.2771L437.77 13.7907L437.838 14.3383L437.86 14.8892C439.525 55.8877 444.448 113.913 457.973 170.609C471.582 227.655 493.477 281.498 527.835 315.881C563.843 351.913 621.168 374.216 681.029 387.651C740.488 400.995 800.421 405.158 839.722 406.308H839.728L839.735 406.309C840.091 406.319 840.551 406.338 841.013 406.369C841.238 406.385 841.56 406.41 841.92 406.45C842.059 406.466 843.023 406.564 844.144 406.87C844.482 406.962 845.068 407.136 845.767 407.426C846.308 407.651 847.78 408.289 849.321 409.604C850.76 410.833 854.296 414.48 853.98 420.451C853.681 426.109 850.116 429.276 848.923 430.217C846.579 432.066 844.153 432.623 844.121 432.631C843.473 432.808 842.938 432.901 842.679 432.944C841.753 433.097 840.775 433.165 840.187 433.202L839.954 433.217L839.722 433.224C800.421 434.374 740.488 438.536 681.029 451.881C621.168 465.315 563.843 487.619 527.835 523.652C492.139 559.373 469.92 616.069 456.457 675.439C443.082 734.418 438.776 794.045 437.533 833.74L437.53 833.821L437.527 833.901C437.502 834.481 437.447 835.72 437.216 836.954C437.15 837.307 437.003 838.033 436.707 838.905C436.604 839.209 435.742 842.01 433.133 844.434C431.533 845.921 428.632 847.839 424.556 847.991C420.496 848.141 417.478 846.455 415.797 845.126C413.039 842.945 411.956 840.267 411.828 839.974C411.215 838.574 410.973 837.338 410.933 837.147C410.837 836.688 410.774 836.284 410.735 836.017C410.655 835.466 410.599 834.934 410.563 834.536L410.526 834.139L410.513 833.74C409.27 794.045 404.964 734.418 391.59 675.439C378.126 616.069 355.908 559.373 320.211 523.652C285.072 488.487 229.61 466.383 171.242 452.845C113.248 439.393 54.309 434.825 14.0469 433.408L14.0375 433.408H14.0282C13.5184 433.389 11.6537 433.34 9.69251 432.76C9.0999 432.584 8.00416 432.221 6.7625 431.512C5.67562 430.89 3.21503 429.296 1.53699 426.105C-0.507764 422.216 -0.36084 417.962 1.08842 414.591C2.27188 411.839 4.05946 410.22 4.84359 409.567C6.45537 408.225 8.02169 407.579 8.39947 407.42C9.04175 407.151 9.60122 406.97 9.95445 406.862C10.6777 406.642 11.3474 406.489 11.822 406.391L12.9231 406.163L14.0469 406.124C54.309 404.708 113.248 400.139 171.242 386.688C229.61 373.15 285.072 351.045 320.211 315.881C354.57 281.498 376.465 227.655 390.074 170.609C403.599 113.913 408.521 55.8876 410.186 14.8892L410.203 14.4864L410.243 14.0855C410.338 13.15 410.545 11.1888 411.195 9.28449C411.388 8.71984 411.766 7.71405 412.442 6.5825C413 5.64762 414.53 3.29896 417.564 1.64076ZM424.023 137.805C421.736 150.71 419.07 163.774 415.964 176.795C401.969 235.459 378.617 295.103 339.033 334.716C298.574 375.204 237.186 398.735 177.252 412.636C165.557 415.349 153.843 417.71 142.258 419.766C153.843 421.822 165.557 424.183 177.252 426.895C237.186 440.796 298.574 464.328 339.033 504.817C380.116 545.928 403.738 608.645 417.548 669.544C419.988 680.304 422.134 691.071 424.023 701.73C425.912 691.071 428.059 680.304 430.499 669.544C444.309 608.645 467.931 545.928 509.014 504.817C550.444 463.357 613.837 439.662 675.203 425.889C685.43 423.594 695.658 421.564 705.788 419.766C695.658 417.968 685.43 415.937 675.203 413.642C613.837 399.87 550.444 376.175 509.014 334.716C469.429 295.103 446.077 235.459 432.082 176.795C428.976 163.774 426.31 150.71 424.023 137.805Z" fill="#FFD700"/>
</svg>
