<svg width="1128" height="1120" viewBox="0 0 1128 1120" fill="none" xmlns="http://www.w3.org/2000/svg">
<path d="M551.536 2.16704C556.635 -0.619524 562.633 -0.670401 567.656 1.73627C571.605 3.62828 573.747 6.4473 574.537 7.5698C576.205 9.94077 576.916 12.2112 577.089 12.7497C577.391 13.6904 577.588 14.5295 577.709 15.0956C577.895 15.9645 578.034 16.8123 578.136 17.5358L578.226 18.2141L578.315 18.9374L578.344 19.665C580.544 73.8139 587.046 150.451 604.91 225.333C622.885 300.677 651.806 371.79 697.188 417.201C744.748 464.791 820.466 494.248 899.532 511.992C978.068 529.616 1057.23 535.114 1109.14 536.633H1109.15L1109.16 536.634C1109.63 536.648 1110.24 536.673 1110.85 536.714C1111.14 536.734 1111.57 536.767 1112.04 536.821C1112.23 536.842 1113.5 536.971 1114.98 537.376C1115.43 537.498 1116.2 537.727 1117.13 538.11C1117.84 538.407 1119.78 539.25 1121.82 540.987C1123.72 542.609 1128.39 547.426 1127.97 555.312C1127.58 562.785 1122.87 566.968 1121.29 568.211C1118.2 570.653 1114.99 571.389 1114.95 571.4C1114.1 571.633 1113.39 571.757 1113.05 571.813C1111.82 572.015 1110.53 572.104 1109.75 572.154L1109.45 572.173L1109.14 572.182C1057.23 573.702 978.068 579.199 899.532 596.824C820.466 614.567 744.748 644.025 697.188 691.616C650.038 738.795 620.691 813.676 602.907 892.089C585.242 969.986 579.554 1048.74 577.912 1101.17L577.909 1101.27L577.904 1101.38C577.871 1102.15 577.798 1103.78 577.494 1105.41C577.407 1105.88 577.213 1106.84 576.821 1107.99C576.685 1108.39 575.547 1112.09 572.101 1115.29C569.988 1117.25 566.155 1119.79 560.772 1119.99C555.409 1120.19 551.423 1117.96 549.202 1116.2C545.56 1113.32 544.13 1109.79 543.96 1109.4C543.15 1107.55 542.83 1105.92 542.778 1105.67C542.651 1105.06 542.567 1104.53 542.516 1104.17C542.41 1103.45 542.337 1102.74 542.289 1102.22L542.241 1101.69L542.224 1101.17C540.582 1048.74 534.894 969.986 517.228 892.089C499.445 813.676 470.098 738.795 422.949 691.616C376.535 645.172 303.279 615.977 226.184 598.097C149.583 580.331 71.7337 574.297 18.5537 572.426L18.5414 572.425H18.5291C17.8557 572.401 15.3927 572.335 12.8023 571.569C12.0195 571.338 10.5722 570.858 8.9322 569.921C7.4966 569.1 4.24655 566.994 2.03012 562.78C-0.670677 557.644 -0.476613 552.025 1.43764 547.573C3.00079 543.938 5.36191 541.799 6.39762 540.937C8.52653 539.166 10.5954 538.312 11.0944 538.103C11.9427 537.747 12.6817 537.507 13.1483 537.365C14.1036 537.075 14.9881 536.872 15.6151 536.742L17.0694 536.442L18.5537 536.39C71.7337 534.52 149.583 528.485 226.184 510.72C303.279 492.839 376.535 463.644 422.949 417.201C468.331 371.79 497.251 300.677 515.226 225.333C533.091 150.451 539.592 73.8139 541.792 19.665L541.814 19.1329L541.867 18.6035C541.993 17.3679 542.265 14.7777 543.124 12.2625C543.379 11.5168 543.878 10.1884 544.771 8.69387C545.508 7.45912 547.529 4.35712 551.536 2.16704ZM560.068 182.007C557.047 199.051 553.526 216.306 549.423 233.503C530.938 310.984 500.094 389.759 447.81 442.077C394.369 495.552 313.285 526.631 234.122 544.991C218.675 548.574 203.203 551.692 187.9 554.408C203.203 557.124 218.675 560.242 234.122 563.824C313.285 582.184 394.369 613.264 447.81 666.739C502.073 721.037 533.274 803.871 551.515 884.304C554.738 898.515 557.573 912.736 560.068 926.813C562.563 912.736 565.399 898.515 568.622 884.304C586.863 803.87 618.063 721.037 672.327 666.739C727.05 611.981 810.782 580.686 891.838 562.496C905.345 559.464 918.855 556.782 932.236 554.408C918.855 552.033 905.345 549.351 891.838 546.32C810.782 528.13 727.05 496.835 672.327 442.077C620.042 389.759 589.198 310.984 570.712 233.503C566.61 216.306 563.089 199.051 560.068 182.007Z" fill="#FFD700"/>
</svg>
