<svg width="387" height="365" viewBox="0 0 387 365" fill="none" xmlns="http://www.w3.org/2000/svg">
<path d="M0 210.205V116.755C0 52.2731 52.2794 3.80573e-06 116.769 0V27.9197C67.7009 27.9197 27.9231 67.6927 27.9231 116.755V210.205C27.9231 259.076 67.3907 298.73 116.195 299.039L125.653 299.041C131.555 299.041 127.664 317.323 122.975 333.868L122.949 333.969C122.455 336.029 124.824 337.741 126.628 336.628L126.714 336.572C142.05 326.219 185.563 299.253 223.058 299.042L223.499 299.041H270.231C319.107 299.041 358.766 259.578 359.075 210.78L359.077 210.205V116.755C359.077 67.6927 319.299 27.9197 270.231 27.9197V0C334.721 0 387 52.2731 387 116.755V210.205C387 274.688 334.721 326.961 270.231 326.961H223.499C210.657 326.961 194.653 331.821 178.453 339.273C163.241 346.271 150.172 354.462 143.014 359.258L142.34 359.711C118.967 375.492 88.3915 353.489 96.1098 326.256L96.3218 325.505C96.3512 325.4 96.3801 325.296 96.4093 325.191C41.6257 315.56 0 267.743 0 210.205ZM270.231 0V27.9197H116.769V0H270.231Z" fill="black"/>
<path d="M0 210.205V116.755C0 52.2731 52.2794 3.80573e-06 116.769 0V27.9197C67.7009 27.9197 27.9231 67.6927 27.9231 116.755V210.205C27.9231 259.076 67.3907 298.73 116.195 299.039L125.653 299.041C131.555 299.041 127.664 317.323 122.975 333.868L122.949 333.969C122.455 336.029 124.824 337.741 126.628 336.628L126.714 336.572C142.05 326.219 185.563 299.253 223.058 299.042L223.499 299.041H270.231C319.107 299.041 358.766 259.578 359.075 210.78L359.077 210.205V116.755C359.077 67.6927 319.299 27.9197 270.231 27.9197V0C334.721 0 387 52.2731 387 116.755V210.205C387 274.688 334.721 326.961 270.231 326.961H223.499C210.657 326.961 194.653 331.821 178.453 339.273C163.241 346.271 150.172 354.462 143.014 359.258L142.34 359.711C118.967 375.492 88.3915 353.489 96.1098 326.256L96.3218 325.505C96.3512 325.4 96.3801 325.296 96.4093 325.191C41.6257 315.56 0 267.743 0 210.205ZM270.231 0V27.9197H116.769V0H270.231Z" fill="black" fill-opacity="0.2"/>
<path d="M270.231 192.092L270.465 192.094C280.362 192.219 288.346 200.28 288.346 210.205C288.346 220.131 280.362 228.192 270.465 228.317L270.231 228.319H91.8462C81.8413 228.319 73.7308 220.209 73.7308 210.205C73.7308 200.202 81.8413 192.092 91.8462 192.092H270.231ZM202.269 98.642C212.274 98.642 220.385 106.752 220.385 116.755C220.385 126.759 212.274 134.868 202.269 134.868H91.8462C81.8413 134.868 73.7308 126.759 73.7308 116.755C73.7308 106.752 81.8413 98.642 91.8462 98.642H202.269Z" fill="black"/>
</svg>
