<svg width="167" height="167" viewBox="0 0 167 167" fill="none" xmlns="http://www.w3.org/2000/svg">
<circle cx="83.5" cy="83.5" r="83.5" fill="#2A5073"/>
<path d="M49 64.1049C49 60.9578 50.6439 58.0393 53.3353 56.4081L68.3353 47.3172C74.3332 43.6821 82 48.0005 82 55.014V111.057C82 118.071 74.3332 122.389 68.3353 118.754L53.3353 109.663C50.6439 108.032 49 105.113 49 101.966V64.1049Z" fill="white"/>
<path d="M30 73.0352C30 68.6169 33.5817 65.0352 38 65.0352H60V101.035H38C33.5817 101.035 30 97.4534 30 93.0352V73.0352Z" fill="white"/>
<path d="M85.5773 96.8973L116.898 65.5763C118.206 64.2689 120.325 64.2689 121.633 65.5763C122.94 66.8837 122.94 69.0034 121.633 70.3108L90.3119 101.632C89.0045 102.939 86.8848 102.939 85.5773 101.632C84.2699 100.324 84.2699 98.2047 85.5773 96.8973Z" fill="white"/>
<path d="M116.688 101.423L85.3673 70.1017C84.0599 68.7942 84.0599 66.6745 85.3673 65.3671C86.6747 64.0597 88.7944 64.0597 90.1019 65.3671L121.423 96.6881C122.73 97.9955 122.73 100.115 121.423 101.423C120.115 102.73 117.996 102.73 116.688 101.423Z" fill="white"/>
</svg>
