<svg width="167" height="167" viewBox="0 0 167 167" fill="none" xmlns="http://www.w3.org/2000/svg">
<circle cx="83.5" cy="83.5" r="83.5" fill="#2A5073"/>
<path d="M48 64.0698C48 60.9227 49.6439 58.0041 52.3353 56.373L67.3353 47.2821C73.3332 43.647 81 47.9653 81 54.9789V111.022C81 118.036 73.3332 122.354 67.3353 118.719L52.3353 109.628C49.6439 107.997 48 105.078 48 101.931V64.0698Z" fill="white"/>
<path d="M29 73C29 68.5817 32.5817 65 37 65H59V101H37C32.5817 101 29 97.4183 29 93V73Z" fill="white"/>
<path d="M109.628 60.4751C108.261 59.1083 108.261 56.8922 109.628 55.5254C110.995 54.1585 113.211 54.1585 114.578 55.5254C129.808 70.7558 129.808 95.4493 114.578 110.68C113.211 112.047 110.995 112.047 109.628 110.68C108.261 109.313 108.261 107.097 109.628 105.73C122.125 93.2332 122.125 72.9719 109.628 60.4751Z" fill="white"/>
<path d="M99.6794 70.4744C98.3126 69.1076 98.3126 66.8915 99.6794 65.5247C101.046 64.1581 103.262 64.1579 104.629 65.5247C114.365 75.2606 114.365 91.046 104.629 100.782C103.262 102.149 101.046 102.149 99.6794 100.782C98.3126 99.4151 98.3126 97.199 99.6794 95.8322C106.682 88.83 106.682 77.4767 99.6794 70.4744Z" fill="white"/>
</svg>
